<?xml version="1.0" encoding="iso-8859-1"?>
<!-- Generator: Adobe Illustrator 19.0.0, SVG Export Plug-In . SVG Version: 6.00 Build 0)  -->
<svg version="1.1" id="Layer_1" xmlns="http://www.w3.org/2000/svg" xmlns:xlink="http://www.w3.org/1999/xlink" x="0px" y="0px"
	 viewBox="0 0 512 512" style="enable-background:new 0 0 512 512;" xml:space="preserve">
<path style="fill:#FDCE6E;" d="M256,188.485c-135.17,0-244.747,109.577-244.747,244.747h489.495
	C500.747,298.062,391.17,188.485,256,188.485z"/>
<path style="fill:#FD7555;" d="M374.154,206.088v10.287l36.571,284.374h33.758c37.288,0,67.516-30.228,67.516-67.516
	C512,334.47,456.065,248.783,374.154,206.088z"/>
<path style="fill:#FDA162;" d="M478.242,433.232c0-91.371-41.559-171.558-104.088-216.857v112.769
	c0,9.322-7.557,16.879-16.879,16.879s-16.879-7.557-16.879-16.879V191.49c-21.358-7.456-44.003-12.157-67.517-13.689v151.344
	c0,9.322-7.557,16.879-16.879,16.879c-9.322,0-16.879-7.557-16.879-16.879V177.801c-23.514,1.531-46.159,6.233-67.516,13.689
	v137.655c0,9.322-7.557,16.879-16.879,16.879s-16.879-7.557-16.879-16.879V206.088C55.935,248.783,0,334.47,0,433.232
	c0,37.288,30.228,67.516,67.516,67.516h343.209C448.014,500.749,478.242,470.521,478.242,433.232z"/>
<g>
	<circle style="fill:#FD7555;" cx="42.198" cy="424.792" r="8.44"/>
	<circle style="fill:#FD7555;" cx="75.956" cy="458.55" r="8.44"/>
	<circle style="fill:#FD7555;" cx="447.297" cy="424.792" r="8.44"/>
</g>
<g>
	<path style="fill:#FFCFB2;" d="M284.132,112.53c0-13.321,3.433-19.616,7.409-26.903c4.439-8.138,9.47-17.363,9.47-34.987
		c0-17.622-5.031-26.843-9.47-34.981l-0.005,0.002v-0.009h0.001h-0.001V15.65c-2.233-4.09-7.357-5.6-11.452-3.363
		c-4.092,2.233-5.597,7.36-3.363,11.452l0.003,0.003l-0.001,0.001c3.976,7.287,7.409,13.58,7.409,26.897
		c0,13.321-3.433,19.616-7.409,26.903c-4.439,8.138-9.47,17.363-9.47,34.987c0,17.623,5.031,26.847,9.47,34.986
		c1.531,2.809,4.428,4.399,7.417,4.399c1.365,0,2.75-0.332,4.034-1.032c4.091-2.231,5.599-7.358,3.367-11.451
		C287.565,132.145,284.132,125.85,284.132,112.53z"/>
	<path style="fill:#FFCFB2;" d="M227.868,112.53c0-13.321,3.433-19.616,7.409-26.903c4.439-8.138,9.47-17.363,9.47-34.987
		c0-17.622-5.031-26.843-9.47-34.981l-0.005,0.002v-0.009h0.001h-0.001V15.65c-2.233-4.09-7.357-5.6-11.452-3.363
		c-4.091,2.233-5.597,7.36-3.363,11.452l0.003,0.003l-0.001,0.001c3.976,7.287,7.409,13.58,7.409,26.897
		c0,13.321-3.433,19.616-7.409,26.903c-4.439,8.138-9.47,17.363-9.47,34.987c0,17.623,5.031,26.847,9.47,34.986
		c1.531,2.809,4.428,4.399,7.417,4.399c1.365,0,2.75-0.332,4.034-1.032c4.092-2.231,5.599-7.358,3.367-11.451
		C231.301,132.145,227.868,125.85,227.868,112.53z"/>
</g>
<g>
</g>
<g>
</g>
<g>
</g>
<g>
</g>
<g>
</g>
<g>
</g>
<g>
</g>
<g>
</g>
<g>
</g>
<g>
</g>
<g>
</g>
<g>
</g>
<g>
</g>
<g>
</g>
<g>
</g>
</svg>
