<?xml version="1.0" encoding="iso-8859-1"?>
<!-- Generator: Adobe Illustrator 19.0.0, SVG Export Plug-In . SVG Version: 6.00 Build 0)  -->
<svg version="1.1" id="Layer_1" xmlns="http://www.w3.org/2000/svg" xmlns:xlink="http://www.w3.org/1999/xlink" x="0px" y="0px"
	 viewBox="0 0 512 512" style="enable-background:new 0 0 512 512;" xml:space="preserve">
<polygon style="fill:#FD7555;" points="458.032,307.2 402.681,262.919 402.681,440.043 458.032,440.043 "/>
<rect x="76.108" y="262.919" style="fill:#FDA162;" width="348.714" height="177.124"/>
<polygon style="fill:#FE9F88;" points="76.108,157.751 76.108,224.173 424.822,307.2 458.032,307.2 458.032,224.173 
	458.032,157.751 "/>
<path style="fill:#FEC8BB;" d="M401.885,202.032c-28.07,0-28.07,22.141-56.14,22.141c-28.074,0-28.074-22.141-56.147-22.141
	c-28.07,0-28.07,22.141-56.14,22.141c-28.074,0-28.074-22.141-56.147-22.141c-28.07,0-28.07,22.141-56.14,22.141H76.108V307.2
	h348.714v-97.993C419.177,205.237,412.562,202.032,401.885,202.032z"/>
<circle style="fill:#FE9F88;" cx="228.324" cy="265.686" r="8.303"/>
<g>
	<circle style="fill:#FD7555;" cx="383.308" cy="381.924" r="8.303"/>
	<circle style="fill:#FD7555;" cx="161.903" cy="348.714" r="8.303"/>
	<circle style="fill:#FD7555;" cx="128.692" cy="381.924" r="8.303"/>
</g>
<path style="fill:#668A30;" d="M162.32,2.431c-3.244-3.241-8.5-3.241-11.742,0c-3.242,3.244-3.242,8.5,0,11.742
	c7.304,7.303,11.325,17.012,11.325,27.339v22.141h16.605V41.512C178.508,26.75,172.758,12.87,162.32,2.431z"/>
<path style="fill:#EF431D;" d="M170.205,41.514v99.632c27.513,0,49.816-22.303,49.816-49.816S197.718,41.514,170.205,41.514z"/>
<path style="fill:#FD7555;" d="M186.811,91.33c0-27.513-7.435-49.816-16.605-49.816c-27.513,0-49.816,22.303-49.816,49.816
	s22.303,49.816,49.816,49.816C179.376,141.146,186.811,118.842,186.811,91.33z"/>
<path style="fill:#975D50;" d="M458.032,124.541l-22.141,33.211l22.141,33.211c18.342,0,33.211-14.868,33.211-33.211
	S476.374,124.541,458.032,124.541z"/>
<path style="fill:#B1786B;" d="M87.178,124.541c-18.266,0-33.211,14.945-33.211,33.211v199.265
	c-18.342,0-33.211,14.868-33.211,33.211c0,18.342,14.868,33.211,33.211,33.211h33.211V190.962h33.993
	c28.07,0,28.07-22.141,56.14-22.141c28.073,0,28.073,22.141,56.147,22.141c28.07,0,28.07-22.141,56.14-22.141
	c21.087,0,26.336,12.489,39.539,18.708c0,26.292,0,128.524,0,136.276c0,9.171,7.435,16.605,16.605,16.605
	c9.171,0,16.605-7.435,16.605-16.605c0-7.753,0-109.98,0-136.274c13.205-6.217,18.452-18.71,39.539-18.71
	c28.073,0,28.073,22.141,56.147,22.141v-66.422H87.178z"/>
<path style="fill:#5CA8D3;" d="M446.962,440.043L389.765,512h33.211c18.266,0,37.937-14.178,43.713-31.506l13.484-40.451H446.962z"
	/>
<path style="fill:#99D9FF;" d="M31.827,440.043l13.484,40.451C51.087,497.822,70.758,512,89.024,512h300.743
	c18.266,0,37.937-14.178,43.713-31.506l13.484-40.451H31.827z"/>
<path style="fill:#CCECFF;" d="M491.243,423.438H20.757c-9.171,0-16.605,7.435-16.605,16.605c0,9.171,7.435,16.605,16.605,16.605
	h470.487c9.171,0,16.605-7.435,16.605-16.605C507.849,430.873,500.414,423.438,491.243,423.438z"/>
<g>
</g>
<g>
</g>
<g>
</g>
<g>
</g>
<g>
</g>
<g>
</g>
<g>
</g>
<g>
</g>
<g>
</g>
<g>
</g>
<g>
</g>
<g>
</g>
<g>
</g>
<g>
</g>
<g>
</g>
</svg>
