<?xml version="1.0" encoding="iso-8859-1"?>
<!-- Generator: Adobe Illustrator 19.0.0, SVG Export Plug-In . SVG Version: 6.00 Build 0)  -->
<svg version="1.1" id="Layer_1" xmlns="http://www.w3.org/2000/svg" xmlns:xlink="http://www.w3.org/1999/xlink" x="0px" y="0px"
	 viewBox="0 0 512 512" style="enable-background:new 0 0 512 512;" xml:space="preserve">
<polygon style="fill:#FD7555;" points="478.242,379.78 444.484,424.791 478.242,469.802 512,469.802 512,444.484 500.747,436.044 
	512,427.604 512,379.78 "/>
<polygon style="fill:#FDA162;" points="0,379.78 0,405.099 11.253,413.538 0,421.978 0,469.802 478.242,469.802 478.242,379.78 "/>
<path style="fill:#FEFDCA;" d="M256.739,416.384C193.629,410.837,128.37,405.099,0,405.099v16.879
	c127.63,0,192.514,5.704,255.261,11.22c63.111,5.548,128.369,11.285,256.739,11.285v-16.879
	C384.37,427.604,319.487,421.9,256.739,416.384z"/>
<polygon style="fill:#FDCE6E;" points="444.484,42.198 410.725,194.11 444.484,346.022 478.242,346.022 478.242,42.198 "/>
<path style="fill:#FDFA7B;" d="M33.758,42.198v118.154c27.966,0,50.637,22.671,50.637,50.637s-22.671,50.637-50.637,50.637v84.396
	H185.67l50.637-16.879l50.637,16.879h157.538V42.198H33.758z"/>
<path style="fill:#FDA162;" d="M410.725,227.868l-11.253,33.758l11.253,33.758c18.645,0,33.758-15.114,33.758-33.758
	S429.37,227.868,410.725,227.868z"/>
<path style="fill:#FDCE6E;" d="M376.967,261.626c0,18.645,15.114,33.758,33.758,33.758v-67.516
	C392.081,227.868,376.967,242.982,376.967,261.626z"/>
<path style="fill:#FDA162;" d="M236.308,295.385l16.879,50.637h33.758C286.945,318.056,264.274,295.385,236.308,295.385z"/>
<path style="fill:#FDCE6E;" d="M236.308,295.385c-27.966,0-50.637,22.671-50.637,50.637h67.516
	C253.187,318.056,245.629,295.385,236.308,295.385z"/>
<path style="fill:#FDA162;" d="M151.912,177.231l-11.253,33.758l11.253,33.758c18.645,0,33.758-15.114,33.758-33.758
	S170.557,177.231,151.912,177.231z"/>
<path style="fill:#FDCE6E;" d="M118.154,210.989c0,18.645,15.114,33.758,33.758,33.758v-67.516
	C133.267,177.231,118.154,192.344,118.154,210.989z"/>
<path style="fill:#FDA162;" d="M281.319,75.956v101.275c27.966,0,50.637-22.671,50.637-50.637S309.285,75.956,281.319,75.956z"/>
<g>
	<path style="fill:#FDCE6E;" d="M298.198,126.593c0-27.966-7.557-50.637-16.879-50.637c-27.966,0-50.637,22.671-50.637,50.637
		s22.671,50.637,50.637,50.637C290.64,177.231,298.198,154.56,298.198,126.593z"/>
	<circle style="fill:#FDCE6E;" cx="413.538" cy="118.154" r="8.44"/>
	<circle style="fill:#FDCE6E;" cx="379.78" cy="151.912" r="8.44"/>
	<circle style="fill:#FDCE6E;" cx="109.714" cy="101.275" r="8.44"/>
	<circle style="fill:#FDCE6E;" cx="317.89" cy="270.066" r="8.44"/>
</g>
<g>
</g>
<g>
</g>
<g>
</g>
<g>
</g>
<g>
</g>
<g>
</g>
<g>
</g>
<g>
</g>
<g>
</g>
<g>
</g>
<g>
</g>
<g>
</g>
<g>
</g>
<g>
</g>
<g>
</g>
</svg>
