<?xml version="1.0" encoding="iso-8859-1"?>
<!-- Generator: Adobe Illustrator 19.0.0, SVG Export Plug-In . SVG Version: 6.00 Build 0)  -->
<svg version="1.1" id="Layer_1" xmlns="http://www.w3.org/2000/svg" xmlns:xlink="http://www.w3.org/1999/xlink" x="0px" y="0px"
	 viewBox="0 0 512 512" style="enable-background:new 0 0 512 512;" xml:space="preserve">
<path style="fill:#FDCE6E;" d="M265.151,405.014l57.372,100.837c11.685-2.173,23.285-4.911,34.752-8.24l8.453-70.092
	L265.151,405.014z"/>
<path style="fill:#FDFA7B;" d="M146.273,427.52l8.452,70.092c54.589,15.85,112.17,18.587,167.798,8.24l11.056-91.675L146.273,427.52
	z"/>
<path style="fill:#FDA162;" d="M122.158,227.545l8.805,73.017l199.902,136.115c11.734-2.47,23.372-5.515,34.862-9.157
	l24.116-199.974H122.158V227.545z"/>
<g>
	<path style="fill:#FDCE6E;" d="M330.865,436.682L348.7,288.784c-3.664-1.899-7.255-3.953-10.744-6.194
		c-24.935,13.817-53.248,21.245-81.955,21.245c-28.707,0-57.02-7.428-81.955-21.245c-13.216,8.486-27.768,14.545-43.082,17.97
		l15.31,126.958C206.065,446.477,269.799,449.528,330.865,436.682z"/>
	<path style="fill:#FDCE6E;" d="M410.725,67.53v202.549c55.933,0,101.275-45.342,101.275-101.275S466.658,67.53,410.725,67.53z"/>
</g>
<path style="fill:#FDFA7B;" d="M478.242,168.804c0-55.933-30.228-101.275-67.517-101.275c-12.106,0-23.714,2.128-34.475,6.024
	C353.879,29.892,308.429,0.013,256,0.013s-97.879,29.879-120.25,73.54c-10.761-3.896-22.369-6.024-34.475-6.024
	C45.342,67.53,0,112.871,0,168.804s45.342,101.275,101.275,101.275c27.665,0,52.735-11.097,71.014-29.078
	C195.3,259.207,224.38,270.079,256,270.079s60.701-10.872,83.711-29.078c18.278,17.981,43.348,29.078,71.014,29.078
	C448.014,270.079,478.242,224.736,478.242,168.804z"/>
<g>
	<circle style="fill:#FDCE6E;" cx="92.835" cy="151.923" r="8.44"/>
	<circle style="fill:#FDCE6E;" cx="59.077" cy="185.681" r="8.44"/>
</g>
<g>
</g>
<g>
</g>
<g>
</g>
<g>
</g>
<g>
</g>
<g>
</g>
<g>
</g>
<g>
</g>
<g>
</g>
<g>
</g>
<g>
</g>
<g>
</g>
<g>
</g>
<g>
</g>
<g>
</g>
</svg>
