<?xml version="1.0" encoding="iso-8859-1"?>
<!-- Generator: Adobe Illustrator 19.0.0, SVG Export Plug-In . SVG Version: 6.00 Build 0)  -->
<svg version="1.1" id="Layer_1" xmlns="http://www.w3.org/2000/svg" xmlns:xlink="http://www.w3.org/1999/xlink" x="0px" y="0px"
	 viewBox="0 0 512.001 512.001" style="enable-background:new 0 0 512.001 512.001;" xml:space="preserve">
<g>
	<path style="fill:#FFCFB2;" d="M283.676,99.636c0-13.105,3.378-19.298,7.289-26.467c4.367-8.006,9.317-17.081,9.317-34.419
		c0-17.336-4.949-26.408-9.317-34.414l-0.004,0.002V4.329h0.001h-0.001V4.327c-2.196-4.024-7.238-5.51-11.266-3.309
		c-4.025,2.196-5.506,7.241-3.309,11.266l0.003,0.003l-0.001,0.001c3.911,7.169,7.289,13.36,7.289,26.461
		c0,13.105-3.378,19.298-7.289,26.467c-4.367,8.006-9.317,17.081-9.317,34.419c0,17.337,4.949,26.411,9.317,34.418
		c1.507,2.763,4.356,4.327,7.296,4.327c1.343,0,2.706-0.327,3.969-1.015c4.025-2.195,5.509-7.239,3.312-11.265
		C287.052,118.932,283.676,112.74,283.676,99.636z"/>
	<path style="fill:#FFCFB2;" d="M228.325,99.636c0-13.105,3.378-19.298,7.289-26.467c4.367-8.006,9.317-17.081,9.317-34.419
		c0-17.336-4.949-26.408-9.317-34.414l-0.004,0.002V4.329h0.001h-0.001V4.327c-2.196-4.024-7.238-5.51-11.266-3.309
		c-4.025,2.196-5.506,7.241-3.309,11.266l0.003,0.003l-0.001,0.001c3.911,7.169,7.289,13.36,7.289,26.461
		c0,13.105-3.378,19.298-7.289,26.467c-4.367,8.006-9.317,17.081-9.317,34.419c0,17.337,4.949,26.411,9.317,34.418
		c1.507,2.763,4.356,4.327,7.296,4.327c1.343,0,2.706-0.327,3.969-1.015c4.025-2.195,5.509-7.239,3.312-11.265
		C231.701,118.932,228.325,112.74,228.325,99.636z"/>
</g>
<path style="fill:#975D50;" d="M430.053,262.709l-67.405-22.14V456.65h95.384c0,0,0-80.017,0-91.329
	C458.032,327.858,447.823,292.784,430.053,262.709z"/>
<path style="fill:#B1786B;" d="M383.139,240.569l-256.909-0.002l-44.281,22.14c-17.771,30.077-27.98,65.151-27.98,102.615v66.421
	h363.656c0,0,0-43.151,0-66.421C417.625,318.239,404.741,274.919,383.139,240.569z"/>
<g>
	<path style="fill:#975D50;" d="M256,163.29c-74.115,0-138.896,39.917-174.051,99.416c1.748-0.211,3.604-0.338,5.621-0.338
		c28.071,0,28.071,22.14,56.141,22.14c28.07,0,28.07-22.14,56.139-22.14c28.071,0,28.071,22.14,56.141,22.14
		c28.07,0,28.07-22.14,56.139-22.14c28.071,0,28.071,22.14,56.141,22.14c28.07,0,28.07-22.14,56.139-22.14
		c2.025,0,3.888,0.127,5.641,0.341C394.898,203.208,330.115,163.29,256,163.29z"/>
	<circle style="fill:#975D50;" cx="101.015" cy="348.712" r="8.303"/>
	<circle style="fill:#975D50;" cx="134.226" cy="381.923" r="8.303"/>
</g>
<path style="fill:#FDA162;" d="M446.961,440.045l-57.196,71.956h33.211c18.266,0,37.936-14.178,43.713-31.506l13.483-40.451H446.961
	z"/>
<path style="fill:#FDCE6E;" d="M31.829,440.045l13.484,40.451c5.776,17.328,25.447,31.506,43.713,31.506h300.741
	c18.266,0,37.936-14.178,43.713-31.506l13.483-40.451H31.829z"/>
<g>
	<path style="fill:#FDFA7B;" d="M491.242,423.439H20.759c-9.171,0-16.605,7.435-16.605,16.605c0,9.171,7.435,16.605,16.605,16.605
		h470.483c9.171,0,16.605-7.435,16.605-16.605C507.848,430.874,500.413,423.439,491.242,423.439z"/>
	<path style="fill:#FDFA7B;" d="M507.848,185.43c0-12.228-9.912-22.14-22.14-22.14c-1.5,0-5.911,0-11.07,0c0-5.159,0-9.57,0-11.07
		c0-12.228-9.912-22.14-22.14-22.14c-12.228,0-22.14,9.913-22.14,22.14v24.04l-27.622,27.622l-0.001,31.312l31.312,0.002
		l27.623-27.627h24.04C497.934,207.572,507.848,197.658,507.848,185.43z"/>
</g>
<path style="fill:#CB9385;" d="M420.863,312.851l13.181-77.653l-31.311-31.316l-77.657,13.181
	C285.868,223.701,256,257.803,256,298.9c0,45.854,37.173,83.026,83.026,83.026C380.124,381.926,414.226,352.059,420.863,312.851z"/>
<circle style="fill:#B1786B;" cx="339.578" cy="331.553" r="8.303"/>
<g>
</g>
<g>
</g>
<g>
</g>
<g>
</g>
<g>
</g>
<g>
</g>
<g>
</g>
<g>
</g>
<g>
</g>
<g>
</g>
<g>
</g>
<g>
</g>
<g>
</g>
<g>
</g>
<g>
</g>
</svg>
