<?xml version="1.0" encoding="iso-8859-1"?>
<!-- Generator: Adobe Illustrator 19.0.0, SVG Export Plug-In . SVG Version: 6.00 Build 0)  -->
<svg version="1.1" id="Layer_1" xmlns="http://www.w3.org/2000/svg" xmlns:xlink="http://www.w3.org/1999/xlink" x="0px" y="0px"
	 viewBox="0 0 512 512" style="enable-background:new 0 0 512 512;" xml:space="preserve">
<g>
	<path style="fill:#84B044;" d="M155.233,0c-4.513,0-8.17,3.658-8.17,8.17v76.255h16.34V8.17C163.403,3.658,159.746,0,155.233,0z"/>
	<path style="fill:#84B044;" d="M348.597,427.574v76.255c0,4.512,3.657,8.17,8.17,8.17c4.513,0,8.17-3.658,8.17-8.17v-76.255
		H348.597z"/>
</g>
<path style="fill:#EF431D;" d="M223.319,460.255c12.027,0,21.787,9.75,21.787,21.787c0,12.037-9.761,21.787-21.787,21.787
	c-11.264,0-22.212-1.373-32.681-3.954l-32.681-383.368l65.362,0.044V460.255z"/>
<path style="fill:#FD7555;" d="M190.638,116.507v383.368c-59.425-14.63-103.489-68.27-103.489-132.216V116.387L190.638,116.507z"/>
<path style="fill:#84B044;" d="M201.532,62.638h-32.681l32.681,83.543c9.565,8.497,20.807,14.478,32.681,17.419V95.319
	C234.213,77.345,219.506,62.638,201.532,62.638z"/>
<path style="fill:#A2C352;" d="M168.851,62.638h-59.915c-17.974,0-32.681,14.706-32.681,32.681V163.6
	c15.709-3.9,30.339-13.116,41.418-26.461c6.536,20.012,20.153,36.33,37.561,45.328c17.397-8.998,31.014-25.317,37.561-45.328
	c2.713,3.268,5.632,6.286,8.737,9.042V95.319C201.532,77.345,186.826,62.638,168.851,62.638z"/>
<g>
	<circle style="fill:#EF431D;" cx="119.83" cy="334.26" r="8.17"/>
	<circle style="fill:#EF431D;" cx="152.511" cy="366.941" r="8.17"/>
	<path style="fill:#EF431D;" d="M392.17,395.569L279.498,10.196c2.789-1.296,5.904-2.026,9.183-2.026
		c75.199,0,136.17,60.961,136.17,136.17v251.272L392.17,395.569z"/>
</g>
<path style="fill:#FD7555;" d="M392.17,395.569V144.34c0-67.192-48.662-123.011-112.673-134.144
	c-7.44,3.453-12.604,11.003-12.604,19.761c0,12.037,9.75,21.787,21.787,21.787v343.704L392.17,395.569z"/>
<path style="fill:#84B044;" d="M403.064,449.362h-32.681l32.681-83.543c9.565-8.497,20.807-14.478,32.681-17.419v68.281
	C435.745,434.655,421.038,449.362,403.064,449.362z"/>
<path style="fill:#A2C352;" d="M370.383,449.362h-59.915c-17.974,0-32.681-14.706-32.681-32.681V348.4
	c15.709,3.9,30.339,13.116,41.418,26.461c6.536-20.012,20.153-36.33,37.561-45.328c17.397,8.998,31.014,25.317,37.561,45.328
	c2.712-3.268,5.632-6.286,8.737-9.042v50.862C403.064,434.655,388.357,449.362,370.383,449.362z"/>
<circle style="fill:#EF431D;" cx="364.936" cy="144.34" r="8.17"/>
<g>
</g>
<g>
</g>
<g>
</g>
<g>
</g>
<g>
</g>
<g>
</g>
<g>
</g>
<g>
</g>
<g>
</g>
<g>
</g>
<g>
</g>
<g>
</g>
<g>
</g>
<g>
</g>
<g>
</g>
</svg>
