<?xml version="1.0" encoding="iso-8859-1"?>
<!-- Generator: Adobe Illustrator 19.0.0, SVG Export Plug-In . SVG Version: 6.00 Build 0)  -->
<svg version="1.1" id="Layer_1" xmlns="http://www.w3.org/2000/svg" xmlns:xlink="http://www.w3.org/1999/xlink" x="0px" y="0px"
	 viewBox="0 0 512.001 512.001" style="enable-background:new 0 0 512.001 512.001;" xml:space="preserve">
<path style="fill:#FD7555;" d="M363.935,163.289L273.99,445.58H307.2c36.532,0,68.903-29.787,71.938-66.192l18.008-216.098
	L363.935,163.289L363.935,163.289z"/>
<path style="fill:#FE9F88;" d="M345.927,379.388l18.008-216.098h-249.08l2.768,33.211h-8.303c-45.854,0-83.027,37.173-83.027,83.027
	s37.173,83.027,83.027,83.027h22.14l1.403,16.834c3.033,36.406,35.406,66.192,71.938,66.192h69.189
	C310.521,445.58,342.893,415.794,345.927,379.388z M109.32,329.342c-27.513,0-49.816-22.303-49.816-49.816
	s22.303-49.816,49.816-49.816h11.07l8.303,99.632H109.32z"/>
<g>
	<path style="fill:#E4ADA0;" d="M283.676,99.636c0-13.105,3.378-19.298,7.289-26.467c4.367-8.006,9.317-17.081,9.317-34.42
		c0-17.336-4.95-26.408-9.317-34.414l-0.004,0.002V4.329h0.001h-0.001V4.327c-2.196-4.024-7.238-5.51-11.266-3.309
		c-4.025,2.196-5.506,7.241-3.309,11.266l0.003,0.003l-0.001,0.001c3.911,7.169,7.289,13.36,7.289,26.461
		c0,13.105-3.378,19.298-7.289,26.467c-4.367,8.006-9.317,17.081-9.317,34.42c0,17.337,4.949,26.411,9.317,34.418
		c1.507,2.763,4.356,4.327,7.296,4.327c1.343,0,2.706-0.327,3.969-1.015c4.025-2.195,5.509-7.239,3.312-11.265
		C287.054,118.933,283.676,112.74,283.676,99.636z"/>
	<path style="fill:#E4ADA0;" d="M228.325,99.636c0-13.105,3.378-19.298,7.289-26.467c4.367-8.006,9.317-17.081,9.317-34.42
		c0-17.336-4.949-26.408-9.317-34.414l-0.004,0.002V4.329h0.001h-0.001V4.327c-2.196-4.024-7.238-5.51-11.266-3.309
		c-4.025,2.196-5.506,7.241-3.309,11.266l0.003,0.003l-0.001,0.001c3.911,7.169,7.289,13.36,7.289,26.461
		c0,13.105-3.378,19.298-7.289,26.467c-4.367,8.006-9.317,17.081-9.317,34.42c0,17.337,4.949,26.411,9.317,34.418
		c1.507,2.763,4.356,4.327,7.296,4.327c1.343,0,2.706-0.327,3.969-1.015c4.025-2.195,5.509-7.239,3.312-11.265
		C231.702,118.933,228.325,112.74,228.325,99.636z"/>
</g>
<path style="fill:#EF431D;" d="M441.427,478.79l-44.281,33.211h33.211c18.266,0,37.937-14.178,43.713-31.506l0.568-1.705H441.427z"
	/>
<path style="fill:#FD7555;" d="M440.859,480.495l0.568-1.705H37.364l0.568,1.705c5.776,17.328,25.447,31.506,43.713,31.506h315.501
	C415.412,512.001,435.082,497.823,440.859,480.495z"/>
<path style="fill:#B4462F;" d="M477.405,487.093H34.596c-4.585,0-8.303-3.716-8.303-8.303s3.717-8.303,8.303-8.303h442.809
	c4.586,0,8.303,3.716,8.303,8.303S481.991,487.093,477.405,487.093z"/>
<g>
	<circle style="fill:#FD7555;" cx="321.314" cy="370.853" r="8.303"/>
	<circle style="fill:#FD7555;" cx="288.103" cy="404.064" r="8.303"/>
</g>
<g>
</g>
<g>
</g>
<g>
</g>
<g>
</g>
<g>
</g>
<g>
</g>
<g>
</g>
<g>
</g>
<g>
</g>
<g>
</g>
<g>
</g>
<g>
</g>
<g>
</g>
<g>
</g>
<g>
</g>
</svg>
