<?xml version="1.0" encoding="iso-8859-1"?>
<!-- Generator: Adobe Illustrator 19.0.0, SVG Export Plug-In . SVG Version: 6.00 Build 0)  -->
<svg version="1.1" id="Layer_1" xmlns="http://www.w3.org/2000/svg" xmlns:xlink="http://www.w3.org/1999/xlink" x="0px" y="0px"
	 viewBox="0 0 512 512" style="enable-background:new 0 0 512 512;" xml:space="preserve">
<g>
	<path style="fill:#FDCE6E;" d="M118.154,37.978c-4.661,0-8.44,3.778-8.44,8.44v163.165h16.879V46.418
		C126.593,41.756,122.815,37.978,118.154,37.978z"/>
	<path style="fill:#FDCE6E;" d="M393.846,37.978c-4.661,0-8.44,3.778-8.44,8.44v163.165h16.879V46.418
		C402.286,41.756,398.507,37.978,393.846,37.978z"/>
</g>
<path style="fill:#FD7555;" d="M160.352,198.33h-33.758v151.912h33.758c41.949,0,75.956-34.007,75.956-75.956
	C236.308,232.337,202.301,198.33,160.352,198.33z"/>
<path style="fill:#FDA162;" d="M202.549,274.286c0-41.949-34.007-75.956-75.956-75.956H75.956C34.007,198.33,0,232.337,0,274.286
	s34.007,75.956,75.956,75.956h50.637C168.543,350.242,202.549,316.235,202.549,274.286z"/>
<g>
	<circle style="fill:#FD7555;" cx="168.791" cy="308.044" r="8.44"/>
	<circle style="fill:#FD7555;" cx="67.516" cy="240.527" r="8.44"/>
	<path style="fill:#FD7555;" d="M436.044,198.33h-33.758v151.912h33.758c41.949,0,75.956-34.007,75.956-75.956
		C512,232.337,477.993,198.33,436.044,198.33z"/>
</g>
<g>
	<path style="fill:#FDA162;" d="M478.242,274.286c0-41.949-34.007-75.956-75.956-75.956h-50.637
		c-41.949,0-75.956,34.007-75.956,75.956s34.007,75.956,75.956,75.956h50.637C444.235,350.242,478.242,316.235,478.242,274.286z"/>
	<path style="fill:#FDA162;" d="M450.11,400.879l-58.14,73.143h33.758c18.567,0,38.562-14.411,44.434-32.025l13.706-41.118H450.11z"
		/>
</g>
<path style="fill:#FDCE6E;" d="M28.132,400.879l13.706,41.118c5.872,17.614,25.867,32.025,44.434,32.025h305.7
	c18.567,0,38.562-14.411,44.434-32.025l13.705-41.118H28.132z"/>
<path style="fill:#FDFA7B;" d="M495.121,384H16.879C7.557,384,0,391.557,0,400.879c0,9.322,7.557,16.879,16.879,16.879h478.242
	c9.322,0,16.879-7.557,16.879-16.879C512,391.557,504.443,384,495.121,384z"/>
<g>
	<circle style="fill:#FD7555;" cx="343.209" cy="240.527" r="8.44"/>
	<circle style="fill:#FD7555;" cx="444.484" cy="274.286" r="8.44"/>
	<circle style="fill:#FD7555;" cx="410.725" cy="308.044" r="8.44"/>
</g>
<g>
</g>
<g>
</g>
<g>
</g>
<g>
</g>
<g>
</g>
<g>
</g>
<g>
</g>
<g>
</g>
<g>
</g>
<g>
</g>
<g>
</g>
<g>
</g>
<g>
</g>
<g>
</g>
<g>
</g>
</svg>
