<?xml version="1.0" encoding="iso-8859-1"?>
<!-- Generator: Adobe Illustrator 19.0.0, SVG Export Plug-In . SVG Version: 6.00 Build 0)  -->
<svg version="1.1" id="Layer_1" xmlns="http://www.w3.org/2000/svg" xmlns:xlink="http://www.w3.org/1999/xlink" x="0px" y="0px"
	 viewBox="0 0 512 512" style="enable-background:new 0 0 512 512;" xml:space="preserve">
<polygon style="fill:#5389A9;" points="374.26,470.744 341.257,503.747 308.254,503.747 286.253,487.245 308.254,470.744 "/>
<polygon style="fill:#5CA8D3;" points="308.254,470.744 308.254,503.747 170.742,503.747 137.74,470.744 "/>
<g>
	<polygon style="fill:#3F4C53;" points="170.742,269.525 170.742,335.531 146.529,368.534 122.316,335.531 132.239,302.528 	"/>
	<polygon style="fill:#3F4C53;" points="379.761,302.528 389.684,335.531 365.47,368.534 341.257,335.531 341.257,269.525 	"/>
</g>
<g>
	<path style="fill:#FDCE6E;" d="M132.987,4.832c-6.444,6.444-6.444,16.892,0,23.336l59.838,59.839v55.005l46.674-55.005
		L156.323,4.832C149.879-1.611,139.432-1.611,132.987,4.832z"/>
	<path style="fill:#FDCE6E;" d="M36.538,4.832c-6.444,6.444-6.444,16.892,0,23.336l59.838,59.839v55.005l46.674-55.005L59.875,4.832
		C53.43-1.611,42.983-1.611,36.538,4.832z"/>
</g>
<g>
	<path style="fill:#FDA162;" d="M379.013,4.832c6.444,6.444,6.444,16.892,0,23.336l-59.838,59.839v55.005l-46.674-55.005
		l83.175-83.175C362.12-1.611,372.568-1.611,379.013,4.832z"/>
	<path style="fill:#FDA162;" d="M475.461,4.832c6.444,6.444,6.444,16.892,0,23.336l-59.838,59.839v55.005L368.95,88.007
		l83.175-83.175C458.568-1.611,469.017-1.611,475.461,4.832z"/>
</g>
<path style="fill:#EF431D;" d="M463.709,204.675L445.766,88.01h-33.003l-66.006,214.519h33.003
	C434.215,302.528,471.993,258.491,463.709,204.675z"/>
<path style="fill:#FD7555;" d="M430.706,204.675c8.284,53.817-29.494,97.854-83.948,97.854H132.239
	c-54.455,0-92.232-44.037-83.948-97.854L66.233,88.01h346.53L430.706,204.675z"/>
<g>
	<polygon style="fill:#496A7E;" points="71.734,503.747 170.742,503.747 170.742,335.531 122.316,335.531 	"/>
	<polygon style="fill:#496A7E;" points="389.684,335.531 341.257,335.531 341.257,503.747 440.266,503.747 	"/>
</g>
<g>
	<circle style="fill:#EF431D;" cx="137.743" cy="211.768" r="8.251"/>
	<circle style="fill:#EF431D;" cx="374.263" cy="145.762" r="8.251"/>
	<circle style="fill:#EF431D;" cx="170.746" cy="244.771" r="8.251"/>
</g>
<path style="fill:#FD7555;" d="M295.482,391.648L256,338.734v132.012c27.271,0,49.372-22.101,49.372-49.372
	C305.372,410.218,301.731,399.921,295.482,391.648z"/>
<path style="fill:#FDA162;" d="M269.091,391.648c2.068,8.273,3.278,18.57,3.278,29.725c0,27.271-7.327,49.372-16.369,49.372
	c-27.271,0-49.372-22.101-49.372-49.372c0-11.155,3.641-21.452,9.89-29.725L256,338.734L269.091,391.648z"/>
<path style="fill:#3F4C53;" d="M465.018,512H46.982c-4.558,0-8.251-3.693-8.251-8.251s3.693-8.251,8.251-8.251h418.036
	c4.558,0,8.251,3.693,8.251,8.251S469.575,512,465.018,512z"/>
<g>
</g>
<g>
</g>
<g>
</g>
<g>
</g>
<g>
</g>
<g>
</g>
<g>
</g>
<g>
</g>
<g>
</g>
<g>
</g>
<g>
</g>
<g>
</g>
<g>
</g>
<g>
</g>
<g>
</g>
</svg>
