<?xml version="1.0" encoding="iso-8859-1"?>
<!-- Generator: Adobe Illustrator 19.0.0, SVG Export Plug-In . SVG Version: 6.00 Build 0)  -->
<svg version="1.1" id="Layer_1" xmlns="http://www.w3.org/2000/svg" xmlns:xlink="http://www.w3.org/1999/xlink" x="0px" y="0px"
	 viewBox="0 0 512 512" style="enable-background:new 0 0 512 512;" xml:space="preserve">
<polygon style="fill:#FDCE6E;" points="427.604,128.259 427.604,249.788 360.088,283.547 393.846,128.259 "/>
<polygon style="fill:#FDFA7B;" points="393.846,128.259 393.846,283.547 0,249.788 0,128.259 "/>
<polygon style="fill:#3F4C53;" points="427.604,249.788 427.604,283.547 360.088,317.305 393.846,249.788 "/>
<polygon style="fill:#496A7E;" points="393.846,249.788 393.846,317.305 0,283.547 0,249.788 "/>
<polygon style="fill:#FD7555;" points="456.218,290.273 427.604,283.547 0,283.547 0,411.873 478.242,411.873 489.495,355.358 "/>
<path style="fill:#EF431D;" d="M478.894,295.601l-22.677-5.328c-2.976,6.533-4.533,13.517-4.533,20.551
	c0,19.211,10.753,35.956,26.557,44.535v56.515H512v-74.628L478.894,295.601z"/>
<path style="fill:#FDCE6E;" d="M512,337.245c-3.016,1.103-6.279,1.71-9.677,1.71c-15.54,0-28.132-12.592-28.132-28.132
	c0-5.649,1.834-10.812,4.704-15.223C497.011,299.652,512,318.678,512,337.245z"/>
<path style="fill:#3F4C53;" d="M427.604,361.236V462.51c27.963,0,50.637-22.674,50.637-50.637
	C478.242,383.91,455.568,361.236,427.604,361.236z"/>
<path style="fill:#496A7E;" d="M427.604,361.236c9.317,0,16.879,22.674,16.879,50.637c0,27.963-7.562,50.637-16.879,50.637
	c-27.963,0-50.637-22.674-50.637-50.637C376.967,383.91,399.641,361.236,427.604,361.236z"/>
<path style="fill:#FFFFFF;" d="M427.604,428.752c-9.307,0-16.879-7.572-16.879-16.879c0-9.307,7.572-16.879,16.879-16.879
	c9.307,0,16.879,7.572,16.879,16.879C444.484,421.18,436.912,428.752,427.604,428.752z"/>
<path style="fill:#3F4C53;" d="M84.396,361.236V462.51c27.963,0,50.637-22.674,50.637-50.637
	C135.033,383.91,112.359,361.236,84.396,361.236z"/>
<path style="fill:#496A7E;" d="M84.396,361.236c9.317,0,16.879,22.674,16.879,50.637c0,27.963-7.562,50.637-16.879,50.637
	c-27.963,0-50.637-22.674-50.637-50.637C33.758,383.91,56.433,361.236,84.396,361.236z"/>
<path style="fill:#FFFFFF;" d="M84.396,428.752c-9.307,0-16.879-7.572-16.879-16.879c0-9.307,7.572-16.879,16.879-16.879
	s16.879,7.572,16.879,16.879C101.275,421.18,93.703,428.752,84.396,428.752z"/>
<path style="fill:#FD7555;" d="M384.844,105.753v65.266c23.62,0,42.76-19.141,42.76-42.76L384.844,105.753z"/>
<g>
	<path style="fill:#FE9F88;" d="M342.084,128.259l25.881-22.506l25.881,22.506c0,23.62-4.028,42.76-9.002,42.76
		C361.224,171.019,342.084,151.878,342.084,128.259z"/>
	<path style="fill:#FE9F88;" d="M0,128.259l42.76-22.506l42.76,22.506c0,23.62-19.141,42.76-42.76,42.76S0,151.878,0,128.259z"/>
	<path style="fill:#FE9F88;" d="M171.042,128.259l42.76-22.506l42.76,22.506c0,23.62-19.141,42.76-42.76,42.76
		S171.042,151.878,171.042,128.259z"/>
</g>
<g>
	<path style="fill:#EF431D;" d="M85.521,128.259l42.76-22.506l42.76,22.506c0,23.62-19.141,42.76-42.76,42.76
		S85.521,151.878,85.521,128.259z"/>
	<path style="fill:#EF431D;" d="M256.563,128.259l42.76-22.506l42.76,22.506c0,23.62-19.141,42.76-42.76,42.76
		S256.563,151.878,256.563,128.259z"/>
</g>
<path style="fill:#FE9F88;" d="M393.846,49.49h-33.758l33.758,78.769h33.758V83.248C427.604,64.681,412.413,49.49,393.846,49.49z"/>
<path style="fill:#FEC8BB;" d="M393.846,83.248v45.011h-51.763l-22.505-39.385l22.505-39.385h18.004
	C378.655,49.49,393.846,64.681,393.846,83.248z"/>
<polygon style="fill:#FD7555;" points="342.084,49.49 342.084,128.259 256.563,128.259 234.057,88.874 256.563,49.49 "/>
<polygon style="fill:#FEC8BB;" points="256.563,49.49 256.563,128.259 171.042,128.259 148.536,88.874 171.042,49.49 "/>
<polygon style="fill:#FD7555;" points="171.042,49.49 171.042,128.259 85.521,128.259 63.015,88.874 85.521,49.49 "/>
<path style="fill:#FEC8BB;" d="M85.521,49.49v78.769H0V83.248C0,64.681,15.191,49.49,33.758,49.49
	C33.758,49.49,85.521,49.49,85.521,49.49z"/>
<g>
</g>
<g>
</g>
<g>
</g>
<g>
</g>
<g>
</g>
<g>
</g>
<g>
</g>
<g>
</g>
<g>
</g>
<g>
</g>
<g>
</g>
<g>
</g>
<g>
</g>
<g>
</g>
<g>
</g>
</svg>
