<?xml version="1.0" encoding="iso-8859-1"?>
<!-- Generator: Adobe Illustrator 19.0.0, SVG Export Plug-In . SVG Version: 6.00 Build 0)  -->
<svg version="1.1" id="Layer_1" xmlns="http://www.w3.org/2000/svg" xmlns:xlink="http://www.w3.org/1999/xlink" x="0px" y="0px"
	 viewBox="0 0 512 512" style="enable-background:new 0 0 512 512;" xml:space="preserve">
<g>
	
		<rect x="-29.843" y="106.707" transform="matrix(0.7071 0.7071 -0.7071 0.7071 128.39 -51.5365)" style="fill:#FFCFB2;" width="312.497" height="45.011"/>
	
		<rect x="229.346" y="106.719" transform="matrix(-0.7071 0.7071 -0.7071 -0.7071 749.6271 -52.0574)" style="fill:#FFCFB2;" width="312.497" height="45.011"/>
</g>
<g>
	<path style="fill:#99D9FF;" d="M312.886,478.242l-56.264,11.253c-0.011,0,11.242-61.192,11.242-61.192h33.758
		C301.622,428.302,312.874,478.242,312.886,478.242z"/>
	<path style="fill:#99D9FF;" d="M279.127,478.242l-39.998,22.505l-39.998-22.505l11.253-49.94l28.745-22.506l28.734,22.506
		C267.863,428.302,279.116,478.242,279.127,478.242z"/>
	<path style="fill:#99D9FF;" d="M351.651,478.242h-33.758L351.651,512h33.758C385.41,493.354,370.297,478.242,351.651,478.242z"/>
</g>
<path style="fill:#CCECFF;" d="M317.893,478.242H160.355c-18.646,0-33.758,15.112-33.758,33.758h225.055
	C351.651,493.354,336.539,478.242,317.893,478.242z"/>
<path style="fill:#99D9FF;" d="M256.003,257.317h185.67c0,84.564-60.18,155.029-140.04,170.986h-45.63l-45.011-85.493
	L256.003,257.317z"/>
<path style="fill:#CCECFF;" d="M256.003,257.317v170.986h-46.406c-79.478-16.26-139.264-86.691-139.264-170.986H256.003z"/>
<path style="fill:#FDFA7B;" d="M374.157,257.317l-85.408,137.227h9.362c63.814-14.246,109.804-71.455,109.804-137.227H374.157z"/>
<path style="fill:#FEFDCA;" d="M104.091,257.317l151.912-33.758l118.154,33.758c0,65.772-35.772,122.981-85.408,137.227h-75.54
	C149.788,380.028,104.091,322.83,104.091,257.317z"/>
<path style="fill:#84B044;" d="M256.003,67.516v191.297c52.82,0,95.648-42.828,95.648-95.648S308.823,67.516,256.003,67.516z"/>
<path style="fill:#A2C352;" d="M256.003,67.516c34.186,0,61.89,42.828,61.89,95.648s-27.704,95.648-61.89,95.648
	c-52.82,0-95.648-42.828-95.648-95.648S203.183,67.516,256.003,67.516z"/>
<path style="fill:#C1D560;" d="M334.772,161.672l61.89,95.648h33.758C430.421,204.5,387.593,161.672,334.772,161.672z"/>
<path style="fill:#FDFA7B;" d="M334.772,161.672c-52.82,0-95.648,42.828-95.648,95.648h157.538
	C396.662,204.5,368.958,161.672,334.772,161.672z"/>
<path style="fill:#975D50;" d="M272.882,257.317v67.516c0,9.329-7.562,16.879-16.879,16.879c-9.317,0-16.879-7.551-16.879-16.879
	v-67.516l-61.89-95.648C230.054,161.668,272.882,204.496,272.882,257.317z"/>
<path style="fill:#B1786B;" d="M239.124,257.317h-33.758v33.758c0,9.329-7.562,16.879-16.879,16.879
	c-9.317,0-16.879-7.551-16.879-16.879v-33.758H81.585c0-52.82,42.828-95.648,95.648-95.648
	C211.42,161.668,239.124,204.496,239.124,257.317z"/>
<circle style="fill:#EF431D;" cx="256.003" cy="33.758" r="33.758"/>
<g>
</g>
<g>
</g>
<g>
</g>
<g>
</g>
<g>
</g>
<g>
</g>
<g>
</g>
<g>
</g>
<g>
</g>
<g>
</g>
<g>
</g>
<g>
</g>
<g>
</g>
<g>
</g>
<g>
</g>
</svg>
