<?xml version="1.0" encoding="iso-8859-1"?>
<!-- Generator: Adobe Illustrator 19.0.0, SVG Export Plug-In . SVG Version: 6.00 Build 0)  -->
<svg version="1.1" id="Layer_1" xmlns="http://www.w3.org/2000/svg" xmlns:xlink="http://www.w3.org/1999/xlink" x="0px" y="0px"
	 viewBox="0 0 512 512" style="enable-background:new 0 0 512 512;" xml:space="preserve">
<path style="fill:#FEC8BB;" d="M157.39,343.501l-56.264,0.106l-19.343-19.235c-10.986-10.987-28.798-10.986-39.784,0
	c-10.986,10.986-10.986,28.798,0,39.784L55.1,377.249l102.29,22.516V343.501z"/>
<path style="fill:#FD7555;" d="M267.669,210.721c-73.03,0-132.782,59.752-132.782,132.782v33.758l210.573,22.505V210.709
	L267.669,210.721z"/>
<path style="fill:#FEFDCA;" d="M345.459,210.709l-33.758,189.057l162.163-22.517c2.858-10.791,4.377-22.1,4.377-33.758
	C478.242,270.461,418.49,210.709,345.459,210.709z"/>
<path style="fill:#FFFFFF;" d="M212.677,343.492c0,11.658,1.519,22.967,4.377,33.758c0,0.011,128.405,22.517,128.405,22.517V210.709
	C272.429,210.709,212.677,270.461,212.677,343.492z"/>
<path style="fill:#FE9F88;" d="M345.459,244.468v155.299l93.094-22.517c3.837-10.544,5.93-21.909,5.93-33.758
	C444.484,288.893,400.058,244.468,345.459,244.468z"/>
<path style="fill:#FEC8BB;" d="M410.725,343.492c0,11.849-1.384,23.214-3.905,33.758l-61.361,22.51l-93.094-22.499
	c-3.837-10.555-5.93-21.92-5.93-33.77c0-54.598,44.426-99.024,99.024-99.024C381.446,244.468,410.725,288.893,410.725,343.492z"/>
<path style="fill:#FFFFFF;" d="M345.459,309.733c-18.614,0-33.758,15.144-33.758,33.758s15.144,33.758,33.758,33.758
	s33.758-15.144,33.758-33.758S364.074,309.733,345.459,309.733z"/>
<path style="fill:#FDA162;" d="M450.11,394.129l-58.14,73.143h33.758c18.567,0,38.562-14.411,44.434-32.025l13.706-41.118H450.11z"
	/>
<path style="fill:#FDCE6E;" d="M28.132,394.129l13.706,41.118c5.872,17.614,25.867,32.025,44.434,32.025h305.7
	c18.567,0,38.562-14.411,44.434-32.025l13.706-41.118H28.132z"/>
<path style="fill:#FDFA7B;" d="M495.121,377.25H16.879C7.557,377.25,0,384.807,0,394.129s7.557,16.879,16.879,16.879h478.242
	c9.322,0,16.879-7.557,16.879-16.879S504.443,377.25,495.121,377.25z"/>
<g>
	<path style="fill:#FFCFB2;" d="M284.132,146.007c0-13.321,3.433-19.616,7.409-26.903c4.439-8.138,9.47-17.363,9.47-34.987
		c0-17.622-5.031-26.843-9.47-34.981l-0.005,0.002v-0.009h0.001h-0.001v-0.002c-2.233-4.09-7.357-5.6-11.452-3.363
		c-4.092,2.233-5.597,7.36-3.363,11.452l0.003,0.003l-0.001,0.001c3.976,7.287,7.409,13.58,7.409,26.897
		c0,13.321-3.433,19.616-7.409,26.903c-4.439,8.138-9.47,17.363-9.47,34.987c0,17.623,5.031,26.847,9.47,34.986
		c1.531,2.809,4.428,4.399,7.417,4.399c1.365,0,2.75-0.332,4.034-1.032c4.091-2.231,5.599-7.358,3.367-11.451
		C287.565,165.622,284.132,159.327,284.132,146.007z"/>
	<path style="fill:#FFCFB2;" d="M227.868,146.007c0-13.321,3.433-19.616,7.409-26.903c4.439-8.138,9.47-17.363,9.47-34.987
		c0-17.622-5.031-26.843-9.47-34.981l-0.005,0.002v-0.009h0.001h-0.001v-0.002c-2.233-4.09-7.357-5.6-11.452-3.363
		c-4.091,2.233-5.597,7.36-3.363,11.452l0.003,0.003l-0.001,0.001c3.976,7.287,7.409,13.58,7.409,26.897
		c0,13.321-3.433,19.616-7.409,26.903c-4.439,8.138-9.47,17.363-9.47,34.987c0,17.623,5.031,26.847,9.47,34.986
		c1.531,2.809,4.428,4.399,7.417,4.399c1.365,0,2.75-0.332,4.034-1.032c4.092-2.231,5.599-7.358,3.367-11.451
		C231.301,165.622,227.868,159.327,227.868,146.007z"/>
</g>
<g>
</g>
<g>
</g>
<g>
</g>
<g>
</g>
<g>
</g>
<g>
</g>
<g>
</g>
<g>
</g>
<g>
</g>
<g>
</g>
<g>
</g>
<g>
</g>
<g>
</g>
<g>
</g>
<g>
</g>
</svg>
