<?xml version="1.0" encoding="iso-8859-1"?>
<!-- Generator: Adobe Illustrator 19.0.0, SVG Export Plug-In . SVG Version: 6.00 Build 0)  -->
<svg version="1.1" id="Layer_1" xmlns="http://www.w3.org/2000/svg" xmlns:xlink="http://www.w3.org/1999/xlink" x="0px" y="0px"
	 viewBox="0 0 512 512" style="enable-background:new 0 0 512 512;" xml:space="preserve">
<path style="fill:#66C6FE;" d="M323.523,154.725h-33.758l33.758,102.006h33.758v-68.248
	C357.282,169.916,342.09,154.725,323.523,154.725z"/>
<g>
	<path style="fill:#99D9FF;" d="M323.523,188.484v68.248H154.732v-68.248c0-18.567,15.191-33.758,33.758-33.758h101.275
		C308.332,154.725,323.523,169.916,323.523,188.484z"/>
	<path style="fill:#99D9FF;" d="M256.006,512C145.38,512,51.149,441.839,15.377,343.58l0.068-0.022l28.154-22.1l427.548,22.505
		v50.806C425.573,465.312,346.241,512,256.006,512z"/>
</g>
<path style="fill:#CCECFF;" d="M256.006,478.242c-99.778,0-184.41-66.087-212.407-156.785l28.83-22.629l375.178,31.8v37.866
	C408.942,434.12,337.521,478.242,256.006,478.242z"/>
<path style="fill:#99D9FF;" d="M256.006,444.484c-89.212,0-164.144-62.295-183.577-145.656l30.034-23.574l321.288,16.755v49.872
	C392.479,402.747,329.025,444.484,256.006,444.484z"/>
<path style="fill:#CCECFF;" d="M399.219,314.514L256.006,154.725L102.462,275.242c9.52,76.282,74.741,135.483,153.544,135.483
	C320.619,410.725,376.117,370.902,399.219,314.514z"/>
<path style="fill:#66C6FE;" d="M471.147,394.769l-23.541-26.275l20.806-47.036l28.154,22.1l0.056,0.022
	C490.029,361.686,481.454,378.835,471.147,394.769z"/>
<path style="fill:#99D9FF;" d="M447.606,368.494l-23.856-26.613l15.821-43.053l28.841,22.629
	C463.293,338.044,456.271,353.809,447.606,368.494z"/>
<path style="fill:#66C6FE;" d="M423.75,341.881l-24.531-27.367l10.319-39.272l30.034,23.586
	C436.038,313.963,430.693,328.389,423.75,341.881z"/>
<path style="fill:#99D9FF;" d="M409.538,275.242L256.006,154.725l143.214,159.789C404.306,302.136,407.828,288.971,409.538,275.242z
	"/>
<path style="fill:#C1D560;" d="M256.006,0L233.5,60.202l109.153,60.202h33.757C376.41,53.907,322.503,0,256.006,0z"/>
<path style="fill:#DFE76D;" d="M135.601,120.404h33.759l86.645-33.758V0C189.509,0,135.601,53.907,135.601,120.404z"/>
<path style="fill:#FEFDCA;" d="M212.695,45.382l43.312,75.022h-86.646C169.361,88.39,186.814,60.382,212.695,45.382z"/>
<path style="fill:#FDFA7B;" d="M256.007,33.758c14.055,0,26.849,9.025,36.324,23.732l-36.324,62.914l-43.312-75.022
	C225.444,37.989,240.242,33.758,256.007,33.758z"/>
<path style="fill:#FEFDCA;" d="M308.895,120.404h-52.888l36.324-62.914C302.526,73.289,308.895,95.648,308.895,120.404z"/>
<path style="fill:#DFE76D;" d="M299.319,45.382l-6.988,12.108c-9.475-14.707-22.269-23.732-36.324-23.732
	C271.772,33.758,286.569,37.989,299.319,45.382z"/>
<path style="fill:#FDFA7B;" d="M342.653,120.404h-33.758c0-24.756-6.369-47.115-16.564-62.914l6.988-12.108
	C325.2,60.382,342.653,88.39,342.653,120.404z"/>
<g>
</g>
<g>
</g>
<g>
</g>
<g>
</g>
<g>
</g>
<g>
</g>
<g>
</g>
<g>
</g>
<g>
</g>
<g>
</g>
<g>
</g>
<g>
</g>
<g>
</g>
<g>
</g>
<g>
</g>
</svg>
