<?xml version="1.0" encoding="iso-8859-1"?>
<!-- Generator: Adobe Illustrator 19.0.0, SVG Export Plug-In . SVG Version: 6.00 Build 0)  -->
<svg version="1.1" id="Layer_1" xmlns="http://www.w3.org/2000/svg" xmlns:xlink="http://www.w3.org/1999/xlink" x="0px" y="0px"
	 viewBox="0 0 512 512" style="enable-background:new 0 0 512 512;" xml:space="preserve">
<path style="fill:#FDA162;" d="M492.567,158.011l-0.056,0.023l-100.328-38.215L353.966,19.49l0.022-0.056
	C323.809,6.909,290.715,0,256,0s-67.809,6.909-97.989,19.433l0.023,0.056l-38.215,100.328L19.49,158.034l-0.056-0.023
	C6.909,188.191,0,221.285,0,256s6.909,67.809,19.433,97.989l0.056-0.022l100.328,38.215l38.215,100.328l-0.023,0.056
	C188.191,505.091,221.285,512,256,512s67.809-6.909,97.989-19.433l-0.022-0.056l38.215-100.328l100.328-38.215l0.056,0.022
	C505.091,323.809,512,290.715,512,256S505.091,188.191,492.567,158.011z"/>
<g>
	<path style="fill:#FDCE6E;" d="M158.034,19.49L256,256L19.49,158.034l-0.056-0.023C45.382,95.435,95.435,45.382,158.011,19.433
		L158.034,19.49z"/>
	<path style="fill:#FDCE6E;" d="M256,256l-97.966,236.51l-0.023,0.056C95.435,466.618,45.382,416.565,19.433,353.989l0.056-0.022
		L256,256z"/>
	<path style="fill:#FDCE6E;" d="M492.51,353.966l0.056,0.022c-25.949,62.577-76.001,112.629-138.578,138.578l-0.022-0.056L256,256
		L492.51,353.966z"/>
	<path style="fill:#FDCE6E;" d="M492.567,158.011l-0.056,0.023L256,256l97.966-236.51l0.022-0.056
		C416.565,45.382,466.618,95.435,492.567,158.011z"/>
	<path style="fill:#FDCE6E;" d="M258.431,33.781l102.783,56.309l-20.165-39.418C315.55,40.071,287.654,34.085,258.431,33.781z"/>
	<path style="fill:#FDCE6E;" d="M461.329,170.952h-38.743v170.097h38.743c10.893-26.208,16.913-54.936,16.913-85.048
		S472.222,197.159,461.329,170.952z"/>
	<path style="fill:#FDCE6E;" d="M258.431,478.219l102.783-56.309l-20.165,39.418C315.55,471.929,287.654,477.915,258.431,478.219z"
		/>
</g>
<g>
	<path style="fill:#FDFA7B;" d="M444.484,256c0-25.803-3.747-50.604-10.645-73.66l-62.018-41.649l-33.112-84.36
		c-24.295-14.066-51.515-22.123-80.277-22.551c-0.81-0.011-1.62-0.023-2.431-0.023c-30.112,0-58.841,6.02-85.048,16.913
		L134.29,134.29l-83.619,36.661C39.778,197.159,33.758,225.888,33.758,256c0,30.112,6.02,58.841,16.913,85.048l83.619,36.661
		l36.661,83.619c26.208,10.893,54.936,16.913,85.048,16.913c0.81,0,1.62-0.011,2.431-0.022c28.762-0.428,55.982-8.485,80.277-22.551
		l33.112-84.36l62.018-41.649C440.736,306.604,444.484,281.803,444.484,256z"/>
	<path style="fill:#FDFA7B;" d="M433.838,329.66l-95.131,126.008l2.341,5.66c54.261-22.562,97.719-66.02,120.281-120.281
		L433.838,329.66z"/>
	<path style="fill:#FDFA7B;" d="M341.048,50.671l-2.341,5.66l95.131,126.008l27.49-11.388
		C438.767,116.691,395.309,73.233,341.048,50.671z"/>
</g>
<g>
	<path style="fill:#FEFDCA;" d="M256,256l177.838,73.66c-16.497,55.206-50.986,100.498-95.131,126.008L256,256z"/>
	<path style="fill:#FEFDCA;" d="M433.838,182.34L256,256l82.708-199.669C382.852,81.841,417.342,127.134,433.838,182.34z"/>
	<path style="fill:#FEFDCA;" d="M256,256l-85.048,205.329c-54.261-22.562-97.719-66.02-120.281-120.281L256,256z"/>
	<path style="fill:#FEFDCA;" d="M170.952,50.671L256,256L50.671,170.952C73.233,116.691,116.691,73.233,170.952,50.671z"/>
</g>
<circle style="fill:#FD7555;" cx="256" cy="109.714" r="22.505"/>
<circle style="fill:#EF431D;" cx="152.565" cy="152.565" r="22.505"/>
<circle style="fill:#FD7555;" cx="109.714" cy="256" r="22.505"/>
<g>
	<circle style="fill:#EF431D;" cx="152.565" cy="359.435" r="22.505"/>
	<circle style="fill:#EF431D;" cx="256" cy="402.286" r="22.505"/>
</g>
<circle style="fill:#FD7555;" cx="359.435" cy="359.435" r="22.505"/>
<circle style="fill:#EF431D;" cx="402.286" cy="256" r="22.505"/>
<circle style="fill:#FD7555;" cx="359.435" cy="152.565" r="22.505"/>
<g>
	<circle style="fill:#668A30;" cx="295.79" cy="69.936" r="8.44"/>
	<circle style="fill:#668A30;" cx="256" cy="165.978" r="8.44"/>
</g>
<circle style="fill:#84B044;" cx="152.565" cy="96.301" r="8.44"/>
<circle style="fill:#B4462F;" cx="96.301" cy="152.565" r="8.44"/>
<circle style="fill:#668A30;" cx="69.936" cy="216.222" r="8.44"/>
<g>
	<circle style="fill:#B4462F;" cx="165.978" cy="256" r="8.44"/>
	<circle style="fill:#B4462F;" cx="96.301" cy="359.435" r="8.44"/>
</g>
<circle style="fill:#84B044;" cx="152.565" cy="415.699" r="8.44"/>
<g>
	<circle style="fill:#B4462F;" cx="216.222" cy="442.075" r="8.44"/>
	<circle style="fill:#B4462F;" cx="256" cy="346.022" r="8.44"/>
	<circle style="fill:#B4462F;" cx="359.435" cy="415.699" r="8.44"/>
</g>
<circle style="fill:#84B044;" cx="415.699" cy="359.435" r="8.44"/>
<circle style="fill:#B4462F;" cx="442.075" cy="295.79" r="8.44"/>
<circle style="fill:#84B044;" cx="346.022" cy="256" r="8.44"/>
<g>
	<circle style="fill:#B4462F;" cx="415.699" cy="152.565" r="8.44"/>
	<circle style="fill:#B4462F;" cx="359.435" cy="96.301" r="8.44"/>
</g>
<g>
</g>
<g>
</g>
<g>
</g>
<g>
</g>
<g>
</g>
<g>
</g>
<g>
</g>
<g>
</g>
<g>
</g>
<g>
</g>
<g>
</g>
<g>
</g>
<g>
</g>
<g>
</g>
<g>
</g>
</svg>
