<?xml version="1.0" encoding="iso-8859-1"?>
<!-- Generator: Adobe Illustrator 19.0.0, SVG Export Plug-In . SVG Version: 6.00 Build 0)  -->
<svg version="1.1" id="Layer_1" xmlns="http://www.w3.org/2000/svg" xmlns:xlink="http://www.w3.org/1999/xlink" x="0px" y="0px"
	 viewBox="0 0 511.999 511.999" style="enable-background:new 0 0 511.999 511.999;" xml:space="preserve">
<path style="fill:#668A30;" d="M255.999,71.956c-4.585,0-8.303-3.716-8.303-8.303V41.512c0-10.327-4.022-20.037-11.324-27.339
	c-3.242-3.244-3.242-8.5,0-11.742c3.242-3.241,8.5-3.241,11.741,0c10.439,10.44,16.188,24.319,16.188,39.082v22.141
	C264.302,68.238,260.585,71.956,255.999,71.956z"/>
<path style="fill:#EF431D;" d="M255.999,41.512v99.632c27.513,0,49.816-22.303,49.816-49.816S283.512,41.512,255.999,41.512z"/>
<path style="fill:#FD7555;" d="M272.605,91.329c0-27.513-7.435-49.816-16.605-49.816c-27.513,0-49.816,22.303-49.816,49.816
	s22.303,49.816,49.816,49.816C265.17,141.145,272.605,118.84,272.605,91.329z"/>
<polygon style="fill:#FDA162;" points="423.594,213.13 357.173,179.92 380.54,456.648 446.962,423.437 "/>
<polygon style="fill:#FDCE6E;" points="88.404,213.13 65.037,423.437 416.211,445.576 387.923,190.99 "/>
<path style="fill:#975D50;" d="M413.751,124.539H380.54l-33.211,51.496l44.654,51.496c8.605-6.231,15.225-14.028,31.259-14.4
	L413.751,124.539z"/>
<path style="fill:#B1786B;" d="M98.248,124.539l-9.492,88.592c20.087,0.466,25.397,12.588,38.35,18.681V351.48
	c0,9.171,7.435,16.605,16.605,16.605c9.171,0,16.605-7.435,16.605-16.605V231.809c13.201-6.218,18.45-18.708,39.533-18.708
	c28.071,0,28.071,22.141,56.142,22.141c28.07,0,28.07-22.141,56.14-22.141c28.073,0,28.073,22.141,56.147,22.141
	c11.161,0,17.886-3.498,23.705-7.712L380.54,124.539H98.248z"/>
<path style="fill:#5CA8D3;" d="M446.962,440.042l-57.197,71.957h33.211c18.266,0,37.937-14.178,43.713-31.506l13.484-40.451H446.962
	z"/>
<path style="fill:#99D9FF;" d="M31.826,440.042l13.484,40.451c5.776,17.328,25.447,31.506,43.713,31.506h300.743
	c18.266,0,37.937-14.178,43.713-31.506l13.484-40.451H31.826z"/>
<path style="fill:#CCECFF;" d="M491.243,423.437H20.756c-9.171,0-16.605,7.435-16.605,16.605c0,9.171,7.435,16.605,16.605,16.605
	h470.487c9.171,0,16.605-7.435,16.605-16.605C507.848,430.872,500.413,423.437,491.243,423.437z"/>
<g>
	<circle style="fill:#FDA162;" cx="372.426" cy="348.712" r="8.303"/>
	<circle style="fill:#FDA162;" cx="339.215" cy="381.923" r="8.303"/>
</g>
<g>
</g>
<g>
</g>
<g>
</g>
<g>
</g>
<g>
</g>
<g>
</g>
<g>
</g>
<g>
</g>
<g>
</g>
<g>
</g>
<g>
</g>
<g>
</g>
<g>
</g>
<g>
</g>
<g>
</g>
</svg>
