<?xml version="1.0" encoding="iso-8859-1"?>
<!-- Generator: Adobe Illustrator 19.0.0, SVG Export Plug-In . SVG Version: 6.00 Build 0)  -->
<svg version="1.1" id="Layer_1" xmlns="http://www.w3.org/2000/svg" xmlns:xlink="http://www.w3.org/1999/xlink" x="0px" y="0px"
	 viewBox="0 0 512 512" style="enable-background:new 0 0 512 512;" xml:space="preserve">
<path style="fill:#B1786B;" d="M419.165,0h-33.758v512h33.758c18.567,0,33.758-15.191,33.758-33.758V33.758
	C452.923,15.191,437.732,0,419.165,0z"/>
<path style="fill:#CB9385;" d="M364.851,256l54.314-222.242C419.165,15.191,403.974,0,385.407,0h-42.198L256,23.74L168.791,0H92.835
	C74.268,0,59.077,15.191,59.077,33.758v444.484c0,18.567,15.191,33.758,33.758,33.758h292.571c18.567,0,33.758-15.191,33.758-33.758
	L364.851,256z"/>
<polygon style="fill:#CCECFF;" points="419.165,33.758 419.165,478.242 385.407,478.242 329.143,256 385.407,33.758 "/>
<polygon style="fill:#5389A9;" points="326.33,0 334.769,56.264 244.747,56.264 301.011,0 "/>
<polygon style="fill:#66C6FE;" points="301.011,0 301.011,56.264 177.231,56.264 185.67,0 "/>
<polygon style="fill:#FFFFFF;" points="92.835,33.758 92.835,478.242 317.89,478.242 385.407,478.242 385.407,33.758 "/>
<rect x="247.56" y="315.64" style="fill:#FEC8BB;" width="16.879" height="94.523"/>
<path style="fill:#66C6FE;" d="M326.33,0v61.89c0,4.654-3.785,8.44-8.44,8.44H194.11c-4.654,0-8.44-3.785-8.44-8.44V0h-16.879v61.89
	c0,13.961,11.357,25.319,25.319,25.319h123.78c13.96,0,25.319-11.357,25.319-25.319V0H326.33z"/>
<path style="fill:#5389A9;" d="M182.859,177.799c-2.274,0-4.54-0.914-6.205-2.716c-3.161-3.425-2.947-8.765,0.478-11.926
	l24.388-22.505c3.234-2.983,8.217-2.982,11.449,0.001l18.654,17.221l18.663-17.222c3.234-2.983,8.217-2.982,11.449,0.001
	l18.653,17.22l18.653-17.22c3.233-2.985,8.216-2.984,11.451,0l24.377,22.505c3.424,3.162,3.637,8.501,0.476,11.926
	c-3.163,3.424-8.503,3.638-11.927,0.476l-18.651-17.22l-18.653,17.22c-3.234,2.984-8.217,2.983-11.451,0l-18.654-17.221
	l-18.663,17.222c-3.234,2.983-8.216,2.983-11.449-0.001l-18.654-17.221l-18.663,17.222
	C186.959,177.059,184.906,177.799,182.859,177.799z"/>
<polygon style="fill:#FEC8BB;" points="294.259,214.365 298.918,259.376 244.23,281.881 265.565,214.365 "/>
<polygon style="fill:#FEFDCA;" points="265.565,214.365 266.735,259.376 239.909,281.881 213.082,259.376 217.741,214.365 "/>
<path style="fill:#EF431D;" d="M300.763,277.166l-1.845-17.791h-32.183L256,326.892c24.857,0,45.011-20.154,45.011-45.011
	C301.011,280.283,300.932,278.708,300.763,277.166z"/>
<path style="fill:#FD7555;" d="M267.197,277.166c0.034,1.542,0.056,3.117,0.056,4.715c0,24.857-5.041,45.011-11.253,45.011
	c-24.857,0-45.011-20.154-45.011-45.011c0-1.598,0.079-3.173,0.248-4.715l1.845-17.791h53.653L267.197,277.166z"/>
<path style="fill:#FEC8BB;" d="M292.983,418.597h-73.967c-4.662,0-8.44-3.779-8.44-8.44s3.778-8.44,8.44-8.44h73.967
	c4.662,0,8.44,3.779,8.44,8.44S297.645,418.597,292.983,418.597z"/>
<g>
</g>
<g>
</g>
<g>
</g>
<g>
</g>
<g>
</g>
<g>
</g>
<g>
</g>
<g>
</g>
<g>
</g>
<g>
</g>
<g>
</g>
<g>
</g>
<g>
</g>
<g>
</g>
<g>
</g>
</svg>
