<?xml version="1.0" encoding="iso-8859-1"?>
<!-- Generator: Adobe Illustrator 19.0.0, SVG Export Plug-In . SVG Version: 6.00 Build 0)  -->
<svg version="1.1" id="Layer_1" xmlns="http://www.w3.org/2000/svg" xmlns:xlink="http://www.w3.org/1999/xlink" x="0px" y="0px"
	 viewBox="0 0 512 512" style="enable-background:new 0 0 512 512;" xml:space="preserve">
<path style="fill:#99D9FF;" d="M260.146,87.184c93.234,0,168.822,75.588,168.822,168.822S353.38,424.827,260.146,424.827
	S91.324,349.239,91.324,256.006S166.912,87.184,260.146,87.184z"/>
<path style="fill:#CCECFF;" d="M260.146,131.465v249.081c68.78,0,124.541-55.761,124.541-124.541S328.925,131.465,260.146,131.465z"
	/>
<path style="fill:#FFFFFF;" d="M260.146,131.465c56.547,0,102.4,55.761,102.4,124.541s-45.853,124.541-102.4,124.541
	c-68.78,0-124.541-55.761-124.541-124.541S191.366,131.465,260.146,131.465z"/>
<g>
	<path style="fill:#FDA162;" d="M260.151,178.508c-4.586,0-8.303-3.717-8.303-8.303v-5.535c0-4.585,3.716-8.303,8.303-8.303
		c4.586,0,8.303,3.717,8.303,8.303v5.535C268.454,174.791,264.738,178.508,260.151,178.508z"/>
	<path style="fill:#FDA162;" d="M217.262,190.005c-2.869,0-5.66-1.49-7.198-4.154l-2.768-4.795
		c-2.293-3.971-0.932-9.049,3.039-11.341c3.973-2.294,9.05-0.932,11.341,3.04l2.768,4.795c2.293,3.971,0.932,9.049-3.039,11.341
		C220.097,189.646,218.67,190.005,217.262,190.005z"/>
	<path style="fill:#FDA162;" d="M185.843,221.407c-1.408,0-2.836-0.359-4.144-1.114l-4.793-2.768
		c-3.971-2.293-5.331-7.371-3.039-11.341c2.292-3.972,7.368-5.333,11.341-3.039l4.793,2.768c3.971,2.293,5.331,7.371,3.039,11.341
		C191.503,219.918,188.713,221.407,185.843,221.407z"/>
	<path style="fill:#FDA162;" d="M174.357,264.303h-5.535c-4.586,0-8.303-3.717-8.303-8.303s3.716-8.303,8.303-8.303h5.535
		c4.586,0,8.303,3.717,8.303,8.303S178.943,264.303,174.357,264.303z"/>
	<path style="fill:#FDA162;" d="M181.065,309.969c-2.869,0-5.659-1.489-7.198-4.152c-2.293-3.971-0.932-9.049,3.039-11.341
		l4.793-2.768c3.969-2.293,9.049-0.932,11.341,3.039s0.932,9.049-3.039,11.341l-4.793,2.768
		C183.902,309.61,182.473,309.969,181.065,309.969z"/>
	<path style="fill:#FDA162;" d="M214.479,343.399c-1.408,0-2.836-0.359-4.144-1.114c-3.971-2.293-5.331-7.371-3.039-11.341
		l2.768-4.793c2.292-3.972,7.367-5.333,11.341-3.039c3.971,2.293,5.331,7.371,3.039,11.341l-2.768,4.793
		C220.139,341.91,217.348,343.399,214.479,343.399z"/>
	<path style="fill:#FDA162;" d="M260.151,355.632c-4.586,0-8.303-3.717-8.303-8.303v-5.535c0-4.585,3.716-8.303,8.303-8.303
		c4.586,0,8.303,3.717,8.303,8.303v5.535C268.454,351.915,264.738,355.632,260.151,355.632z"/>
	<path style="fill:#FDA162;" d="M305.824,343.399c-2.869,0-5.659-1.489-7.198-4.152l-2.768-4.793
		c-2.293-3.971-0.932-9.049,3.039-11.341c3.969-2.294,9.048-0.932,11.341,3.039l2.768,4.793c2.293,3.971,0.932,9.049-3.039,11.341
		C308.66,343.04,307.232,343.399,305.824,343.399z"/>
	<path style="fill:#FDA162;" d="M339.237,309.969c-1.408,0-2.836-0.359-4.144-1.114l-4.793-2.768
		c-3.971-2.293-5.331-7.371-3.039-11.341c2.292-3.971,7.368-5.333,11.341-3.039l4.793,2.768c3.971,2.293,5.331,7.371,3.039,11.341
		C344.899,308.48,342.107,309.969,339.237,309.969z"/>
	<path style="fill:#FDA162;" d="M351.481,264.303h-5.535c-4.586,0-8.303-3.717-8.303-8.303s3.716-8.303,8.303-8.303h5.535
		c4.586,0,8.303,3.717,8.303,8.303S356.068,264.303,351.481,264.303z"/>
	<path style="fill:#FDA162;" d="M334.459,221.407c-2.869,0-5.659-1.489-7.198-4.152c-2.293-3.971-0.932-9.049,3.039-11.341
		l4.793-2.768c3.97-2.293,9.048-0.932,11.341,3.039c2.293,3.971,0.932,9.049-3.039,11.341l-4.793,2.768
		C337.297,221.048,335.868,221.407,334.459,221.407z"/>
	<path style="fill:#FDA162;" d="M303.041,190.005c-1.408,0-2.836-0.359-4.144-1.114c-3.971-2.293-5.331-7.371-3.039-11.341
		l2.768-4.795c2.29-3.971,7.367-5.334,11.341-3.04c3.971,2.293,5.331,7.371,3.039,11.341l-2.768,4.795
		C308.701,188.515,305.91,190.005,303.041,190.005z"/>
</g>
<path style="fill:#3F4C53;" d="M260.151,264.303h-41.514c-4.586,0-8.303-3.717-8.303-8.303s3.716-8.303,8.303-8.303h33.211v-44.281
	c0-4.585,3.716-8.303,8.303-8.303c4.586,0,8.303,3.717,8.303,8.303V256C268.454,260.585,264.738,264.303,260.151,264.303z"/>
<g>
	<path style="fill:#66C6FE;" d="M41.514,98.243c-4.585,0-8.303,3.717-8.303,8.303v84.134h16.605v-84.134
		C49.816,101.961,46.099,98.243,41.514,98.243z"/>
	<path style="fill:#66C6FE;" d="M74.724,98.243c-4.585,0-8.303,3.717-8.303,8.303v84.134l16.605-34.871v-49.263
		C83.027,101.961,79.31,98.243,74.724,98.243z"/>
	<path style="fill:#66C6FE;" d="M8.303,98.243c-4.585,0-8.303,3.717-8.303,8.303v49.263l16.605,34.871v-84.134
		C16.605,101.961,12.888,98.243,8.303,98.243z"/>
	<polygon style="fill:#66C6FE;" points="511.989,267.065 511.989,300.276 495.384,330.73 478.778,300.276 478.778,250.47 	"/>
</g>
<g>
	<path style="fill:#99D9FF;" d="M511.989,300.276v107.946c0,9.166-7.439,16.605-16.605,16.605c-9.166,0-16.605-7.439-16.605-16.605
		V300.276H511.989z"/>
	<path style="fill:#99D9FF;" d="M487.092,87.173c-13.757,0-24.908,11.152-24.908,24.908v130.076
		c0,13.757,11.151,24.908,24.908,24.908H512c0-71.9,0-154.984,0-154.984C512,98.325,500.849,87.173,487.092,87.173z"/>
	<path style="fill:#99D9FF;" d="M0,155.809v18.271c0,17.022,10.249,31.642,24.908,38.05v196.081c0,9.171,7.435,16.605,16.605,16.605
		s16.605-7.435,16.605-16.605V212.13c14.659-6.407,24.908-21.028,24.908-38.05v-18.271H0z"/>
</g>
<g>
</g>
<g>
</g>
<g>
</g>
<g>
</g>
<g>
</g>
<g>
</g>
<g>
</g>
<g>
</g>
<g>
</g>
<g>
</g>
<g>
</g>
<g>
</g>
<g>
</g>
<g>
</g>
<g>
</g>
</svg>
