<?xml version="1.0" encoding="iso-8859-1"?>
<!-- Generator: Adobe Illustrator 19.0.0, SVG Export Plug-In . SVG Version: 6.00 Build 0)  -->
<svg version="1.1" id="Layer_1" xmlns="http://www.w3.org/2000/svg" xmlns:xlink="http://www.w3.org/1999/xlink" x="0px" y="0px"
	 viewBox="0 0 512 512" style="enable-background:new 0 0 512 512;" xml:space="preserve">
<path style="fill:#99D9FF;" d="M256,22.505L188.484,256L256,489.495c128.955,0,233.495-104.539,233.495-233.495
	S384.955,22.505,256,22.505z"/>
<g>
	<path style="fill:#CCECFF;" d="M22.505,256c0,128.955,104.539,233.495,233.495,233.495V22.505
		C127.045,22.505,22.505,127.045,22.505,256z"/>
	<path style="fill:#CCECFF;" d="M257.992,67.528v376.945C361.011,443.403,444.484,359.266,444.484,256
		S361.011,68.597,257.992,67.528z"/>
</g>
<path style="fill:#FFFFFF;" d="M257.992,67.528C342.399,68.844,410.725,152.88,410.725,256s-68.327,187.156-152.734,188.472
	c-0.664,0.011-1.328,0.011-1.992,0.011C152.07,444.484,67.516,359.93,67.516,256S152.07,67.516,256,67.516
	C256.664,67.516,257.328,67.516,257.992,67.528z"/>
<polygon style="fill:#FDFA7B;" points="402.287,0 402.276,512 377.902,489.495 368.529,498.142 285.99,256.011 368.529,13.844 
	377.913,22.505 "/>
<polygon style="fill:#FEFDCA;" points="353.506,0.023 368.529,13.844 368.529,498.142 353.506,512 329.133,489.495 304.759,512 
	280.375,489.495 255.99,512 231.616,489.495 207.22,512 182.847,489.495 158.474,512 134.089,489.495 109.715,512 109.715,0 
	134.089,22.505 158.485,0 182.858,22.505 207.243,0 231.628,22.505 256.001,0 280.375,22.505 304.771,0 329.144,22.505 "/>
<g>
	<path style="fill:#3F4C53;" d="M329.141,145.717c-2.047,0-4.1-0.74-5.722-2.238l-18.653-17.22l-18.653,17.22
		c-3.233,2.984-8.217,2.984-11.45,0l-18.654-17.221l-18.663,17.222c-3.234,2.983-8.217,2.983-11.449-0.001l-18.654-17.221
		l-18.663,17.222c-3.425,3.161-8.765,2.947-11.926-0.478c-3.161-3.425-2.947-8.765,0.478-11.926l24.388-22.505
		c3.234-2.983,8.217-2.982,11.449,0.001l18.654,17.221l18.663-17.222c3.234-2.983,8.217-2.982,11.449,0.001l18.653,17.22
		l18.653-17.22c3.233-2.984,8.217-2.984,11.45,0l24.378,22.505c3.424,3.162,3.638,8.501,0.476,11.926
		C333.68,144.805,331.414,145.717,329.141,145.717z"/>
	<path style="fill:#3F4C53;" d="M329.143,189.052h-14.997c-4.661,0-8.44-3.779-8.44-8.44c0-4.661,3.779-8.44,8.44-8.44h14.997
		c4.661,0,8.44,3.779,8.44,8.44C337.582,185.273,333.804,189.052,329.143,189.052z"/>
</g>
<path style="fill:#496A7E;" d="M280.388,189.052h-97.531c-4.661,0-8.44-3.779-8.44-8.44c0-4.661,3.779-8.44,8.44-8.44h97.531
	c4.661,0,8.44,3.779,8.44,8.44C288.828,185.273,285.049,189.052,280.388,189.052z"/>
<path style="fill:#3F4C53;" d="M329.143,222.81h-14.997c-4.661,0-8.44-3.779-8.44-8.44c0-4.661,3.779-8.44,8.44-8.44h14.997
	c4.661,0,8.44,3.779,8.44,8.44C337.582,219.031,333.804,222.81,329.143,222.81z"/>
<path style="fill:#496A7E;" d="M280.388,222.81h-97.531c-4.661,0-8.44-3.779-8.44-8.44c0-4.661,3.779-8.44,8.44-8.44h97.531
	c4.661,0,8.44,3.779,8.44,8.44C288.828,219.031,285.049,222.81,280.388,222.81z"/>
<path style="fill:#3F4C53;" d="M329.143,256.568h-14.997c-4.661,0-8.44-3.779-8.44-8.44s3.779-8.44,8.44-8.44h14.997
	c4.661,0,8.44,3.779,8.44,8.44S333.804,256.568,329.143,256.568z"/>
<path style="fill:#496A7E;" d="M280.388,256.568h-97.531c-4.661,0-8.44-3.779-8.44-8.44s3.779-8.44,8.44-8.44h97.531
	c4.661,0,8.44,3.779,8.44,8.44S285.049,256.568,280.388,256.568z"/>
<path style="fill:#3F4C53;" d="M329.143,290.327h-14.997c-4.661,0-8.44-3.779-8.44-8.44s3.779-8.44,8.44-8.44h14.997
	c4.661,0,8.44,3.779,8.44,8.44S333.804,290.327,329.143,290.327z"/>
<path style="fill:#496A7E;" d="M280.388,290.327h-97.531c-4.661,0-8.44-3.779-8.44-8.44s3.779-8.44,8.44-8.44h97.531
	c4.661,0,8.44,3.779,8.44,8.44S285.049,290.327,280.388,290.327z"/>
<path style="fill:#3F4C53;" d="M329.143,405.667h-14.997c-4.661,0-8.44-3.779-8.44-8.44s3.779-8.44,8.44-8.44h14.997
	c4.661,0,8.44,3.779,8.44,8.44S333.804,405.667,329.143,405.667z"/>
<path style="fill:#496A7E;" d="M280.388,405.667h-97.531c-4.661,0-8.44-3.779-8.44-8.44s3.779-8.44,8.44-8.44h97.531
	c4.661,0,8.44,3.779,8.44,8.44S285.049,405.667,280.388,405.667z"/>
<g>
</g>
<g>
</g>
<g>
</g>
<g>
</g>
<g>
</g>
<g>
</g>
<g>
</g>
<g>
</g>
<g>
</g>
<g>
</g>
<g>
</g>
<g>
</g>
<g>
</g>
<g>
</g>
<g>
</g>
</svg>
