<?xml version="1.0" encoding="iso-8859-1"?>
<!-- Generator: Adobe Illustrator 19.0.0, SVG Export Plug-In . SVG Version: 6.00 Build 0)  -->
<svg version="1.1" id="Layer_1" xmlns="http://www.w3.org/2000/svg" xmlns:xlink="http://www.w3.org/1999/xlink" x="0px" y="0px"
	 viewBox="0 0 512 512" style="enable-background:new 0 0 512 512;" xml:space="preserve">
<g>
	<rect x="135.033" style="fill:#CB9385;" width="33.758" height="410.725"/>
	<rect x="67.516" style="fill:#CB9385;" width="33.758" height="410.725"/>
</g>
<path style="fill:#FDCE6E;" d="M456.125,272.127c10.812-8.499,15.737-23.139,11.24-36.98c-4.497-13.841-17.087-22.789-30.83-23.31
	c7.655-11.424,7.816-26.869-0.737-38.643c-8.554-11.774-23.294-16.393-36.524-12.642c3.751-13.231-0.869-27.97-12.642-36.524
	c-11.128-8.085-25.531-8.375-36.724-1.92v213.414h106.218c12.908-4.743,22.117-17.145,22.117-31.698
	S469.033,276.869,456.125,272.127z"/>
<path style="fill:#FEFDCA;" d="M444.484,303.824c0-14.553-9.209-26.955-22.117-31.697c10.812-8.499,15.737-23.139,11.24-36.98
	c-4.497-13.841-17.087-22.789-30.83-23.31c7.655-11.424,7.816-26.869-0.737-38.643c-8.554-11.774-23.294-16.393-36.524-12.642
	c3.751-13.231-0.869-27.97-12.642-36.524c-0.971-0.706-1.964-1.332-2.966-1.92c-0.649,0.375-1.293,0.763-1.92,1.183
	c-0.521-13.742-9.47-26.333-23.31-30.83c-13.841-4.498-28.481,0.429-36.98,11.24C282.955,90.792,270.553,81.582,256,81.582
	c-14.553,0-26.955,9.209-31.697,22.117c-8.499-10.812-23.139-15.737-36.98-11.24s-22.789,17.087-23.31,30.83
	c-11.424-7.655-26.869-7.816-38.643,0.737s-16.394,23.294-12.642,36.524c-13.231-3.751-27.97,0.869-36.524,12.642
	c-8.554,11.774-8.393,27.219-0.737,38.643c-13.742,0.521-26.333,9.47-30.83,23.31s0.429,28.481,11.24,36.98
	c-12.909,4.743-22.118,17.145-22.118,31.698s9.209,26.955,22.117,31.697h366.491C435.274,330.779,444.484,318.377,444.484,303.824z"
	/>
<g>
	<circle style="fill:#FDCE6E;" cx="368.527" cy="225.809" r="8.44"/>
	<circle style="fill:#FDCE6E;" cx="402.286" cy="259.567" r="8.44"/>
	<circle style="fill:#FDCE6E;" cx="177.231" cy="192.051" r="8.44"/>
</g>
<path style="fill:#B1786B;" d="M337.582,444.484L320.703,512h33.758c9.322,0,16.879-7.557,16.879-16.879s0-50.637,0-50.637H337.582z
	"/>
<g>
	<path style="fill:#CB9385;" d="M337.582,495.121c0-9.322,0-50.637,0-50.637H140.659c0,0,0,41.316,0,50.637S148.217,512,157.538,512
		h163.165C330.025,512,337.582,504.443,337.582,495.121z"/>
	<path style="fill:#CB9385;" d="M478.242,303.824L303.824,478.242h33.758c96.328,0,174.418-78.09,174.418-174.418H478.242z"/>
</g>
<path style="fill:#E4ADA0;" d="M478.242,303.824H0c0,96.328,78.09,174.418,174.418,174.418h129.407
	C400.152,478.242,478.242,400.152,478.242,303.824z"/>
<g>
</g>
<g>
</g>
<g>
</g>
<g>
</g>
<g>
</g>
<g>
</g>
<g>
</g>
<g>
</g>
<g>
</g>
<g>
</g>
<g>
</g>
<g>
</g>
<g>
</g>
<g>
</g>
<g>
</g>
</svg>
