<?xml version="1.0" encoding="iso-8859-1"?>
<!-- Generator: Adobe Illustrator 19.0.0, SVG Export Plug-In . SVG Version: 6.00 Build 0)  -->
<svg version="1.1" id="Layer_1" xmlns="http://www.w3.org/2000/svg" xmlns:xlink="http://www.w3.org/1999/xlink" x="0px" y="0px"
	 viewBox="0 0 512 512" style="enable-background:new 0 0 512 512;" xml:space="preserve">
<g>
	<rect x="147.535" style="fill:#FDCE6E;" width="33.758" height="410.725"/>
	<rect x="80.018" style="fill:#FDCE6E;" width="33.758" height="410.725"/>
</g>
<path style="fill:#84B044;" d="M396.157,178.727c-3.11,0-6.173,0.185-9.191,0.519c-14.178-23.739-39.956-39.748-69.523-40.128
	v172.298l156.23-23.035c3.04-8.581,4.581-17.819,4.581-27.448C478.254,215.527,441.562,178.727,396.157,178.727z"/>
<path style="fill:#A2C352;" d="M386.955,179.326c-2.569-0.392-5.172-0.599-7.821-0.599c-2.442,0-4.849,0.185-7.233,0.519
	c-11.115-23.658-31.294-39.633-54.457-40.128c-0.369-0.011-0.737-0.011-1.106-0.011c-11.993,0-23.465,2.57-33.765,7.184
	l-42.116,72.982l34.554,69.108v23.035l165.11-23.035c2.384-8.581,3.685-17.819,3.685-27.448
	C443.808,218.891,418.987,184.233,386.955,179.326z"/>
<path style="fill:#EF431D;" d="M282.572,112.527V78.769c-55.937,0-101.275,45.337-101.275,101.275s45.337,101.275,101.275,101.275
	V247.56c0-2.813-22.505-67.516-22.505-67.516L282.572,112.527z"/>
<path style="fill:#FD7555;" d="M215.056,180.044c0,37.224,30.281,67.516,67.516,67.516V112.527
	C245.337,112.527,215.056,142.82,215.056,180.044z"/>
<path style="fill:#99D9FF;" d="M247.565,281.319l-129.407,28.132l22.506-135.033C199.617,174.418,247.565,222.377,247.565,281.319z"
	/>
<g>
	<path style="fill:#CCECFF;" d="M33.763,281.319l106.901,28.132V174.418C81.711,174.418,33.763,222.377,33.763,281.319z"/>
	<path style="fill:#CCECFF;" d="M140.664,208.176l-11.253,95.648l84.396-22.505C213.807,240.921,181.05,208.176,140.664,208.176z"/>
</g>
<path style="fill:#EDF8FF;" d="M67.521,281.319l73.143,28.132V208.176C100.266,208.176,67.521,240.921,67.521,281.319z"/>
<path style="fill:#99D9FF;" d="M180.048,281.319l-61.89,28.132l22.506-67.516C162.37,241.934,180.048,259.601,180.048,281.319z"/>
<path style="fill:#CCECFF;" d="M140.664,241.934v61.89l-39.385-22.505C101.279,259.601,118.946,241.934,140.664,241.934z"/>
<g>
	<path style="fill:#84B044;" d="M316.338,183.289c-4.662,0-8.44,3.779-8.44,8.44v106.469h16.879V191.729
		C324.778,187.068,321,183.289,316.338,183.289z"/>
	<path style="fill:#84B044;" d="M421.076,232.546c-3.297-3.296-8.64-3.296-11.936,0l-61.89,61.89l11.936,11.935l61.89-61.89
		C424.372,241.186,424.372,235.842,421.076,232.546z"/>
</g>
<path style="fill:#FDA162;" d="M444.484,298.198L247.56,512h33.758c108.758,0,196.923-88.165,196.923-196.923v-16.879H444.484z"/>
<path style="fill:#FDCE6E;" d="M444.484,315.077v-16.879H33.758v16.879C33.758,423.835,121.924,512,230.681,512h16.879
	C356.318,512,444.484,423.835,444.484,315.077z"/>
<path style="fill:#FDFA7B;" d="M495.121,281.319H16.879C7.557,281.319,0,288.876,0,298.198s7.557,16.879,16.879,16.879h478.242
	c9.322,0,16.879-7.557,16.879-16.879S504.443,281.319,495.121,281.319z"/>
<g>
</g>
<g>
</g>
<g>
</g>
<g>
</g>
<g>
</g>
<g>
</g>
<g>
</g>
<g>
</g>
<g>
</g>
<g>
</g>
<g>
</g>
<g>
</g>
<g>
</g>
<g>
</g>
<g>
</g>
</svg>
