<?xml version="1.0" encoding="iso-8859-1"?>
<!-- Generator: Adobe Illustrator 19.0.0, SVG Export Plug-In . SVG Version: 6.00 Build 0)  -->
<svg version="1.1" id="Layer_1" xmlns="http://www.w3.org/2000/svg" xmlns:xlink="http://www.w3.org/1999/xlink" x="0px" y="0px"
	 viewBox="0 0 512.001 512.001" style="enable-background:new 0 0 512.001 512.001;" xml:space="preserve">
<path style="fill:#99D9FF;" d="M503.639,478.82l-13.72-315.566c-0.794-18.248-16.387-33.18-34.653-33.18V63.653l-88.562-22.141
	l22.141,470.487h83.027C490.137,512,504.433,497.07,503.639,478.82z"/>
<path style="fill:#CCECFF;" d="M322.422,63.654v66.422c-18.266,0-33.86,14.93-34.653,33.18l-13.72,315.566
	c-0.794,18.248,13.502,33.18,31.768,33.18h83.027V41.515L322.422,63.654z"/>
<path style="fill:#496A7E;" d="M422.055,8.303h-33.211l33.211,55.351h33.211V41.514C455.265,23.171,440.397,8.303,422.055,8.303z"/>
<path style="fill:#5389A9;" d="M388.844,8.303h-33.211c-18.342,0-33.211,14.868-33.211,33.211v22.141h99.632V41.514
	C422.055,23.171,407.186,8.303,388.844,8.303z"/>
<polygon style="fill:#CB9385;" points="463.056,309.976 396.634,309.976 437.184,478.789 470.395,478.789 "/>
<polygon style="fill:#E4ADA0;" points="314.632,309.976 307.292,478.789 437.184,478.789 429.845,309.976 "/>
<path style="fill:#EDF8FF;" d="M456.739,164.698c-0.022-0.488-0.985-1.411-1.473-1.411h-31.798l-29.832,77.703l36.589,77.703
	c8.086-4.6,17.127-8.633,32.832-8.716L456.739,164.698z"/>
<path style="fill:#FFFFFF;" d="M322.422,163.286c-0.488,0-1.452,0.923-1.473,1.41l-6.317,145.28
	c36.853,0.195,37.031,22.132,74.212,22.132c21.336,0,30.491-7.222,41.38-13.416l-6.756-155.406H322.422z"/>
<g>
	<circle style="fill:#CB9385;" cx="422.055" cy="404.065" r="8.303"/>
	<circle style="fill:#CB9385;" cx="388.844" cy="437.276" r="8.303"/>
	<circle style="fill:#CB9385;" cx="355.633" cy="370.854" r="8.303"/>
</g>
<g>
	<path style="fill:#496A7E;" d="M458.033,105.168H319.655c-4.585,0-8.303-3.716-8.303-8.303s3.717-8.303,8.303-8.303h138.378
		c4.585,0,8.303,3.716,8.303,8.303S462.618,105.168,458.033,105.168z"/>
	<path style="fill:#496A7E;" d="M458.033,71.957H319.655c-4.585,0-8.303-3.716-8.303-8.303s3.717-8.303,8.303-8.303h138.378
		c4.585,0,8.303,3.716,8.303,8.303S462.618,71.957,458.033,71.957z"/>
</g>
<g>
	<path style="fill:#3F4C53;" d="M355.633,33.211c-4.585,0-8.303-3.716-8.303-8.303V8.303c0-4.586,3.717-8.303,8.303-8.303
		c4.585,0,8.303,3.716,8.303,8.303v16.605C363.936,29.495,360.218,33.211,355.633,33.211z"/>
	<path style="fill:#3F4C53;" d="M388.844,33.211c-4.585,0-8.303-3.716-8.303-8.303V8.303c0-4.586,3.717-8.303,8.303-8.303
		c4.585,0,8.303,3.716,8.303,8.303v16.605C397.147,29.495,393.429,33.211,388.844,33.211z"/>
	<path style="fill:#3F4C53;" d="M422.055,33.211c-4.585,0-8.303-3.716-8.303-8.303V8.303c0-4.586,3.717-8.303,8.303-8.303
		c4.585,0,8.303,3.716,8.303,8.303v16.605C430.357,29.495,426.64,33.211,422.055,33.211z"/>
</g>
<path style="fill:#99D9FF;" d="M237.953,478.82l-13.72-315.566c-0.794-18.248-16.387-33.18-34.653-33.18V63.653l-88.562-22.141
	l22.141,470.487h83.027C224.45,512,238.746,497.07,237.953,478.82z"/>
<path style="fill:#CCECFF;" d="M56.736,63.654v66.422c-18.266,0-33.86,14.93-34.653,33.18L8.362,478.82
	C7.568,497.07,21.864,512,40.13,512h83.027V41.514L56.736,63.654z"/>
<path style="fill:#496A7E;" d="M156.368,8.303h-33.211l33.211,55.351h33.211V41.514C189.579,23.171,174.71,8.303,156.368,8.303z"/>
<path style="fill:#5389A9;" d="M123.157,8.303H89.946c-18.342,0-33.211,14.868-33.211,33.211v22.141h99.632V41.514
	C156.368,23.171,141.5,8.303,123.157,8.303z"/>
<polygon style="fill:#FDFA7B;" points="197.369,309.976 130.947,309.976 171.498,478.789 204.709,478.789 "/>
<polygon style="fill:#FEFDCA;" points="48.946,309.976 41.606,478.789 171.498,478.789 164.158,309.976 "/>
<path style="fill:#EDF8FF;" d="M191.052,164.698c-0.022-0.488-0.985-1.411-1.473-1.411h-31.798l-29.832,77.703l36.589,77.703
	c8.086-4.6,17.127-8.633,32.832-8.716L191.052,164.698z"/>
<path style="fill:#FFFFFF;" d="M56.736,163.286c-0.488,0-1.452,0.923-1.473,1.41l-6.317,145.28
	c36.853,0.195,37.031,22.132,74.212,22.132c21.336,0,30.491-7.222,41.38-13.416l-6.756-155.406H56.736z"/>
<g>
	<circle style="fill:#FDFA7B;" cx="139.763" cy="388.843" r="8.303"/>
	<circle style="fill:#FDFA7B;" cx="106.552" cy="422.054" r="8.303"/>
</g>
<g>
	<path style="fill:#496A7E;" d="M192.346,105.168H53.968c-4.585,0-8.303-3.716-8.303-8.303s3.717-8.303,8.303-8.303h138.378
		c4.585,0,8.303,3.716,8.303,8.303S196.932,105.168,192.346,105.168z"/>
	<path style="fill:#496A7E;" d="M192.346,71.957H53.968c-4.585,0-8.303-3.716-8.303-8.303s3.717-8.303,8.303-8.303h138.378
		c4.585,0,8.303,3.716,8.303,8.303S196.932,71.957,192.346,71.957z"/>
</g>
<g>
	<path style="fill:#3F4C53;" d="M89.946,33.211c-4.585,0-8.303-3.716-8.303-8.303V8.303C81.644,3.716,85.361,0,89.946,0
		s8.303,3.716,8.303,8.303v16.605C98.249,29.495,94.532,33.211,89.946,33.211z"/>
	<path style="fill:#3F4C53;" d="M123.157,33.211c-4.585,0-8.303-3.716-8.303-8.303V8.303c0-4.586,3.717-8.303,8.303-8.303
		s8.303,3.716,8.303,8.303v16.605C131.46,29.495,127.743,33.211,123.157,33.211z"/>
	<path style="fill:#3F4C53;" d="M156.368,33.211c-4.585,0-8.303-3.716-8.303-8.303V8.303c0-4.586,3.717-8.303,8.303-8.303
		c4.585,0,8.303,3.716,8.303,8.303v16.605C164.671,29.495,160.953,33.211,156.368,33.211z"/>
</g>
<g>
</g>
<g>
</g>
<g>
</g>
<g>
</g>
<g>
</g>
<g>
</g>
<g>
</g>
<g>
</g>
<g>
</g>
<g>
</g>
<g>
</g>
<g>
</g>
<g>
</g>
<g>
</g>
<g>
</g>
</svg>
