<?xml version="1.0" encoding="iso-8859-1"?>
<!-- Generator: Adobe Illustrator 19.0.0, SVG Export Plug-In . SVG Version: 6.00 Build 0)  -->
<svg version="1.1" id="Layer_1" xmlns="http://www.w3.org/2000/svg" xmlns:xlink="http://www.w3.org/1999/xlink" x="0px" y="0px"
	 viewBox="0 0 512 512" style="enable-background:new 0 0 512 512;" xml:space="preserve">
<g>
	<polygon style="fill:#B4462F;" points="147.974,0 114.215,0 97.336,90.022 131.095,123.78 164.853,90.022 	"/>
	<polygon style="fill:#B4462F;" points="159.226,90.022 136.721,168.791 192.985,168.791 192.985,90.022 	"/>
</g>
<rect x="68.079" y="90.022" style="fill:#EF431D;" width="92.273" height="78.769"/>
<path style="fill:#FEC8BB;" d="M205.363,180.044c0-18.567-15.191-33.758-33.758-33.758H56.826
	c-18.567,0-33.758,15.191-33.758,33.758v298.198c0,18.567,15.191,33.758,33.758,33.758h114.778
	c18.567,0,33.758-15.191,33.758-33.758l-22.505-149.099L205.363,180.044z"/>
<path style="fill:#FE9F88;" d="M205.363,146.286h-33.758c18.567,0,33.758,15.191,33.758,33.758v298.198
	c0,18.567-15.191,33.758-33.758,33.758h33.758c18.567,0,33.758-15.191,33.758-33.758V180.044
	C239.121,161.477,223.93,146.286,205.363,146.286z"/>
<polygon style="fill:#B4462F;" points="137.846,246.041 171.604,478.242 205.363,478.242 205.363,270.066 "/>
<rect x="56.826" y="270.066" style="fill:#EF431D;" width="114.778" height="208.176"/>
<path style="fill:#FD7555;" d="M171.604,180.044l-33.758,49.878l33.758,49.878c8.428-4.917,17.509-9.452,33.758-9.734v-90.022
	H171.604z"/>
<path style="fill:#FE9F88;" d="M56.826,180.044v90.022c36.29,0.653,36.864,22.483,74.257,22.483
	c20.683,0,30.101-6.673,40.521-12.749v-99.756H56.826z"/>
<path style="fill:#C1D560;" d="M436.663,193.063L421.415,45.011h-33.758l-26.478,180.044L421.415,512h33.758
	c18.567,0,33.758-15.191,33.758-33.758V258.813C488.932,226.923,466.516,200.029,436.663,193.063z"/>
<path style="fill:#FDFA7B;" d="M387.657,225.055V45.011h-47.262l-15.247,148.052c-29.854,6.965-52.269,33.86-52.269,65.75v219.429
	c0,18.567,15.191,33.758,33.758,33.758h114.778c18.567,0,33.758-15.191,33.758-33.758L387.657,225.055z"/>
<path style="fill:#B4462F;" d="M404.536,0h-33.758l16.879,45.011h33.758V16.879C421.415,7.596,413.82,0,404.536,0z"/>
<polygon style="fill:#47631C;" points="455.174,315.077 455.174,478.242 421.415,478.242 421.415,477.117 387.657,291.052 "/>
<rect x="306.637" y="315.077" style="fill:#668A30;" width="114.778" height="163.165"/>
<path style="fill:#A2C352;" d="M421.415,225.055h-33.758l33.758,99.756c8.428-4.917,17.509-9.452,33.758-9.734v-56.264
	C455.174,240.201,440.027,225.055,421.415,225.055z"/>
<path style="fill:#EF431D;" d="M387.657,16.879v28.132h-47.262V16.879C340.396,7.596,347.991,0,357.275,0h13.503
	C380.062,0,387.657,7.596,387.657,16.879z"/>
<path style="fill:#C1D560;" d="M421.415,258.813v65.997c-10.42,6.076-19.839,12.749-40.521,12.749
	c-37.393,0-37.967-21.83-74.257-22.483v-56.264c0-18.612,15.146-33.758,33.758-33.758h47.262
	C406.269,225.055,421.415,240.201,421.415,258.813z"/>
<path style="fill:#B4462F;" d="M424.229,53.451h-86.646c-4.661,0-8.44-3.778-8.44-8.44s3.779-8.44,8.44-8.44h86.646
	c4.661,0,8.44,3.778,8.44,8.44S428.889,53.451,424.229,53.451z"/>
<g>
</g>
<g>
</g>
<g>
</g>
<g>
</g>
<g>
</g>
<g>
</g>
<g>
</g>
<g>
</g>
<g>
</g>
<g>
</g>
<g>
</g>
<g>
</g>
<g>
</g>
<g>
</g>
<g>
</g>
</svg>
