<?xml version="1.0" encoding="iso-8859-1"?>
<!-- Generator: Adobe Illustrator 19.0.0, SVG Export Plug-In . SVG Version: 6.00 Build 0)  -->
<svg version="1.1" id="Layer_1" xmlns="http://www.w3.org/2000/svg" xmlns:xlink="http://www.w3.org/1999/xlink" x="0px" y="0px"
	 viewBox="0 0 512.001 512.001" style="enable-background:new 0 0 512.001 512.001;" xml:space="preserve">
<path style="fill:#FDA162;" d="M441.427,179.894L247.698,390.228h33.211c106.994,0,193.729-86.735,193.729-193.729v-16.605
	L441.427,179.894L441.427,179.894z"/>
<path style="fill:#FDCE6E;" d="M441.427,196.5v-16.605H37.363V196.5c0,106.994,86.735,193.729,193.729,193.729h16.605
	C354.691,390.228,441.427,303.493,441.427,196.5z"/>
<path style="fill:#CCECFF;" d="M500.553,50.827c9.727-9.727,9.727-25.498,0-35.225s-25.498-9.727-35.225,0L306.601,180.136h59.913
	L500.553,50.827z"/>
<path style="fill:#FDFA7B;" d="M491.243,163.289H20.758c-9.171,0-16.605,7.435-16.605,16.605S11.588,196.5,20.758,196.5h470.484
	c9.171,0,16.605-7.435,16.605-16.605S500.413,163.289,491.243,163.289z"/>
<g>
	<path style="fill:#FFCFB2;" d="M283.676,99.636c0-13.105,3.378-19.298,7.289-26.467c4.367-8.006,9.317-17.081,9.317-34.42
		c0-17.336-4.949-26.408-9.317-34.414l-0.004,0.002V4.329h0.001h-0.001V4.327c-2.196-4.024-7.238-5.51-11.266-3.309
		c-4.025,2.196-5.506,7.241-3.309,11.266l0.003,0.003l-0.001,0.001c3.911,7.169,7.289,13.36,7.289,26.461
		c0,13.105-3.378,19.298-7.289,26.467c-4.367,8.006-9.317,17.081-9.317,34.42c0,17.337,4.949,26.411,9.317,34.418
		c1.507,2.763,4.356,4.327,7.296,4.327c1.343,0,2.706-0.327,3.969-1.015c4.025-2.195,5.509-7.239,3.312-11.265
		C287.053,118.933,283.676,112.74,283.676,99.636z"/>
	<path style="fill:#FFCFB2;" d="M228.325,99.636c0-13.105,3.378-19.298,7.289-26.467c4.367-8.006,9.317-17.081,9.317-34.42
		c0-17.336-4.949-26.408-9.317-34.414l-0.004,0.002V4.329h0.001h-0.001V4.327c-2.196-4.024-7.238-5.51-11.266-3.309
		c-4.025,2.196-5.506,7.241-3.309,11.266l0.003,0.003l-0.001,0.001c3.911,7.169,7.289,13.36,7.289,26.461
		c0,13.105-3.378,19.298-7.289,26.467c-4.367,8.006-9.317,17.081-9.317,34.42c0,17.337,4.949,26.411,9.317,34.418
		c1.507,2.763,4.356,4.327,7.296,4.327c1.343,0,2.706-0.327,3.969-1.015c4.025-2.195,5.509-7.239,3.312-11.265
		C231.702,118.933,228.325,112.74,228.325,99.636z"/>
</g>
<path style="fill:#FDA162;" d="M446.962,440.044l-57.197,71.956h33.211c18.266,0,37.937-14.178,43.713-31.506l13.484-40.451H446.962
	z"/>
<path style="fill:#FDCE6E;" d="M31.828,440.044l13.484,40.451c5.776,17.328,25.447,31.506,43.713,31.506h300.741
	c18.266,0,37.937-14.178,43.713-31.506l13.484-40.451H31.828z"/>
<path style="fill:#FDFA7B;" d="M491.243,423.439H20.758c-9.171,0-16.605,7.435-16.605,16.605c0,9.171,7.435,16.605,16.605,16.605
	h470.484c9.171,0,16.605-7.435,16.605-16.605C507.848,430.874,500.413,423.439,491.243,423.439z"/>
<g>
</g>
<g>
</g>
<g>
</g>
<g>
</g>
<g>
</g>
<g>
</g>
<g>
</g>
<g>
</g>
<g>
</g>
<g>
</g>
<g>
</g>
<g>
</g>
<g>
</g>
<g>
</g>
<g>
</g>
</svg>
