<?xml version="1.0" encoding="iso-8859-1"?>
<!-- Generator: Adobe Illustrator 19.0.0, SVG Export Plug-In . SVG Version: 6.00 Build 0)  -->
<svg version="1.1" id="Layer_1" xmlns="http://www.w3.org/2000/svg" xmlns:xlink="http://www.w3.org/1999/xlink" x="0px" y="0px"
	 viewBox="0 0 512.001 512.001" style="enable-background:new 0 0 512.001 512.001;" xml:space="preserve">
<g>
	<path style="fill:#FFCFB2;" d="M283.676,99.636c0-13.105,3.378-19.298,7.289-26.467c4.367-8.006,9.317-17.081,9.317-34.42
		c0-17.336-4.95-26.408-9.317-34.414l-0.004,0.002V4.329h0.001h-0.001V4.327c-2.196-4.024-7.238-5.51-11.266-3.309
		c-4.025,2.196-5.506,7.241-3.309,11.266l0.003,0.003l-0.001,0.001c3.911,7.169,7.289,13.36,7.289,26.461
		c0,13.105-3.378,19.298-7.289,26.467c-4.367,8.006-9.317,17.081-9.317,34.42c0,17.337,4.949,26.411,9.317,34.418
		c1.507,2.763,4.356,4.327,7.296,4.327c1.343,0,2.706-0.327,3.969-1.015c4.025-2.195,5.509-7.239,3.312-11.265
		C287.054,118.933,283.676,112.74,283.676,99.636z"/>
	<path style="fill:#FFCFB2;" d="M228.325,99.636c0-13.105,3.378-19.298,7.289-26.467c4.367-8.006,9.317-17.081,9.317-34.42
		c0-17.336-4.949-26.408-9.317-34.414l-0.004,0.002V4.329h0.001h-0.001V4.327c-2.196-4.024-7.238-5.51-11.266-3.309
		c-4.025,2.196-5.506,7.241-3.309,11.266l0.003,0.003l-0.001,0.001c3.911,7.169,7.289,13.36,7.289,26.461
		c0,13.105-3.378,19.298-7.289,26.467c-4.367,8.006-9.317,17.081-9.317,34.42c0,17.337,4.949,26.411,9.317,34.418
		c1.507,2.763,4.356,4.327,7.296,4.327c1.343,0,2.706-0.327,3.969-1.015c4.025-2.195,5.509-7.239,3.312-11.265
		C231.702,118.933,228.325,112.74,228.325,99.636z"/>
</g>
<path style="fill:#FE9F88;" d="M126.23,240.566l-44.281,22.14c-17.771,30.077-27.98,65.15-27.98,102.615v66.421h213.21
	l31.951-191.175L126.23,240.566z"/>
<path style="fill:#FD7555;" d="M383.14,240.568l-84.01-0.001C272.121,274.918,256,318.233,256,365.32c0,23.27,0,66.421,0,66.421
	h161.625c0,0,0-43.151,0-66.421C417.626,318.239,404.741,274.919,383.14,240.568z"/>
<path style="fill:#EF431D;" d="M454.015,325.115h-22.14l10.036-38.994c-5.502-12.899-12.312-25.105-20.256-36.461
	c-9.495,2.983-18.478,7.115-26.807,12.213l-8.311,169.87h60.309c7.24-20.804,11.188-43.151,11.188-66.421
	C458.032,351.551,456.642,338.109,454.015,325.115z"/>
<path style="fill:#FD7555;" d="M441.903,286.123c-12.09,2.449-23.189,7.611-32.665,14.8l-24.823,64.398h33.211
	c0-20.964,15.965-38.196,36.399-40.207C451.291,311.576,447.196,298.532,441.903,286.123z"/>
<path style="fill:#FE9F88;" d="M373.993,227.27c-46.517,28.376-77.587,79.575-77.587,138.05v71.956h121.219V365.32
	C417.626,311.933,401.051,263.391,373.993,227.27z"/>
<path style="fill:#FD7555;" d="M394.848,261.871c-34.803,21.301-58.033,59.656-58.033,103.449v71.956h40.406V365.32
	c0-26.295,12.57-49.641,32.018-64.398C405.544,287.185,400.696,274.112,394.848,261.871z"/>
<path style="fill:#FEC8BB;" d="M256,203.695c-89.264,0-161.625,72.362-161.625,161.625v71.956h121.219V365.32
	c0-22.315,18.091-40.406,40.406-40.406c1.357,0,2.697,0.07,4.02,0.2c8.535-42.251,30.239-79.726,60.663-107.944
	C300.875,208.511,279.002,203.695,256,203.695z"/>
<path style="fill:#FE9F88;" d="M256,244.102c-66.947,0-121.219,54.272-121.219,121.219v71.956h40.406V365.32
	c0-44.632,36.181-80.813,80.813-80.813c5.526,0,10.923,0.558,16.138,1.615c5.506-12.896,12.312-25.104,20.256-36.459
	C280.906,246.053,268.681,244.102,256,244.102z"/>
<path style="fill:#FDA162;" d="M446.962,440.044l-57.197,71.956h33.211c18.266,0,37.937-14.178,43.713-31.506l13.484-40.451H446.962
	z"/>
<path style="fill:#FDCE6E;" d="M31.828,440.044l13.484,40.451c5.776,17.328,25.447,31.506,43.713,31.506h300.741
	c18.266,0,37.937-14.178,43.713-31.506l13.484-40.451H31.828z"/>
<path style="fill:#FDFA7B;" d="M491.243,423.439H20.758c-9.171,0-16.605,7.435-16.605,16.605c0,9.171,7.435,16.605,16.605,16.605
	h470.484c9.171,0,16.605-7.435,16.605-16.605C507.848,430.874,500.413,423.439,491.243,423.439z"/>
<path style="fill:#B4462F;" d="M260.307,163.362l138.775,107.941c6.211-4.738,13.112-8.935,25.331-8.935
	c2.025,0,3.888,0.127,5.641,0.341C395.583,204.364,332.617,164.876,260.307,163.362z"/>
<path style="fill:#EF431D;" d="M260.307,163.362c-1.434-0.03-2.865-0.072-4.306-0.072c-74.115,0-138.896,39.917-174.052,99.416
	c1.748-0.213,3.604-0.338,5.621-0.338c28.071,0,28.071,22.14,56.142,22.14c28.07,0,28.07-22.14,56.139-22.14
	c28.071,0,28.071,22.14,56.142,22.14c28.07,0,28.07-22.14,56.139-22.14c28.071,0,28.071,22.14,56.142,22.14
	c15.85,0,22.752-7.059,30.808-13.206C372.645,208.571,320.591,165.332,260.307,163.362z"/>
<g>
</g>
<g>
</g>
<g>
</g>
<g>
</g>
<g>
</g>
<g>
</g>
<g>
</g>
<g>
</g>
<g>
</g>
<g>
</g>
<g>
</g>
<g>
</g>
<g>
</g>
<g>
</g>
<g>
</g>
</svg>
