<?xml version="1.0" encoding="iso-8859-1"?>
<!-- Generator: Adobe Illustrator 19.0.0, SVG Export Plug-In . SVG Version: 6.00 Build 0)  -->
<svg version="1.1" id="Layer_1" xmlns="http://www.w3.org/2000/svg" xmlns:xlink="http://www.w3.org/1999/xlink" x="0px" y="0px"
	 viewBox="0 0 511.999 511.999" style="enable-background:new 0 0 511.999 511.999;" xml:space="preserve">
<path style="fill:#99D9FF;" d="M171.015,91.349c17.831,17.799,21.173,44.566,10.065,65.762l176.522,176.522l-23.87,23.87
	L157.21,180.981l-10.065-65.762L79.623,47.698L79.576,0.004L171.015,91.349z"/>
<path style="fill:#CCECFF;" d="M147.145,115.219c17.831,17.799,21.173,44.566,10.065,65.762
	c-21.245,10.965-47.916,7.654-65.707-10.121L0,79.469h47.852l67.521,67.521L147.145,115.219z"/>
<rect x="228.369" y="164.455" transform="matrix(0.7071 0.7071 -0.7071 0.7071 260.5518 -95.2437)" style="fill:#66C6FE;" width="33.753" height="204.874"/>
<path style="fill:#B1786B;" d="M166.384,329.702l13.924,45.752L53,502.762c-12.221,12.206-31.922,12.333-44.009,0.246
	L166.384,329.702z"/>
<path style="fill:#FDA162;" d="M136.555,331.698l37.787,5.959L8.991,503.008c-12.079-12.079-11.967-31.78,0.254-44.001
	L136.555,331.698z"/>
<polygon style="fill:#66C6FE;" points="182.298,329.702 204.18,351.583 180.308,375.453 158.428,353.572 162.407,333.68 "/>
<rect x="143.962" y="313.826" transform="matrix(0.7071 0.7071 -0.7071 0.7071 280.5391 -15.8716)" style="fill:#99D9FF;" width="30.933" height="33.757"/>
<path style="fill:#B1786B;" d="M329.706,345.609l45.752-13.924l127.309,127.309c12.206,12.221,12.333,31.922,0.246,44.009
	L329.706,345.609z"/>
<path style="fill:#FDA162;" d="M331.703,375.44l5.959-37.787l165.35,165.35c-12.079,12.079-31.78,11.967-44.001-0.254
	L331.703,375.44z"/>
<polygon style="fill:#66C6FE;" points="329.706,329.695 351.587,307.815 375.458,331.685 353.576,353.567 333.685,349.588 "/>
<rect x="315.245" y="335.693" transform="matrix(0.7071 -0.7071 0.7071 0.7071 -152.4424 337.1145)" style="fill:#99D9FF;" width="30.933" height="33.757"/>
<path style="fill:#66C6FE;" d="M319.256,216.726l23.87,23.87c13.128,13.128,34.604,13.121,47.725-0.016l111.299-111.379
	c13.121-13.136,13.128-34.628,0-47.757l-23.854-23.886L319.256,216.726z"/>
<path style="fill:#99D9FF;" d="M382.919,9.858c13.121-13.136,34.604-13.136,47.725,0l47.654,47.701
	c13.113,13.144,13.105,34.636-0.016,47.773L366.982,216.712c-13.121,13.136-34.596,13.144-47.725,0.016l-47.685-47.685
	c-13.128-13.128-13.128-34.612-0.008-47.748L382.919,9.858z"/>
<g>
	<path style="fill:#496A7E;" d="M476.363,107.376c-3.295-3.295-8.639-3.296-11.934,0.001l-95.456,95.421
		c-3.296,3.296-3.296,8.64,0.001,11.935c3.295,3.295,8.639,3.296,11.934-0.001l95.456-95.421
		C479.659,116.015,479.659,110.672,476.363,107.376z"/>
	<path style="fill:#496A7E;" d="M404.747,35.726c-3.295-3.295-8.639-3.296-11.934,0.001l-95.456,95.421
		c-3.296,3.296-3.296,8.64,0.001,11.935c3.295,3.295,8.639,3.296,11.934-0.001l95.456-95.421
		C408.043,44.366,408.043,39.022,404.747,35.726z"/>
	<path style="fill:#496A7E;" d="M452.52,83.499c-3.295-3.295-8.639-3.296-11.935,0.001l-95.456,95.421
		c-3.296,3.296-3.296,8.64,0.001,11.935c3.295,3.295,8.639,3.296,11.935-0.001l95.456-95.421
		C455.817,92.139,455.817,86.795,452.52,83.499z"/>
	<path style="fill:#496A7E;" d="M428.65,59.629c-3.295-3.295-8.639-3.296-11.935,0.001l-95.456,95.421
		c-3.296,3.296-3.296,8.64,0.001,11.935c3.295,3.295,8.639,3.296,11.935-0.001l95.456-95.421
		C431.947,68.268,431.947,62.925,428.65,59.629z"/>
</g>
<g>
</g>
<g>
</g>
<g>
</g>
<g>
</g>
<g>
</g>
<g>
</g>
<g>
</g>
<g>
</g>
<g>
</g>
<g>
</g>
<g>
</g>
<g>
</g>
<g>
</g>
<g>
</g>
<g>
</g>
</svg>
