<?xml version="1.0" encoding="iso-8859-1"?>
<!-- Generator: Adobe Illustrator 19.0.0, SVG Export Plug-In . SVG Version: 6.00 Build 0)  -->
<svg version="1.1" id="Layer_1" xmlns="http://www.w3.org/2000/svg" xmlns:xlink="http://www.w3.org/1999/xlink" x="0px" y="0px"
	 viewBox="0 0 512 512" style="enable-background:new 0 0 512 512;" xml:space="preserve">
<path style="fill:#FDA162;" d="M512,256c0-18.33-7.315-34.942-19.171-47.108c6.298-15.777,6.699-33.925-0.315-50.859
	c-7.014-16.934-20.13-29.483-35.74-36.185c-0.218-16.986-6.793-33.906-19.754-46.867c-12.961-12.961-29.881-19.536-46.867-19.754
	c-6.702-15.61-19.251-28.725-36.185-35.74c-16.934-7.014-35.082-6.613-50.859-0.315C290.942,7.315,274.33,0,256,0l-45.011,256
	L256,512c18.33,0,34.942-7.315,47.109-19.171c15.777,6.298,33.925,6.699,50.859-0.315c16.934-7.014,29.483-20.13,36.185-35.74
	c16.986-0.218,33.906-6.793,46.867-19.754c12.961-12.961,19.536-29.881,19.754-46.867c15.61-6.702,28.725-19.251,35.74-36.185
	c7.014-16.934,6.613-35.082,0.315-50.859C504.685,290.942,512,274.33,512,256z"/>
<path style="fill:#FDCE6E;" d="M208.892,19.171c-15.777-6.298-33.925-6.699-50.859,0.315c-16.934,7.014-29.483,20.13-36.185,35.74
	C104.861,55.445,87.941,62.02,74.98,74.98s-19.536,29.881-19.754,46.867c-15.61,6.702-28.725,19.251-35.74,36.185
	s-6.613,35.082-0.315,50.859C7.315,221.058,0,237.67,0,256c0,18.33,7.315,34.942,19.171,47.109
	c-6.298,15.777-6.699,33.925,0.315,50.859s20.13,29.483,35.74,36.185c0.218,16.986,6.793,33.906,19.754,46.867
	s29.881,19.536,46.867,19.754c6.702,15.61,19.251,28.725,36.185,35.74c16.934,7.014,35.082,6.613,50.859,0.315
	C221.058,504.685,237.67,512,256,512V0C237.67,0,221.058,7.315,208.892,19.171z"/>
<path style="fill:#FD7555;" d="M256,50.637l-78.769,182.563L256,461.363c113.419,0,205.363-91.944,205.363-205.363
	S369.419,50.637,256,50.637z"/>
<path style="fill:#FDA162;" d="M50.637,256c0,113.419,91.944,205.363,205.363,205.363V50.637
	C142.581,50.637,50.637,142.581,50.637,256z"/>
<path style="fill:#FDCE6E;" d="M257.778,84.407v343.186c93.803-0.957,169.826-77.565,169.826-171.593S351.581,85.363,257.778,84.407
	z"/>
<path style="fill:#FDFA7B;" d="M257.778,84.407c-0.596-0.011-1.182-0.011-1.778-0.011c-94.624,0-171.604,76.98-171.604,171.604
	S161.376,427.604,256,427.604c0.596,0,1.182,0,1.778-0.011C332.98,426.4,393.846,349.882,393.846,256S332.98,85.6,257.778,84.407z"
	/>
<path style="fill:#FD7555;" d="M306.637,174.418h-16.879v-8.44c0-13.961-11.359-25.319-25.319-25.319H247.56
	c-13.96,0-25.319,11.357-25.319,25.319v8.44h-16.879v-8.44c0-23.268,18.929-42.198,42.198-42.198h16.879
	c23.268,0,42.198,18.929,42.198,42.198V174.418z"/>
<path style="fill:#FDA162;" d="M320.703,165.978h-33.758l33.758,56.264h33.758v-22.506
	C354.462,181.169,339.27,165.978,320.703,165.978z"/>
<path style="fill:#FDCE6E;" d="M286.945,165.978h-95.648c-18.567,0-33.758,15.191-33.758,33.758v22.506h163.165v-22.506
	C320.703,181.169,305.512,165.978,286.945,165.978z"/>
<g>
	<path style="fill:#FD7555;" d="M379.78,247.56H132.22c-4.662,0-8.44,3.779-8.44,8.44c0,4.661,3.778,8.44,8.44,8.44h247.56
		c4.662,0,8.44-3.779,8.44-8.44C388.22,251.339,384.442,247.56,379.78,247.56z"/>
	<path style="fill:#FD7555;" d="M157.538,222.242V256l163.165,101.275c18.567,0,33.758-15.191,33.758-33.758V222.242H157.538z"/>
</g>
<g>
	<path style="fill:#FDA162;" d="M157.538,256v67.517c0,18.567,15.191,33.758,33.758,33.758h129.407V256H157.538z"/>
	<path style="fill:#FDA162;" d="M357.275,230.681H154.725c-4.662,0-8.44-3.779-8.44-8.44c0-4.661,3.778-8.44,8.44-8.44h202.549
		c4.662,0,8.44,3.779,8.44,8.44C365.714,226.903,361.937,230.681,357.275,230.681z"/>
</g>
<g>
</g>
<g>
</g>
<g>
</g>
<g>
</g>
<g>
</g>
<g>
</g>
<g>
</g>
<g>
</g>
<g>
</g>
<g>
</g>
<g>
</g>
<g>
</g>
<g>
</g>
<g>
</g>
<g>
</g>
</svg>
