<?xml version="1.0" encoding="iso-8859-1"?>
<!-- Generator: Adobe Illustrator 19.0.0, SVG Export Plug-In . SVG Version: 6.00 Build 0)  -->
<svg version="1.1" id="Layer_1" xmlns="http://www.w3.org/2000/svg" xmlns:xlink="http://www.w3.org/1999/xlink" x="0px" y="0px"
	 viewBox="0 0 512 512" style="enable-background:new 0 0 512 512;" xml:space="preserve">
<polygon style="fill:#FDA162;" points="427.604,475.429 495.121,475.429 495.121,441.671 461.363,419.165 427.604,441.671 "/>
<rect x="427.604" y="374.154" style="fill:#FD7555;" width="67.516" height="67.516"/>
<polygon style="fill:#FDA162;" points="16.879,475.429 84.396,475.429 84.396,441.671 50.637,419.165 16.879,441.671 "/>
<g>
	<rect x="16.879" y="374.154" style="fill:#FD7555;" width="67.516" height="67.516"/>
	<polygon style="fill:#FD7555;" points="478.242,317.891 444.484,362.902 478.242,407.913 512,407.913 512,382.594 500.747,374.154 
		512,365.715 512,317.891 	"/>
</g>
<polygon style="fill:#FDA162;" points="0,317.891 0,343.209 11.253,351.649 0,360.089 0,407.913 478.242,407.913 478.242,317.891 
	"/>
<path style="fill:#3F4C53;" d="M135.033,47.825h-16.879L84.396,165.979l33.758,118.154h16.879
	c55.701,0,101.275-45.574,101.275-101.275v-33.758C236.308,93.398,190.734,47.825,135.033,47.825z"/>
<path style="fill:#496A7E;" d="M101.275,47.825C45.574,47.825,0,93.398,0,149.099v33.758c0,55.701,45.574,101.275,101.275,101.275
	h16.879V47.825H101.275z"/>
<path style="fill:#FFFFFF;" d="M135.033,81.583h-33.758c-37.229,0-67.516,30.288-67.516,67.516v33.758
	c0,37.229,30.288,67.516,67.516,67.516h33.758c37.229,0,67.516-30.288,67.516-67.516v-33.758
	C202.549,111.871,172.262,81.583,135.033,81.583z"/>
<path style="fill:#C1D560;" d="M118.154,126.594c17.855,0,32.926,11.885,37.756,28.174l-48.967,48.967
	c-16.288-4.83-28.174-19.902-28.174-37.756C78.769,144.227,96.402,126.594,118.154,126.594z"/>
<path style="fill:#FD7555;" d="M155.91,154.766c1.054,3.555,1.628,7.315,1.628,11.211c0,21.752-17.633,39.385-39.385,39.385
	c-3.897,0-7.658-0.575-11.211-1.628C107.787,177.066,129.241,155.611,155.91,154.766z"/>
<path style="fill:#FEFDCA;" d="M256.739,354.495C193.629,348.947,128.37,343.209,0,343.209v16.879
	c127.63,0,192.514,5.704,255.261,11.22c63.111,5.548,128.369,11.285,256.739,11.285v-16.879
	C384.37,365.715,319.487,360.011,256.739,354.495z"/>
<path style="fill:#FDCE6E;" d="M512,202.55c0-18.645-15.114-33.758-33.758-33.758l-11.253-67.516L399.473,78.77l45.011,205.363
	h33.758c18.645,0,33.758-15.114,33.758-33.758c0-9.344-3.797-17.8-9.931-23.912C508.203,220.35,512,211.893,512,202.55z"/>
<path style="fill:#FEFDCA;" d="M478.242,250.374c0-9.344-3.797-17.8-9.931-23.912c6.134-6.113,9.931-14.569,9.931-23.912
	c0-18.645-15.114-33.758-33.758-33.758V78.77l-123.78,11.253l-11.253,78.769c-18.645,0-33.758,15.114-33.758,33.758
	c0,9.344,3.797,17.8,9.931,23.912c-6.134,6.113-9.931,14.569-9.931,23.912c0,18.645,15.114,33.758,33.758,33.758h135.033
	C463.128,284.132,478.242,269.019,478.242,250.374z"/>
<path style="fill:#FDA162;" d="M331.424,65.705l-0.413,13.789l-13.23-3.851c-14.557,12.276-26.113,27.996-33.406,45.893
	l7.802,11.408l-13.027,4.641c-2.253,9.099-3.457,18.608-3.457,28.393c0,12.43,10.076,22.505,22.505,22.505
	c12.43,0,22.505-10.076,22.505-22.505c0-40.331,32.812-73.143,73.143-73.143V47.825C370.945,47.825,349.549,54.381,331.424,65.705z"
	/>
<path style="fill:#FD7555;" d="M508.543,137.586l-13.027-4.641l7.802-11.408c-7.293-17.897-18.849-33.618-33.406-45.893
	l-13.23,3.852l-0.413-13.789c-18.125-11.326-39.521-17.882-62.422-17.882v45.011c40.331,0,73.143,32.812,73.143,73.143
	c0,12.43,10.076,22.505,22.505,22.505S512,178.408,512,165.979C512,156.193,510.796,146.685,508.543,137.586z"/>
<g>
	<path style="fill:#FEFDCA;" d="M324.184,84.455c2.74,3.771,8.016,4.609,11.788,1.867c3.772-2.74,4.607-8.018,1.867-11.788
		l-6.414-8.829c-4.787,2.991-9.345,6.314-13.643,9.938L324.184,84.455z"/>
	<path style="fill:#FEFDCA;" d="M294.785,124.918l-10.409-3.383c-2.11,5.179-3.862,10.537-5.227,16.049l10.42,3.386
		c4.427,1.438,9.194-0.985,10.634-5.418C301.645,131.12,299.217,126.36,294.785,124.918z"/>
	<path style="fill:#FEFDCA;" d="M503.316,121.537l-10.409,3.383c-4.432,1.44-6.86,6.201-5.418,10.634
		c1.439,4.434,6.207,6.857,10.634,5.418l10.42-3.386C507.178,132.074,505.426,126.714,503.316,121.537z"/>
	<path style="fill:#FEFDCA;" d="M456.269,65.705l-6.415,8.829c-2.74,3.771-1.904,9.048,1.867,11.788
		c3.767,2.74,9.048,1.904,11.788-1.867l6.402-8.812C465.614,72.019,461.055,68.696,456.269,65.705z"/>
</g>
<path style="fill:#3F4C53;" d="M416.352,38.534c-7.311-1.287-14.831-1.964-22.505-1.964c-7.674,0-15.195,0.675-22.505,1.964v245.598
	h45.011V38.534z"/>
<g>
</g>
<g>
</g>
<g>
</g>
<g>
</g>
<g>
</g>
<g>
</g>
<g>
</g>
<g>
</g>
<g>
</g>
<g>
</g>
<g>
</g>
<g>
</g>
<g>
</g>
<g>
</g>
<g>
</g>
</svg>
