<?xml version="1.0" encoding="iso-8859-1"?>
<!-- Generator: Adobe Illustrator 19.0.0, SVG Export Plug-In . SVG Version: 6.00 Build 0)  -->
<svg version="1.1" id="Layer_1" xmlns="http://www.w3.org/2000/svg" xmlns:xlink="http://www.w3.org/1999/xlink" x="0px" y="0px"
	 viewBox="0 0 512 512" style="enable-background:new 0 0 512 512;" xml:space="preserve">
<path style="fill:#FDCE6E;" d="M512,316.484c0-141.385-114.615-256-256-256l-22.505,357.275H512
	C512,417.758,512,335.128,512,316.484z"/>
<path style="fill:#FDFA7B;" d="M0,316.484c0,18.645,0,101.275,0,101.275h256V60.484C114.615,60.484,0,175.098,0,316.484z"/>
<path style="fill:#668A30;" d="M464.181,289.076c6.636-8.123,9.41-19.207,6.487-30.112c-2.922-10.906-10.866-19.118-20.675-22.834
	c4.308-9.564,4.118-20.989-1.527-30.766c-5.645-9.778-15.444-15.654-25.881-16.706c1.686-10.353-1.454-21.339-9.438-29.322
	s-18.97-11.123-29.322-9.438c-1.051-10.437-6.927-20.236-16.705-25.88c-9.778-5.646-21.202-5.835-30.766-1.527
	c-3.717-9.809-11.929-17.753-22.834-20.675c-10.905-2.922-21.99-0.149-30.112,6.488C277.279,99.789,267.29,94.242,256,94.242
	l-22.505,249.649h230.687c8.513-6.128,14.06-16.117,14.06-27.407C478.242,305.194,472.694,295.205,464.181,289.076z"/>
<path style="fill:#84B044;" d="M228.593,108.302c-8.123-6.636-19.207-9.41-30.112-6.488c-10.905,2.922-19.118,10.867-22.834,20.675
	c-9.564-4.308-20.989-4.119-30.766,1.527c-9.778,5.646-15.654,15.444-16.705,25.88c-10.353-1.686-21.339,1.454-29.322,9.438
	s-11.123,18.97-9.438,29.322c-10.437,1.051-20.236,6.927-25.881,16.706s-5.835,21.202-1.527,30.766
	c-9.809,3.717-17.753,11.929-20.675,22.834c-2.922,10.905-0.149,21.99,6.487,30.112c-8.514,6.13-14.061,16.12-14.061,27.409
	c0,11.29,5.548,21.279,14.06,27.407H256V94.242C244.71,94.242,234.721,99.789,228.593,108.302z"/>
<path style="fill:#FDA162;" d="M256,161.758l188.484,289.758h33.758c18.645,0,33.758-15.114,33.758-33.758
	C512,276.373,397.385,161.758,256,161.758z"/>
<path style="fill:#FDCE6E;" d="M478.242,417.758c0-141.385-99.501-256-222.242-256c-141.385,0-256,114.615-256,256
	c0,18.645,15.114,33.758,33.758,33.758h410.725C463.128,451.517,478.242,436.403,478.242,417.758z"/>
<g>
	<circle style="fill:#FDA162;" cx="47.824" cy="375.56" r="8.44"/>
	<circle style="fill:#FDA162;" cx="81.582" cy="409.319" r="8.44"/>
	<circle style="fill:#FDA162;" cx="436.044" cy="375.56" r="8.44"/>
	<circle style="fill:#FDA162;" cx="368.527" cy="308.044" r="8.44"/>
	<circle style="fill:#FDA162;" cx="165.978" cy="274.286" r="8.44"/>
	<circle style="fill:#FDA162;" cx="334.769" cy="341.802" r="8.44"/>
</g>
<g>
</g>
<g>
</g>
<g>
</g>
<g>
</g>
<g>
</g>
<g>
</g>
<g>
</g>
<g>
</g>
<g>
</g>
<g>
</g>
<g>
</g>
<g>
</g>
<g>
</g>
<g>
</g>
<g>
</g>
</svg>
