<?xml version="1.0" encoding="iso-8859-1"?>
<!-- Generator: Adobe Illustrator 19.0.0, SVG Export Plug-In . SVG Version: 6.00 Build 0)  -->
<svg version="1.1" id="Layer_1" xmlns="http://www.w3.org/2000/svg" xmlns:xlink="http://www.w3.org/1999/xlink" x="0px" y="0px"
	 viewBox="0 0 512 512" style="enable-background:new 0 0 512 512;" xml:space="preserve">
<polygon style="fill:#66C6FE;" points="36.574,379.406 36.574,300.636 81.585,324.74 81.585,358.493 "/>
<polygon style="fill:#99D9FF;" points="14.068,358.493 14.068,324.74 47.826,300.636 47.826,379.406 "/>
<path style="fill:#3F4C53;" d="M81.585,358.493v119.748c0,18.646-15.112,33.758-33.758,33.758L36.574,358.493H81.585z"/>
<path style="fill:#496A7E;" d="M47.826,358.493V512c-18.646,0-33.758-15.112-33.758-33.758V358.493H47.826z"/>
<path style="fill:#99D9FF;" d="M14.068,33.758V0c62.148,0,112.527,50.38,112.527,112.527V324.74H92.837L14.068,33.758z"/>
<path style="fill:#CCECFF;" d="M92.837,112.527V324.74H14.068V33.758C57.502,33.758,92.837,69.094,92.837,112.527z"/>
<polygon style="fill:#66C6FE;" points="182.859,379.406 182.859,300.636 227.87,324.74 227.87,358.493 "/>
<polygon style="fill:#99D9FF;" points="160.354,358.493 160.354,324.74 194.112,300.636 194.112,379.406 "/>
<polygon style="fill:#66C6FE;" points="355.022,0.003 355.022,324.735 321.264,324.735 287.505,162.369 321.264,0.003 "/>
<polygon style="fill:#99D9FF;" points="321.264,0.003 321.264,324.735 287.505,324.735 253.747,162.369 287.505,0.003 "/>
<path style="fill:#CCECFF;" d="M194.108,0.003c-18.567,0-33.758,15.191-33.758,33.758v290.974h127.156V0.003H194.108z"/>
<path style="fill:#3F4C53;" d="M227.87,358.493v119.748c0,18.646-15.112,33.758-33.758,33.758l-11.253-153.507H227.87z"/>
<path style="fill:#496A7E;" d="M194.112,358.493V512c-18.646,0-33.758-15.112-33.758-33.758V358.493H194.112z"/>
<polygon style="fill:#66C6FE;" points="411.29,379.406 411.29,300.636 456.301,324.74 456.301,358.493 "/>
<polygon style="fill:#99D9FF;" points="388.785,358.493 388.785,324.74 422.543,300.636 422.543,379.406 "/>
<path style="fill:#3F4C53;" d="M456.301,358.493v119.748c0,18.646-15.112,33.758-33.758,33.758L411.29,358.493H456.301z"/>
<path style="fill:#496A7E;" d="M422.543,358.493V512c-18.646,0-33.758-15.112-33.758-33.758V358.493H422.543z"/>
<path style="fill:#99D9FF;" d="M497.932,33.758c0,8.203-2.926,15.72-7.787,21.56c4.861,5.851,7.787,13.368,7.787,21.572
	s-2.926,15.72-7.787,21.572c4.861,5.84,7.787,13.357,7.787,21.56s-2.926,15.72-7.787,21.572c4.861,5.851,7.787,13.368,7.787,21.572
	s-2.926,15.72-7.787,21.56c4.861,5.851,7.787,13.368,7.787,21.572s-2.926,15.72-7.787,21.572c4.861,5.84,7.787,13.357,7.787,21.56
	c0,8.203-2.926,15.72-7.787,21.572c4.861,5.851,7.787,13.368,7.787,21.572c0,18.646-15.112,33.758-33.758,33.758H456.3
	l-33.758-163.165L456.3,0h7.874C482.819,0,497.932,15.112,497.932,33.758z"/>
<path style="fill:#CCECFF;" d="M456.301,0v326.33h-67.517V33.758C388.785,15.191,403.976,0,422.543,0H456.301z"/>
<g>
</g>
<g>
</g>
<g>
</g>
<g>
</g>
<g>
</g>
<g>
</g>
<g>
</g>
<g>
</g>
<g>
</g>
<g>
</g>
<g>
</g>
<g>
</g>
<g>
</g>
<g>
</g>
<g>
</g>
</svg>
