<?xml version="1.0" encoding="iso-8859-1"?>
<!-- Generator: Adobe Illustrator 19.0.0, SVG Export Plug-In . SVG Version: 6.00 Build 0)  -->
<svg version="1.1" id="Layer_1" xmlns="http://www.w3.org/2000/svg" xmlns:xlink="http://www.w3.org/1999/xlink" x="0px" y="0px"
	 viewBox="0 0 512 512" style="enable-background:new 0 0 512 512;" xml:space="preserve">
<path style="fill:#FDCE6E;" d="M390.992,235.933h-33.758v78.769l67.438-33.758c0.056-3.59,0.079-7.337,0.079-11.253
	C424.751,251.124,409.56,235.933,390.992,235.933z"/>
<path style="fill:#FDFA7B;" d="M390.992,269.691c0,3.916-0.022,41.421-0.079,45.011l-112.37-33.758
	c-0.056-3.59-0.079-7.337-0.079-11.253c0-18.567,15.191-33.758,33.758-33.758h45.011
	C375.801,235.933,390.992,251.124,390.992,269.691z"/>
<path style="fill:#FD7555;" d="M390.914,280.944h33.758c-0.675,48.668-5.806,68.653-11.692,96.785
	c-4.49,21.481-9.497,45.495-13.143,83.259h-33.758l-20.615-83.259L390.914,280.944z"/>
<g>
	<path style="fill:#FDA162;" d="M278.544,280.944h112.37c-0.675,48.668-5.806,68.653-11.692,96.785
		c-4.49,21.481-9.497,45.495-13.143,83.259H303.39c-3.646-37.764-8.665-61.778-13.154-83.259
		C284.361,349.597,279.219,329.612,278.544,280.944z"/>
	<polygon style="fill:#FDA162;" points="189.647,17.254 160.39,17.254 149.137,62.265 189.647,51.012 	"/>
</g>
<polygon style="fill:#FDFA7B;" points="131.133,17.254 131.133,51.012 160.39,62.265 160.39,17.254 "/>
<path style="fill:#975D50;" d="M233.533,226.931c0-29.99-18.057-55.751-43.886-67.039l-12.378,67.039l22.505,250.936h33.758V343.959
	l-16.879-58.514L233.533,226.931z"/>
<path style="fill:#B1786B;" d="M189.647,159.891V51.012h-58.514V159.89c-25.828,11.289-43.886,37.05-43.886,67.039l33.758,69.767
	l-33.758,69.767v94.523l112.527,16.879V226.93C199.775,196.94,195.608,171.18,189.647,159.891z"/>
<polygon style="fill:#FDA162;" points="233.533,226.931 233.533,366.465 199.775,366.465 175.018,296.698 199.775,226.931 "/>
<rect x="87.243" y="226.934" style="fill:#FDFA7B;" width="112.527" height="139.534"/>
<path style="fill:#5CA8D3;" d="M444.484,460.988l-33.758,33.758h33.758c18.645,0,33.758-15.114,33.758-33.758H444.484z"/>
<path style="fill:#66C6FE;" d="M444.484,460.988H33.758c0,18.645,15.114,33.758,33.758,33.758h343.209
	C429.37,494.746,444.484,479.631,444.484,460.988z"/>
<path style="fill:#5CA8D3;" d="M503.56,469.427H8.44c-4.662,0-8.44-3.778-8.44-8.44s3.778-8.44,8.44-8.44H503.56
	c4.662,0,8.44,3.778,8.44,8.44S508.222,469.427,503.56,469.427z"/>
<g>
</g>
<g>
</g>
<g>
</g>
<g>
</g>
<g>
</g>
<g>
</g>
<g>
</g>
<g>
</g>
<g>
</g>
<g>
</g>
<g>
</g>
<g>
</g>
<g>
</g>
<g>
</g>
<g>
</g>
</svg>
