<?xml version="1.0" encoding="iso-8859-1"?>
<!-- Generator: Adobe Illustrator 19.0.0, SVG Export Plug-In . SVG Version: 6.00 Build 0)  -->
<svg version="1.1" id="Layer_1" xmlns="http://www.w3.org/2000/svg" xmlns:xlink="http://www.w3.org/1999/xlink" x="0px" y="0px"
	 viewBox="0 0 512 512" style="enable-background:new 0 0 512 512;" xml:space="preserve">
<path style="fill:#FD7555;" d="M282.725,0v101.275c27.966,0,50.637-22.671,50.637-50.637S310.692,0,282.725,0z"/>
<path style="fill:#FDA162;" d="M299.604,50.637C299.604,22.671,292.047,0,282.725,0c-27.966,0-50.637,22.671-50.637,50.637
	s22.671,50.637,50.637,50.637C292.047,101.275,299.604,78.604,299.604,50.637z"/>
<path style="fill:#99D9FF;" d="M440.264,337.582l-33.758,87.209L440.264,512h45.011V382.593
	C485.275,357.735,465.123,337.582,440.264,337.582z"/>
<path style="fill:#CCECFF;" d="M406.506,337.582l-17.285,33.758l-17.285-33.758h-178.42l-17.285,33.758l-17.285-33.758h-33.758
	c-24.86,0-45.011,20.153-45.011,45.011V512h78.769l61.89-33.758L282.724,512l61.89-33.758L406.504,512h33.758V337.582H406.506z"/>
<polygon style="fill:#3F4C53;" points="371.936,337.582 282.725,512 406.506,512 406.506,337.582 "/>
<polygon style="fill:#496A7E;" points="158.945,337.582 158.945,512 282.725,512 193.515,337.582 "/>
<path style="fill:#FEC8BB;" d="M170.085,185.67c-18.645,0-33.758,15.115-33.758,33.758c0,18.645,15.114,33.758,33.758,33.758h112.64
	V185.67H170.085z"/>
<g>
	<path style="fill:#FE9F88;" d="M395.365,185.67h-112.64v67.516h112.64c18.645,0,33.758-15.114,33.758-33.758
		C429.124,200.785,414.01,185.67,395.365,185.67z"/>
	<path style="fill:#FE9F88;" d="M348.707,125.721l-65.982,31.817v180.044c55.933,0,101.275-45.342,101.275-101.275v-33.758
		C384,171.823,370.313,144.295,348.707,125.721z"/>
</g>
<path style="fill:#FEC8BB;" d="M335.344,139.097l-118.601-13.376c-21.606,18.574-35.293,46.101-35.293,76.828v33.758
	c0,55.933,45.342,101.275,101.275,101.275c37.288,0,67.516-45.342,67.516-101.275v-33.758
	C350.242,178.526,344.662,156.46,335.344,139.097z"/>
<path style="fill:#FDA162;" d="M348.707,125.721c-17.723-15.235-40.775-24.447-65.982-24.447s-48.259,9.212-65.982,24.447
	c15.458,19.385,39.26,31.817,65.982,31.817C309.447,157.538,333.249,145.106,348.707,125.721z"/>
<polygon style="fill:#496A7E;" points="282.725,380.397 255.972,363.676 255.972,407.137 282.725,390.416 309.479,407.137 
	309.479,363.676 "/>
<circle style="fill:#FE9F88;" cx="220.835" cy="236.308" r="16.879"/>
<path style="fill:#FD7555;" d="M350.242,220.41l-11.679,15.889l10.817,16.195c7-2.058,12.115-8.519,12.115-16.186
	C361.495,228.962,356.793,222.729,350.242,220.41z"/>
<path style="fill:#FE9F88;" d="M350.242,220.41c-1.762-0.625-3.65-0.981-5.626-0.981c-9.322,0-16.879,7.557-16.879,16.879
	c0,9.322,7.557,16.879,16.879,16.879c1.656,0,3.252-0.249,4.764-0.693c0.565-5.271,0.862-10.677,0.862-16.186V220.41z"/>
<g>
	<path style="fill:#B4462F;" d="M252.906,216.615c-3.675,0-6.801-2.348-7.959-5.626h-11.171c-4.661,0-8.44-3.778-8.44-8.44
		c0-4.662,3.779-8.44,8.44-8.44h19.13c4.661,0,8.44,3.778,8.44,8.44v5.626C261.345,212.838,257.566,216.615,252.906,216.615z"/>
	<path style="fill:#B4462F;" d="M312.545,216.615c-4.662,0-8.44-3.778-8.44-8.44v-5.626c0-4.662,3.778-8.44,8.44-8.44h19.13
		c4.662,0,8.44,3.778,8.44,8.44c0,4.662-3.778,8.44-8.44,8.44h-11.171C319.346,214.267,316.22,216.615,312.545,216.615z"/>
</g>
<path style="fill:#EF431D;" d="M282.725,274.73c-11.883,0-22.539-7.521-26.519-18.716c-1.561-4.392,0.734-9.218,5.126-10.779
	c4.392-1.565,9.218,0.731,10.779,5.124c1.593,4.481,5.859,7.491,10.616,7.491c4.757,0,9.022-3.01,10.616-7.491
	c1.561-4.391,6.39-6.689,10.778-5.124c4.392,1.561,6.686,6.387,5.126,10.779C305.265,267.209,294.608,274.73,282.725,274.73z"/>
<path style="fill:#FEC8BB;" d="M113.934,433.231c0,24.858,20.153,45.011,45.011,45.011s45.011-20.153,45.011-45.011H113.934z"/>
<path style="fill:#66C6FE;" d="M282.725,441.67H35.165c-4.661,0-8.44-3.778-8.44-8.44c0-4.662,3.779-8.44,8.44-8.44h247.56
	c4.662,0,8.44,3.778,8.44,8.44C291.165,437.893,287.387,441.67,282.725,441.67z"/>
<g>
</g>
<g>
</g>
<g>
</g>
<g>
</g>
<g>
</g>
<g>
</g>
<g>
</g>
<g>
</g>
<g>
</g>
<g>
</g>
<g>
</g>
<g>
</g>
<g>
</g>
<g>
</g>
<g>
</g>
</svg>
