<?xml version="1.0" encoding="iso-8859-1"?>
<!-- Generator: Adobe Illustrator 19.0.0, SVG Export Plug-In . SVG Version: 6.00 Build 0)  -->
<svg version="1.1" id="Layer_1" xmlns="http://www.w3.org/2000/svg" xmlns:xlink="http://www.w3.org/1999/xlink" x="0px" y="0px"
	 viewBox="0 0 512 512" style="enable-background:new 0 0 512 512;" xml:space="preserve">
<g>
	<rect x="430.357" y="359.784" style="fill:#FEC8BB;" width="16.605" height="132.843"/>
	<rect x="65.038" y="359.784" style="fill:#FEC8BB;" width="16.605" height="132.843"/>
	<polygon style="fill:#FEC8BB;" points="129.799,204.8 136.674,271.222 71.802,304.432 101.57,204.8 	"/>
	<polygon style="fill:#FEC8BB;" points="495.118,204.8 501.992,271.222 437.121,304.432 466.889,204.8 	"/>
</g>
<g>
	<path style="fill:#EF431D;" d="M504.716,297.48l-2.723-26.259h-31.661l-31.672,99.632c36.687,0,66.422-29.735,66.422-66.422
		C505.081,302.086,504.959,299.761,504.716,297.48z"/>
	<path style="fill:#EF431D;" d="M139.397,297.48l-2.723-26.259h-31.661l-31.672,99.632c36.687,0,66.422-29.735,66.422-66.422
		C139.762,302.086,139.64,299.761,139.397,297.48z"/>
</g>
<polygon style="fill:#FD7555;" points="256,0 289.211,0 289.211,33.211 244.93,55.351 "/>
<polygon style="fill:#FE9F88;" points="256,0 256,55.351 222.789,33.211 222.789,0 "/>
<polygon style="fill:#EF431D;" points="256,33.211 289.211,33.211 289.211,119.005 233.859,141.146 "/>
<polygon style="fill:#FD7555;" points="256,33.211 256,141.146 222.789,119.005 222.789,33.211 "/>
<path style="fill:#47631C;" d="M339.027,238.011c0-33.986-20.425-63.189-49.661-76.031l-3.476,341.717h19.926
	c18.266,0,33.211-14.945,33.211-33.211v-99.632l-17.396-66.422L339.027,238.011z"/>
<path style="fill:#668A30;" d="M305.816,223.619c0-24.476-6.354-46.451-16.45-61.639c-0.055-0.022-0.1-0.044-0.155-0.066v-42.908
	h-66.422v42.908c-29.314,12.808-49.816,42.056-49.816,76.097l44.048,66.422l-44.048,66.422v99.632
	c0,18.266,14.945,33.211,33.211,33.211h79.706c10.96,0,19.926-14.945,19.926-33.211V223.619z"/>
<polygon style="fill:#FEC8BB;" points="339.027,238.011 339.027,370.854 305.816,370.854 272.605,304.432 305.816,238.011 "/>
<g>
	<rect x="172.973" y="238.011" style="fill:#FEFDCA;" width="132.843" height="132.843"/>
	<polygon style="fill:#FEFDCA;" points="466.889,204.8 470.332,271.222 422.829,293.362 375.326,271.222 382.201,204.8 	"/>
</g>
<path style="fill:#FD7555;" d="M471.693,297.48c0.111,2.28,0.177,4.605,0.177,6.952c0,36.687-14.867,66.422-33.211,66.422
	c-36.687,0-66.422-29.735-66.422-66.422c0-2.347,0.122-4.672,0.365-6.952l2.723-26.259h95.005L471.693,297.48z"/>
<path style="fill:#EF431D;" d="M289.211,41.514h-66.422c-4.586,0-8.303-3.717-8.303-8.303s3.716-8.303,8.303-8.303h66.422
	c4.586,0,8.303,3.717,8.303,8.303S293.797,41.514,289.211,41.514z"/>
<path style="fill:#FD7555;" d="M438.659,481.557c-28.229,0-28.229,22.141-56.458,22.141h112.917
	C466.889,503.697,466.889,481.557,438.659,481.557z"/>
<path style="fill:#FEC8BB;" d="M495.118,512H382.201c-4.586,0-8.303-3.717-8.303-8.303c0-4.585,3.716-8.303,8.303-8.303h112.917
	c4.586,0,8.303,3.717,8.303,8.303C503.421,508.283,499.704,512,495.118,512z"/>
<polygon style="fill:#FEFDCA;" points="101.57,204.8 105.013,271.222 57.51,293.362 10.008,271.222 16.882,204.8 "/>
<g>
	<path style="fill:#FD7555;" d="M106.374,297.48c0.111,2.28,0.177,4.605,0.177,6.952c0,36.687-14.867,66.422-33.211,66.422
		c-36.687,0-66.422-29.735-66.422-66.422c0-2.347,0.122-4.672,0.365-6.952l2.723-26.259h95.005L106.374,297.48z"/>
	<path style="fill:#FD7555;" d="M73.341,481.557c-28.229,0-28.229,22.141-56.458,22.141h112.917
		C101.57,503.697,101.57,481.557,73.341,481.557z"/>
</g>
<path style="fill:#FEC8BB;" d="M129.799,512H16.882c-4.586,0-8.303-3.717-8.303-8.303c0-4.585,3.716-8.303,8.303-8.303h112.917
	c4.586,0,8.303,3.717,8.303,8.303C138.102,508.283,134.385,512,129.799,512z"/>
<g>
</g>
<g>
</g>
<g>
</g>
<g>
</g>
<g>
</g>
<g>
</g>
<g>
</g>
<g>
</g>
<g>
</g>
<g>
</g>
<g>
</g>
<g>
</g>
<g>
</g>
<g>
</g>
<g>
</g>
</svg>
