<?xml version="1.0" encoding="iso-8859-1"?>
<!-- Generator: Adobe Illustrator 19.0.0, SVG Export Plug-In . SVG Version: 6.00 Build 0)  -->
<svg version="1.1" id="Layer_1" xmlns="http://www.w3.org/2000/svg" xmlns:xlink="http://www.w3.org/1999/xlink" x="0px" y="0px"
	 viewBox="0 0 512 512" style="enable-background:new 0 0 512 512;" xml:space="preserve">
<g>
	<ellipse style="fill:#F4DBC3;" cx="155.156" cy="193.818" rx="34.947" ry="34.837"/>
	<ellipse style="fill:#F4DBC3;" cx="356.842" cy="193.818" rx="34.947" ry="34.837"/>
</g>
<path style="fill:#E1F4F2;" d="M135.115,314.83c-37.904,0-68.739,30.742-68.739,68.532v116.844c0,6.527,5.306,11.795,11.852,11.795
	h355.543c6.545,0,11.852-5.268,11.852-11.795V383.362c0-37.79-30.836-68.532-68.738-68.532H135.115z"/>
<path style="opacity:0.1;enable-background:new    ;" d="M99.877,500.205V383.362c0-37.79,30.835-68.532,68.739-68.532h-33.5
	c-37.904,0-68.739,30.742-68.739,68.532v116.844c0,6.527,5.306,11.795,11.852,11.795h33.502
	C105.183,512,99.877,506.732,99.877,500.205z"/>
<rect x="137.006" y="314.828" style="fill:#58A35D;" width="35.375" height="131.887"/>
<rect x="137.006" y="314.828" style="opacity:0.1;enable-background:new    ;" width="11.203" height="131.887"/>
<rect x="339.612" y="314.828" style="fill:#58A35D;" width="35.377" height="131.887"/>
<path style="fill:#407C46;" d="M397.504,512v-90.167c0-8.883-7.199-16.084-16.08-16.084H130.574c-8.881,0-16.08,7.201-16.08,16.084
	V512H397.504z"/>
<path style="opacity:0.1;enable-background:new    ;" d="M164.289,405.748h-33.716c-8.881,0-16.08,7.201-16.08,16.084V512h33.716
	v-90.167C148.209,412.95,155.408,405.748,164.289,405.748z"/>
<g>
	<circle style="fill:#C69C6D;" cx="156.305" cy="444.176" r="13.936"/>
	<circle style="fill:#C69C6D;" cx="356.769" cy="444.176" r="13.936"/>
	<path style="fill:#C69C6D;" d="M304.648,512c-3.775-23.474-24.115-41.406-48.649-41.406s-44.872,17.934-48.65,41.406H304.648z"/>
</g>
<g>
	<path style="fill:#BDD1CE;" d="M258.143,363.258c-4.465,0-8.083-3.62-8.083-8.084v-1.788c0-4.465,3.62-8.084,8.083-8.084
		c4.465,0,8.084,3.62,8.084,8.084v1.788C266.227,359.638,262.608,363.258,258.143,363.258z"/>
	<path style="fill:#BDD1CE;" d="M258.143,391.315c-4.465,0-8.083-3.62-8.083-8.084v-1.787c0-4.465,3.62-8.084,8.083-8.084
		c4.465,0,8.084,3.62,8.084,8.084v1.787C266.227,387.696,262.608,391.315,258.143,391.315z"/>
	<path style="fill:#BDD1CE;" d="M330.713,296.656c0-12.384-10.036-22.421-22.415-22.421h-52.583l-14.224,14.228
		c-3.604,3.605-3.604,9.448,0,13.052l52.196,52.207c3.603,3.605,9.445,3.605,13.048,0l24.128-24.133L330.713,296.656z"/>
</g>
<path style="fill:#CCE2DF;" d="M205.265,353.721c3.602,3.605,9.444,3.605,13.048,0l52.195-52.207c3.604-3.604,3.604-9.448,0-13.052
	l-14.225-14.228H203.7c-12.38,0-22.414,10.038-22.414,22.421v33.081L205.265,353.721z"/>
<path style="fill:#FFE7CC;" d="M368.867,204.474c0,54.18-56.208,98.102-110.551,98.102h-4.633
	c-54.343,0-110.552-43.922-110.552-98.102v-66.94c0-54.18,44.053-98.101,98.398-98.101h28.942c54.343,0,98.396,43.921,98.396,98.101
	v66.94H368.867z"/>
<path style="opacity:0.1;enable-background:new    ;" d="M165.455,204.474v-66.94c0-54.18,44.054-98.101,98.399-98.101h-22.325
	c-54.345,0-98.398,43.921-98.398,98.101v66.94c0,54.18,56.209,98.102,110.552,98.102h4.633c2.924,0,5.854-0.145,8.779-0.396
	C215.692,297.737,165.455,255.695,165.455,204.474z"/>
<g>
	<path style="fill:#736357;" d="M332.97,128.284c0,24.071,14.858,44.66,35.895,53.126v-43.876c0-19.52-5.719-37.706-15.574-52.988
		C340.869,95.048,332.97,110.74,332.97,128.284z"/>
	<path style="fill:#736357;" d="M179.027,128.284c0-17.545-7.896-33.236-20.32-43.738c-9.858,15.282-15.575,33.469-15.575,52.988
		v43.876C164.168,172.945,179.027,152.357,179.027,128.284z"/>
</g>
<g>
	<path style="fill:#534741;" d="M208.537,217.383c-4.465,0-8.084-3.62-8.084-8.084v-10.576c0-4.465,3.62-8.084,8.084-8.084
		s8.083,3.62,8.083,8.084v10.576C216.62,213.763,213.001,217.383,208.537,217.383z"/>
	<path style="fill:#534741;" d="M303.462,217.383c-4.465,0-8.084-3.62-8.084-8.084v-10.576c0-4.465,3.62-8.084,8.084-8.084
		c4.465,0,8.083,3.62,8.083,8.084v10.576C311.546,213.763,307.927,217.383,303.462,217.383z"/>
</g>
<path style="fill:#C4A486;" d="M255.999,266.756L255.999,266.756c-9.104,0-17.662-3.546-24.101-9.986
	c-3.156-3.157-3.155-8.276,0.002-11.432c3.159-3.157,8.277-3.156,11.432,0.002c3.383,3.384,7.882,5.249,12.665,5.249
	c4.785,0,9.281-1.864,12.664-5.249c3.157-3.157,8.275-3.159,11.432-0.002c3.159,3.157,3.16,8.275,0.003,11.432
	C273.662,263.21,265.102,266.756,255.999,266.756z"/>
<path style="fill:#58A35D;" d="M354.737,100.776V35.272C354.737,15.792,338.948,0,319.473,0H192.525
	c-19.478,0-35.265,15.792-35.265,35.272v65.505H354.737z"/>
<path style="opacity:0.1;enable-background:new    ;" d="M226.368,0h-33.843c-19.478,0-35.265,15.792-35.265,35.272v65.505h33.843
	V35.272C191.102,15.792,206.891,0,226.368,0z"/>
<path style="fill:#407C46;" d="M144.061,119.335c-3.034,0-5.912-1.349-7.853-3.683c-1.94-2.333-2.743-5.408-2.191-8.394
	l10.214-55.169c0.897-4.842,5.118-8.356,10.043-8.356H246.2c3.709,0,7.127,2.011,8.929,5.255l30.641,55.167
	c1.76,3.164,1.714,7.023-0.124,10.143c-1.834,3.119-5.184,5.035-8.804,5.035H144.061V119.335z"/>
<path style="opacity:0.1;enable-background:new    ;" d="M169.823,115.652c-1.94-2.333-2.743-5.408-2.191-8.394l10.214-55.169
	c0.897-4.842,5.118-8.356,10.043-8.356h-33.615c-4.925,0-9.146,3.513-10.043,8.356l-10.214,55.169
	c-0.552,2.985,0.25,6.06,2.191,8.394c1.94,2.333,4.818,3.683,7.853,3.683h33.615C174.642,119.335,171.765,117.986,169.823,115.652z"
	/>
<path style="fill:#407C46;" d="M368.77,119.335c3.033,0,5.209-1.349,7.151-3.683c1.94-2.333,2.592-5.408,2.043-8.394l-20.429-55.169
	c-0.899-4.842-4.269-8.356-9.193-8.356h-40.857c-3.711,0-7.127,2.011-8.929,5.255l-30.642,55.167
	c-1.76,3.164-1.712,7.023,0.124,10.143c1.835,3.119,5.185,5.035,8.802,5.035h91.928V119.335z"/>
<g>
</g>
<g>
</g>
<g>
</g>
<g>
</g>
<g>
</g>
<g>
</g>
<g>
</g>
<g>
</g>
<g>
</g>
<g>
</g>
<g>
</g>
<g>
</g>
<g>
</g>
<g>
</g>
<g>
</g>
</svg>
