<?xml version="1.0" encoding="iso-8859-1"?>
<!-- Generator: Adobe Illustrator 19.0.0, SVG Export Plug-In . SVG Version: 6.00 Build 0)  -->
<svg version="1.1" id="Layer_1" xmlns="http://www.w3.org/2000/svg" xmlns:xlink="http://www.w3.org/1999/xlink" x="0px" y="0px"
	 viewBox="0 0 512 512" style="enable-background:new 0 0 512 512;" xml:space="preserve">
<path style="fill:#FFCC60;" d="M0,244.937c7.95,61.311,19.757,122.408,21.64,184.049c0.292,9.114,7.652,16.516,16.787,16.516
	c27.915,0,55.833,0,83.752,0c9.131,0,16.493-7.402,16.787-16.516c1.882-61.641,13.686-122.738,21.64-184.049H0z"/>
<path style="fill:#E6E6E6;" d="M459.698,97.945h-60.146c-28.885,0-52.301,23.463-52.301,52.404v102.194
	c0,28.946,23.416,52.406,52.301,52.406h60.146c28.885,0,52.302-23.46,52.302-52.406V150.348
	C512,121.408,488.583,97.945,459.698,97.945z M479.664,252.542c0,11.067-8.957,20.069-19.965,20.069h-60.146
	c-11.008,0-19.964-9.003-19.964-20.069V150.348c0-11.064,8.956-20.067,19.964-20.067h60.146c11.008,0,19.965,9.003,19.965,20.067
	V252.542z"/>
<path style="fill:#F9EBCF;" d="M229.473,407.447c-6.326,0-11.746-4.539-12.868-10.776L159.987,81.924
	c-0.686-3.819,0.352-7.75,2.837-10.729c2.487-2.977,6.159-4.697,10.031-4.697h90.222c3.286,0,6.453,1.238,8.87,3.473l30.239,27.973
	h128.628c3.873,0,7.548,1.72,10.033,4.699c2.483,2.978,3.523,6.905,2.836,10.727l-50.962,283.301
	c-1.121,6.238-6.541,10.776-12.868,10.776H229.473z"/>
<path style="fill:#FFCC60;" d="M171.123,143.828l45.482,252.844c1.122,6.238,6.542,10.776,12.868,10.776h150.379
	c6.328,0,11.748-4.539,12.868-10.776l45.482-252.844H171.123z"/>
<path style="opacity:0.1;enable-background:new    ;" d="M250.306,396.671L193.689,81.924c-0.686-3.819,0.353-7.75,2.837-10.729
	c2.486-2.977,6.158-4.697,10.03-4.697h-33.701c-3.872,0-7.544,1.72-10.031,4.697c-2.484,2.979-3.523,6.909-2.837,10.729
	l56.618,314.747c1.122,6.238,6.542,10.776,12.868,10.776h33.702C256.849,407.447,251.43,402.909,250.306,396.671z"/>
<path style="fill:#F9EBCF;" d="M7.872,300.402h144.862c2.722-18.482,5.472-36.964,7.872-55.465H0
	C2.399,263.438,5.149,281.921,7.872,300.402z"/>
<path style="opacity:0.1;enable-background:new    ;" d="M43.583,428.986c-1.883-61.642-13.69-122.738-21.64-184.049H0
	c7.95,61.311,19.757,122.408,21.64,184.049c0.292,9.114,7.652,16.516,16.787,16.516c7.314,0,14.629,0,21.943,0
	C51.234,445.501,43.874,438.099,43.583,428.986z"/>
<path style="fill:#D1BF9F;" d="M215.07,89.861h-53.655l2.908,16.169h50.747c4.465,0,8.084-3.62,8.084-8.084
	C223.155,93.48,219.535,89.861,215.07,89.861z"/>
<path style="fill:#FFFFFF;" d="M47.627,343.144H46.52c-4.465,0-8.084,3.62-8.084,8.084c0,4.465,3.62,8.083,8.084,8.083h1.108
	c4.465,0,8.084-3.618,8.084-8.083C55.712,346.764,52.092,343.144,47.627,343.144z"/>
<path style="fill:#E2AC4D;" d="M79.75,359.76h-1.108c-4.465,0-8.084,3.618-8.084,8.083c0,4.465,3.62,8.084,8.084,8.084h1.108
	c4.465,0,8.084-3.62,8.084-8.084C87.834,363.379,84.215,359.76,79.75,359.76z"/>
<path style="fill:#FFFFFF;" d="M73.103,394.097h-1.108c-4.465,0-8.084,3.62-8.084,8.083c0,4.465,3.62,8.084,8.084,8.084h1.108
	c4.465,0,8.084-3.62,8.084-8.084C81.188,397.716,77.568,394.097,73.103,394.097z"/>
<path style="fill:#E2AC4D;" d="M99.686,410.709h-1.108c-4.465,0-8.084,3.62-8.084,8.084c0,4.465,3.62,8.083,8.084,8.083h1.108
	c4.465,0,8.084-3.618,8.084-8.083C107.771,414.328,104.151,410.709,99.686,410.709z"/>
<path style="fill:#FFFFFF;" d="M70.887,330.517h1.109c4.465,0,8.084-3.62,8.084-8.084c0-4.465-3.62-8.084-8.084-8.084h-1.109
	c-4.465,0-8.084,3.62-8.084,8.084C62.803,326.897,66.422,330.517,70.887,330.517z"/>
<path style="fill:#E2AC4D;" d="M264.446,239.72h-1.109c-4.465,0-8.084,3.618-8.084,8.083c0,4.465,3.62,8.084,8.084,8.084h1.109
	c4.465,0,8.084-3.62,8.084-8.084C272.53,243.339,268.911,239.72,264.446,239.72z"/>
<path style="fill:#FFFFFF;" d="M294.352,192.754c4.465,0,8.084-3.62,8.084-8.084s-3.62-8.083-8.084-8.083h-1.108
	c-4.465,0-8.084,3.618-8.084,8.083s3.62,8.084,8.084,8.084L294.352,192.754L294.352,192.754z"/>
<path style="fill:#E2AC4D;" d="M347.517,236.398h-1.107c-4.465,0-8.084,3.618-8.084,8.083c0,4.465,3.62,8.084,8.084,8.084h1.107
	c4.465,0,8.084-3.62,8.084-8.084C355.602,240.016,351.982,236.398,347.517,236.398z"/>
<g>
	<path style="fill:#FFFFFF;" d="M245.76,198.871h-1.109c-4.465,0-8.084,3.62-8.084,8.084s3.62,8.083,8.084,8.083h1.109
		c4.465,0,8.084-3.618,8.084-8.083C253.844,202.491,250.225,198.871,245.76,198.871z"/>
	<path style="fill:#FFFFFF;" d="M307.973,293.216c0-4.464-3.62-8.083-8.084-8.083h-1.108c-4.465,0-8.084,3.62-8.084,8.083
		c0,4.465,3.62,8.084,8.084,8.084h1.108C304.354,301.3,307.973,297.682,307.973,293.216z"/>
	<path style="fill:#FFFFFF;" d="M344.195,305.069h-1.109c-4.465,0-8.084,3.62-8.084,8.084c0,4.465,3.62,8.083,8.084,8.083h1.109
		c4.465,0,8.084-3.618,8.084-8.083C352.279,308.689,348.659,305.069,344.195,305.069z"/>
	<path style="fill:#FFFFFF;" d="M340.872,353.806h-1.108c-4.465,0-8.084,3.62-8.084,8.084c0,4.465,3.62,8.083,8.084,8.083h1.108
		c4.465,0,8.084-3.618,8.084-8.083C348.955,357.425,345.337,353.806,340.872,353.806z"/>
</g>
<path style="fill:#E2AC4D;" d="M309.857,329.438h-1.107c-4.465,0-8.084,3.62-8.084,8.084c0,4.465,3.62,8.083,8.084,8.083h1.107
	c4.465,0,8.084-3.618,8.084-8.083C317.943,333.057,314.322,329.438,309.857,329.438z"/>
<g>
	<path style="fill:#FFF7EB;" d="M408.221,72.8H275.003l27.182,25.144h79.668v7.531c0,7.033,5.702,12.736,12.737,12.736
		c7.035,0,12.738-5.703,12.738-12.736v-7.531h23.484c0.702,0,1.393,0.074,2.074,0.186v-0.661
		C432.889,83.844,421.844,72.8,408.221,72.8z"/>
	<path style="fill:#FFF7EB;" d="M129.805,206.984h-20.058c-2.469-7.013-14.707-12.343-29.443-12.343
		c-14.737,0-26.973,5.331-29.443,12.343H30.803C13.788,206.984,0,220.774,0,237.783v1.101c0,2.073,0.209,4.096,0.598,6.052H84.25
		v8.904c0,6.423,5.208,11.632,11.631,11.632s11.631-5.208,11.631-11.632v-8.904h3.38c-0.039,0.379-0.059,0.763-0.059,1.15v27.692
		c0,6.422,5.207,11.63,11.631,11.63c6.422,0,11.63-5.208,11.63-11.63v-27.692c0-0.388-0.021-0.77-0.059-1.15h25.971
		c0.391-1.956,0.599-3.979,0.599-6.052v-1.101C160.606,220.774,146.814,206.984,129.805,206.984z"/>
</g>
<path style="fill:#E6E6E6;" d="M197.385,445.501c-5.777,0-10.458-4.691-10.458-10.479c0-15.992,12.984-29.002,28.944-29.002h171.929
	c15.96,0,28.946,13.01,28.946,29.002c0,5.789-4.684,10.479-10.458,10.479H197.385z"/>
<path style="opacity:0.1;enable-background:new    ;" d="M220.43,435.021c0-15.992,12.984-29.002,28.944-29.002H215.87
	c-15.96,0-28.944,13.01-28.944,29.002c0,5.789,4.681,10.479,10.458,10.479h33.504C225.112,445.501,220.43,440.81,220.43,435.021z"/>
<g>
	<path style="fill:#FFFFFF;" d="M374.622,111.804c-6.808,16.435-12.327,21.953-28.761,28.761
		c16.435,6.808,21.953,12.327,28.761,28.761c6.808-16.435,12.326-21.954,28.761-28.761
		C386.949,133.757,381.43,128.239,374.622,111.804z"/>
	<circle style="fill:#FFFFFF;" cx="403.331" cy="177.633" r="12.689"/>
</g>
<g>
</g>
<g>
</g>
<g>
</g>
<g>
</g>
<g>
</g>
<g>
</g>
<g>
</g>
<g>
</g>
<g>
</g>
<g>
</g>
<g>
</g>
<g>
</g>
<g>
</g>
<g>
</g>
<g>
</g>
</svg>
