<?xml version="1.0" encoding="iso-8859-1"?>
<!-- Generator: Adobe Illustrator 19.0.0, SVG Export Plug-In . SVG Version: 6.00 Build 0)  -->
<svg version="1.1" id="Layer_1" xmlns="http://www.w3.org/2000/svg" xmlns:xlink="http://www.w3.org/1999/xlink" x="0px" y="0px"
	 viewBox="0 0 512 512" style="enable-background:new 0 0 512 512;" xml:space="preserve">
<path style="fill:#78B591;" d="M38.251,48.102C38.251,21.579,60.246,0,87.287,0c27.038,0,70.625,10.664,70.625,37.187v174.786
	c0,9.006,3.79,16.306-5.389,16.306h-19.134c-3.73,5.037-9.7,8.318-16.451,8.318c-5.693,0-10.84-2.327-14.551-6.076
	c-3.713,3.749-8.86,6.076-14.552,6.076c-5.693,0-10.84-2.327-14.552-6.076c-3.711,3.749-8.858,6.076-14.551,6.076
	c-11.31,0-20.48-9.169-20.48-20.48C38.251,215.366,38.251,48.102,38.251,48.102z"/>
<path style="opacity:0.1;enable-background:new    ;" d="M60.111,234.61V70.737c0-26.523,21.996-48.102,49.036-48.102
	c14.432,0,33.579,3.041,48.295,9.907C152.689,9.412,112.687,0,87.287,0C60.246,0,38.251,21.579,38.251,48.102
	c0,0,0,167.264,0,168.015c0,11.311,9.169,20.48,20.48,20.48c0.508,0,1.006-0.04,1.505-0.077
	C60.161,235.893,60.111,235.258,60.111,234.61z"/>
<path style="fill:#8CC63F;" d="M86.455,0h0.832c-0.609,0-1.211,0.024-1.813,0.046C85.729,0.017,86.047,0,86.455,0z"/>
<path style="fill:#E1F4F2;" d="M136.321,48.102C136.321,21.579,114.324,0,87.287,0h337.43c27.038,0,49.033,21.578,49.033,48.102
	v447.592c0,9.006-7.442,16.306-16.62,16.306H152.943c-9.178,0-16.622-7.3-16.622-16.306V211.973V48.102z"/>
<path style="opacity:0.1;enable-background:new    ;" d="M170.297,495.694V211.973V48.102C170.297,21.579,148.301,0,121.264,0
	H87.287c27.038,0,49.034,21.579,49.034,48.102v163.871v283.721c0,9.006,7.444,16.306,16.622,16.306h33.978
	C177.741,512,170.297,504.7,170.297,495.694z"/>
<ellipse style="fill:#FFFFFF;" cx="309.049" cy="82.756" rx="51.691" ry="34.795"/>
<path style="opacity:0.1;enable-background:new    ;" d="M279.808,82.76c0-16.619,17.318-30.509,40.466-33.961
	c-3.615-0.539-7.369-0.833-11.224-0.833c-28.549,0-51.692,15.578-51.692,34.794c0,19.218,23.142,34.795,51.692,34.795
	c3.856,0,7.609-0.293,11.224-0.833C297.126,113.271,279.808,99.381,279.808,82.76z"/>
<g>
	<path style="fill:#78B591;" d="M412.295,220.969H312.59c-4.465,0-8.084-3.62-8.084-8.084s3.62-8.084,8.084-8.084h99.705
		c4.465,0,8.083,3.62,8.083,8.084S416.761,220.969,412.295,220.969z"/>
	<path style="fill:#78B591;" d="M412.295,269.473H312.59c-4.465,0-8.084-3.62-8.084-8.084c0-4.464,3.62-8.084,8.084-8.084h99.705
		c4.465,0,8.083,3.62,8.083,8.084C420.378,265.853,416.761,269.473,412.295,269.473z"/>
	<path style="fill:#78B591;" d="M412.295,317.978H312.59c-4.465,0-8.084-3.62-8.084-8.084c0-4.465,3.62-8.084,8.084-8.084h99.705
		c4.465,0,8.083,3.62,8.083,8.084C420.378,314.359,416.761,317.978,412.295,317.978z"/>
	<path style="fill:#78B591;" d="M254.653,220.969h-52.548c-4.465,0-8.083-3.62-8.083-8.084s3.618-8.084,8.083-8.084h52.548
		c4.465,0,8.083,3.62,8.083,8.084C262.736,217.349,259.118,220.969,254.653,220.969z"/>
	<path style="fill:#78B591;" d="M254.653,269.473h-52.548c-4.465,0-8.083-3.62-8.083-8.084c0-4.464,3.618-8.084,8.083-8.084h52.548
		c4.465,0,8.083,3.62,8.083,8.084C262.736,265.853,259.118,269.473,254.653,269.473z"/>
	<path style="fill:#78B591;" d="M254.653,317.978h-52.548c-4.465,0-8.083-3.62-8.083-8.084c0-4.465,3.618-8.084,8.083-8.084h52.548
		c4.465,0,8.083,3.62,8.083,8.084C262.736,314.359,259.118,317.978,254.653,317.978z"/>
	<path style="fill:#78B591;" d="M254.653,366.482h-52.548c-4.465,0-8.083-3.62-8.083-8.084c0-4.465,3.618-8.084,8.083-8.084h52.548
		c4.465,0,8.083,3.62,8.083,8.084C262.736,362.864,259.118,366.482,254.653,366.482z"/>
	<path style="fill:#78B591;" d="M412.295,167.074h-210.19c-4.465,0-8.083-3.62-8.083-8.084s3.618-8.084,8.083-8.084h210.19
		c4.465,0,8.083,3.62,8.083,8.084C420.378,163.454,416.761,167.074,412.295,167.074z"/>
	<path style="fill:#78B591;" d="M412.295,417.145h-210.19c-4.465,0-8.083-3.62-8.083-8.084c0-4.465,3.618-8.084,8.083-8.084h210.19
		c4.465,0,8.083,3.62,8.083,8.084C420.378,413.526,416.761,417.145,412.295,417.145z"/>
	<path style="fill:#78B591;" d="M254.653,458.105h-52.548c-4.465,0-8.083-3.62-8.083-8.084c0-4.465,3.618-8.084,8.083-8.084h52.548
		c4.465,0,8.083,3.62,8.083,8.084C262.736,454.486,259.118,458.105,254.653,458.105z"/>
</g>
<g>
</g>
<g>
</g>
<g>
</g>
<g>
</g>
<g>
</g>
<g>
</g>
<g>
</g>
<g>
</g>
<g>
</g>
<g>
</g>
<g>
</g>
<g>
</g>
<g>
</g>
<g>
</g>
<g>
</g>
</svg>
