<?xml version="1.0" encoding="iso-8859-1"?>
<!-- Generator: Adobe Illustrator 19.0.0, SVG Export Plug-In . SVG Version: 6.00 Build 0)  -->
<svg version="1.1" id="Layer_1" xmlns="http://www.w3.org/2000/svg" xmlns:xlink="http://www.w3.org/1999/xlink" x="0px" y="0px"
	 viewBox="0 0 512.001 512.001" style="enable-background:new 0 0 512.001 512.001;" xml:space="preserve">
<rect x="195.751" y="65.097" style="fill:#4D556D;" width="98.116" height="381.795"/>
<path style="fill:#6B758E;" d="M240.837,470.342c0,6.167-4.993,11.164-11.15,11.164H11.15C4.993,481.505,0,476.509,0,470.342V41.658
	c0-6.165,4.993-11.164,11.15-11.164h218.536c6.159,0,11.15,4.998,11.15,11.164v428.684H240.837z"/>
<path style="opacity:0.1;enable-background:new    ;" d="M33.486,470.342V41.658c0-6.165,4.993-11.164,11.15-11.164H11.15
	C4.993,30.495,0,35.493,0,41.658v428.684c0,6.167,4.993,11.164,11.15,11.164h33.486C38.479,481.505,33.486,476.509,33.486,470.342z"
	/>
<path style="fill:#6B758E;" d="M512,470.342c0,6.167-4.991,11.164-11.151,11.164H282.313c-6.158,0-11.15-4.996-11.15-11.164V41.658
	c0-6.165,4.991-11.164,11.15-11.164H500.85c6.16,0,11.151,4.998,11.151,11.164v428.684H512z"/>
<path style="opacity:0.1;enable-background:new    ;" d="M302.349,470.342V41.658c0-6.165,4.991-11.164,11.151-11.164h-31.188
	c-6.158,0-11.15,4.998-11.15,11.164v428.684c0,6.167,4.991,11.164,11.15,11.164H313.5
	C307.341,481.505,302.349,476.509,302.349,470.342z"/>
<path style="fill:#F7EEDF;" d="M467.401,416.553c0,3.082-2.496,5.58-5.576,5.58H321.336c-3.079,0-5.576-2.497-5.576-5.58V115.134
	c0-3.082,2.496-5.581,5.576-5.581h140.489c3.079,0,5.576,2.498,5.576,5.581V416.553z"/>
<path style="opacity:0.1;enable-background:new    ;" d="M343.839,400.428c-3.079,0-5.576-2.497-5.576-5.58V109.553h-16.926
	c-3.079,0-5.576,2.498-5.576,5.581v301.42c0,3.082,2.496,5.58,5.576,5.58h140.489c3.079,0,5.576-2.497,5.576-5.58v-16.126H343.839z"
	/>
<path style="fill:#4D556D;" d="M44.6,92.297H0v75.912h44.6c9.236,0,16.725-7.498,16.725-16.746V109.04
	C61.324,99.793,53.835,92.297,44.6,92.297z"/>
<path style="fill:#CCCCCC;" d="M208.937,288.406c0,6.988-5.663,12.651-12.648,12.651H50.821c-6.987,0-12.65-5.662-12.65-12.651
	V203.64c0-6.987,5.662-12.65,12.65-12.65h145.468c6.985,0,12.648,5.663,12.648,12.65V288.406z"/>
<path style="opacity:0.1;enable-background:new    ;" d="M72.201,288.406V203.64c0-6.987,5.662-12.65,12.65-12.65h-34.03
	c-6.987,0-12.65,5.663-12.65,12.65v84.766c0,6.988,5.662,12.651,12.65,12.651H84.85C77.864,301.057,72.201,295.395,72.201,288.406z"
	/>
<g>
	<rect x="38.171" y="220.087" style="fill:#4D556D;" width="170.768" height="21.508"/>
	<path style="fill:#4D556D;" d="M131.018,278.532c-1.934-7.358-8.577-12.483-16.174-12.483H0v204.294
		c0,6.167,4.993,11.164,11.15,11.164h173.216L131.018,278.532z"/>
</g>
<path style="opacity:0.1;enable-background:new    ;" d="M45.058,447.865c-6.159,0-11.151-4.996-11.151-11.164V266.048H0v204.294
	c0,6.167,4.993,11.164,11.15,11.164h173.216l-8.842-33.639H45.058V447.865z"/>
<path style="fill:#4D556D;" d="M340.174,30.495v86.118c0,5.953,4.826,10.779,10.779,10.779h81.256
	c5.953,0,10.779-4.826,10.779-10.779V30.495H340.174z"/>
<path style="opacity:0.1;enable-background:new    ;" d="M362.711,116.614V30.495h-22.537v86.118
	c0,5.953,4.826,10.779,10.779,10.779h22.537C367.538,127.393,362.711,122.567,362.711,116.614z"/>
<g>
	<path style="fill:#BCB3A6;" d="M439.527,343.718h-97.003c-4.465,0-8.084,3.618-8.084,8.083c0,4.466,3.62,8.083,8.084,8.083h97.003
		c4.465,0,8.083-3.618,8.083-8.083C447.61,347.337,443.992,343.718,439.527,343.718z"/>
	<path style="fill:#BCB3A6;" d="M439.527,370.511h-47.945c-4.465,0-8.084,3.62-8.084,8.084c0,4.465,3.62,8.083,8.084,8.083h47.945
		c4.465,0,8.083-3.618,8.083-8.083C447.61,374.131,443.992,370.511,439.527,370.511z"/>
	<path style="fill:#BCB3A6;" d="M342.524,228.158h47.944c4.465,0,8.083-3.62,8.083-8.084s-3.618-8.084-8.083-8.084h-47.944
		c-4.465,0-8.084,3.62-8.084,8.084C334.438,224.538,338.058,228.158,342.524,228.158z"/>
	<path style="fill:#BCB3A6;" d="M342.524,259.415h47.944c4.465,0,8.083-3.618,8.083-8.083s-3.618-8.084-8.083-8.084h-47.944
		c-4.465,0-8.084,3.62-8.084,8.084C334.438,255.796,338.058,259.415,342.524,259.415z"/>
	<path style="fill:#BCB3A6;" d="M342.524,290.672h47.944c4.465,0,8.083-3.618,8.083-8.083c0-4.465-3.618-8.084-8.083-8.084h-47.944
		c-4.465,0-8.084,3.62-8.084,8.084C334.438,287.053,338.058,290.672,342.524,290.672z"/>
	<path style="fill:#BCB3A6;" d="M418.859,228.158h20.667c4.465,0,8.083-3.62,8.083-8.084s-3.618-8.084-8.083-8.084h-20.667
		c-4.465,0-8.084,3.62-8.084,8.084S414.394,228.158,418.859,228.158z"/>
	<path style="fill:#BCB3A6;" d="M439.527,243.246H418.86c-4.465,0-8.084,3.62-8.084,8.084s3.62,8.083,8.084,8.083h20.667
		c4.465,0,8.083-3.618,8.083-8.083C447.61,246.865,443.992,243.246,439.527,243.246z"/>
	<path style="fill:#BCB3A6;" d="M439.527,274.503H418.86c-4.465,0-8.084,3.62-8.084,8.084c0,4.465,3.62,8.083,8.084,8.083h20.667
		c4.465,0,8.083-3.618,8.083-8.083C447.61,278.123,443.992,274.503,439.527,274.503z"/>
	<path style="fill:#BCB3A6;" d="M439.527,305.763H418.86c-4.465,0-8.084,3.618-8.084,8.083s3.62,8.084,8.084,8.084h20.667
		c4.465,0,8.083-3.62,8.083-8.084C447.61,309.382,443.992,305.763,439.527,305.763z"/>
	<path style="fill:#BCB3A6;" d="M391.582,200.212c-18.242,0-32.531-10.001-32.531-22.769c0-12.768,14.289-22.768,32.531-22.768
		c18.24,0,32.528,10.001,32.528,22.768C424.109,190.211,409.822,200.212,391.582,200.212z M391.582,170.843
		c-10.181,0-16.363,4.585-16.363,6.6c0,2.017,6.182,6.601,16.363,6.601c10.178,0,16.359-4.585,16.359-6.601
		C407.941,175.428,401.76,170.843,391.582,170.843z"/>
</g>
<path style="fill:#3585B7;" d="M427.851,130.994c0,5.731-4.64,10.377-10.363,10.377h-51.813c-5.726,0-10.364-4.645-10.364-10.377
	V120.62c0-5.732,4.638-10.377,10.364-10.377h51.813c5.723,0,10.363,4.644,10.363,10.377V130.994z"/>
<g>
</g>
<g>
</g>
<g>
</g>
<g>
</g>
<g>
</g>
<g>
</g>
<g>
</g>
<g>
</g>
<g>
</g>
<g>
</g>
<g>
</g>
<g>
</g>
<g>
</g>
<g>
</g>
<g>
</g>
</svg>
