<?xml version="1.0" encoding="iso-8859-1"?>
<!-- Generator: Adobe Illustrator 19.0.0, SVG Export Plug-In . SVG Version: 6.00 Build 0)  -->
<svg version="1.1" id="Layer_1" xmlns="http://www.w3.org/2000/svg" xmlns:xlink="http://www.w3.org/1999/xlink" x="0px" y="0px"
	 viewBox="0 0 512 512" style="enable-background:new 0 0 512 512;" xml:space="preserve">
<path style="fill:#F7C677;" d="M366.416,356.513c-24.524,24.525-64.283,24.525-88.806,0L142.757,221.66
	c-24.524-24.525-24.524-64.284,0-88.806l0,0c24.523-24.525,64.283-24.525,88.806,0l134.853,134.852
	C390.939,292.229,390.939,331.989,366.416,356.513L366.416,356.513z"/>
<path style="opacity:0.1;enable-background:new    ;" d="M311.158,345.397L176.304,210.543c-24.524-24.524-24.524-64.283,0-88.806
	c2.716-2.714,5.626-5.112,8.672-7.225c-15.335,0.531-30.512,6.636-42.218,18.342c-24.524,24.522-24.524,64.282,0,88.806
	l134.853,134.852c21.808,21.811,55.658,24.207,80.133,7.225C340.954,364.32,323.975,358.216,311.158,345.397z"/>
<g>
	<path style="fill:#DDA657;" d="M334.428,235.718l-27.002,27c-4.87,4.871-4.869,12.769,0.002,17.64
		c4.87,4.871,12.767,4.871,17.638,0l27.001-27.002L334.428,235.718z"/>
	<path style="fill:#DDA657;" d="M289.347,190.637l-27,27.002c-4.871,4.869-4.87,12.767,0,17.638c4.871,4.871,12.77,4.871,17.641,0
		l27-27L289.347,190.637z"/>
	<path style="fill:#DDA657;" d="M244.269,145.559l-27.001,27c-4.87,4.871-4.87,12.769,0.001,17.638
		c4.869,4.873,12.769,4.873,17.638,0.002l27.001-27L244.269,145.559z"/>
</g>
<path style="fill:#EFB259;" d="M45.695,356.621c-3.26,0-6.358-1.421-8.486-3.889c-2.128-2.469-3.075-5.743-2.596-8.968
	c8.243-55.262,68.513-96.933,140.196-96.933c71.685,0,131.956,41.672,140.196,96.933c0.482,3.226-0.465,6.499-2.593,8.968
	c-2.128,2.467-5.227,3.889-8.486,3.889H45.695z"/>
<path style="opacity:0.1;enable-background:new    ;" d="M70.779,352.732c-2.128-2.469-3.075-5.743-2.596-8.968
	c7.59-50.887,59.3-90.248,123.412-96.162c-5.51-0.507-11.112-0.77-16.785-0.77c-71.683,0-131.953,41.672-140.196,96.933
	c-0.48,3.226,0.467,6.499,2.596,8.968c2.127,2.467,5.226,3.889,8.486,3.889h33.569C76.005,356.621,72.907,355.199,70.779,352.732z"
	/>
<g>
	<path style="fill:#D1923F;" d="M241.64,289.792c6.55,0,11.858-5.308,11.858-11.858v-12.51c-7.44-3.883-15.379-7.221-23.713-9.96
		v22.469C229.784,284.484,235.093,289.792,241.64,289.792z"/>
	<path style="fill:#D1923F;" d="M174.81,289.792c6.55,0,11.857-5.308,11.857-11.858V247.22c-3.912-0.253-7.865-0.39-11.857-0.39
		c-3.988,0-7.943,0.137-11.856,0.39v30.714C162.954,284.484,168.263,289.792,174.81,289.792z"/>
	<path style="fill:#D1923F;" d="M107.981,289.792c6.55,0,11.858-5.308,11.858-11.858v-22.469c-8.335,2.739-16.271,6.077-23.713,9.96
		v12.51C96.124,284.484,101.433,289.792,107.981,289.792z"/>
</g>
<path style="fill:#FFEA92;" d="M411.907,326.413c0,4.984-4.04,9.024-9.024,9.024h-41.509c-4.984,0-9.023-4.04-9.023-9.024v-41.51
	c0-4.982,4.039-9.024,9.023-9.024h41.509c4.984,0,9.024,4.041,9.024,9.024V326.413z"/>
<path style="fill:#FFE060;" d="M454.602,302.151c3.524,3.524,3.524,9.239,0,12.76l-29.349,29.352c-3.524,3.524-9.239,3.524-12.762,0
	l-29.351-29.352c-3.523-3.521-3.523-9.236,0-12.76l29.351-29.351c3.523-3.524,9.238-3.524,12.762,0L454.602,302.151z"/>
<path style="fill:#3585B7;" d="M466.729,302.764H339.536c-5.953,0-10.778,4.825-10.778,10.778v3.234
	c0,5.952,4.825,10.779,10.778,10.779h0.769v45.193h125.653v-45.193h0.769c5.953,0,10.778-4.827,10.778-10.779v-3.234
	C477.507,307.589,472.682,302.764,466.729,302.764z"/>
<g>
	<path style="fill:#1C6B93;" d="M371.874,365.946c-4.465,0-8.083-3.618-8.083-8.083v-21.558c0-4.465,3.618-8.083,8.083-8.083
		c4.465,0,8.084,3.618,8.084,8.083v21.558C379.958,362.328,376.339,365.946,371.874,365.946z"/>
	<path style="fill:#1C6B93;" d="M403.132,365.946c-4.465,0-8.083-3.618-8.083-8.083v-21.558c0-4.465,3.618-8.083,8.083-8.083
		c4.466,0,8.083,3.618,8.083,8.083v21.558C411.216,362.328,407.598,365.946,403.132,365.946z"/>
	<path style="fill:#1C6B93;" d="M434.392,365.946c-4.465,0-8.084-3.618-8.084-8.083v-21.558c0-4.465,3.62-8.083,8.084-8.083
		c4.465,0,8.083,3.618,8.083,8.083v21.558C442.476,362.328,438.857,365.946,434.392,365.946z"/>
</g>
<path style="opacity:0.1;enable-background:new    ;" d="M362.403,338.999v-36.236h-22.867c-5.953,0-10.778,4.825-10.778,10.778
	v3.234c0,5.952,4.825,10.779,10.778,10.779h0.769v45.193h125.653v-33.749H362.403V338.999z"/>
<path style="fill:#C7B299;" d="M512,386.761c0,5.954-4.825,10.778-10.778,10.778H10.778C4.825,397.54,0,392.716,0,386.761V367.36
	c0-5.952,4.825-10.779,10.778-10.779h490.443c5.953,0,10.778,4.827,10.778,10.779v19.402H512z"/>
<path style="opacity:0.1;enable-background:new    ;" d="M43.655,386.761V367.36c0-5.952,4.824-10.779,10.778-10.779H10.778
	C4.825,356.58,0,361.408,0,367.36v19.402c0,5.954,4.825,10.778,10.778,10.778h43.655C48.479,397.54,43.655,392.716,43.655,386.761z"
	/>
<g>
</g>
<g>
</g>
<g>
</g>
<g>
</g>
<g>
</g>
<g>
</g>
<g>
</g>
<g>
</g>
<g>
</g>
<g>
</g>
<g>
</g>
<g>
</g>
<g>
</g>
<g>
</g>
<g>
</g>
</svg>
