<?xml version="1.0" encoding="iso-8859-1"?>
<!-- Generator: Adobe Illustrator 19.0.0, SVG Export Plug-In . SVG Version: 6.00 Build 0)  -->
<svg version="1.1" id="Layer_1" xmlns="http://www.w3.org/2000/svg" xmlns:xlink="http://www.w3.org/1999/xlink" x="0px" y="0px"
	 viewBox="0 0 512.001 512.001" style="enable-background:new 0 0 512.001 512.001;" xml:space="preserve">
<g>
	<path style="fill:#316638;" d="M69.478,347.424c-28.343,0-51.399-23.05-51.399-51.383c0-28.331,23.055-51.381,51.399-51.381
		s51.4,23.049,51.4,51.381C120.878,324.374,97.821,347.424,69.478,347.424z M69.478,260.829c-19.427,0-35.231,15.797-35.231,35.212
		c0,19.417,15.804,35.214,35.231,35.214s35.231-15.797,35.231-35.214C104.709,276.625,88.905,260.829,69.478,260.829z"/>
	<path style="fill:#316638;" d="M402.733,347.424c-28.343,0-51.4-23.05-51.4-51.383c0-28.331,23.057-51.381,51.4-51.381
		c28.341,0,51.4,23.049,51.4,51.381C454.133,324.374,431.074,347.424,402.733,347.424z M402.733,260.829
		c-19.427,0-35.233,15.797-35.233,35.212c0,19.417,15.806,35.214,35.233,35.214c19.427,0,35.231-15.797,35.231-35.214
		C437.963,276.625,422.159,260.829,402.733,260.829z"/>
</g>
<g>
	<path style="fill:#CCCCCC;" d="M111.229,247.056c0,10.128-8.21,18.338-18.341,18.338H44.976c-10.13,0-18.343-8.209-18.343-18.338
		l0,0c0-10.126,8.212-18.336,18.343-18.336h47.913C103.019,228.72,111.229,236.929,111.229,247.056L111.229,247.056z"/>
	<path style="fill:#CCCCCC;" d="M445.576,247.056c0,10.128-8.21,18.338-18.341,18.338h-47.913c-10.13,0-18.341-8.209-18.341-18.338
		l0,0c0-10.126,8.21-18.336,18.341-18.336h47.913C437.366,228.72,445.576,236.929,445.576,247.056L445.576,247.056z"/>
</g>
<path style="fill:#D4EBE9;" d="M196.817,172.768c8.021,0,14.532,6.614,14.532,14.773l0.017,39.881
	c0,8.164-6.505,14.773-14.526,14.771l-39.237-0.013c-8.023-0.003-14.535-6.618-14.541-14.781l-0.015-39.884
	c0-8.154,6.509-14.764,14.535-14.764L196.817,172.768z"/>
<path style="fill:#316638;" d="M439.135,96.202l-41.316-41.317l-58.3,58.377c-30.394-14.078-67.194-8.988-91.688,15.539
	L88.482,288.359c-6.878,6.884-6.734,18.189,0.317,25.25l91.925,92.043c7.051,7.06,18.341,7.205,25.217,0.319l159.349-159.558
	c24.496-24.527,29.58-61.374,15.519-91.807L439.135,96.202z"/>
<g>
	<path style="fill:#FFFFFF;" d="M379.299,189.455c-7.762-9.306-9.346-14.382-8.255-26.451c-9.304,7.763-14.381,9.346-26.451,8.255
		c7.764,9.304,9.348,14.381,8.255,26.451C362.155,189.947,367.23,188.362,379.299,189.455z"/>
	<circle style="fill:#FFFFFF;" cx="364.67" cy="213.159" r="8.644"/>
</g>
<polygon style="fill:#FFE060;" points="147.263,229.498 264.723,347.109 348.346,263.377 230.889,145.766 "/>
<path style="fill:#D4F4F1;" d="M159.482,223.063c5.676,5.673,5.598,14.951-0.173,20.721l-28.191,28.21
	c-5.771,5.774-15.047,5.846-20.716,0.173l-27.739-27.746c-5.672-5.675-5.594-14.954,0.173-20.729l28.196-28.211
	c5.768-5.769,15.044-5.842,20.72-0.168L159.482,223.063z"/>
<path style="opacity:0.1;enable-background:new    ;" d="M394.778,57.668l-55.259,55.595c-10.933-5.066-23.056-7.742-35.057-7.742
	c-21.527,0-41.637,8.267-56.63,23.279L88.482,288.358c-3.4,3.404-5.243,8.154-5.053,13.033c0.167,4.281,2.855,8.056,6.845,9.616
	c1.276,0.499,2.606,0.741,3.925,0.741c2.809,0,5.567-1.099,7.629-3.161l146.004-146.196c14.994-15.013,35.104-23.28,56.63-23.28
	c9.659,0,19.62,1.782,28.803,5.151c1.21,0.444,2.465,0.66,3.71,0.66c2.814,0,5.571-1.101,7.631-3.162l67.42-66.844L394.778,57.668z"
	/>
<path style="fill:#B3B3B3;" d="M124.997,512c-4.875,0-9.072-3.456-10.012-8.247L63.307,240.912
	c-0.589-2.998,0.194-6.104,2.131-8.465c1.94-2.36,4.831-3.727,7.884-3.727h325.567c3.051,0,5.944,1.368,7.884,3.727
	c1.938,2.36,2.721,5.466,2.131,8.465l-51.678,262.842c-0.94,4.792-5.137,8.247-10.014,8.247H124.997V512z"/>
<polygon style="fill:#CCCCCC;" points="363.844,470.101 373.486,421.047 98.723,421.047 108.368,470.101 "/>
<path style="opacity:0.1;enable-background:new    ;" d="M159.952,503.754l-51.675-262.842c-0.591-2.998,0.192-6.104,2.131-8.465
	c1.94-2.36,4.831-3.727,7.882-3.727H73.321c-3.053,0-5.943,1.368-7.884,3.727c-1.937,2.36-2.721,5.466-2.131,8.465l51.678,262.842
	c0.94,4.792,5.137,8.247,10.012,8.247h44.969C165.09,512,160.892,508.546,159.952,503.754z"/>
<path style="fill:#FFE060;" d="M393.686,59.022l56.206-56.281c3.88-3.884,10.449-3.608,14.673,0.623l25.998,26.03
	c4.222,4.23,4.5,10.807,0.621,14.692l-56.206,56.279L393.686,59.022z"/>
<polygon style="fill:#E2C342;" points="431.423,21.235 472.729,62.566 484.153,51.126 442.849,9.795 "/>
<g>
</g>
<g>
</g>
<g>
</g>
<g>
</g>
<g>
</g>
<g>
</g>
<g>
</g>
<g>
</g>
<g>
</g>
<g>
</g>
<g>
</g>
<g>
</g>
<g>
</g>
<g>
</g>
<g>
</g>
</svg>
