<?xml version="1.0" encoding="iso-8859-1"?>
<!-- Generator: Adobe Illustrator 19.0.0, SVG Export Plug-In . SVG Version: 6.00 Build 0)  -->
<svg version="1.1" id="Layer_1" xmlns="http://www.w3.org/2000/svg" xmlns:xlink="http://www.w3.org/1999/xlink" x="0px" y="0px"
	 viewBox="0 0 512 512" style="enable-background:new 0 0 512 512;" xml:space="preserve">
<g>
	<ellipse style="fill:#F4DBC3;" cx="154.154" cy="266.533" rx="35.292" ry="35.171"/>
	<ellipse style="fill:#F4DBC3;" cx="357.846" cy="266.533" rx="35.292" ry="35.171"/>
</g>
<path style="fill:#808080;" d="M76.468,512c-6.61,0-11.969-5.339-11.969-11.928v-41.749c0-38.147,31.141-69.183,69.42-69.183
	h244.163c38.279,0,69.42,31.034,69.42,69.183v41.748c0,6.588-5.359,11.928-11.969,11.928H76.468V512z"/>
<path style="opacity:0.1;enable-background:new    ;" d="M109.406,500.072v-41.749c0-38.147,31.141-69.183,69.42-69.183h-44.908
	c-38.279,0-69.42,31.034-69.42,69.183v41.748c0,6.588,5.359,11.928,11.969,11.928h44.908
	C114.765,512,109.406,506.661,109.406,500.072z"/>
<g>
	<circle style="fill:#EF645E;" cx="256" cy="451.103" r="13.473"/>
	<path style="fill:#EF645E;" d="M269.474,503.916c0-7.442-6.032-13.474-13.474-13.474s-13.474,6.032-13.474,13.474
		c0,3.038,1.018,5.831,2.713,8.084h21.522C268.456,509.746,269.474,506.953,269.474,503.916z"/>
</g>
<path style="fill:#666666;" d="M301.81,512v-85.693c0-4.464-3.62-8.084-8.084-8.084c-4.465,0-8.084,3.62-8.084,8.084V512H301.81z"/>
<path style="fill:#EF645E;" d="M348.943,372.694c0,13.834-11.254,25.049-25.136,25.049H188.193
	c-13.883,0-25.136-11.215-25.136-25.049l0,0c0-13.834,11.255-25.05,25.136-25.05h135.613
	C337.689,347.644,348.943,358.86,348.943,372.694L348.943,372.694z"/>
<path style="opacity:0.1;enable-background:new    ;" d="M185.45,372.694c0-13.834,11.254-25.05,25.136-25.05h-22.392
	c-13.883,0-25.136,11.215-25.136,25.05c0,13.834,11.255,25.049,25.136,25.049h22.392C196.703,397.744,185.45,386.528,185.45,372.694
	z"/>
<g>
	<path style="fill:#D84E4E;" d="M303.812,389.96c16.751,16.692,23.93,36.603,16.037,44.47c-7.895,7.866-27.873,0.713-44.623-15.982
		c-16.75-16.694-23.93-36.603-16.037-44.471C267.084,366.11,287.063,373.267,303.812,389.96z"/>
	<path style="fill:#D84E4E;" d="M236.774,418.448c-16.751,16.694-36.728,23.848-44.623,15.982
		c-7.894-7.867-0.715-27.777,16.036-44.47c16.751-16.694,36.728-23.85,44.623-15.983
		C260.704,381.845,253.524,401.754,236.774,418.448z"/>
</g>
<g>
	<path style="fill:#BA3C3C;" d="M288.473,411.245c-2.065,0-4.128-0.786-5.706-2.358l-29.284-29.183
		c-3.163-3.151-3.171-8.27-0.02-11.432c3.152-3.164,8.27-3.171,11.432-0.02l29.284,29.183c3.163,3.151,3.171,8.27,0.02,11.432
		C292.621,410.452,290.547,411.245,288.473,411.245z"/>
	<path style="fill:#BA3C3C;" d="M223.527,411.245c-2.074,0-4.147-0.793-5.726-2.378c-3.151-3.162-3.143-8.281,0.02-11.432
		l29.283-29.183c3.161-3.151,8.28-3.144,11.432,0.02c3.151,3.162,3.143,8.281-0.02,11.432l-29.283,29.183
		C227.655,410.459,225.59,411.245,223.527,411.245z"/>
</g>
<path style="fill:#FFE7CC;" d="M369.986,277.293c0,54.694-56.766,99.033-111.647,99.033h-4.677
	c-54.881,0-111.647-44.339-111.647-99.033v-67.576c0-54.694,44.49-99.032,99.372-99.032h29.228
	c54.882,0,99.372,44.338,99.372,99.032V277.293z"/>
<path style="opacity:0.1;enable-background:new    ;" d="M164.379,277.293v-67.576c0-54.694,44.49-99.032,99.372-99.032h-22.365
	c-54.882,0-99.372,44.338-99.372,99.032v67.576c0,54.694,56.766,99.033,111.647,99.033h4.677c2.923,0,5.849-0.143,8.774-0.392
	C215.17,371.49,164.379,329.029,164.379,277.293z"/>
<path style="fill:#AF865D;" d="M369.986,251.15v-41.432c0-54.694-44.49-99.032-99.372-99.032h-10.838v41.432
	c0,54.694,44.49,99.032,99.372,99.032H369.986z"/>
<path style="fill:#C69C6D;" d="M323.907,152.117V126.12c-15.401-9.772-33.683-15.435-53.293-15.435h-29.228
	c-54.882,0-99.372,44.338-99.372,99.032v25.997c15.401,9.772,33.683,15.435,53.294,15.435h29.227
	C279.417,251.15,323.907,206.811,323.907,152.117z"/>
<g>
	<path style="fill:#534741;" d="M208.067,301.169c-4.465,0-8.084-3.62-8.084-8.084v-10.677c0-4.464,3.62-8.084,8.084-8.084
		s8.084,3.62,8.084,8.084v10.677C216.152,297.55,212.532,301.169,208.067,301.169z"/>
	<path style="fill:#534741;" d="M303.933,301.169c-4.465,0-8.084-3.62-8.084-8.084v-10.677c0-4.464,3.62-8.084,8.084-8.084
		c4.465,0,8.084,3.62,8.084,8.084v10.677C312.017,297.55,308.397,301.169,303.933,301.169z"/>
</g>
<path style="fill:#C4A486;" d="M256.001,340.028C256,340.028,256.001,340.028,256.001,340.028c-9.172,0-17.796-3.571-24.281-10.057
	c-3.157-3.157-3.157-8.276,0-11.432c3.157-3.157,8.276-3.157,11.432,0c3.432,3.431,7.995,5.322,12.848,5.322
	s9.416-1.89,12.848-5.322c3.157-3.157,8.276-3.158,11.432,0c3.157,3.158,3.157,8.276,0,11.432
	C273.796,336.455,265.172,340.028,256.001,340.028z"/>
<path style="fill:#808080;" d="M404.474,75.731c0-25.095-20.413-45.438-45.594-45.438c-6.335,0-12.368,1.289-17.851,3.617
	C335.908,14.399,318.101,0,296.918,0c-17.501,0-32.691,9.832-40.334,24.251C248.943,9.832,233.752,0,216.251,0
	c-21.354,0-39.272,14.633-44.228,34.383c-5.761-2.62-12.156-4.091-18.902-4.091c-25.181,0-45.594,20.343-45.594,45.438
	c0,21.277,14.676,39.131,34.488,44.075v91.545h227.972v-91.545C389.798,114.862,404.474,97.008,404.474,75.731z"/>
<path style="opacity:0.1;enable-background:new    ;" d="M141.216,75.731c0-19.161,11.908-35.541,28.746-42.22
	c-5.212-2.07-10.89-3.218-16.842-3.218c-25.181,0-45.594,20.343-45.594,45.438c0,21.277,14.676,39.131,34.488,44.075v91.545h33.69
	v-91.545C155.891,114.862,141.216,97.008,141.216,75.731z"/>
<g>
	<path style="fill:#999999;" d="M210.729,198.333c-4.465,0-8.084-3.62-8.084-8.084v-33.721c0-4.465,3.62-8.084,8.084-8.084
		s8.084,3.62,8.084,8.084v33.721C218.813,194.714,215.194,198.333,210.729,198.333z"/>
	<path style="fill:#999999;" d="M256,198.333c-4.465,0-8.084-3.62-8.084-8.084v-33.721c0-4.465,3.62-8.084,8.084-8.084
		c4.465,0,8.084,3.62,8.084,8.084v33.721C264.084,194.714,260.465,198.333,256,198.333z"/>
	<path style="fill:#999999;" d="M301.271,198.333c-4.465,0-8.084-3.62-8.084-8.084v-33.721c0-4.465,3.62-8.084,8.084-8.084
		c4.465,0,8.084,3.62,8.084,8.084v33.721C309.356,194.714,305.736,198.333,301.271,198.333z"/>
</g>
<rect x="142.012" y="182.167" style="fill:#EF645E;" width="227.976" height="29.186"/>
<rect x="142.012" y="182.167" style="opacity:0.1;enable-background:new    ;" width="33.688" height="29.186"/>
<g>
</g>
<g>
</g>
<g>
</g>
<g>
</g>
<g>
</g>
<g>
</g>
<g>
</g>
<g>
</g>
<g>
</g>
<g>
</g>
<g>
</g>
<g>
</g>
<g>
</g>
<g>
</g>
<g>
</g>
</svg>
