<?xml version="1.0" encoding="iso-8859-1"?>
<!-- Generator: Adobe Illustrator 19.0.0, SVG Export Plug-In . SVG Version: 6.00 Build 0)  -->
<svg version="1.1" id="Layer_1" xmlns="http://www.w3.org/2000/svg" xmlns:xlink="http://www.w3.org/1999/xlink" x="0px" y="0px"
	 viewBox="0 0 512.002 512.002" style="enable-background:new 0 0 512.002 512.002;" xml:space="preserve">
<path style="fill:#8C6239;" d="M133.989,292.39c-5.762-5.7-5.743-14.963,0.044-20.688l118.739-117.467
	c5.789-5.726,15.148-5.745,20.911-0.045l24.344,24.086c5.763,5.7,5.744,14.961-0.044,20.686l-118.739,117.47
	c-5.788,5.724-15.148,5.743-20.909,0.043L133.989,292.39z"/>
<g>
	<path style="fill:#754C24;" d="M289.203,169.546l-69.239,67.937c-2.116,2.092-2.135,5.507-0.042,7.62
		c1.054,1.066,2.442,1.6,3.832,1.6c1.37,0,2.741-0.518,3.791-1.559l69.253-68.083L289.203,169.546z"/>
	<path style="fill:#754C24;" d="M275.154,155.647l-69.431,68.638c-2.116,2.092-2.135,5.507-0.041,7.62
		c1.053,1.065,2.442,1.6,3.832,1.6c1.37,0,2.74-0.518,3.79-1.557l69.444-68.79L275.154,155.647z"/>
	<path style="fill:#754C24;" d="M189.818,247.599c-2.092-2.114-5.505-2.133-7.62-0.041l-46.944,46.082l7.599,7.516l46.927-45.935
		C191.893,253.127,191.912,249.714,189.818,247.599z"/>
	<path style="fill:#754C24;" d="M156.928,315.082l46.938-46.515c2.116-2.094,2.134-5.507,0.04-7.623
		c-2.093-2.114-5.506-2.135-7.621-0.041l-47.015,46.602L156.928,315.082z"/>
</g>
<path style="fill:#C69C6D;" d="M378.207,314.315c0,10.604-8.489,19.198-18.958,19.198H72.343c-10.471,0-18.96-8.594-18.96-19.198
	v-25.6c0-10.604,8.489-19.198,18.96-19.198h286.906c10.47,0,18.958,8.594,18.958,19.198L378.207,314.315L378.207,314.315z"/>
<g>
	<path style="fill:#AA7F53;" d="M53.384,288.715v8.43h324.823v-8.43c0-0.796-0.064-1.578-0.156-2.349H53.541
		C53.448,287.137,53.384,287.919,53.384,288.715z"/>
	<path style="fill:#AA7F53;" d="M53.384,305.886v8.428c0,0.796,0.064,1.578,0.157,2.349h324.51c0.093-0.771,0.156-1.553,0.156-2.349
		v-8.428H53.384z"/>
</g>
<path style="opacity:0.1;enable-background:new    ;" d="M87.473,314.315v-25.6c0-10.604,8.488-19.198,18.959-19.198H72.343
	c-10.471,0-18.96,8.594-18.96,19.198v25.6c0,10.604,8.489,19.198,18.96,19.198h34.088C95.961,333.513,87.473,324.919,87.473,314.315
	z"/>
<path style="fill:#8C6239;" d="M355.544,378.403c0,10.817-8.657,19.583-19.337,19.583H43.589c-10.678,0-19.335-8.768-19.335-19.583
	v-26.106c0-10.817,8.657-19.583,19.335-19.583h292.617c10.68,0,19.337,8.768,19.337,19.583v26.106H355.544z"/>
<g>
	<path style="fill:#754C24;" d="M355.544,352.296c0-0.814-0.065-1.61-0.159-2.398H237.868c-3.035,0-5.497,2.461-5.497,5.498
		c0,3.034,2.461,5.496,5.497,5.496h117.676V352.296z"/>
	<path style="fill:#754C24;" d="M238.672,369.807c-3.036,0-5.496,2.461-5.496,5.496c0,3.036,2.46,5.498,5.496,5.498h116.712
		c0.095-0.788,0.159-1.586,0.159-2.398v-8.596H238.672z"/>
	<path style="fill:#754C24;" d="M196.233,349.898H24.413c-0.095,0.788-0.159,1.584-0.159,2.398v8.596h171.979
		c3.035,0,5.497-2.461,5.497-5.496C201.73,352.36,199.268,349.898,196.233,349.898z"/>
	<path style="fill:#754C24;" d="M197.403,369.807H24.254v8.596c0,0.812,0.065,1.61,0.159,2.398h172.99
		c3.035,0,5.497-2.461,5.497-5.498C202.9,372.268,200.439,369.807,197.403,369.807z"/>
</g>
<path style="opacity:0.1;enable-background:new    ;" d="M58.37,378.527v-26.179c0-10.845,8.489-19.636,18.958-19.636H43.212
	c-10.47,0-18.958,8.791-18.958,19.636v26.179c0,10.845,8.489,19.636,18.958,19.636h34.116
	C66.858,398.163,58.37,389.371,58.37,378.527z"/>
<path style="fill:#FFCC60;" d="M30.196,462.856c-10.474,0-19.061-8.43-19.635-19.012L0.275,406.987
	c-0.619-2.216-0.176-4.595,1.196-6.432c1.372-1.837,3.515-2.916,5.787-2.916h497.486c2.273,0,4.416,1.079,5.788,2.916
	c1.373,1.837,1.815,4.216,1.196,6.432l-10.288,36.857c-0.573,10.582-9.161,19.012-19.634,19.012H30.196z"/>
<path style="opacity:0.1;enable-background:new    ;" d="M55.295,443.844l-10.287-36.857c-0.619-2.216-0.177-4.595,1.196-6.432
	c1.372-1.837,3.515-2.916,5.787-2.916H7.257c-2.272,0-4.415,1.079-5.787,2.916c-1.372,1.837-1.815,4.216-1.196,6.432l10.287,36.857
	c0.574,10.582,9.161,19.012,19.635,19.012h44.733C64.456,462.856,55.869,454.425,55.295,443.844z"/>
<path style="fill:#A67C52;" d="M352.223,394.317c-5.695,5.766-14.948,5.749-20.666-0.045L214.196,275.423
	c-5.719-5.792-5.738-15.161-0.044-20.928l24.062-24.367c5.695-5.768,14.948-5.749,20.667,0.043l117.36,118.851
	c5.719,5.792,5.738,15.159,0.044,20.928L352.223,394.317z"/>
<g>
	<path style="fill:#8C5930;" d="M236.46,231.905l-7.507,7.601l68.404,68.75c1.053,1.067,2.444,1.602,3.835,1.602
		c1.368,0,2.738-0.518,3.787-1.555c2.118-2.092,2.14-5.502,0.048-7.623L236.46,231.905z"/>
	<path style="fill:#8C5930;" d="M223.046,245.489l-7.505,7.6l68.634,69.421c1.054,1.067,2.444,1.602,3.835,1.602
		c1.368,0,2.738-0.516,3.787-1.553c2.118-2.092,2.14-5.505,0.048-7.623L223.046,245.489z"/>
	<path style="fill:#8C5930;" d="M374.92,371.333l-46.489-46.951c-2.092-2.118-5.506-2.139-7.623-0.047
		c-2.118,2.092-2.139,5.505-0.047,7.623l46.649,46.98L374.92,371.333z"/>
	<path style="fill:#8C5930;" d="M361.494,384.928l-46.397-46.444c-2.093-2.12-5.506-2.141-7.623-0.049
		c-2.118,2.092-2.139,5.505-0.047,7.623l46.103,46.936L361.494,384.928z"/>
</g>
<path style="fill:#DDB690;" d="M72.759,224.842h-1.078c-4.465,0-8.084-3.618-8.084-8.083c0-4.466,3.618-8.083,8.084-8.083h1.078
	c4.464,0,8.084,3.618,8.084,8.083C80.844,221.223,77.223,224.842,72.759,224.842z"/>
<path style="fill:#8C5930;" d="M154.679,191.427h-1.078c-4.465,0-8.084-3.618-8.084-8.083c0-4.465,3.618-8.083,8.084-8.083h1.078
	c4.465,0,8.084,3.618,8.084,8.083C162.764,187.808,159.143,191.427,154.679,191.427z"/>
<g>
	<path style="fill:#DDB690;" d="M88.927,139.689h-1.078c-4.465,0-8.084-3.618-8.084-8.083c0-4.465,3.618-8.083,8.084-8.083h1.078
		c4.464,0,8.084,3.618,8.084,8.083C97.011,136.07,93.392,139.689,88.927,139.689z"/>
	<path style="fill:#DDB690;" d="M182.703,124.598h-1.077c-4.465,0-8.084-3.618-8.084-8.083s3.618-8.085,8.084-8.085h1.077
		c4.465,0,8.084,3.621,8.084,8.085C190.788,120.98,187.168,124.598,182.703,124.598z"/>
	<path style="fill:#DDB690;" d="M331.453,142.923h-1.078c-4.465,0-8.084-3.621-8.084-8.085s3.618-8.083,8.084-8.083h1.078
		c4.464,0,8.084,3.618,8.084,8.083C339.537,139.302,335.918,142.923,331.453,142.923z"/>
</g>
<g>
	<path style="fill:#8C5930;" d="M338.999,221.609h-1.078c-4.465,0-8.084-3.618-8.084-8.083s3.618-8.085,8.084-8.085h1.078
		c4.464,0,8.084,3.621,8.084,8.085C347.083,217.99,343.463,221.609,338.999,221.609z"/>
	<path style="fill:#8C5930;" d="M249.533,65.315h-1.078c-4.465,0-8.084-3.621-8.084-8.085s3.618-8.083,8.084-8.083h1.078
		c4.465,0,8.084,3.618,8.084,8.083S253.998,65.315,249.533,65.315z"/>
</g>
<path style="fill:#774B26;" d="M458.516,321.949c0.008-0.229,0.034-0.451,0.034-0.681c0-10.614-8.596-19.221-19.202-19.221h-7.59
	c0.568-36.031-25.513-39.278-25.513-22.057c0,9.732-5.8,17.286-10.913,22.057h-26.207c-10.605,0-19.202,8.606-19.202,19.221
	c0,0.231,0.026,0.453,0.034,0.681c-14.182,1.364-25.272,13.32-25.272,27.874c0,15.468,12.527,28.006,27.981,28.006h103.142
	c15.453,0,27.98-12.539,27.98-28.006C483.788,335.27,472.698,323.313,458.516,321.949z"/>
<g style="opacity:0.1;">
	<path d="M346.97,349.823c0-14.553,11.091-26.51,25.273-27.874c-0.008-0.229-0.034-0.451-0.034-0.681
		c0-10.614,8.596-19.221,19.202-19.221h-22.285c-10.605,0-19.202,8.606-19.202,19.221c0,0.231,0.026,0.453,0.034,0.681
		c-14.182,1.364-25.272,13.32-25.272,27.874c0,15.468,12.527,28.006,27.981,28.006h22.285
		C359.497,377.829,346.97,365.291,346.97,349.823z"/>
</g>
<path style="fill:#EF645E;" d="M344.666,462.856c-3.19,0-5.881-2.374-6.287-5.541l-12.674-99.151
	c-0.232-1.808,0.325-3.629,1.529-4.996c1.204-1.37,2.936-2.154,4.757-2.154h144.49c1.821,0,3.554,0.784,4.758,2.154
	c1.203,1.368,1.76,3.188,1.529,4.996l-12.675,99.151c-0.404,3.167-3.097,5.541-6.286,5.541H344.666z"/>
<path style="opacity:0.1;enable-background:new    ;" d="M383.19,457.315l-12.674-99.151c-0.232-1.808,0.325-3.629,1.528-4.996
	c1.205-1.37,2.937-2.154,4.758-2.154h-44.81c-1.821,0-3.554,0.784-4.757,2.154c-1.203,1.368-1.761,3.188-1.529,4.996l12.674,99.151
	c0.405,3.167,3.097,5.541,6.287,5.541h44.81C386.287,462.856,383.596,460.482,383.19,457.315z"/>
<path style="fill:#F7C677;" d="M499.605,359.158c0,6.066-4.913,10.984-10.972,10.984H320.752c-6.061,0-10.972-4.918-10.972-10.984
	l0,0c0-6.066,4.911-10.982,10.972-10.982h167.88C494.692,348.176,499.605,353.092,499.605,359.158L499.605,359.158z"/>
<path style="opacity:0.1;enable-background:new    ;" d="M355.051,359.158c0-6.066,4.912-10.982,10.972-10.982h-45.271
	c-6.061,0-10.973,4.916-10.973,10.982s4.911,10.984,10.973,10.984h45.271C359.963,370.141,355.051,365.223,355.051,359.158z"/>
<g>
</g>
<g>
</g>
<g>
</g>
<g>
</g>
<g>
</g>
<g>
</g>
<g>
</g>
<g>
</g>
<g>
</g>
<g>
</g>
<g>
</g>
<g>
</g>
<g>
</g>
<g>
</g>
<g>
</g>
</svg>
