<?xml version="1.0" encoding="iso-8859-1"?>
<!-- Generator: Adobe Illustrator 19.0.0, SVG Export Plug-In . SVG Version: 6.00 Build 0)  -->
<svg version="1.1" id="Layer_1" xmlns="http://www.w3.org/2000/svg" xmlns:xlink="http://www.w3.org/1999/xlink" x="0px" y="0px"
	 viewBox="0 0 512.001 512.001" style="enable-background:new 0 0 512.001 512.001;" xml:space="preserve">
<path style="fill:#FFAB5F;" d="M450.357,240.425c-2.069,0-4.138-0.789-5.717-2.368L261.717,55.132
	c-1.527-1.527-3.557-2.368-5.717-2.368s-4.189,0.841-5.716,2.368L67.359,238.058c-3.157,3.157-8.276,3.157-11.432,0
	c-3.158-3.157-3.158-8.276,0-11.432L238.851,43.7c4.58-4.581,10.671-7.103,17.149-7.103c6.478,0,12.569,2.522,17.15,7.103
	l182.924,182.924c3.158,3.157,3.158,8.276,0,11.432C454.495,239.635,452.426,240.425,450.357,240.425z"/>
<circle style="fill:#FFCC60;" cx="256" cy="59.77" r="25.87"/>
<path style="opacity:0.1;enable-background:new    ;" d="M251.688,59.772c0-10.439,6.187-19.428,15.09-23.515
	c-3.282-1.507-6.931-2.353-10.779-2.353c-14.287,0-25.87,11.582-25.87,25.87c0,14.287,11.583,25.87,25.87,25.87
	c3.848,0,7.497-0.846,10.779-2.354C257.876,79.2,251.688,70.21,251.688,59.772z"/>
<path style="fill:#EF645E;" d="M512,461.932c0,8.93-7.239,16.169-16.169,16.169H16.169C7.239,478.101,0,470.862,0,461.932V224.796
	c0-8.93,7.239-16.169,16.169-16.169h479.664c8.93,0,16.169,7.239,16.169,16.169v237.136H512z"/>
<g>
	<path style="fill:#E23B3B;" d="M482.259,349.239h-25.771c-4.465,0-8.084-3.62-8.084-8.084c0-4.465,3.62-8.084,8.084-8.084h25.771
		c4.464,0,8.083,3.62,8.083,8.084C490.342,345.62,486.724,349.239,482.259,349.239z"/>
	<path style="fill:#E23B3B;" d="M55.511,349.239h-25.77c-4.464,0-8.084-3.62-8.084-8.084c0-4.465,3.62-8.084,8.084-8.084h25.771
		c4.465,0,8.084,3.62,8.084,8.084C63.596,345.62,59.976,349.239,55.511,349.239z"/>
</g>
<path style="fill:#FFFFFF;" d="M91.483,429.596c-4.584,0-8.667-2.9-10.177-7.228c-4.112-11.785-13.63-21.2-25.46-25.184
	c-4.385-1.476-7.339-5.588-7.339-10.215V299.76c0-4.628,2.954-8.74,7.339-10.215c11.83-3.984,21.348-13.398,25.46-25.184
	c1.511-4.329,5.593-7.228,10.177-7.228h329.034c4.584,0,8.666,2.9,10.177,7.228c4.113,11.785,13.63,21.2,25.46,25.184
	c4.385,1.476,7.339,5.588,7.339,10.215v87.209c0,4.628-2.954,8.738-7.339,10.215c-11.83,3.984-21.348,13.398-25.46,25.184
	c-1.511,4.329-5.593,7.228-10.177,7.228L91.483,429.596L91.483,429.596z"/>
<path style="opacity:0.1;enable-background:new    ;" d="M114.181,422.368c-4.113-11.785-13.63-21.2-25.461-25.184
	c-4.385-1.476-7.339-5.588-7.339-10.215V299.76c0-4.628,2.954-8.74,7.339-10.215c11.83-3.984,21.348-13.398,25.461-25.184
	c1.511-4.329,5.593-7.228,10.177-7.228H91.483c-4.584,0-8.667,2.9-10.177,7.228c-4.112,11.785-13.63,21.2-25.46,25.184
	c-4.385,1.476-7.339,5.588-7.339,10.215v87.209c0,4.628,2.954,8.738,7.339,10.215c11.83,3.984,21.348,13.398,25.46,25.184
	c1.511,4.329,5.593,7.228,10.177,7.228h32.876C119.774,429.596,115.692,426.696,114.181,422.368z"/>
<g>
	<circle style="fill:#FFFFFF;" cx="38.266" cy="246.357" r="13.229"/>
	<circle style="fill:#FFFFFF;" cx="474.812" cy="246.357" r="13.229"/>
	<circle style="fill:#FFFFFF;" cx="38.266" cy="437.145" r="13.229"/>
	<circle style="fill:#FFFFFF;" cx="474.812" cy="437.145" r="13.229"/>
</g>
<g>
	<path style="fill:#E23B3B;" d="M78.596,340.343v-0.159c0-15.874,11.965-28.877,29.116-28.877c8.376,0,14.039,2.234,18.666,5.663
		c1.276,0.958,2.393,2.713,2.393,4.866c0,3.35-2.712,5.982-6.063,5.982c-1.675,0-2.792-0.638-3.67-1.196
		c-3.429-2.553-7.02-3.988-11.407-3.988c-9.413,0-16.194,7.818-16.194,17.39v0.16c0,9.572,6.622,17.549,16.194,17.549
		c5.185,0,8.615-1.596,12.125-4.388c0.958-0.798,2.234-1.356,3.67-1.356c3.111,0,5.743,2.553,5.743,5.663
		c0,1.914-0.956,3.43-2.073,4.388c-5.026,4.388-10.929,7.021-19.862,7.021C90.801,369.061,78.596,356.375,78.596,340.343z"/>
	<path style="fill:#E23B3B;" d="M143.926,317.927c0-3.43,2.712-6.142,6.142-6.142s6.142,2.713,6.142,6.142v39.007h22.734
		c3.111,0,5.584,2.473,5.584,5.584c0,3.112-2.473,5.584-5.584,5.584h-28.876c-3.43,0-6.142-2.713-6.142-6.142L143.926,317.927
		L143.926,317.927z"/>
	<path style="fill:#E23B3B;" d="M191.627,340.343v-0.159c0-15.874,12.523-28.877,29.755-28.877c17.23,0,29.595,12.844,29.595,28.717
		v0.16c0,15.874-12.524,28.877-29.755,28.877C203.991,369.061,191.627,356.217,191.627,340.343z M238.132,340.343v-0.159
		c0-9.572-7.02-17.55-16.912-17.55c-9.892,0-16.752,7.818-16.752,17.39v0.16c0,9.572,7.02,17.549,16.912,17.549
		C231.271,357.733,238.132,349.915,238.132,340.343z"/>
	<path style="fill:#E23B3B;" d="M264.376,362.2c-1.356-0.957-2.313-2.713-2.313-4.627c0-3.191,2.553-5.663,5.743-5.663
		c1.596,0,2.713,0.558,3.51,1.116c4.228,3.112,8.854,5.026,14.28,5.026c5.025,0,8.056-1.995,8.056-5.265v-0.159
		c0-3.111-1.915-4.706-11.247-7.099c-11.248-2.871-18.506-5.983-18.506-17.072v-0.159c0-10.13,8.137-16.831,19.544-16.831
		c6.78,0,12.683,1.754,17.709,4.945c1.355,0.798,2.713,2.473,2.713,4.866c0,3.19-2.553,5.663-5.744,5.663
		c-1.196,0-2.154-0.32-3.111-0.877c-4.068-2.393-7.896-3.749-11.726-3.749c-4.707,0-7.18,2.154-7.18,4.866v0.16
		c0,3.67,2.393,4.866,12.046,7.338c11.327,2.952,17.709,7.02,17.709,16.752v0.16c0,11.088-8.455,17.311-20.501,17.311
		C278.016,368.901,270.597,366.667,264.376,362.2z"/>
	<path style="fill:#E23B3B;" d="M320.532,361.96v-43.554c0-3.43,2.713-6.142,6.142-6.142h30.951c3.03,0,5.505,2.473,5.505,5.505
		s-2.473,5.424-5.505,5.424h-24.888v11.328h21.298c3.031,0,5.505,2.473,5.505,5.505s-2.472,5.424-5.505,5.424h-21.298v11.726h25.288
		c3.03,0,5.503,2.473,5.503,5.505s-2.473,5.424-5.503,5.424h-31.35C323.244,368.102,320.532,365.391,320.532,361.96z"/>
	<path style="fill:#E23B3B;" d="M377.965,318.406c0-3.43,2.712-6.142,6.142-6.142h15.635c17.55,0,29.674,12.045,29.674,27.76v0.16
		c0,15.715-12.124,27.92-29.674,27.92h-15.635c-3.43,0-6.142-2.713-6.142-6.142V318.406z M399.741,357.015
		c10.051,0,16.831-6.78,16.831-16.672v-0.159c0-9.892-6.78-16.831-16.831-16.831h-9.492v33.663h9.492V357.015z"/>
</g>
<g>
</g>
<g>
</g>
<g>
</g>
<g>
</g>
<g>
</g>
<g>
</g>
<g>
</g>
<g>
</g>
<g>
</g>
<g>
</g>
<g>
</g>
<g>
</g>
<g>
</g>
<g>
</g>
<g>
</g>
</svg>
