<?xml version="1.0" encoding="iso-8859-1"?>
<!-- Generator: Adobe Illustrator 19.0.0, SVG Export Plug-In . SVG Version: 6.00 Build 0)  -->
<svg version="1.1" id="Layer_1" xmlns="http://www.w3.org/2000/svg" xmlns:xlink="http://www.w3.org/1999/xlink" x="0px" y="0px"
	 viewBox="0 0 512 512" style="enable-background:new 0 0 512 512;" xml:space="preserve">
<g>
	<path style="fill:#DB712A;" d="M377.936,236.757c-2.069,0-4.138-0.79-5.717-2.369c-3.157-3.157-3.157-8.277,0-11.432l28.587-28.586
		c3.157-3.157,8.276-3.157,11.432,0.001c3.157,3.157,3.157,8.276-0.001,11.432l-28.586,28.586
		C382.074,235.967,380.005,236.757,377.936,236.757z"/>
	<path style="fill:#DB712A;" d="M142.505,235.858c-2.069,0-4.138-0.79-5.716-2.368l-28.587-28.586
		c-3.158-3.157-3.158-8.276-0.001-11.432c3.158-3.158,8.277-3.156,11.432-0.001l28.586,28.586c3.158,3.157,3.158,8.276,0.002,11.432
		C146.643,235.068,144.573,235.858,142.505,235.858z"/>
</g>
<g>
	<circle style="fill:#EFE4B4;" cx="223.66" cy="188.155" r="24.792"/>
	<circle style="fill:#EFE4B4;" cx="296.96" cy="188.155" r="24.791"/>
</g>
<g>
	<path style="fill:#DB712A;" d="M386.786,296.491c-4.465,0-8.084-3.62-8.084-8.083c-0.001-15.991,6.217-31.017,17.512-42.311
		c11.294-11.294,26.32-17.512,42.311-17.515c4.463,0,8.083,3.62,8.083,8.084c0,4.464-3.618,8.084-8.083,8.084
		c-11.672,0-22.639,4.539-30.879,12.778c-8.24,8.24-12.778,19.206-12.777,30.877C394.869,292.871,391.252,296.491,386.786,296.491z"
		/>
	<path style="fill:#DB712A;" d="M386.786,330.982c-4.465,0-8.084-3.618-8.084-8.082c-0.001-15.991,6.217-31.018,17.512-42.311
		c11.294-11.294,26.32-17.514,42.311-17.515c4.463,0,8.083,3.62,8.083,8.084s-3.618,8.083-8.083,8.083
		c-11.672,0-22.639,4.54-30.879,12.778c-8.24,8.24-12.778,19.206-12.777,30.877C394.869,327.363,391.252,330.982,386.786,330.982z"
		/>
	<path style="fill:#DB712A;" d="M134.019,296.491c-4.465,0-8.083-3.62-8.083-8.084c0-24.07-19.583-43.654-43.655-43.655
		c-4.465,0-8.083-3.621-8.083-8.084c0-4.465,3.62-8.084,8.083-8.084l0,0c32.986,0.002,59.824,26.839,59.824,59.825
		C142.103,292.872,138.483,296.491,134.019,296.491z"/>
	<path style="fill:#DB712A;" d="M134.019,330.982c-4.465,0-8.083-3.618-8.083-8.083c0-24.07-19.583-43.655-43.655-43.656
		c-4.465,0-8.083-3.62-8.083-8.083c0-4.465,3.62-8.084,8.083-8.084l0,0c32.986,0.001,59.824,26.838,59.824,59.825
		C142.103,327.364,138.483,330.982,134.019,330.982z"/>
</g>
<path style="fill:#FB8C3B;" d="M406.187,293.794c0,56.553-45.847,102.4-102.4,102.4h-86.232c-56.553,0-102.399-45.847-102.399-102.4
	v-2.157c0-56.553,45.846-102.4,102.399-102.4h86.232c56.553,0,102.4,45.847,102.4,102.4V293.794z"/>
<path style="opacity:0.1;enable-background:new    ;" d="M158.99,293.794v-2.157c0-56.553,45.846-102.4,102.4-102.4h-43.835
	c-56.553,0-102.399,45.847-102.399,102.4v2.157c0,56.553,45.846,102.4,102.399,102.4h43.835
	C204.836,396.194,158.99,350.347,158.99,293.794z"/>
<g>
	<path style="fill:#B0CE6F;" d="M128.857,298.322c5.612-13.802,18.31-23.572,33.135-25.492c3.955-0.514,7.89,1.086,10.366,4.214
		c9.273,11.723,11.551,27.579,5.937,41.383c-5.613,13.803-18.31,23.573-33.135,25.494c-3.956,0.512-7.889-1.088-10.362-4.214
		C125.518,327.984,123.242,312.125,128.857,298.322z"/>
	<path style="fill:#B0CE6F;" d="M84.227,349.243c-13.802-5.616-23.571-18.313-25.492-33.138c-0.514-3.956,1.086-7.889,4.214-10.365
		c11.723-9.276,27.578-11.551,41.384-5.939c13.802,5.615,23.573,18.31,25.492,33.137c0.513,3.956-1.087,7.889-4.213,10.362
		C113.889,352.578,98.031,354.855,84.227,349.243z"/>
</g>
<g>
	<path style="fill:#79A85B;" d="M134.518,363.321c-1.014,0-2.044-0.192-3.042-0.598c-4.136-1.681-6.125-6.398-4.443-10.534
		l18.84-46.335c1.682-4.135,6.394-6.129,10.534-4.444c4.136,1.681,6.125,6.398,4.443,10.534l-18.84,46.335
		C140.735,361.417,137.71,363.321,134.518,363.321z"/>
	<path style="fill:#79A85B;" d="M141.135,351.663c-1.014,0-2.045-0.192-3.042-0.598l-46.333-18.842
		c-4.136-1.682-6.125-6.398-4.443-10.534c1.68-4.136,6.398-6.127,10.533-4.444l46.333,18.843c4.137,1.681,6.125,6.398,4.444,10.534
		C147.352,349.76,144.328,351.663,141.135,351.663z"/>
</g>
<circle style="fill:#EF645E;" cx="418.482" cy="335.831" r="34.882"/>
<path style="fill:#C69C6D;" d="M25.289,348.766l7.689,55.378c0.74,5.329,5.297,9.295,10.677,9.295h424.689
	c5.381,0,9.937-3.967,10.678-9.295l7.69-55.378L25.289,348.766L25.289,348.766z"/>
<path style="opacity:0.1;enable-background:new    ;" d="M76.634,404.144l-7.69-55.378H25.289l7.689,55.378
	c0.74,5.329,5.297,9.295,10.677,9.295h43.654C81.93,413.44,77.373,409.473,76.634,404.144z"/>
<path style="fill:#A67C52;" d="M512,357.251c0,9.448-7.659,17.107-17.107,17.107H17.107C7.659,374.358,0,366.699,0,357.251l0,0
	c0-9.449,7.659-17.108,17.107-17.108h477.786C504.341,340.143,512,347.802,512,357.251L512,357.251z"/>
<path style="opacity:0.1;enable-background:new    ;" d="M43.655,357.251c0-9.449,7.658-17.108,17.107-17.108H17.107
	C7.659,340.143,0,347.802,0,357.251c0,9.448,7.659,17.107,17.107,17.107h43.655C51.313,374.358,43.655,366.699,43.655,357.251z"/>
<path style="fill:#FB8C3B;" d="M487.389,193.243c10.5-10.501,17.777-23.729,20.485-37.246c0.598-2.989-0.39-6.077-2.612-8.163
	c-2.224-2.087-5.369-2.876-8.314-2.087l-45.61,12.222c-0.759,0.203-1.575-0.015-2.131-0.569c-0.553-0.556-0.774-1.371-0.568-2.13
	l12.219-45.613c0.792-2.946,0.002-6.089-2.082-8.313c-2.089-2.221-5.174-3.211-8.165-2.611
	c-13.517,2.708-26.745,9.985-37.246,20.485c-25.135,25.136-28.98,62.188-8.572,82.596
	C425.202,222.224,462.258,218.377,487.389,193.243z"/>
<g style="opacity:0.1;">
	<path d="M426.532,212.66c-20.409-20.407-16.563-57.46,8.572-82.596c7.224-7.224,15.737-12.921,24.749-16.656l1.006-3.751
		c0.792-2.946,0.002-6.089-2.082-8.313c-2.089-2.221-5.174-3.211-8.165-2.611c-13.517,2.708-26.745,9.985-37.246,20.485
		c-25.135,25.136-28.98,62.188-8.572,82.596c6.361,6.362,14.344,10.367,23.078,12.104
		C427.421,213.505,426.967,213.096,426.532,212.66z"/>
</g>
<path style="fill:#DB712A;" d="M451.338,157.97c-0.759,0.203-1.575-0.015-2.131-0.569c-0.553-0.556-0.774-1.371-0.568-2.13
	l3.196-11.932l-18.387,18.387c-3.156,3.158-3.156,8.276,0,11.433c1.58,1.578,3.649,2.368,5.718,2.368s4.138-0.79,5.718-2.368
	l18.386-18.387L451.338,157.97z"/>
<path style="fill:#FB8C3B;" d="M33.951,193.243c-10.5-10.501-17.777-23.729-20.485-37.246c-0.598-2.989,0.39-6.077,2.612-8.163
	c2.224-2.087,5.369-2.876,8.314-2.087l45.61,12.222c0.759,0.203,1.575-0.015,2.131-0.569c0.553-0.556,0.774-1.371,0.568-2.13
	l-12.219-45.613c-0.791-2.946-0.002-6.089,2.082-8.313c2.089-2.221,5.174-3.211,8.164-2.611
	c13.518,2.708,26.745,9.985,37.246,20.485c25.135,25.136,28.981,62.188,8.572,82.596C96.139,222.224,59.084,218.377,33.951,193.243z
	"/>
<path style="fill:#DB712A;" d="M87.892,161.726L69.506,143.34l3.196,11.932c0.206,0.76-0.016,1.574-0.568,2.13
	c-0.556,0.555-1.372,0.772-2.131,0.569l-11.931-3.196l18.387,18.387c1.579,1.578,3.648,2.368,5.717,2.368
	c2.068,0,4.138-0.79,5.718-2.368C91.048,170.001,91.048,164.884,87.892,161.726z"/>
<g style="opacity:0.1;">
	<path d="M55.741,181.503c-9.278-9.278-16.034-20.687-19.352-32.541l-11.998-3.215c-2.946-0.789-6.091,0-8.314,2.087
		c-2.222,2.086-3.21,5.172-2.612,8.163c2.709,13.519,9.988,26.746,20.487,37.246c25.092,25.093,62.062,28.965,82.491,8.667
		C96.927,206.294,73.396,199.16,55.741,181.503z"/>
</g>
<g>
</g>
<g>
</g>
<g>
</g>
<g>
</g>
<g>
</g>
<g>
</g>
<g>
</g>
<g>
</g>
<g>
</g>
<g>
</g>
<g>
</g>
<g>
</g>
<g>
</g>
<g>
</g>
<g>
</g>
</svg>
