<?xml version="1.0" encoding="iso-8859-1"?>
<!-- Generator: Adobe Illustrator 19.0.0, SVG Export Plug-In . SVG Version: 6.00 Build 0)  -->
<svg version="1.1" id="Layer_1" xmlns="http://www.w3.org/2000/svg" xmlns:xlink="http://www.w3.org/1999/xlink" x="0px" y="0px"
	 viewBox="0 0 512 512" style="enable-background:new 0 0 512 512;" xml:space="preserve">
<path style="fill:#F9EBCF;" d="M134.896,512c-5.953,0-10.779-4.826-10.779-10.779V10.778C124.117,4.826,128.942,0,134.896,0h242.207
	c5.953,0,10.779,4.826,10.779,10.778V501.22c0,5.953-4.826,10.779-10.779,10.779H134.896V512z"/>
<path style="fill:#AEB7B7;" d="M214.232,267.63c-4.465,0-8.084-3.62-8.084-8.084v-103.81c0-4.465,3.62-8.084,8.084-8.084
	s8.084,3.62,8.084,8.084v103.81C222.316,264.01,218.697,267.63,214.232,267.63z"/>
<g>
	<path style="fill:#8C6239;" d="M281.552,472.246c0,6.551,5.424,11.86,12.112,11.86h12.113c6.689,0,12.113-5.309,12.113-11.86
		V258.788c0-6.549-5.423-11.86-12.113-11.86h-12.113c-6.688,0-12.112,5.31-12.112,11.86V472.246z"/>
	<path style="fill:#8C6239;" d="M232.403,472.246c0,6.551-5.424,11.86-12.115,11.86h-12.114c-6.69,0-12.112-5.309-12.112-11.86
		V258.788c0-6.549,5.422-11.86,12.112-11.86h12.112c6.69,0,12.115,5.31,12.115,11.86v213.458H232.403z"/>
</g>
<path style="opacity:0.1;enable-background:new    ;" d="M207.494,472.246V258.788c0-6.549,5.422-11.86,12.111-11.86h-11.431
	c-6.69,0-12.112,5.31-12.112,11.86v213.458c0,6.55,5.422,11.86,12.112,11.86h11.431
	C212.916,484.105,207.494,478.796,207.494,472.246z"/>
<g>
	<path style="fill:#C5CCCC;" d="M172.303,139.417v29.881c0,5.156,4.172,9.336,9.317,9.336h65.223c5.145,0,9.317-4.181,9.317-9.336
		v-29.881H172.303z"/>
	<path style="fill:#C5CCCC;" d="M203.172,160.345c-4.465,0-8.084-3.618-8.084-8.083V54.129c0-4.465,3.62-8.084,8.084-8.084
		s8.084,3.62,8.084,8.084v98.133C211.256,156.726,207.636,160.345,203.172,160.345z"/>
	<path style="fill:#C5CCCC;" d="M225.293,160.345c-4.465,0-8.084-3.618-8.084-8.083V54.129c0-4.465,3.62-8.084,8.084-8.084
		c4.464,0,8.084,3.62,8.084,8.084v98.133C233.377,156.726,229.758,160.345,225.293,160.345z"/>
	<path style="fill:#C5CCCC;" d="M180.388,163.942c-4.465,0-8.084-3.618-8.084-8.083V54.129c0-4.465,3.62-8.084,8.084-8.084
		s8.084,3.62,8.084,8.084v101.729C188.472,160.324,184.852,163.942,180.388,163.942z"/>
	<path style="fill:#C5CCCC;" d="M248.078,163.942c-4.465,0-8.084-3.618-8.084-8.083V54.129c0-4.465,3.62-8.084,8.084-8.084
		s8.084,3.62,8.084,8.084v101.729C256.161,160.324,252.542,163.942,248.078,163.942z"/>
	<path style="fill:#C5CCCC;" d="M286.942,327.569c-2.977,0-5.39-2.413-5.39-5.39V46.349c0-1.559,0.676-3.043,1.852-4.066
		c0.986-0.859,2.245-1.325,3.538-1.325c0.247,0,0.496,0.017,0.744,0.051c13.413,1.871,25.836,10.052,34.98,23.035
		c10.982,15.593,17.03,37.602,17.03,61.976v189.69c0,6.539-5.433,11.86-12.112,11.86H286.942z"/>
</g>
<path style="opacity:0.1;enable-background:new    ;" d="M303.49,322.18V46.389c-5-2.775-10.316-4.613-15.804-5.379
	c-0.249-0.034-0.497-0.051-0.744-0.051c-1.293,0-2.552,0.465-3.538,1.325c-1.176,1.023-1.852,2.506-1.852,4.066v275.831
	c0,2.978,2.414,5.39,5.39,5.39h21.938C305.903,327.569,303.49,325.157,303.49,322.18z"/>
<path style="opacity:0.1;enable-background:new    ;" d="M194.559,169.297v-29.881h-22.256v29.881c0,5.156,4.172,9.336,9.317,9.336
	h22.256C198.732,178.634,194.559,174.453,194.559,169.297z"/>
<path style="fill:#F7EEDF;" d="M124.117,424.053v77.541c0,5.747,4.649,10.406,10.384,10.406h242.998
	c5.735,0,10.384-4.659,10.384-10.406V159.727L124.117,424.053z"/>
<path style="fill:#EDD9BE;" d="M124.117,501.594c0,5.747,4.649,10.406,10.384,10.406h242.998c5.735,0,10.384-4.659,10.384-10.406
	v-298.16L124.117,467.761V501.594z"/>
<ellipse style="fill:#FFFFFF;" cx="326.614" cy="389.204" rx="32.192" ry="32.26"/>
<g>
	<path style="fill:#EF645E;" d="M349.46,455.564h-45.691c-4.465,0-8.084-3.62-8.084-8.084c0-4.466,3.62-8.083,8.084-8.083h45.691
		c4.465,0,8.084,3.618,8.084,8.083C357.545,451.944,353.925,455.564,349.46,455.564z"/>
	<path style="fill:#EF645E;" d="M340.167,480.539h-27.105c-4.465,0-8.084-3.618-8.084-8.083c0-4.465,3.62-8.084,8.084-8.084h27.105
		c4.465,0,8.084,3.62,8.084,8.084C348.251,476.921,344.632,480.539,340.167,480.539z"/>
</g>
<path style="opacity:0.1;enable-background:new    ;" d="M156.734,501.221V10.778C156.734,4.826,161.561,0,167.513,0h-32.618
	c-5.953,0-10.779,4.826-10.779,10.778V501.22c0,5.953,4.826,10.779,10.779,10.779h32.618
	C161.561,512,156.734,507.174,156.734,501.221z"/>
<g>
</g>
<g>
</g>
<g>
</g>
<g>
</g>
<g>
</g>
<g>
</g>
<g>
</g>
<g>
</g>
<g>
</g>
<g>
</g>
<g>
</g>
<g>
</g>
<g>
</g>
<g>
</g>
<g>
</g>
</svg>
