<?xml version="1.0" encoding="iso-8859-1"?>
<!-- Generator: Adobe Illustrator 19.0.0, SVG Export Plug-In . SVG Version: 6.00 Build 0)  -->
<svg version="1.1" id="Layer_1" xmlns="http://www.w3.org/2000/svg" xmlns:xlink="http://www.w3.org/1999/xlink" x="0px" y="0px"
	 viewBox="0 0 512 512" style="enable-background:new 0 0 512 512;" xml:space="preserve">
<g>
	<path style="fill:#AEB7B7;" d="M384.785,253.706c-4.329,0-7.837-3.563-7.837-7.959V127.773c0-4.396,3.508-7.959,7.837-7.959
		c4.329,0,7.837,3.563,7.837,7.959v117.974C392.622,250.143,389.114,253.706,384.785,253.706z"/>
	<path style="fill:#AEB7B7;" d="M106.318,264.754c-4.329,0-7.837-3.563-7.837-7.959V138.822c0-4.395,3.508-7.959,7.837-7.959
		s7.837,3.563,7.837,7.959v117.974C114.155,261.191,110.647,264.754,106.318,264.754z"/>
</g>
<path style="fill:#998675;" d="M268.802,498.523c0,7.443-6.082,13.477-13.584,13.477h-13.585c-7.502,0-13.585-6.034-13.585-13.477
	V255.936c0-7.444,6.082-13.477,13.585-13.477h13.585c7.501,0,13.584,6.033,13.584,13.477V498.523z"/>
<rect x="228.049" y="327.367" style="fill:#B7A291;" width="40.751" height="40.43"/>
<path style="fill:#998675;" d="M126.694,498.523c0,7.443-6.083,13.477-13.586,13.477H99.525c-7.502,0-13.584-6.034-13.584-13.477
	V255.936c0-7.444,6.081-13.477,13.584-13.477h13.584c7.502,0,13.586,6.033,13.586,13.477V498.523z"/>
<path style="fill:#C5CCCC;" d="M59.297,120.276v33.957c0,5.861,4.679,10.611,10.449,10.611h73.143
	c5.771,0,10.449-4.75,10.449-10.611v-33.957H59.297z"/>
<path style="fill:#998675;" d="M405.162,498.523c0,7.443-6.083,13.477-13.586,13.477h-13.584c-7.502,0-13.584-6.034-13.584-13.477
	V255.936c0-7.444,6.081-13.477,13.584-13.477h13.584c7.502,0,13.586,6.033,13.586,13.477V498.523z"/>
<path style="opacity:0.1;enable-background:new    ;" d="M239.282,498.523V255.936c0-7.444,6.082-13.477,13.585-13.477h-11.234
	c-7.502,0-13.585,6.033-13.585,13.477v242.587c0,7.443,6.082,13.477,13.585,13.477h11.234
	C245.364,512,239.282,505.966,239.282,498.523z"/>
<path style="opacity:0.1;enable-background:new    ;" d="M97.176,498.523V255.936c0-7.444,6.081-13.477,13.584-13.477H99.525
	c-7.502,0-13.584,6.033-13.584,13.477v242.587c0,7.443,6.081,13.477,13.584,13.477h11.235
	C103.257,512,97.176,505.966,97.176,498.523z"/>
<path style="opacity:0.1;enable-background:new    ;" d="M375.119,498.523V255.936c0-7.444,6.081-13.477,13.584-13.477h-10.71
	c-7.502,0-13.584,6.033-13.584,13.477v242.587c0,7.443,6.081,13.477,13.584,13.477h10.71C381.2,512,375.119,505.966,375.119,498.523
	z"/>
<g>
	<path style="fill:#C5CCCC;" d="M93.513,138.478c-4.329,0-7.837-3.563-7.837-7.958V7.959C85.676,3.563,89.184,0,93.513,0
		s7.837,3.563,7.837,7.959V130.52C101.349,134.915,97.842,138.478,93.513,138.478z"/>
	<path style="fill:#C5CCCC;" d="M119.123,138.478c-4.329,0-7.837-3.563-7.837-7.958V7.959c0-4.396,3.508-7.959,7.837-7.959
		s7.837,3.563,7.837,7.959V130.52C126.96,134.915,123.451,138.478,119.123,138.478z"/>
	<path style="fill:#C5CCCC;" d="M67.134,141.662c-4.329,0-7.837-3.563-7.837-7.959V7.959C59.297,3.563,62.805,0,67.134,0
		s7.837,3.563,7.837,7.959v125.745C74.971,138.099,71.463,141.662,67.134,141.662z"/>
	<path style="fill:#C5CCCC;" d="M145.502,141.662c-4.329,0-7.837-3.563-7.837-7.959V7.959c0-4.396,3.508-7.959,7.837-7.959
		c4.329,0,7.837,3.563,7.837,7.959v125.745C153.338,138.099,149.831,141.662,145.502,141.662z"/>
	<ellipse style="fill:#C5CCCC;" cx="384.784" cy="95.504" rx="67.918" ry="87.542"/>
	<path style="fill:#C5CCCC;" d="M203.598,105.053v215.573c0,7.444,6.081,13.477,13.584,13.477h51.62V7.959
		C232.789,7.959,203.598,46.69,203.598,105.053z"/>
</g>
<path style="opacity:0.1;enable-background:new    ;" d="M338.547,95.503c0-43.592,24.722-79.729,57.078-86.421
	c-3.531-0.73-7.149-1.123-10.84-1.123c-37.51,0-67.918,39.195-67.918,87.544c0,48.35,30.409,87.544,67.918,87.544
	c3.691,0,7.309-0.393,10.84-1.123C363.27,175.231,338.547,139.095,338.547,95.503z"/>
<path style="opacity:0.1;enable-background:new    ;" d="M225.278,320.626V105.053c0-46.041,18.174-79.847,43.523-92.076V7.959
	c-36.012,0-65.204,38.731-65.204,97.094v215.573c0,7.444,6.081,13.477,13.584,13.477h21.681
	C231.36,334.103,225.278,328.07,225.278,320.626z"/>
<path style="opacity:0.1;enable-background:new    ;" d="M80.978,154.233v-33.957H59.297v33.957c0,5.861,4.679,10.611,10.449,10.611
	h21.681C85.657,164.844,80.978,160.094,80.978,154.233z"/>
<g>
	<path style="fill:#FFFFFF;" d="M438.911,57.443c-15.539-6.437-20.757-11.654-27.193-27.193
		c-6.437,15.54-11.655,20.757-27.193,27.193c15.539,6.437,20.757,11.655,27.193,27.193C418.153,69.097,423.372,63.88,438.911,57.443
		z"/>
	<circle style="fill:#FFFFFF;" cx="432.588" cy="98.074" r="12.689"/>
</g>
<g>
</g>
<g>
</g>
<g>
</g>
<g>
</g>
<g>
</g>
<g>
</g>
<g>
</g>
<g>
</g>
<g>
</g>
<g>
</g>
<g>
</g>
<g>
</g>
<g>
</g>
<g>
</g>
<g>
</g>
</svg>
