<?xml version="1.0" encoding="iso-8859-1"?>
<!-- Generator: Adobe Illustrator 19.0.0, SVG Export Plug-In . SVG Version: 6.00 Build 0)  -->
<svg version="1.1" id="Layer_1" xmlns="http://www.w3.org/2000/svg" xmlns:xlink="http://www.w3.org/1999/xlink" x="0px" y="0px"
	 viewBox="0 0 512 512" style="enable-background:new 0 0 512 512;" xml:space="preserve">
<path style="fill:#EFDFBB;" d="M122.103,500.149c0,6.545-5.33,11.851-11.903,11.851H76.874c-6.572,0-11.902-5.306-11.902-11.851
	v-128c0-6.546,5.33-11.852,11.902-11.852H110.2c6.573,0,11.903,5.306,11.903,11.852v128H122.103z"/>
<path style="opacity:0.1;enable-background:new    ;" d="M97.67,500.149v-128c1.075-6.49,6.318-11.756,12.815-11.844
	c-0.055-0.001-0.109-0.008-0.163-0.008H76.995c-6.572,0-11.902,5.306-11.902,11.852v128c0,6.545,5.33,11.851,11.902,11.851h33.326
	c0.054,0,0.109-0.007,0.163-0.008C103.988,511.904,98.745,506.639,97.67,500.149z"/>
<path style="fill:#CEBC99;" d="M93.538,476.905c-4.465,0-8.084-3.62-8.084-8.084v-34.53c0-4.464,3.62-8.084,8.084-8.084
	s8.084,3.62,8.084,8.084v34.53C101.623,473.285,98.003,476.905,93.538,476.905z"/>
<path style="fill:#EFDFBB;" d="M447.027,500.149c0,6.545-5.329,11.851-11.904,11.851h-33.325c-6.572,0-11.902-5.306-11.902-11.851
	v-128c0-6.546,5.33-11.852,11.902-11.852h33.325c6.573,0,11.904,5.306,11.904,11.852V500.149z"/>
<path style="fill:#CEBC99;" d="M418.462,476.905c-4.465,0-8.084-3.62-8.084-8.084v-34.53c0-4.464,3.62-8.084,8.084-8.084
	c4.465,0,8.083,3.62,8.083,8.084v34.53C426.546,473.285,422.928,476.905,418.462,476.905z"/>
<path style="fill:#C69C6D;" d="M447.027,426.666c0,9.818-7.993,17.778-17.854,17.778H82.827c-9.861,0-17.854-7.96-17.854-17.778
	V17.778C64.973,7.96,72.966,0,82.827,0h346.347c9.861,0,17.854,7.96,17.854,17.778v408.888H447.027z"/>
<path style="opacity:0.1;enable-background:new    ;" d="M98.628,426.666V17.778C98.628,7.96,106.62,0,116.481,0H82.827
	c-9.861,0-17.854,7.96-17.854,17.778v408.888c0,9.818,7.993,17.778,17.854,17.778h33.654
	C106.62,444.444,98.628,436.484,98.628,426.666z"/>
<path style="fill:#FFFFFF;" d="M156.069,397.037c-4.623,0-8.827-2.666-10.783-6.836c-4.458-9.504-13.252-16.614-23.526-19.017
	c-5.378-1.259-9.179-6.036-9.179-11.538V84.799c0-5.501,3.801-10.279,9.179-11.537c10.273-2.404,19.068-9.513,23.526-19.017
	c1.956-4.171,6.161-6.837,10.783-6.837H355.93c4.623,0,8.827,2.666,10.782,6.837c4.459,9.504,13.253,16.613,23.527,19.017
	c5.378,1.258,9.178,6.036,9.178,11.537v274.848c0,5.501-3.8,10.279-9.178,11.538c-10.273,2.403-19.068,9.513-23.527,19.017
	c-1.955,4.17-6.161,6.836-10.782,6.836H156.069z"/>
<path style="opacity:0.1;enable-background:new    ;" d="M178.76,390.201c-4.459-9.504-13.253-16.614-23.527-19.017
	c-5.377-1.259-9.178-6.036-9.178-11.538V84.799c0-5.501,3.801-10.279,9.178-11.537c10.273-2.404,19.068-9.513,23.527-19.017
	c1.955-4.171,6.16-6.837,10.782-6.837h-33.473c-4.623,0-8.827,2.666-10.783,6.837c-4.458,9.504-13.252,16.613-23.526,19.017
	c-5.378,1.258-9.179,6.036-9.179,11.537v274.848c0,5.501,3.801,10.279,9.179,11.538c10.273,2.403,19.068,9.513,23.526,19.017
	c1.956,4.17,6.161,6.836,10.783,6.836h33.473C184.921,397.037,180.715,394.372,178.76,390.201z"/>
<ellipse style="fill:#FFE060;" cx="256" cy="137.509" rx="62.098" ry="41.509"/>
<g>
	<path style="fill:#78B591;" d="M316.107,222.603H195.893c-4.465,0-8.084-3.62-8.084-8.084s3.62-8.084,8.084-8.084h120.214
		c4.465,0,8.084,3.62,8.084,8.084C324.192,218.983,320.573,222.603,316.107,222.603z"/>
	<path style="fill:#78B591;" d="M289.697,256.565h-67.394c-4.466,0-8.084-3.62-8.084-8.084s3.62-8.084,8.084-8.084h67.394
		c4.465,0,8.083,3.62,8.083,8.084S294.162,256.565,289.697,256.565z"/>
	<path style="fill:#78B591;" d="M324.218,349.417H187.783c-4.464,0-8.083-3.62-8.083-8.084c0-4.465,3.62-8.084,8.083-8.084h136.435
		c4.465,0,8.083,3.62,8.083,8.084C332.302,345.799,328.683,349.417,324.218,349.417z"/>
	<path style="fill:#78B591;" d="M194.021,309.51c-4.464,0-8.083-3.62-8.083-8.084v-10.01c0-4.465,3.62-8.084,8.083-8.084
		c4.465,0,8.084,3.62,8.084,8.084v10.01C202.105,305.891,198.486,309.51,194.021,309.51z"/>
	<path style="fill:#78B591;" d="M218.812,309.51c-4.465,0-8.083-3.62-8.083-8.084v-10.01c0-4.465,3.618-8.084,8.083-8.084
		s8.084,3.62,8.084,8.084v10.01C226.897,305.891,223.278,309.51,218.812,309.51z"/>
	<path style="fill:#78B591;" d="M243.604,309.51c-4.465,0-8.083-3.62-8.083-8.084v-10.01c0-4.465,3.618-8.084,8.083-8.084
		s8.083,3.62,8.083,8.084v10.01C251.688,305.891,248.069,309.51,243.604,309.51z"/>
	<path style="fill:#78B591;" d="M268.396,309.51c-4.466,0-8.084-3.62-8.084-8.084v-10.01c0-4.465,3.62-8.084,8.084-8.084
		s8.083,3.62,8.083,8.084v10.01C276.48,305.891,272.861,309.51,268.396,309.51z"/>
	<path style="fill:#78B591;" d="M293.188,309.51c-4.465,0-8.084-3.62-8.084-8.084v-10.01c0-4.465,3.62-8.084,8.084-8.084
		c4.465,0,8.083,3.62,8.083,8.084v10.01C301.271,305.891,297.653,309.51,293.188,309.51z"/>
	<path style="fill:#78B591;" d="M317.978,309.51c-4.465,0-8.083-3.62-8.083-8.084v-10.01c0-4.465,3.618-8.084,8.083-8.084
		s8.084,3.62,8.084,8.084v10.01C326.064,305.891,322.444,309.51,317.978,309.51z"/>
</g>
<g>
	<path style="fill:#FFE060;" d="M333.307,49.584c0,7.375-5.979,13.353-13.354,13.353H192.046c-7.375,0-13.353-5.978-13.353-13.353
		l0,0c0-7.375,5.979-13.353,13.353-13.353h127.907C327.329,36.23,333.307,42.209,333.307,49.584L333.307,49.584z"/>
	<path style="fill:#FFE060;" d="M333.307,396.785c0,7.375-5.979,13.353-13.354,13.353H192.046c-7.375,0-13.353-5.978-13.353-13.353
		l0,0c0-7.375,5.979-13.353,13.353-13.353h127.907C327.329,383.433,333.307,389.411,333.307,396.785L333.307,396.785z"/>
</g>
<g>
</g>
<g>
</g>
<g>
</g>
<g>
</g>
<g>
</g>
<g>
</g>
<g>
</g>
<g>
</g>
<g>
</g>
<g>
</g>
<g>
</g>
<g>
</g>
<g>
</g>
<g>
</g>
<g>
</g>
</svg>
