<?xml version="1.0" encoding="iso-8859-1"?>
<!-- Generator: Adobe Illustrator 19.0.0, SVG Export Plug-In . SVG Version: 6.00 Build 0)  -->
<svg version="1.1" id="Layer_1" xmlns="http://www.w3.org/2000/svg" xmlns:xlink="http://www.w3.org/1999/xlink" x="0px" y="0px"
	 viewBox="0 0 512 512" style="enable-background:new 0 0 512 512;" xml:space="preserve">
<path id="SVGCleanerId_0" style="fill:#FFEA92;" d="M231.618,270.972c-3.289-6.628-10.107-11.194-18.008-11.194
	c-2.808,0-5.48,0.579-7.908,1.619c-3.192-6.887-10.148-11.676-18.24-11.676s-15.048,4.788-18.24,11.676
	c-2.427-1.04-5.099-1.619-7.908-1.619c-7.902,0-14.718,4.567-18.008,11.194c-30.829,5.729-54.176,32.748-54.176,65.236
	c0,36.657,29.716,66.374,66.374,66.374h63.915c36.657,0,66.373-29.717,66.373-66.374
	C285.794,303.72,262.446,276.702,231.618,270.972z"/>
<g>
	<path id="SVGCleanerId_0_1_" style="fill:#FFEA92;" d="M231.618,270.972c-3.289-6.628-10.107-11.194-18.008-11.194
		c-2.808,0-5.48,0.579-7.908,1.619c-3.192-6.887-10.148-11.676-18.24-11.676s-15.048,4.788-18.24,11.676
		c-2.427-1.04-5.099-1.619-7.908-1.619c-7.902,0-14.718,4.567-18.008,11.194c-30.829,5.729-54.176,32.748-54.176,65.236
		c0,36.657,29.716,66.374,66.374,66.374h63.915c36.657,0,66.373-29.717,66.373-66.374
		C285.794,303.72,262.446,276.702,231.618,270.972z"/>
</g>
<path style="opacity:0.1;enable-background:new    ;" d="M252.585,380.949h-63.914c-36.657,0-66.374-29.716-66.374-66.374
	c0-16.057,5.709-30.771,15.2-42.245c-27.904,7.848-48.365,33.466-48.365,63.879c0,36.657,29.716,66.374,66.374,66.374h63.915
	c20.611,0,39.026-9.394,51.199-24.134C264.883,380.065,258.839,380.949,252.585,380.949z"/>
<g>
	<path style="fill:#E5D07A;" d="M166.208,291.649c-2.037,0-4.074-0.777-5.628-2.332l-3.623-3.623
		c-3.108-3.109-3.108-8.147,0.001-11.256c3.108-3.108,8.147-3.108,11.255,0.001l3.623,3.624c3.108,3.108,3.108,8.147-0.001,11.255
		C170.281,290.872,168.245,291.649,166.208,291.649z"/>
	<path style="fill:#E5D07A;" d="M209.778,291.164c-2.037,0-4.073-0.777-5.628-2.331c-3.109-3.108-3.109-8.147,0-11.256l3.302-3.302
		c3.108-3.108,8.147-3.108,11.255,0c3.109,3.109,3.109,8.147,0,11.256l-3.302,3.302
		C213.851,290.388,211.814,291.164,209.778,291.164z"/>
	<path style="fill:#E5D07A;" d="M188.062,287.805c-4.395,0-7.959-3.563-7.959-7.959v-6.15c0-4.396,3.563-7.959,7.959-7.959
		c4.396,0,7.959,3.563,7.959,7.959v6.15C196.021,284.242,192.458,287.805,188.062,287.805z"/>
</g>
<path style="fill:#F2B47C;" d="M366.64,249.742c-3.289-6.627-10.106-11.194-18.008-11.194c-2.808,0-5.48,0.579-7.908,1.619
	c-3.193-6.888-10.149-11.675-18.24-11.675c-8.092,0-15.047,4.788-18.24,11.675c-2.426-1.04-5.099-1.619-7.907-1.619
	c-7.902,0-14.718,4.567-18.008,11.194c-30.829,5.729-54.177,32.748-54.177,65.236c0,36.657,29.716,66.374,66.374,66.374h63.914
	c36.658,0,66.374-29.717,66.374-66.374C420.816,282.49,397.469,255.471,366.64,249.742z"/>
<path style="opacity:0.1;enable-background:new    ;" d="M387.35,359.727h-63.914c-36.657,0-66.374-29.717-66.374-66.374
	c0-16.014,5.68-30.692,15.126-42.153c-27.733,7.959-48.033,33.487-48.033,63.778c0,36.657,29.716,66.374,66.374,66.374h63.914
	c20.65,0,39.095-9.43,51.268-24.219C399.877,358.81,393.723,359.727,387.35,359.727z"/>
<g>
	<path style="fill:#D89B68;" d="M301.232,270.419c-2.037,0-4.073-0.777-5.628-2.33l-3.624-3.624c-3.109-3.108-3.109-8.147,0-11.255
		c3.109-3.108,8.147-3.108,11.255,0l3.624,3.624c3.109,3.108,3.109,8.147,0,11.255C305.305,269.641,303.268,270.419,301.232,270.419
		z"/>
	<path style="fill:#D89B68;" d="M344.8,269.934c-2.036,0-4.073-0.777-5.628-2.331c-3.109-3.108-3.109-8.147,0-11.256l3.301-3.301
		c3.109-3.108,8.147-3.108,11.255,0c3.109,3.109,3.109,8.147,0,11.255l-3.301,3.301C348.874,269.156,346.837,269.934,344.8,269.934z
		"/>
	<path style="fill:#D89B68;" d="M323.085,266.573c-4.395,0-7.959-3.563-7.959-7.959v-6.149c0-4.396,3.563-7.959,7.959-7.959
		c4.395,0,7.958,3.563,7.958,7.959v6.149C331.042,263.01,327.479,266.573,323.085,266.573z"/>
</g>
<path style="fill:#F7EEDF;" d="M445.089,352.696c0,6.446-5.226,11.672-11.673,11.672H78.584c-6.446,0-11.673-5.226-11.673-11.672
	v-21.01c0-6.447,5.227-11.673,11.673-11.673h354.833c6.446,0,11.673,5.226,11.673,11.673V352.696z"/>
<path style="opacity:0.1;enable-background:new    ;" d="M111.273,352.696v-21.01c0-6.447,5.227-11.673,11.672-11.673H78.584
	c-6.446,0-11.673,5.226-11.673,11.673v21.01c0,6.446,5.227,11.672,11.673,11.672h44.362
	C116.5,364.367,111.273,359.142,111.273,352.696z"/>
<path style="fill:#FCE9C3;" d="M226.539,222.729h-26.756c-4.395,0-7.959-3.563-7.959-7.959s3.563-7.959,7.959-7.959h26.756
	c15.943,0,28.914-12.971,28.914-28.915c0-15.943-12.971-28.914-28.914-28.914h-27.451c-4.396,0-7.959-3.563-7.959-7.958
	c0-4.396,3.563-7.959,7.959-7.959h27.451c24.72,0,44.831,20.111,44.831,44.831C271.37,202.617,251.259,222.729,226.539,222.729z"/>
<g>
	<path style="fill:#F2D8A0;" d="M172.31,148.983h-32.206c-27.112,0-49.17-22.057-49.17-49.17c0-27.112,22.058-49.17,49.17-49.17
		h36.363c4.396,0,7.959,3.563,7.959,7.959c0,4.395-3.563,7.959-7.959,7.959h-36.363c-18.335,0-33.253,14.917-33.253,33.253
		s14.917,33.253,33.253,33.253h32.206c4.395,0,7.959,3.563,7.959,7.959C180.269,145.419,176.705,148.983,172.31,148.983z"/>
	<path style="fill:#F2D8A0;" d="M349.206,0h-23.05c-4.396,0-7.959,3.563-7.959,7.958c0,4.396,3.563,7.959,7.959,7.959h23.05
		c14.034,0,25.452,11.418,25.452,25.451c0,14.034-11.418,25.452-25.452,25.452h-66.298c-19.824,0-35.952,16.128-35.952,35.953v6.647
		c0,4.395,3.563,7.958,7.958,7.958c4.396,0,7.959-3.563,7.959-7.958v-6.647c0-11.048,8.988-20.035,20.035-20.035h66.298
		c22.81,0,41.369-18.558,41.369-41.369C390.574,18.557,372.016,0,349.206,0z"/>
</g>
<path style="fill:#C69C6D;" d="M467.849,500.328c0,6.446-5.226,11.672-11.672,11.672H55.823c-6.446,0-11.672-5.226-11.672-11.672
	V362.596c0-6.445,5.226-11.672,11.672-11.672h400.354c6.446,0,11.672,5.226,11.672,11.672v137.732H467.849z"/>
<path style="opacity:0.1;enable-background:new    ;" d="M88.34,500.328V362.596c0-6.445,5.226-11.672,11.672-11.672H55.823
	c-6.446,0-11.672,5.226-11.672,11.672v137.732c0,6.446,5.226,11.672,11.672,11.672h44.189C93.565,512,88.34,506.774,88.34,500.328z"
	/>
<g>
	<path style="fill:#A67C52;" d="M318.076,468.088H44.151v15.917h273.925c4.395,0,7.959-3.563,7.959-7.959
		C326.035,471.651,322.472,468.088,318.076,468.088z"/>
	<path style="fill:#A67C52;" d="M135.974,438.365H44.151v15.917h91.822c4.395,0,7.959-3.563,7.959-7.958
		C143.933,441.929,140.368,438.365,135.974,438.365z"/>
	<path style="fill:#A67C52;" d="M100.487,408.643H44.151v15.917h56.336c4.395,0,7.958-3.563,7.958-7.959
		C108.445,412.206,104.882,408.643,100.487,408.643z"/>
	<path style="fill:#A67C52;" d="M135.974,378.92H44.151v15.917h91.822c4.395,0,7.959-3.563,7.959-7.959
		C143.933,382.483,140.368,378.92,135.974,378.92z"/>
	<path style="fill:#A67C52;" d="M390.852,468.088h-36.697c-4.396,0-7.959,3.563-7.959,7.958c0,4.396,3.563,7.959,7.959,7.959h36.697
		c4.396,0,7.959-3.563,7.959-7.959C398.81,471.651,395.248,468.088,390.852,468.088z"/>
	<path style="fill:#A67C52;" d="M467.849,468.088h-53.651c-4.396,0-7.959,3.563-7.959,7.958c0,4.396,3.563,7.959,7.959,7.959h53.651
		V468.088z"/>
	<path style="fill:#A67C52;" d="M158.87,394.837h37.153c4.395,0,7.958-3.563,7.958-7.959c0-4.396-3.563-7.959-7.958-7.959H158.87
		c-4.395,0-7.959,3.563-7.959,7.959C150.911,391.274,154.475,394.837,158.87,394.837z"/>
</g>
<g>
</g>
<g>
</g>
<g>
</g>
<g>
</g>
<g>
</g>
<g>
</g>
<g>
</g>
<g>
</g>
<g>
</g>
<g>
</g>
<g>
</g>
<g>
</g>
<g>
</g>
<g>
</g>
<g>
</g>
</svg>
