<?xml version="1.0" encoding="iso-8859-1"?>
<!-- Generator: Adobe Illustrator 19.0.0, SVG Export Plug-In . SVG Version: 6.00 Build 0)  -->
<svg version="1.1" id="Layer_1" xmlns="http://www.w3.org/2000/svg" xmlns:xlink="http://www.w3.org/1999/xlink" x="0px" y="0px"
	 viewBox="0 0 512 512" style="enable-background:new 0 0 512 512;" xml:space="preserve">
<path style="fill:#D8D09A;" d="M53.312,360.753c9.35,26.891,34.911,46.207,65.009,46.207h275.356c30.1,0,55.66-19.315,65.01-46.207
	H53.312z"/>
<path style="fill:#BFDBEF;" d="M321.405,330.202c0,7.238-5.857,13.107-13.081,13.107H203.676c-7.225,0-13.081-5.869-13.081-13.107
	v-12.237c0-7.238,5.856-13.108,13.081-13.108h104.649c7.224,0,13.081,5.87,13.081,13.108V330.202z"/>
<path style="fill:#BED9ED;" d="M53.312,413.581c9.35,26.891,34.911,46.208,65.009,46.208h275.356c30.1,0,55.66-19.316,65.01-46.208
	H53.312z"/>
<path style="fill:#F2EBAA;" d="M498.866,358.362c0,8.956-7.266,16.217-16.23,16.217H29.364c-8.964,0-16.229-7.26-16.229-16.217l0,0
	c0-8.956,7.266-16.218,16.229-16.218h453.271C491.6,342.143,498.866,349.407,498.866,358.362L498.866,358.362z"/>
<path style="opacity:0.1;enable-background:new    ;" d="M58.066,358.362c0-8.956,7.266-16.218,16.229-16.218H29.364
	c-8.964,0-16.229,7.262-16.229,16.218s7.266,16.217,16.229,16.217h44.932C65.332,374.578,58.066,367.318,58.066,358.362z"/>
<path style="fill:#CEE9FF;" d="M498.866,411.082c0,8.956-7.266,16.218-16.23,16.218H29.364c-8.964,0-16.229-7.261-16.229-16.218l0,0
	c0-8.957,7.266-16.218,16.229-16.218h453.271C491.6,394.864,498.866,402.125,498.866,411.082L498.866,411.082z"/>
<path style="opacity:0.1;enable-background:new    ;" d="M69.524,411.082c0-8.957,7.266-16.218,16.229-16.218h-56.39
	c-8.964,0-16.229,7.261-16.229,16.218c0,8.956,7.266,16.218,16.229,16.218h56.39C76.79,427.299,69.524,420.037,69.524,411.082z"/>
<g>
	<path style="fill:#FFCC60;" d="M203.633,99.561c-20.859,7.034-26.567,12.737-33.606,33.581
		c-7.041-20.843-12.748-26.546-33.608-33.581c20.86-7.033,26.568-12.736,33.608-33.582
		C177.066,86.825,182.773,92.528,203.633,99.561z"/>
	<path style="fill:#FFCC60;" d="M285.644,27.386c-17.012,5.739-21.666,10.388-27.409,27.388
		c-5.742-16.998-10.396-21.649-27.408-27.388C247.839,21.651,252.494,17,258.235,0C263.977,17,268.631,21.651,285.644,27.386z"/>
	<path style="fill:#FFCC60;" d="M375.581,105.534c-17.013,5.736-21.666,10.386-27.408,27.387c-5.743-17-10.396-21.65-27.408-27.387
		c17.012-5.736,21.666-10.387,27.408-27.387C353.915,95.146,358.569,99.797,375.581,105.534z"/>
</g>
<path style="fill:#CCCCCC;" d="M220.188,279.992c-61.153,0-110.901-49.853-110.901-111.129c0-4.263,3.449-7.719,7.703-7.719h278.022
	c4.252,0,7.701,3.455,7.701,7.719c0,61.276-49.749,111.129-110.901,111.129H220.188z"/>
<path style="opacity:0.1;enable-background:new    ;" d="M142.821,168.863c0-4.263,3.449-7.719,7.703-7.719H116.99
	c-4.254,0-7.703,3.455-7.703,7.719c0,61.276,49.749,111.129,110.901,111.129h33.534
	C192.569,279.992,142.821,230.139,142.821,168.863z"/>
<path style="fill:#CEE9FF;" d="M220.188,321.998c-61.153,0-110.901-49.853-110.901-111.13c0-4.262,3.449-7.718,7.703-7.718h278.022
	c4.252,0,7.701,3.455,7.701,7.718c0,61.277-49.749,111.13-110.901,111.13H220.188z"/>
<path style="opacity:0.1;enable-background:new    ;" d="M142.821,210.869c0-4.262,3.449-7.718,7.703-7.718H116.99
	c-4.254,0-7.703,3.455-7.703,7.718c0,61.277,49.749,111.13,110.901,111.13h33.534C192.569,321.998,142.821,272.145,142.821,210.869z
	"/>
<path style="fill:#97D3D0;" d="M53.312,465.793C62.661,492.686,88.223,512,118.321,512h275.356c30.1,0,55.66-19.314,65.01-46.207
	H53.312z"/>
<path style="opacity:0.1;enable-background:new    ;" d="M109.406,465.793H53.312C62.661,492.686,88.223,512,118.321,512h56.095
	C144.317,512,118.756,492.686,109.406,465.793z"/>
<path style="fill:#ACEBE9;" d="M498.866,463.294c0,8.955-7.266,16.216-16.23,16.216H29.364c-8.964,0-16.229-7.26-16.229-16.216l0,0
	c0-8.958,7.266-16.218,16.229-16.218h453.271C491.6,447.075,498.866,454.336,498.866,463.294L498.866,463.294z"/>
<path style="opacity:0.1;enable-background:new    ;" d="M80.702,463.294c0-8.958,7.266-16.218,16.229-16.218H29.364
	c-8.964,0-16.229,7.26-16.229,16.218c0,8.955,7.266,16.216,16.229,16.216h67.567C87.968,479.509,80.702,472.249,80.702,463.294z"/>
<g>
	<path style="fill:#FFFFFF;" d="M336.248,242.44c12.724,5.269,16.996,9.543,22.267,22.267c5.269-12.724,9.543-16.997,22.267-22.267
		c-12.724-5.271-16.997-9.544-22.267-22.268C353.244,232.897,348.972,237.17,336.248,242.44z"/>
	<circle style="fill:#FFFFFF;" cx="342.1" cy="278.361" r="9.824"/>
</g>
<g>
</g>
<g>
</g>
<g>
</g>
<g>
</g>
<g>
</g>
<g>
</g>
<g>
</g>
<g>
</g>
<g>
</g>
<g>
</g>
<g>
</g>
<g>
</g>
<g>
</g>
<g>
</g>
<g>
</g>
</svg>
