<?xml version="1.0" encoding="iso-8859-1"?>
<!-- Generator: Adobe Illustrator 19.0.0, SVG Export Plug-In . SVG Version: 6.00 Build 0)  -->
<svg version="1.1" id="Layer_1" xmlns="http://www.w3.org/2000/svg" xmlns:xlink="http://www.w3.org/1999/xlink" x="0px" y="0px"
	 viewBox="0 0 512.001 512.001" style="enable-background:new 0 0 512.001 512.001;" xml:space="preserve">
<path style="fill:#C14616;" d="M138.933,344.014h-14.214l-22.302-22.496c-3.559-3.589-9.328-3.589-12.888,0l-22.303,22.496H53.014
	c-12.583,0-22.782,10.289-22.782,22.978c0,12.69,10.199,22.977,22.782,22.977h85.919c12.583,0,22.782-10.287,22.782-22.977
	C161.715,354.303,151.514,344.014,138.933,344.014z"/>
<path style="fill:#FFE060;" d="M442.029,258.983c0,3.802,3.137,6.886,7.009,6.886h28.043c3.871,0,7.011-3.083,7.011-6.886V129.516
	c0-3.802-3.14-6.886-7.011-6.886h-28.043c-3.872,0-7.009,3.083-7.009,6.886V258.983z"/>
<path style="fill:#EDD056;" d="M404.171,226.719c0,3.803,3.139,6.887,7.011,6.887h28.042c3.871,0,7.011-3.083,7.011-6.887V97.253
	c0-3.804-3.14-6.886-7.011-6.886h-28.042c-3.872,0-7.011,3.081-7.011,6.886V226.719z"/>
<path style="fill:#FFE060;" d="M245.724,258.983c0,3.802-3.14,6.886-7.011,6.886h-28.044c-3.871,0-7.01-3.083-7.01-6.886V129.516
	c0-3.802,3.139-6.886,7.01-6.886h28.044c3.871,0,7.011,3.083,7.011,6.886V258.983z"/>
<path style="fill:#EDD056;" d="M283.581,226.719c0,3.803-3.139,6.887-7.01,6.887h-28.043c-3.872,0-7.009-3.083-7.009-6.887V97.253
	c0-3.804,3.138-6.886,7.009-6.886h28.043c3.871,0,7.01,3.081,7.01,6.886L283.581,226.719L283.581,226.719z"/>
<g>
	<path style="fill:#FFE060;" d="M363.507,226.719c0,3.803,3.138,6.887,7.011,6.887h28.043c3.872,0,7.011-3.083,7.011-6.887V75.216
		c0-3.804-3.139-6.887-7.011-6.887h-28.043c-3.873,0-7.011,3.082-7.011,6.887V226.719z"/>
	<path style="fill:#FFE060;" d="M324.247,217.812c0,3.802-3.142,6.887-7.012,6.887h-28.043c-3.872,0-7.012-3.085-7.012-6.887V66.309
		c0-3.803,3.14-6.887,7.012-6.887h28.043c3.87,0,7.012,3.083,7.012,6.887V217.812z"/>
</g>
<path style="fill:#EDD056;" d="M364.909,276.47c0,3.803-3.139,6.887-7.011,6.887h-28.043c-3.873,0-7.011-3.083-7.011-6.887V83.649
	c0-3.806,3.138-6.887,7.011-6.887h28.043c3.872,0,7.011,3.081,7.011,6.887V276.47z"/>
<path style="fill:#FFE060;" d="M18.282,388.044v49.169c0,8.485,6.819,15.365,15.234,15.365h124.917
	c8.415,0,15.234-6.881,15.234-15.365v-49.169H18.282z"/>
<path style="opacity:0.1;enable-background:new    ;" d="M52.111,437.213v-49.169h-33.83v49.169c0,8.485,6.819,15.365,15.234,15.365
	h33.83C58.93,452.578,52.111,445.697,52.111,437.213z"/>
<path style="fill:#EFDA81;" d="M424.612,290.249c0,4,3.302,7.245,7.376,7.245h29.495c4.076,0,7.38-3.244,7.38-7.245V154.057
	c0-3.999-3.303-7.245-7.38-7.245h-29.495c-4.073,0-7.376,3.247-7.376,7.245V290.249z"/>
<path style="fill:#FFEA92;" d="M263.14,290.249c0,4-3.301,7.245-7.375,7.245h-29.5c-4.073,0-7.375-3.244-7.375-7.245V154.057
	c0-3.999,3.302-7.245,7.375-7.245h29.5c4.073,0,7.375,3.247,7.375,7.245V290.249z"/>
<path style="fill:#EFDA81;" d="M302.965,275.761c0,4.001-3.303,7.243-7.375,7.243h-29.5c-4.072,0-7.375-3.242-7.375-7.243V139.568
	c0-4,3.302-7.244,7.375-7.244h29.5c4.072,0,7.375,3.243,7.375,7.244V275.761z"/>
<g>
	<path style="fill:#FFEA92;" d="M384.786,275.761c0,4.001,3.303,7.243,7.376,7.243h29.5c4.073,0,7.376-3.242,7.376-7.243V139.568
		c0-4-3.302-7.244-7.376-7.244h-29.5c-4.073,0-7.376,3.243-7.376,7.244V275.761z"/>
	<path style="fill:#FFEA92;" d="M345.741,320.929c0,4.002-3.303,7.244-7.374,7.244h-29.501c-4.073,0-7.377-3.242-7.377-7.244
		V161.557c0-4.001,3.303-7.245,7.377-7.245h29.501c4.071,0,7.374,3.244,7.374,7.245V320.929z"/>
</g>
<path style="fill:#EFDA81;" d="M342.012,312.275c0,4,3.302,7.246,7.374,7.246h29.503c4.072,0,7.374-3.246,7.374-7.246V152.904
	c0-4.001-3.302-7.244-7.374-7.244h-29.503c-4.071,0-7.374,3.243-7.374,7.244L342.012,312.275L342.012,312.275z"/>
<path style="fill:#EF645E;" d="M244.891,452.578c-6.932,0-13.032-4.828-14.504-11.482l-54.291-245.457
	c-0.958-4.331,0.116-8.793,2.947-12.242c2.791-3.402,7.111-5.43,11.556-5.43h47.359c4.393,0,8.077,3.339,8.546,7.744
	c2.359,22.152,12.643,42.975,28.956,58.627c18.396,17.655,42.695,27.376,68.418,27.376c25.723,0,50.02-9.723,68.418-27.376
	c16.314-15.653,26.598-36.475,28.957-58.627c0.469-4.404,4.155-7.744,8.546-7.744h47.358c4.5,0,8.706,1.971,11.538,5.409
	c2.83,3.435,3.915,7.887,2.978,12.213l-53.343,245.457c-1.452,6.683-7.555,11.534-14.514,11.534H244.891V452.578z"/>
<polygon style="fill:#FFAB5F;" points="217.4,382.38 471.076,382.38 480.58,338.647 207.728,338.647 "/>
<g style="opacity:0.1;">
	<path d="M264.285,441.095l-54.292-245.457c-0.958-4.331,0.116-8.793,2.946-12.242c2.791-3.402,7.112-5.43,11.556-5.43h-33.898
		c-4.445,0-8.765,2.028-11.556,5.43c-2.83,3.449-3.904,7.911-2.947,12.242l54.291,245.457c1.472,6.654,7.572,11.482,14.504,11.482
		h33.898C271.857,452.578,265.756,447.749,264.285,441.095z"/>
</g>
<ellipse style="fill:#FFE060;" cx="343.876" cy="357.648" rx="58.065" ry="58.577"/>
<path style="opacity:0.1;enable-background:new    ;" d="M308.228,357.647c0-28.475,20.15-52.192,46.853-57.465
	c-3.627-0.718-7.371-1.102-11.205-1.102c-32.071,0-58.069,26.222-58.069,58.568c0,32.349,25.998,58.573,58.069,58.573
	c3.835,0,7.579-0.385,11.205-1.103C328.379,409.844,308.228,386.124,308.228,357.647z"/>
<path style="fill:#E5C74A;" d="M191.947,392.653c0,8.485-6.82,15.365-15.234,15.365H15.235C6.821,408.018,0,401.137,0,392.653
	v-3.074c0-8.482,6.82-15.364,15.235-15.364h161.479c8.414,0,15.234,6.882,15.234,15.364L191.947,392.653L191.947,392.653z"/>
<path style="opacity:0.1;enable-background:new    ;" d="M44.732,392.653v-3.074c0-8.482,6.82-15.364,15.235-15.364H15.235
	C6.821,374.215,0,381.096,0,389.579v3.074c0,8.485,6.82,15.365,15.235,15.365h44.732C51.553,408.018,44.732,401.137,44.732,392.653z
	"/>
<g>
</g>
<g>
</g>
<g>
</g>
<g>
</g>
<g>
</g>
<g>
</g>
<g>
</g>
<g>
</g>
<g>
</g>
<g>
</g>
<g>
</g>
<g>
</g>
<g>
</g>
<g>
</g>
<g>
</g>
</svg>
