<?xml version="1.0" encoding="iso-8859-1"?>
<!-- Generator: Adobe Illustrator 19.0.0, SVG Export Plug-In . SVG Version: 6.00 Build 0)  -->
<svg version="1.1" id="Layer_1" xmlns="http://www.w3.org/2000/svg" xmlns:xlink="http://www.w3.org/1999/xlink" x="0px" y="0px"
	 viewBox="0 0 512 512" style="enable-background:new 0 0 512 512;" xml:space="preserve">
<path style="fill:#F7EEDF;" d="M265.361,172.659c0,8.267-6.68,14.969-14.919,14.969H63.441c-8.239,0-14.92-6.702-14.92-14.969
	v-19.962c0-8.269,6.682-14.971,14.92-14.971h187.001c8.24,0,14.919,6.702,14.919,14.971V172.659z"/>
<path style="fill:#9B8B73;" d="M229.553,153.643h-8.951c-4.396,0-7.958-3.562-7.958-7.958s3.562-7.958,7.958-7.958h8.951
	c4.396,0,7.959,3.562,7.959,7.958S233.947,153.643,229.553,153.643z"/>
<path style="fill:#EF645E;" d="M85.324,512c-7.708,0-14.091-5.805-14.848-13.5L40.637,195.089c-0.414-4.198,0.968-8.398,3.79-11.523
	c2.823-3.126,6.852-4.918,11.057-4.918h202.914c4.205,0,8.235,1.792,11.057,4.918c2.822,3.125,4.205,7.326,3.791,11.523
	L243.405,498.5c-0.757,7.695-7.14,13.5-14.848,13.5H85.324z"/>
<path style="fill:#C14616;" d="M67.233,465.506l3.243,32.994c0.757,7.695,7.14,13.5,14.848,13.5h143.233
	c7.708,0,14.091-5.805,14.848-13.5l3.245-32.994H67.233z"/>
<path style="opacity:0.1;enable-background:new    ;" d="M103.764,498.5l-29.84-303.411c-0.413-4.198,0.968-8.398,3.791-11.523
	c2.822-3.126,6.851-4.918,11.057-4.918H55.484c-4.205,0-8.234,1.792-11.057,4.918c-2.822,3.125-4.204,7.326-3.79,11.523
	L70.476,498.5c0.757,7.695,7.14,13.5,14.848,13.5h33.286C110.904,512,104.52,506.195,103.764,498.5z"/>
<polygon style="fill:#C69C6D;" points="47.871,390.237 265.361,390.237 272.9,299.325 40.983,299.325 "/>
<g>
	<path style="fill:#8C6239;" d="M58.947,299.925l6.844,90.312h15.933c-0.001-0.2,0-0.4-0.016-0.602l-6.844-90.311H58.931
		C58.932,299.523,58.931,299.724,58.947,299.925z"/>
	<path style="fill:#8C6239;" d="M237.096,299.325l-6.843,90.311c-0.016,0.202-0.015,0.402-0.016,0.602h15.933l6.843-90.312
		c0.016-0.202,0.016-0.402,0.016-0.601L237.096,299.325L237.096,299.325z"/>
</g>
<path style="opacity:0.1;enable-background:new    ;" d="M81.807,172.659v-19.962c0-8.269,6.682-14.971,14.92-14.971H63.441
	c-8.239,0-14.92,6.702-14.92,14.971v19.962c0,8.267,6.682,14.969,14.92,14.969h33.286C88.489,187.628,81.807,180.926,81.807,172.659
	z"/>
<g>
	<path style="fill:#F2D8A0;" d="M164.189,75.821h-23.713c-20.848,0-37.81-17.007-37.81-37.91C102.668,17.006,119.628,0,140.476,0
		h20.595c4.396,0,7.959,3.563,7.959,7.958c0,4.396-3.563,7.959-7.959,7.959h-20.595c-12.072,0-21.892,9.866-21.892,21.993
		c0,12.126,9.82,21.994,21.892,21.994h23.712c4.396,0,7.958,3.562,7.958,7.958S168.585,75.821,164.189,75.821z"/>
	<path style="fill:#F2D8A0;" d="M224.725,117.214c-4.396,0-7.958-3.562-7.958-7.958V92.959c0-9.451-7.651-17.138-17.055-17.138
		h-38.975c-4.396,0-7.958-3.562-7.958-7.958s3.562-7.958,7.958-7.958h38.975c18.179,0,32.972,14.828,32.972,33.055v16.296
		C232.684,113.651,229.121,117.214,224.725,117.214z"/>
</g>
<path style="fill:#FCE9C3;" d="M196.326,47.506h-25.554c-4.396,0-7.959-3.562-7.959-7.958s3.563-7.958,7.959-7.958h25.554
	c4.322,0,7.836-3.515,7.836-7.837c0-4.321-3.514-7.836-7.836-7.836h-11.758c-4.395,0-7.958-3.563-7.958-7.959
	c0-4.395,3.563-7.958,7.958-7.958h11.758c13.097,0,23.753,10.656,23.753,23.753C220.079,36.851,209.423,47.506,196.326,47.506z"/>
<ellipse style="fill:#FFFFFF;" cx="156.944" cy="339.299" rx="63.628" ry="63.843"/>
<path style="fill:#F7EEDF;" d="M296.197,198.608c0,8.268-6.68,14.971-14.92,14.971H32.605c-8.238,0-14.92-6.703-14.92-14.971
	v-11.976c0-8.269,6.682-14.972,14.92-14.972h248.671c8.241,0,14.92,6.703,14.92,14.972v11.976H296.197z"/>
<path style="opacity:0.1;enable-background:new    ;" d="M50.972,198.608v-11.976c0-8.269,6.682-14.972,14.919-14.972H32.605
	c-8.238,0-14.92,6.703-14.92,14.972v11.976c0,8.268,6.682,14.971,14.92,14.971h33.286C57.654,213.579,50.972,206.876,50.972,198.608
	z"/>
<path style="fill:#C14616;" d="M156.941,381.163c-23.018,0-41.745-18.779-41.745-41.862c0-23.082,18.727-41.86,41.745-41.86
	c23.019,0,41.747,18.778,41.747,41.86c0,4.396-3.562,7.959-7.958,7.959s-7.958-3.563-7.958-7.959
	c0-14.304-11.588-25.943-25.831-25.943c-14.241,0-25.828,11.639-25.828,25.943c0,14.305,11.587,25.944,25.828,25.944
	c4.396,0,7.959,3.562,7.959,7.958C164.9,377.6,161.336,381.163,156.941,381.163z"/>
<path style="fill:#79A85B;" d="M440.01,440.215h-26.093c-4.396,0-7.959-3.562-7.959-7.958s3.563-7.959,7.959-7.959h26.093
	c21.168,0,38.387-17.22,38.387-38.386c0-21.168-17.22-38.387-38.387-38.387h-35.726c-4.396,0-7.958-3.562-7.958-7.958
	c0-4.396,3.562-7.959,7.958-7.959h35.726c29.944,0,54.305,24.362,54.305,54.305C494.315,415.857,469.954,440.215,440.01,440.215z"/>
<path style="fill:#A5D289;" d="M405.138,331.606H220.176c-5.747,0-10.449,4.702-10.449,10.449v85.053
	c0,36.336,29.455,65.792,65.791,65.792h74.28c36.335,0,65.791-29.455,65.791-65.792v-85.053
	C415.587,336.308,410.885,331.606,405.138,331.606z"/>
<path style="opacity:0.1;enable-background:new    ;" d="M242.869,427.108v-95.502h-22.693c-5.747,0-10.449,4.702-10.449,10.449
	v85.053c0,36.336,29.455,65.792,65.791,65.792h33.142C272.323,492.9,242.869,463.445,242.869,427.108z"/>
<g>
	<path style="fill:#79A85B;" d="M415.587,346.462H376.19c-4.396,0-7.958,3.562-7.958,7.958c0,4.396,3.562,7.959,7.958,7.959h39.397
		V346.462z"/>
	<path style="fill:#79A85B;" d="M415.587,371.929h-28.504c-4.396,0-7.958,3.562-7.958,7.958c0,4.396,3.562,7.959,7.958,7.959h28.504
		V371.929z"/>
</g>
<path style="fill:#78B591;" d="M215.489,512c-11.707,0-21.232-9.524-21.232-21.232c0-3.086,2.5-5.586,5.588-5.586h224.613
	c3.088,0,5.588,2.5,5.588,5.586c0,11.708-9.523,21.232-21.231,21.232H215.489z"/>
<path style="opacity:0.1;enable-background:new    ;" d="M238.225,490.768c0-3.086,2.503-5.586,5.588-5.586h-43.968
	c-3.087,0-5.588,2.5-5.588,5.586c0,11.708,9.525,21.232,21.232,21.232h43.969C247.751,512,238.225,502.476,238.225,490.768z"/>
<g>
</g>
<g>
</g>
<g>
</g>
<g>
</g>
<g>
</g>
<g>
</g>
<g>
</g>
<g>
</g>
<g>
</g>
<g>
</g>
<g>
</g>
<g>
</g>
<g>
</g>
<g>
</g>
<g>
</g>
</svg>
