<?xml version="1.0" encoding="iso-8859-1"?>
<!-- Generator: Adobe Illustrator 19.0.0, SVG Export Plug-In . SVG Version: 6.00 Build 0)  -->
<svg version="1.1" id="Layer_1" xmlns="http://www.w3.org/2000/svg" xmlns:xlink="http://www.w3.org/1999/xlink" x="0px" y="0px"
	 viewBox="0 0 512 512" style="enable-background:new 0 0 512 512;" xml:space="preserve">
<path style="fill:#EF645E;" d="M359.656,141.596c-2.989,0-5.413-2.427-5.413-5.423V7.083c0-2.996,2.423-5.423,5.413-5.423h20.568
	c2.989,0,5.413,2.427,5.413,5.423v129.089c0,2.996-2.423,5.423-5.413,5.423h-20.568V141.596z"/>
<g>
	<polygon style="fill:#F7EEDF;" points="385.636,14.551 354.243,46.468 354.243,69.422 385.636,37.93 	"/>
	<polygon style="fill:#F7EEDF;" points="385.636,55.572 354.243,87.488 354.243,110.442 385.636,78.949 	"/>
</g>
<path style="fill:#A5D289;" d="M296.882,487.634c-7.863,0-14.375-5.934-15.147-13.8l-30.441-310.169
	c-0.421-4.29,0.987-8.585,3.867-11.779c2.879-3.198,6.989-5.029,11.28-5.029H473.44c4.289,0,8.4,1.831,11.28,5.029
	c2.88,3.195,4.29,7.489,3.867,11.779l-30.441,310.169c-0.772,7.866-7.284,13.8-15.147,13.8H296.882z"/>
<g>
	<path style="fill:#79A85B;" d="M296.187,199.41h-41.385l1.587,16.169h39.799c4.465,0,8.084-3.618,8.084-8.083
		C304.271,203.03,300.652,199.41,296.187,199.41z"/>
	<path style="fill:#79A85B;" d="M287.889,231.747h-29.913l1.587,16.169h28.327c4.465,0,8.084-3.618,8.084-8.083
		C295.974,235.366,292.354,231.747,287.889,231.747z"/>
</g>
<path style="fill:#F7EEDF;" d="M480.544,151.583c0,8.452-6.815,15.304-15.221,15.304H274.556c-8.404,0-15.22-6.852-15.22-15.304
	v-20.406c0-8.452,6.816-15.304,15.22-15.304h190.766c8.406,0,15.221,6.852,15.221,15.304v20.406H480.544z"/>
<ellipse style="fill:#F7C677;" cx="369.946" cy="288.925" rx="64.909" ry="65.264"/>
<path style="fill:#F2EBAA;" d="M369.94,332.637c-23.903,0-43.351-19.608-43.351-43.708c0-24.1,19.447-43.708,43.351-43.708
	c23.905,0,43.353,19.609,43.353,43.708C413.293,313.029,393.845,332.637,369.94,332.637z"/>
<path style="opacity:0.1;enable-background:new    ;" d="M314.195,473.834l-30.442-310.169c-0.421-4.29,0.987-8.585,3.867-11.779
	c2.879-3.198,6.99-5.029,11.28-5.029h-32.46c-4.289,0-8.401,1.831-11.28,5.029c-2.88,3.195-4.288,7.489-3.867,11.779l30.441,310.169
	c0.771,7.866,7.283,13.8,15.147,13.8h32.46C321.477,487.634,314.966,481.7,314.195,473.834z"/>
<path style="opacity:0.1;enable-background:new    ;" d="M304.068,151.583v-20.406c0-8.452,6.816-15.304,15.22-15.304h-44.732
	c-8.404,0-15.22,6.852-15.22,15.304v20.406c0,8.452,6.816,15.304,15.22,15.304h44.732
	C310.885,166.888,304.068,160.036,304.068,151.583z"/>
<path style="fill:#F7EEDF;" d="M512,167.262c0,8.454-6.815,15.306-15.221,15.306H243.101c-8.404,0-15.22-6.851-15.22-15.306V155.02
	c0-8.453,6.816-15.306,15.22-15.306h253.678c8.406,0,15.221,6.853,15.221,15.306L512,167.262L512,167.262z"/>
<path style="opacity:0.1;enable-background:new    ;" d="M272.613,167.262V155.02c0-8.453,6.816-15.306,15.22-15.306H243.1
	c-8.404,0-15.22,6.853-15.22,15.306v12.242c0,8.454,6.816,15.306,15.22,15.306h44.733
	C279.429,182.568,272.613,175.716,272.613,167.262z"/>
<path style="fill:#E66416;" d="M419.331,389.209c0,20.128-16.284,36.446-36.371,36.446H36.371C16.284,425.655,0,409.337,0,389.209
	l0,0c0-20.129,16.284-36.447,36.371-36.447h346.59C403.046,352.762,419.331,369.081,419.331,389.209L419.331,389.209z"/>
<path style="opacity:0.1;enable-background:new    ;" d="M44.733,389.209c0-20.129,16.284-36.447,36.371-36.447H36.371
	C16.284,352.762,0,369.081,0,389.209s16.284,36.446,36.371,36.446h44.733C61.017,425.655,44.733,409.337,44.733,389.209z"/>
<path style="fill:#AA340F;" d="M128.255,352.762L111.7,369.351c-3.153,3.159-3.149,8.279,0.011,11.432
	c1.578,1.575,3.644,2.361,5.71,2.361c2.072,0,4.143-0.792,5.723-2.373l27.523-28.01L128.255,352.762L128.255,352.762z"/>
<path style="fill:#F7EEDF;" d="M181.587,352.762l-16.555,16.589c-3.154,3.159-3.149,8.279,0.012,11.432
	c1.578,1.575,3.644,2.361,5.71,2.361c2.071,0,4.143-0.792,5.723-2.373l28.031-28.01L181.587,352.762L181.587,352.762z"/>
<path style="fill:#AA340F;" d="M234.917,352.762l-16.554,16.589c-3.155,3.159-3.149,8.279,0.011,11.432
	c1.578,1.575,3.645,2.361,5.71,2.361c2.071,0,4.143-0.792,5.722-2.373l27.568-28.01L234.917,352.762L234.917,352.762z"/>
<path style="fill:#F7EEDF;" d="M288.249,352.762l-16.555,16.589c-3.155,3.159-3.149,8.279,0.011,11.432
	c1.578,1.575,3.645,2.361,5.71,2.361c2.071,0,4.143-0.792,5.722-2.373l28.076-28.01L288.249,352.762L288.249,352.762z"/>
<path style="fill:#F7C677;" d="M399.541,452.453c0,31.97-25.862,57.886-57.764,57.886H77.554c-31.903,0-57.765-25.918-57.765-57.886
	l0,0c0-31.97,25.862-57.884,57.765-57.884h264.221C373.678,394.568,399.541,420.484,399.541,452.453L399.541,452.453z"/>
<path style="opacity:0.1;enable-background:new    ;" d="M64.881,452.453c0-31.97,25.862-57.884,57.765-57.884H77.554
	c-31.903,0-57.765,25.916-57.765,57.884s25.862,57.886,57.765,57.886h45.092C90.743,510.34,64.881,484.422,64.881,452.453z"/>
<g>
</g>
<g>
</g>
<g>
</g>
<g>
</g>
<g>
</g>
<g>
</g>
<g>
</g>
<g>
</g>
<g>
</g>
<g>
</g>
<g>
</g>
<g>
</g>
<g>
</g>
<g>
</g>
<g>
</g>
</svg>
