<?xml version="1.0" encoding="iso-8859-1"?>
<!-- Generator: Adobe Illustrator 19.0.0, SVG Export Plug-In . SVG Version: 6.00 Build 0)  -->
<svg version="1.1" id="Layer_1" xmlns="http://www.w3.org/2000/svg" xmlns:xlink="http://www.w3.org/1999/xlink" x="0px" y="0px"
	 viewBox="0 0 512 512" style="enable-background:new 0 0 512 512;" xml:space="preserve">
<path style="fill:#407C46;" d="M171.562,70.454c-12.722-7.758-20.325-21.859-19.838-36.801c0.13-3.986,2.341-7.613,5.826-9.555
	c13.059-7.269,29.076-6.969,41.798,0.79c12.723,7.758,20.326,21.86,19.839,36.802c-0.131,3.984-2.341,7.61-5.824,9.55
	C200.301,78.517,184.282,78.215,171.562,70.454z"/>
<path style="fill:#316635;" d="M228.637,82.093c-1.434,0-2.887-0.382-4.2-1.184L181.73,54.868c-3.812-2.325-5.018-7.299-2.693-11.11
	c2.325-3.811,7.298-5.019,11.111-2.694l42.706,26.042c3.812,2.325,5.018,7.299,2.693,11.111
	C234.023,80.714,231.363,82.093,228.637,82.093z"/>
<path style="fill:#EF645E;" d="M223.144,73.585c-3.641,0-6.832-2.395-7.788-5.847c-1.44-5.2-2.169-10.66-2.169-16.229
	C213.186,23.106,232.394,0,256.002,0c23.608,0,42.815,23.106,42.815,51.508c0,5.567-0.728,11.027-2.168,16.227
	c-0.955,3.453-4.146,5.849-7.788,5.849H223.144z"/>
<g>
	<path style="fill:#C14616;" d="M254.923,28.025h-1.077c-4.464,0-8.083-3.62-8.083-8.084s3.62-8.083,8.083-8.083h1.077
		c4.466,0,8.084,3.618,8.084,8.083C263.008,24.406,259.389,28.025,254.923,28.025z"/>
	<path style="fill:#C14616;" d="M275.942,44.194h-1.077c-4.465,0-8.084-3.62-8.084-8.084s3.62-8.083,8.084-8.083h1.077
		c4.465,0,8.084,3.618,8.084,8.083S280.407,44.194,275.942,44.194z"/>
	<path style="fill:#C14616;" d="M237.138,44.194h-1.077c-4.465,0-8.084-3.62-8.084-8.084s3.62-8.083,8.084-8.083h1.077
		c4.464,0,8.083,3.618,8.083,8.083C245.222,40.574,241.603,44.194,237.138,44.194z"/>
</g>
<ellipse style="fill:#A5BC79;" cx="256.002" cy="152.168" rx="96.841" ry="95.107"/>
<path style="opacity:0.1;enable-background:new    ;" d="M192.742,152.172c0-46.901,34.569-85.871,80.051-93.678
	c-5.455-0.936-11.064-1.428-16.792-1.428c-53.486,0-96.842,42.583-96.842,95.107c0,52.526,43.356,95.108,96.842,95.108
	c5.727,0,11.337-0.491,16.792-1.427C227.312,238.042,192.742,199.073,192.742,152.172z"/>
<ellipse style="fill:#A67C52;" cx="325.404" cy="218.749" rx="96.841" ry="95.107"/>
<path style="opacity:0.1;enable-background:new    ;" d="M273.583,218.747c0-44.914,31.706-82.551,74.333-92.518
	c-7.223-1.689-14.759-2.589-22.51-2.589c-53.484,0-96.843,42.582-96.843,95.108s43.359,95.107,96.843,95.107
	c7.751,0,15.287-0.9,22.51-2.589C305.289,301.298,273.583,263.661,273.583,218.747z"/>
<circle style="fill:#FFE060;" cx="102.945" cy="174.08" r="30.181"/>
<ellipse style="fill:#F9EBCF;" cx="186.6" cy="218.749" rx="96.841" ry="95.107"/>
<path style="opacity:0.1;enable-background:new    ;" d="M123.42,218.747c0-46.887,34.55-85.847,80.011-93.672
	c-5.467-0.94-11.092-1.435-16.832-1.435c-53.486,0-96.844,42.582-96.844,95.108s43.358,95.107,96.844,95.107
	c5.741,0,11.365-0.494,16.832-1.435C157.97,304.594,123.42,265.634,123.42,218.747z"/>
<path style="fill:#A67C52;" d="M149.289,155.216h-9.701c-4.465,0-8.083,3.62-8.083,8.084s3.62,8.084,8.083,8.084h9.701
	c4.465,0,8.084-3.62,8.084-8.084S153.755,155.216,149.289,155.216z"/>
<path style="fill:#754C24;" d="M180.549,137.97h-9.701c-4.465,0-8.083,3.62-8.083,8.084s3.62,8.083,8.083,8.083h9.701
	c4.465,0,8.084-3.618,8.084-8.083C188.633,141.59,185.014,137.97,180.549,137.97z"/>
<path style="fill:#A67C52;" d="M211.808,158.451h-9.701c-4.465,0-8.084,3.618-8.084,8.083c0,4.465,3.621,8.084,8.084,8.084h9.701
	c4.464,0,8.084-3.62,8.084-8.084C219.892,162.069,216.273,158.451,211.808,158.451z"/>
<path style="fill:#8C6239;" d="M246.301,177.853H236.6c-4.465,0-8.084,3.618-8.084,8.083c0,4.465,3.62,8.084,8.084,8.084h9.701
	c4.465,0,8.083-3.62,8.083-8.084C254.384,181.472,250.765,177.853,246.301,177.853z"/>
<path style="fill:#754C24;" d="M178.394,177.853h-9.701c-4.465,0-8.084,3.618-8.084,8.083c0,4.465,3.62,8.084,8.084,8.084h9.701
	c4.464,0,8.083-3.62,8.083-8.084C186.477,181.472,182.858,177.853,178.394,177.853z"/>
<circle style="fill:#EF645E;" cx="93.238" cy="211.811" r="30.181"/>
<path style="fill:#CEE9FF;" d="M187.395,512c-2.62,0-5.073-1.247-6.586-3.345c-1.513-2.097-1.896-4.787-1.028-7.211
	c8.399-23.44,27.841-41.88,52.01-49.323v-59.012c0-13.11,10.861-23.777,24.211-23.777c13.351,0,24.21,10.666,24.21,23.777v59.012
	c24.17,7.444,43.613,25.883,52.011,49.323c0.868,2.424,0.485,5.115-1.027,7.211c-1.514,2.099-3.969,3.345-6.587,3.345H187.395z"/>
<path style="fill:#A5BDCE;" d="M248.996,487.747c0-4.465-3.62-8.083-8.084-8.083h-49.099c-3.873,4.962-7.161,10.385-9.759,16.169
	h58.858C245.376,495.831,248.996,492.213,248.996,487.747z"/>
<g style="opacity:0.1;">
	<path d="M254.28,463.437v-59.01c0-12.505,9.884-22.779,22.382-23.702c-4.259-6.827-11.925-11.393-20.659-11.393
		c-13.351,0-24.211,10.666-24.211,23.777v59.012c-24.17,7.444-43.611,25.883-52.01,49.323c-0.868,2.424-0.485,5.115,1.028,7.211
		c1.512,2.098,3.966,3.345,6.586,3.345h15.16C211.099,488.924,230.373,470.801,254.28,463.437z"/>
	<path d="M302.7,463.105v0.332c0.293,0.091,0.582,0.19,0.874,0.283C303.285,463.515,302.994,463.308,302.7,463.105z"/>
</g>
<circle style="fill:#EF645E;" cx="423.07" cy="207.496" r="30.181"/>
<path style="fill:#CEE9FF;" d="M256.002,423.736c-55.205,0-107.549-20.775-147.385-58.493
	c-39.728-37.616-62.787-88.026-64.93-141.942c-0.086-2.155,0.725-4.249,2.248-5.804c1.52-1.554,3.621-2.431,5.816-2.431h408.501
	c2.196,0,4.293,0.878,5.815,2.431c1.523,1.555,2.332,3.65,2.248,5.804c-2.143,53.916-25.203,104.326-64.931,141.942
	C363.551,402.962,311.207,423.736,256.002,423.736z"/>
<path style="fill:#B6DAF2;" d="M369.046,359.477c-17.748,0-32.806,11.475-38.187,27.408c-5.381-15.933-20.438-27.408-38.187-27.408
	c-17.748,0-32.806,11.475-38.188,27.408c-5.381-15.933-20.438-27.408-38.187-27.408c-17.748,0-32.806,11.475-38.187,27.408
	c-5.381-15.933-20.439-27.408-38.187-27.408c-10.209,0-19.522,3.801-26.621,10.058c39.21,34.994,89.628,54.201,142.698,54.201
	c52.371,0,102.16-18.708,141.143-52.831C389.888,363.837,379.978,359.477,369.046,359.477z"/>
<path style="opacity:0.1;enable-background:new    ;" d="M153.864,365.243c-39.728-37.616-62.788-88.026-64.93-141.942
	c-0.087-2.155,0.725-4.249,2.247-5.804c1.521-1.554,3.622-2.431,5.817-2.431H51.751c-2.196,0-4.296,0.878-5.816,2.431
	c-1.522,1.555-2.333,3.65-2.248,5.804c2.143,53.916,25.202,104.326,64.93,141.942c39.836,37.72,92.18,58.493,147.385,58.493
	c7.604,0,15.153-0.409,22.623-1.188C231.862,417.677,188.212,397.767,153.864,365.243z"/>
<g>
	<path style="fill:#FFFFFF;" d="M384.524,259.683c16.435,6.807,21.954,12.327,28.761,28.761
		c6.809-16.435,12.327-21.954,28.761-28.761c-16.435-6.809-21.953-12.327-28.761-28.761
		C406.478,247.358,400.959,252.876,384.524,259.683z"/>
	<circle style="fill:#FFFFFF;" cx="390.793" cy="308.245" r="12.689"/>
</g>
<g>
</g>
<g>
</g>
<g>
</g>
<g>
</g>
<g>
</g>
<g>
</g>
<g>
</g>
<g>
</g>
<g>
</g>
<g>
</g>
<g>
</g>
<g>
</g>
<g>
</g>
<g>
</g>
<g>
</g>
</svg>
