<?xml version="1.0" encoding="iso-8859-1"?>
<!-- Generator: Adobe Illustrator 19.0.0, SVG Export Plug-In . SVG Version: 6.00 Build 0)  -->
<svg version="1.1" id="Layer_1" xmlns="http://www.w3.org/2000/svg" xmlns:xlink="http://www.w3.org/1999/xlink" x="0px" y="0px"
	 viewBox="0 0 511.998 511.998" style="enable-background:new 0 0 511.998 511.998;" xml:space="preserve">
<ellipse style="fill:#EAD53F;" cx="149.859" cy="103.476" rx="70.552" ry="69.465"/>
<path style="fill:#F2EBAA;" d="M149.863,150.464c-26.316,0-47.723-21.077-47.723-46.985s21.406-46.984,47.723-46.984
	c26.315,0,47.722,21.076,47.722,46.984S176.177,150.464,149.863,150.464z"/>
<g>
	<path style="fill:#B7AE6E;" d="M149.863,70.066c-2.978,0-5.39,2.413-5.39,5.39v4.311c0,2.977,2.413,5.39,5.39,5.39
		c2.976,0,5.389-2.414,5.389-5.39v-4.311C155.252,72.477,152.838,70.066,149.863,70.066z"/>
	<path style="fill:#B7AE6E;" d="M149.863,121.804c-2.978,0-5.39,2.413-5.39,5.39v4.311c0,2.977,2.413,5.39,5.39,5.39
		c2.976,0,5.389-2.414,5.389-5.39v-4.311C155.252,124.216,152.838,121.804,149.863,121.804z"/>
	<path style="fill:#B7AE6E;" d="M131.539,103.479c0-2.977-2.414-5.389-5.39-5.389h-4.311c-2.977,0-5.39,2.413-5.39,5.389
		c0,2.978,2.414,5.39,5.39,5.39h4.311C129.125,108.869,131.539,106.457,131.539,103.479z"/>
	<path style="fill:#B7AE6E;" d="M177.888,98.091h-4.311c-2.977,0-5.39,2.413-5.39,5.389c0,2.978,2.413,5.39,5.39,5.39h4.311
		c2.977,0,5.39-2.413,5.39-5.39C183.277,100.504,180.865,98.091,177.888,98.091z"/>
	<path style="fill:#B7AE6E;" d="M129.282,116.438l-3.048,3.048c-2.104,2.105-2.104,5.517,0,7.621
		c1.052,1.053,2.431,1.579,3.812,1.579c1.379,0,2.759-0.526,3.811-1.579l3.048-3.048c2.105-2.104,2.105-5.517,0-7.621
		C134.8,114.333,131.388,114.333,129.282,116.438z"/>
	<path style="fill:#B7AE6E;" d="M166.632,92.101c1.378,0,2.757-0.527,3.81-1.579l3.049-3.049c2.105-2.104,2.105-5.516,0-7.62
		c-2.107-2.107-5.517-2.107-7.623,0l-3.049,3.048c-2.104,2.104-2.104,5.517,0,7.621C163.872,91.575,165.251,92.101,166.632,92.101z"
		/>
	<path style="fill:#B7AE6E;" d="M170.442,116.437c-2.105-2.105-5.516-2.105-7.623,0c-2.104,2.104-2.104,5.516,0,7.621l3.049,3.048
		c1.052,1.053,2.431,1.58,3.812,1.58c1.379,0,2.759-0.527,3.811-1.58c2.105-2.104,2.105-5.516,0-7.62L170.442,116.437z"/>
	<path style="fill:#B7AE6E;" d="M133.857,79.851c-2.107-2.105-5.517-2.105-7.623,0c-2.104,2.105-2.104,5.517,0,7.621l3.048,3.048
		c1.053,1.053,2.431,1.58,3.813,1.58c1.378,0,2.757-0.527,3.81-1.58c2.105-2.104,2.105-5.516,0-7.62L133.857,79.851z"/>
</g>
<path style="fill:#CEE9FF;" d="M410.64,103.916h-238.11c-12.177,0-22.049,9.719-22.049,21.707v143.262
	c0,11.989,9.871,21.707,22.049,21.707h9.309l9.798,199.701c0,11.988,9.871,21.706,22.047,21.706h155.802
	c12.179,0,22.049-9.719,22.049-21.706l9.798-199.701h9.307c12.178,0,22.051-9.719,22.051-21.707V125.624
	C432.69,113.635,422.818,103.916,410.64,103.916z"/>
<path style="fill:#A5D289;" d="M291.586,244.011c-10.962,0-19.88-8.78-19.88-19.573V39.146C271.705,17.561,289.541,0,311.467,0
	h80.845c3.661,0,6.629,2.92,6.629,6.525v26.097c0,3.603-2.968,6.523-6.629,6.523h-80.845v185.292
	C311.467,235.231,302.549,244.011,291.586,244.011z"/>
<g>
	<rect x="271.705" y="42.203" style="fill:#F7EEDF;" width="39.758" height="16.169"/>
	<rect x="271.705" y="70.959" style="fill:#F7EEDF;" width="39.758" height="16.169"/>
</g>
<g>
	<path style="fill:#FFFFFF;" d="M362.493,261.516c-5.14,5.066-13.542,4.995-18.768-0.154l-25.552-25.175
		c-5.229-5.154-5.294-13.436-0.157-18.497l25.132-24.768c5.137-5.061,13.544-4.995,18.775,0.157l25.55,25.176
		c5.224,5.148,5.291,13.432,0.154,18.5L362.493,261.516z"/>
	<path style="fill:#FFFFFF;" d="M247.944,255.48c-5.138,5.066-13.541,4.996-18.767-0.154l-25.551-25.175
		c-5.23-5.153-5.295-13.434-0.157-18.498l25.13-24.767c5.139-5.059,13.544-4.994,18.775,0.157l25.551,25.178
		c5.224,5.147,5.291,13.431,0.153,18.498L247.944,255.48z"/>
</g>
<path style="fill:#F2EBAA;" d="M230.976,483.058c-5.748,0-10.483-4.509-10.766-10.252l-9.009-183.61
	c-0.637-12.97-10.04-24.009-22.869-26.841c-4.939-1.091-8.455-5.467-8.455-10.525v-31.496c0-5.953,4.825-10.778,10.778-10.778
	h201.859c5.952,0,10.778,4.825,10.778,10.778v31.496c0,5.057-3.516,9.433-8.454,10.525c-12.828,2.834-22.231,13.871-22.869,26.841
	l-9.009,183.611c-0.283,5.742-5.02,10.251-10.767,10.251L230.976,483.058L230.976,483.058z"/>
<g>
	<path style="fill:#B7AE6E;" d="M291.586,430.114h-8.818c-4.465,0-8.083,3.618-8.083,8.083s3.618,8.083,8.083,8.083h8.818
		c4.465,0,8.083-3.618,8.083-8.083C299.669,433.733,296.051,430.114,291.586,430.114z"/>
	<path style="fill:#B7AE6E;" d="M329.801,388.146h-8.819c-4.464,0-8.083,3.62-8.083,8.084s3.62,8.083,8.083,8.083h8.819
		c4.465,0,8.084-3.618,8.084-8.083S334.266,388.146,329.801,388.146z"/>
	<path style="fill:#B7AE6E;" d="M262.189,360.653h-8.819c-4.465,0-8.084,3.618-8.084,8.083s3.62,8.083,8.084,8.083h8.819
		c4.465,0,8.083-3.618,8.083-8.083C270.272,364.271,266.654,360.653,262.189,360.653z"/>
	<path style="fill:#B7AE6E;" d="M306.285,323.028h-8.819c-4.465,0-8.084,3.618-8.084,8.083c0,4.465,3.62,8.084,8.084,8.084h8.819
		c4.464,0,8.083-3.62,8.083-8.084C314.368,326.647,310.749,323.028,306.285,323.028z"/>
	<path style="fill:#B7AE6E;" d="M263.659,241.991h-8.819c-4.464,0-8.084,3.618-8.084,8.083c0,4.465,3.621,8.084,8.084,8.084h8.819
		c4.465,0,8.083-3.62,8.083-8.084C271.742,245.61,268.124,241.991,263.659,241.991z"/>
</g>
<path style="opacity:0.1;enable-background:new    ;" d="M257.554,479.137c-12.175,0-22.047-9.719-22.047-21.706l-9.798-199.701
	h-9.309c-12.177,0-22.049-9.719-22.049-21.707V103.916h-21.822c-12.177,0-22.049,9.719-22.049,21.707v143.262
	c0,11.989,9.871,21.707,22.049,21.707h9.309l9.798,199.701c0,11.988,9.871,21.706,22.047,21.706h155.802
	c12.179,0,22.049-9.719,22.049-21.706l0.547-11.157H257.554V479.137z"/>
<g>
	<path style="fill:#FFFFFF;" d="M384.026,113.894c-6.808,16.435-12.327,21.953-28.761,28.761
		c16.435,6.808,21.954,12.327,28.761,28.761c6.809-16.435,12.327-21.954,28.761-28.761
		C396.353,135.847,390.835,130.329,384.026,113.894z"/>
	<circle style="fill:#FFFFFF;" cx="407.656" cy="178.824" r="12.689"/>
</g>
<g>
</g>
<g>
</g>
<g>
</g>
<g>
</g>
<g>
</g>
<g>
</g>
<g>
</g>
<g>
</g>
<g>
</g>
<g>
</g>
<g>
</g>
<g>
</g>
<g>
</g>
<g>
</g>
<g>
</g>
</svg>
