<?xml version="1.0" encoding="iso-8859-1"?>
<!-- Generator: Adobe Illustrator 19.0.0, SVG Export Plug-In . SVG Version: 6.00 Build 0)  -->
<svg version="1.1" id="Layer_1" xmlns="http://www.w3.org/2000/svg" xmlns:xlink="http://www.w3.org/1999/xlink" x="0px" y="0px"
	 viewBox="0 0 512 512" style="enable-background:new 0 0 512 512;" xml:space="preserve">
<path style="fill:#A3C14F;" d="M266.877,301.981c-10.001-10.002-13.862-24.711-10.072-38.386c1.01-3.648,3.861-6.499,7.511-7.511
	c13.676-3.789,28.383,0.071,38.384,10.074c10.002,10.002,13.864,24.711,10.074,38.386c-1.01,3.648-3.861,6.499-7.51,7.509
	C291.589,315.842,276.879,311.982,266.877,301.981z"/>
<path style="fill:#7F9136;" d="M307.273,314.638c-2.069,0-4.138-0.789-5.717-2.368l-22.104-22.103
	c-3.157-3.157-3.157-8.276,0-11.432c3.158-3.157,8.277-3.157,11.434,0l22.103,22.103c3.157,3.157,3.157,8.276,0,11.432
	C311.411,313.848,309.342,314.638,307.273,314.638z"/>
<path style="fill:#B0CE6F;" d="M308.917,281.699c10.002-10.001,24.71-13.862,38.385-10.072c3.649,1.01,6.499,3.861,7.511,7.51
	c3.789,13.676-0.071,28.384-10.074,38.385c-10.002,10.002-24.71,13.864-38.385,10.074c-3.649-1.01-6.5-3.861-7.511-7.51
	C295.055,306.41,298.913,291.701,308.917,281.699z"/>
<path style="fill:#7E9149;" d="M304.343,330.179c-2.068,0-4.138-0.79-5.717-2.368c-3.157-3.157-3.157-8.276,0-11.432l22.103-22.103
	c3.158-3.157,8.276-3.157,11.433,0c3.158,3.157,3.158,8.276,0,11.432l-22.103,22.104
	C308.481,329.389,306.411,330.179,304.343,330.179z"/>
<g>
	<ellipse style="fill:#F48911;" cx="443.12" cy="337.439" rx="37.079" ry="18.54"/>
	<ellipse style="fill:#F48911;" cx="406.047" cy="300.356" rx="18.541" ry="37.08"/>
</g>
<g>
	<path style="fill:#FFAB5F;" d="M445.37,324.325c-14.48,14.48-32.087,20.35-39.328,13.11c-4.646-4.646-3.895-13.558,1.065-23.175
		c2.77-5.373,6.856-10.964,12.043-16.154c14.481-14.48,32.09-20.35,39.33-13.109C465.723,292.236,459.851,309.845,445.37,324.325z"
		/>
	<path style="fill:#FFAB5F;" d="M389.12,322.026c-8.55,0-16.367,3.117-22.394,8.269c-6.239-8.908-16.569-14.737-28.268-14.737
		c-8.869,0-16.955,3.351-23.065,8.851c-6.19-9.237-16.72-15.319-28.673-15.319c-19.049,0-34.493,15.444-34.493,34.493v32.336
		c0,19.05,15.443,34.493,34.493,34.493c8.869,0,16.955-3.351,23.065-8.851c6.189,9.237,16.719,15.319,28.673,15.319
		c8.549,0,16.367-3.118,22.394-8.27c6.238,8.908,16.567,14.737,28.268,14.737c19.049,0,34.492-15.444,34.492-34.493v-32.336
		C423.612,337.469,408.17,322.026,389.12,322.026z"/>
</g>
<path style="opacity:0.1;enable-background:new    ;" d="M389.12,322.026c-8.55,0-16.367,3.117-22.394,8.269
	c-6.239-8.908-16.569-14.737-28.268-14.737c-8.869,0-16.955,3.351-23.065,8.851c-6.19-9.237-16.72-15.319-28.673-15.319
	c-19.049,0-34.493,15.444-34.493,34.493v22.092c0-19.049,15.443-34.492,34.493-34.492c11.953,0,22.484,6.082,28.673,15.319
	c6.111-5.501,14.196-8.851,23.065-8.851c11.699,0,22.029,5.829,28.268,14.737c6.026-5.151,13.844-8.269,22.394-8.269
	c19.049,0,34.492,15.444,34.492,34.492v-22.092C423.612,337.469,408.17,322.026,389.12,322.026z"/>
<g>
	<path style="fill:#D38442;" d="M315.394,324.409c-2.192-3.269-4.935-6.134-8.084-8.482v27.656c0,4.465,3.62,8.084,8.084,8.084
		c4.465,0,8.083-3.62,8.083-8.084v-24.599C320.526,320.411,317.804,322.239,315.394,324.409z"/>
	<path style="fill:#D38442;" d="M366.727,330.295c-2.216-3.165-4.957-5.931-8.084-8.195v27.951c0,4.465,3.62,8.084,8.084,8.084
		c4.465,0,8.083-3.62,8.083-8.084v-24.91C371.873,326.484,369.153,328.221,366.727,330.295z"/>
</g>
<path style="fill:#F48911;" d="M48.212,376.041c-9.439-9.439-15.98-21.333-18.414-33.484c-0.538-2.686,0.348-5.462,2.347-7.337
	c2-1.876,4.825-2.585,7.474-1.876l41.002,10.988c0.682,0.184,1.415-0.015,1.914-0.513c0.501-0.499,0.697-1.232,0.513-1.914
	l-10.986-41.004c-0.712-2.649-0.001-5.474,1.872-7.473c1.876-1.999,4.651-2.887,7.339-2.348
	c12.153,2.435,24.043,8.976,33.484,18.415c22.594,22.596,26.052,55.903,7.706,74.25C104.116,402.092,70.806,398.637,48.212,376.041z
	"/>
<path style="fill:#D6720F;" d="M97.281,347.131l-17.758-18.388l3.525,13.163c0.184,0.682-0.014,1.415-0.513,1.914
	c-0.499,0.498-1.232,0.697-1.914,0.513L68.185,341l17.663,17.565c1.58,1.578,3.649,2.368,5.718,2.368s4.138-0.79,5.717-2.368
	C100.438,355.406,100.438,350.287,97.281,347.131z"/>
<g>
	<path style="fill:#754C24;" d="M137.131,289.149L137.131,289.149c-63.635,0-115.408-51.773-115.409-115.41
		c0.001-51.801,42.144-93.944,93.944-93.944c42.332,0,76.773,34.44,76.774,76.772c0,4.465-3.62,8.084-8.083,8.084
		c-4.465,0-8.084-3.618-8.084-8.084c-0.001-33.417-27.188-60.604-60.605-60.604c-42.886,0-77.775,34.89-77.776,77.775
		c0.001,54.722,44.519,99.241,99.241,99.242c4.465,0,8.083,3.62,8.083,8.084C145.216,285.53,141.596,289.149,137.131,289.149z"/>
	<path style="fill:#754C24;" d="M210.018,307.474L210.018,307.474c-63.636,0-115.409-51.773-115.41-115.41
		c0.001-51.801,42.145-93.944,93.945-93.944c42.331,0,76.773,34.441,76.774,76.772c0,4.465-3.62,8.084-8.084,8.084
		s-8.083-3.62-8.083-8.084c-0.001-33.416-27.189-60.604-60.605-60.604c-42.886,0-77.776,34.89-77.777,77.776
		c0.001,54.721,44.52,99.241,99.241,99.241c4.465,0,8.083,3.62,8.083,8.084C218.102,303.854,214.482,307.474,210.018,307.474z"/>
</g>
<path style="fill:#FFAB5F;" d="M250.032,414.13c-1.073,1.073-2.332,1.96-3.729,2.614c-48.606,22.679-80.195,20.168-109.039-8.677
	c-32.711-32.711-42.236-81.375-24.266-123.98c0.664-1.576,1.626-2.991,2.812-4.179c1.188-1.187,2.601-2.149,4.179-2.812
	c42.605-17.97,91.271-8.446,123.979,24.265c28.844,28.844,31.357,60.435,8.676,109.04
	C251.992,411.797,251.105,413.055,250.032,414.13z"/>
<path style="opacity:0.1;enable-background:new    ;" d="M158.876,408.067c-32.711-32.711-42.236-81.375-24.266-123.98
	c0.664-1.576,1.626-2.991,2.812-4.179c1.188-1.187,2.601-2.149,4.179-2.812c10.826-4.567,22.045-7.342,33.294-8.428
	c-18.292-1.766-37.125,0.928-54.906,8.428c-1.578,0.664-2.99,1.626-4.179,2.812c-1.187,1.188-2.149,2.602-2.812,4.179
	c-17.97,42.606-8.445,91.271,24.266,123.98c18.85,18.85,38.882,26.436,64.061,23.111
	C185.709,428.855,172.005,421.196,158.876,408.067z"/>
<g>
	<path style="fill:#FCE9C3;" d="M423.642,188.905h-26.947c-4.465,0-8.084-3.62-8.084-8.084s3.62-8.084,8.084-8.084h26.947
		c14.248,0,25.839-11.592,25.839-25.84s-11.592-25.84-25.839-25.84h-23.406c-4.465,0-8.084-3.62-8.084-8.084s3.62-8.084,8.084-8.084
		h23.406c23.163,0,42.009,18.845,42.009,42.009S446.805,188.905,423.642,188.905z"/>
	<path style="fill:#FCE9C3;" d="M317.088,235.787c-4.465,0-8.083-3.62-8.083-8.084v-18.456c0-20.132,16.378-36.51,36.509-36.51
		h22.588c4.465,0,8.084,3.62,8.084,8.084s-3.62,8.084-8.084,8.084h-22.588c-11.215,0-20.341,9.125-20.341,20.341v18.456
		C325.172,232.168,321.553,235.787,317.088,235.787z"/>
</g>
<path style="fill:#F2D8A0;" d="M363.251,146.868h-52.908c-24.037,0-43.592-19.556-43.592-43.594
	c0-24.037,19.555-43.593,43.592-43.593h18.995c4.465,0,8.084,3.62,8.084,8.084c0,4.465-3.62,8.084-8.084,8.084h-18.995
	c-15.123,0-27.424,12.303-27.424,27.424c0,15.123,12.302,27.425,27.424,27.425h52.908c4.465,0,8.083,3.62,8.083,8.084
	S367.716,146.868,363.251,146.868z"/>
<path style="fill:#F48911;" d="M226.744,383.866c-10.501-10.501-17.778-23.731-20.487-37.247c-0.598-2.989,0.389-6.077,2.612-8.162
	c2.224-2.087,5.369-2.876,8.314-2.086l45.611,12.222c0.759,0.204,1.575-0.016,2.13-0.57c0.554-0.555,0.774-1.37,0.569-2.128
	l-12.22-45.613c-0.79-2.946-0.002-6.089,2.084-8.313c2.087-2.223,5.173-3.211,8.164-2.612c13.519,2.708,26.746,9.984,37.247,20.485
	c25.135,25.136,28.979,62.189,8.571,82.596C288.931,412.845,251.877,409,226.744,383.866z"/>
<path style="fill:#D6720F;" d="M280.684,352.349l-18.302-18.072l3.113,11.616c0.205,0.759-0.016,1.574-0.569,2.128
	c-0.555,0.555-1.372,0.774-2.129,0.571l-11.992-3.213l18.449,18.402c1.579,1.579,3.648,2.368,5.717,2.368
	c2.068,0,4.138-0.789,5.717-2.368C283.841,360.625,283.841,355.506,280.684,352.349z"/>
<circle style="fill:#F7EEDF;" cx="205.343" cy="297.597" r="23.714"/>
<circle style="fill:#754C24;" cx="205.343" cy="297.597" r="9.289"/>
<ellipse style="fill:#FFE266;" cx="436.255" cy="376.686" rx="28.264" ry="28.254"/>
<path style="fill:#DAF7E9;" d="M42.351,403.575c9.855,28.37,36.798,48.744,68.524,48.744h290.247
	c31.728,0,58.67-20.374,68.526-48.744H42.351z"/>
<path style="opacity:0.1;enable-background:new    ;" d="M75.226,403.575H42.351c9.855,28.37,36.798,48.744,68.524,48.744h32.876
	C112.026,452.32,85.082,431.946,75.226,403.575z"/>
<path style="fill:#F2FFE9;" d="M512,400.939c0,9.448-7.659,17.107-17.108,17.107H17.107C7.659,418.046,0,410.387,0,400.939l0,0
	c0-9.448,7.659-17.107,17.107-17.107h477.785C504.341,383.832,512,391.49,512,400.939L512,400.939z"/>
<path style="opacity:0.1;enable-background:new    ;" d="M32.876,400.939c0-9.448,7.659-17.107,17.107-17.107H17.107
	C7.659,383.832,0,391.49,0,400.939c0,9.448,7.659,17.107,17.107,17.107h32.876C40.535,418.046,32.876,410.387,32.876,400.939z"/>
<g>
</g>
<g>
</g>
<g>
</g>
<g>
</g>
<g>
</g>
<g>
</g>
<g>
</g>
<g>
</g>
<g>
</g>
<g>
</g>
<g>
</g>
<g>
</g>
<g>
</g>
<g>
</g>
<g>
</g>
</svg>
