<?xml version="1.0" encoding="iso-8859-1"?>
<!-- Generator: Adobe Illustrator 19.0.0, SVG Export Plug-In . SVG Version: 6.00 Build 0)  -->
<svg version="1.1" id="Layer_1" xmlns="http://www.w3.org/2000/svg" xmlns:xlink="http://www.w3.org/1999/xlink" x="0px" y="0px"
	 viewBox="0 0 512 512" style="enable-background:new 0 0 512 512;" xml:space="preserve">
<path style="fill:#F7EEDF;" d="M404.028,429.802c0,6.288-5.11,11.383-11.411,11.383H123.332c-6.302,0-11.41-5.096-11.41-11.383
	V35.923c0-6.288,5.109-11.383,11.41-11.383h269.284c6.302,0,11.411,5.096,11.411,11.383V429.802z"/>
<path style="fill:#C69C6D;" d="M333.737,416.907H178.262c-4.326,0-7.887-3.402-8.084-7.722c-0.67-14.607-12.139-26.704-26.677-28.14
	c-4.142-0.409-7.299-3.893-7.299-8.053V94.228c0-4.161,3.157-7.643,7.299-8.054c15.123-1.493,26.603-14.098,26.708-29.319
	c0.03-4.449,3.646-8.038,8.093-8.038h155.4c4.447,0,8.062,3.59,8.094,8.038c0.11,16.218,13.372,29.418,29.579,29.467
	c0.097-0.004,0.19-0.004,0.282-0.004c4.47,0,8.093,3.623,8.093,8.092v278.399c0,4.469-3.623,8.093-8.093,8.093
	c-0.066,0-0.184-0.002-0.277-0.004c-15.856,0.042-28.831,12.451-29.556,28.287C341.624,413.505,338.063,416.907,333.737,416.907z
	 M185.322,400.723h141.337c3.952-18.172,18.577-32.171,36.903-35.334V101.822c-18.773-3.29-33.715-18.09-37.191-36.82H185.64
	c-3.183,17.398-16.134,31.436-33.252,35.964V366.27C168.825,370.693,181.64,384.111,185.322,400.723z"/>
<path style="opacity:0.1;enable-background:new    ;" d="M144.662,429.802V35.923c0-6.288,5.108-11.383,11.41-11.383h-32.74
	c-6.302,0-11.41,5.096-11.41,11.383v393.879c0,6.288,5.109,11.383,11.41,11.383h32.74
	C149.77,441.185,144.662,436.09,144.662,429.802z"/>
<path style="fill:#87B26B;" d="M257.975,249.533c-4.465,0-8.083-3.62-8.083-8.084v-25.452c0-4.465,3.618-8.084,8.083-8.084
	s8.084,3.62,8.084,8.084v25.452C266.059,245.914,262.44,249.533,257.975,249.533z"/>
<path style="fill:#A5D289;" d="M195.471,284.581c0-34.438,27.983-62.355,62.503-62.355c34.518,0,62.502,27.918,62.502,62.355
	H195.471z"/>
<ellipse style="fill:#EF645E;" cx="125.356" cy="64.01" rx="64.157" ry="64.01"/>
<path style="opacity:0.1;enable-background:new    ;" d="M136.866,105.927c-35.435,0-64.161-28.661-64.161-64.013
	c0-6.209,0.903-12.206,2.557-17.883C66.464,34.987,61.19,48.88,61.19,64.011c0,35.352,28.725,64.011,64.16,64.011
	c29.211,0,53.845-19.482,61.605-46.127C175.197,96.539,157.135,105.927,136.866,105.927z"/>
<g>
	<path style="fill:#A67C52;" d="M327.577,334.49H188.371c-4.465,0-8.083-3.618-8.083-8.083c0-4.465,3.618-8.083,8.083-8.083h139.205
		c4.465,0,8.084,3.618,8.084,8.083C335.661,330.871,332.041,334.49,327.577,334.49z"/>
	<path style="fill:#A67C52;" d="M301.159,372.257h-86.368c-4.465,0-8.084-3.62-8.084-8.084c0-4.465,3.62-8.084,8.084-8.084h86.368
		c4.465,0,8.083,3.62,8.083,8.084C309.243,368.638,305.624,372.257,301.159,372.257z"/>
</g>
<g>
	<path style="fill:#C69C6D;" d="M289.609,163.918h-16.382c-4.47,0-8.093-3.624-8.093-8.093c0-4.47,3.623-8.093,8.093-8.093h16.382
		c6.911,0,12.534-5.601,12.534-12.484c0-6.884-5.623-12.483-12.534-12.483h-14.228c-4.469,0-8.093-3.624-8.093-8.093
		c0-4.47,3.624-8.093,8.093-8.093h14.228c15.836,0,28.72,12.862,28.72,28.669C318.329,151.057,305.446,163.918,289.609,163.918z"/>
	<path style="fill:#C69C6D;" d="M231.402,192.353c-4.469,0-8.093-3.623-8.093-8.093v-11.194c0-13.969,11.384-25.334,25.374-25.334
		h26.927c4.47,0,8.094,3.623,8.094,8.093c0,4.469-3.624,8.093-8.094,8.093h-26.927c-5.068,0-9.188,4.104-9.188,9.148v11.194
		C239.496,188.731,235.872,192.353,231.402,192.353z"/>
	<path style="fill:#C69C6D;" d="M259.467,138.421h-32.166c-16.366,0-29.68-13.293-29.68-29.631c0-16.339,13.314-29.63,29.68-29.63
		h11.547c4.47,0,8.094,3.623,8.094,8.092c0,4.471-3.624,8.093-8.094,8.093h-11.547c-7.441,0-13.495,6.032-13.495,13.446
		c0,7.414,6.054,13.445,13.495,13.445h32.166c4.469,0,8.093,3.624,8.093,8.093C267.561,134.798,263.937,138.421,259.467,138.421z"/>
</g>
<path style="fill:#A5D289;" d="M424.897,471.153c0,5.445-4.422,9.855-9.876,9.855h-314.09c-5.456,0-9.88-4.411-9.88-9.855v-27.591
	c0-5.444,4.423-9.854,9.88-9.854h314.09c5.454,0,9.876,4.411,9.876,9.854L424.897,471.153L424.897,471.153z"/>
<path style="opacity:0.1;enable-background:new    ;" d="M134.582,471.153v-27.591c0-5.444,4.423-9.854,9.88-9.854h-43.53
	c-5.456,0-9.88,4.411-9.88,9.854v27.591c0,5.445,4.423,9.855,9.88,9.855h43.53C139.005,481.008,134.582,476.598,134.582,471.153z"/>
<path style="fill:#C69C6D;" d="M450.81,500.616c0,6.287-5.109,11.384-11.41,11.384H76.549c-6.301,0-11.41-5.096-11.41-11.384
	v-31.875c0-6.287,5.11-11.384,11.41-11.384h362.85c6.302,0,11.41,5.097,11.41,11.384L450.81,500.616L450.81,500.616z"/>
<path style="opacity:0.1;enable-background:new    ;" d="M108.669,500.616v-31.875c0-6.287,5.11-11.384,11.41-11.384h-43.53
	c-6.301,0-11.41,5.097-11.41,11.384v31.875c0,6.287,5.11,11.384,11.41,11.384h43.53C113.779,512,108.669,506.904,108.669,500.616z"
	/>
<path style="fill:#8C6239;" d="M168.974,476.851H65.139v16.17h103.835c4.465,0,8.084-3.62,8.084-8.084
	C177.058,480.47,173.438,476.851,168.974,476.851z"/>
<g>
</g>
<g>
</g>
<g>
</g>
<g>
</g>
<g>
</g>
<g>
</g>
<g>
</g>
<g>
</g>
<g>
</g>
<g>
</g>
<g>
</g>
<g>
</g>
<g>
</g>
<g>
</g>
<g>
</g>
</svg>
