<?xml version="1.0" encoding="iso-8859-1"?>
<!-- Generator: Adobe Illustrator 19.0.0, SVG Export Plug-In . SVG Version: 6.00 Build 0)  -->
<svg version="1.1" id="Layer_1" xmlns="http://www.w3.org/2000/svg" xmlns:xlink="http://www.w3.org/1999/xlink" x="0px" y="0px"
	 viewBox="0 0 512 512" style="enable-background:new 0 0 512 512;" xml:space="preserve">
<path style="fill:#F48911;" d="M133.12,0H74.436C63.743,0,55.073,8.596,55.073,19.2v473.6c0,10.604,8.67,19.2,19.363,19.2h58.684V0z
	"/>
<path style="fill:#FFAB5F;" d="M456.927,492.8c0,10.604-8.67,19.2-19.362,19.2H114.857c-10.693,0-19.362-8.596-19.362-19.2V19.2
	c0-10.604,8.668-19.2,19.362-19.2h322.707c10.692,0,19.362,8.596,19.362,19.2V492.8z"/>
<rect x="95.493" y="179.493" style="fill:#E0D9AF;" width="361.43" height="153.015"/>
<path style="fill:#FFE060;" d="M192.89,467.2c-10.257,0-18.735-7.933-19.33-18.087c-0.415-7.083-6.356-12.633-13.525-12.633
	c-10.693,0-19.363-8.596-19.363-19.2V94.72c0-10.604,8.67-19.2,19.363-19.2c7.169,0,13.11-5.549,13.525-12.633
	c0.595-10.154,9.073-18.087,19.33-18.087h166.64c10.259,0,18.737,7.933,19.331,18.088c0.414,7.083,6.355,12.632,13.524,12.632
	c10.691,0,19.361,8.596,19.361,19.2v322.56c0,10.604-8.67,19.2-19.361,19.2c-7.169,0-13.111,5.549-13.524,12.632
	c-0.594,10.155-9.072,18.088-19.331,18.088H192.89z"/>
<path style="opacity:0.1;enable-background:new    ;" d="M207.576,449.113c-0.415-7.083-6.356-12.633-13.525-12.633
	c-10.693,0-19.363-8.596-19.363-19.2V94.72c0-10.604,8.668-19.2,19.363-19.2c7.169,0,13.11-5.549,13.525-12.633
	c0.595-10.154,9.073-18.087,19.33-18.087h-34.015c-10.257,0-18.735,7.933-19.33,18.087c-0.415,7.083-6.356,12.633-13.525,12.633
	c-10.693,0-19.363,8.596-19.363,19.2v322.56c0,10.604,8.67,19.2,19.363,19.2c7.169,0,13.11,5.549,13.525,12.633
	c0.595,10.154,9.073,18.087,19.33,18.087h34.015C216.648,467.2,208.171,459.267,207.576,449.113z"/>
<g>
	<path style="fill:#C5CCCC;" d="M276.21,393.366c-4.465,0-8.083-3.62-8.083-8.084v-25.266c0-4.465,3.618-8.084,8.083-8.084
		s8.084,3.62,8.084,8.084v25.266C284.295,389.747,280.675,393.366,276.21,393.366z"/>
	<path style="fill:#C5CCCC;" d="M214.309,429.541c0-34.187,27.715-61.902,61.902-61.902s61.902,27.714,61.902,61.902H214.309z"/>
</g>
<path style="opacity:0.1;enable-background:new    ;" d="M287.432,368.673c-3.64-0.667-7.387-1.033-11.221-1.033
	c-34.187,0-61.902,27.714-61.902,61.902h22.443C236.752,399.188,258.605,373.955,287.432,368.673z"/>
<ellipse style="fill:#FFFFFF;" cx="276.208" cy="148.01" rx="62.924" ry="42.235"/>
<path style="opacity:0.1;enable-background:new    ;" d="M235.52,148.009c0-20.761,22.319-38.01,51.722-41.56
	c-3.585-0.431-7.263-0.68-11.033-0.68c-34.751,0-62.924,18.912-62.924,42.24s28.173,42.24,62.924,42.24
	c3.769,0,7.448-0.251,11.033-0.68C257.839,186.019,235.52,168.769,235.52,148.009z"/>
<g>
	<path style="fill:#736357;" d="M337.119,234.981H215.302c-4.465,0-8.084-3.62-8.084-8.084s3.62-8.084,8.084-8.084h121.816
		c4.465,0,8.084,3.62,8.084,8.084S341.583,234.981,337.119,234.981z"/>
	<path style="fill:#736357;" d="M310.358,269.54h-68.292c-4.465,0-8.084-3.62-8.084-8.084s3.62-8.084,8.084-8.084h68.292
		c4.465,0,8.083,3.62,8.083,8.084C318.441,265.921,314.823,269.54,310.358,269.54z"/>
</g>
<g>
</g>
<g>
</g>
<g>
</g>
<g>
</g>
<g>
</g>
<g>
</g>
<g>
</g>
<g>
</g>
<g>
</g>
<g>
</g>
<g>
</g>
<g>
</g>
<g>
</g>
<g>
</g>
<g>
</g>
</svg>
