<?xml version="1.0" encoding="iso-8859-1"?>
<!-- Generator: Adobe Illustrator 19.0.0, SVG Export Plug-In . SVG Version: 6.00 Build 0)  -->
<svg version="1.1" id="Layer_1" xmlns="http://www.w3.org/2000/svg" xmlns:xlink="http://www.w3.org/1999/xlink" x="0px" y="0px"
	 viewBox="0 0 512.001 512.001" style="enable-background:new 0 0 512.001 512.001;" xml:space="preserve">
<path style="fill:#319E38;" d="M450.357,240.425c-2.069,0-4.138-0.789-5.717-2.368L261.717,55.132
	c-1.527-1.527-3.557-2.368-5.717-2.368c-2.16,0-4.189,0.841-5.716,2.368L67.359,238.058c-3.157,3.157-8.276,3.157-11.432,0
	c-3.158-3.157-3.158-8.276,0-11.432L238.851,43.7c4.58-4.581,10.671-7.103,17.149-7.103c6.478,0,12.569,2.522,17.15,7.103
	l182.924,182.924c3.158,3.157,3.158,8.276,0,11.432C454.495,239.635,452.426,240.425,450.357,240.425z"/>
<path style="fill:#22B573;" d="M512,461.932c0,8.93-7.239,16.169-16.169,16.169H16.169C7.239,478.101,0,470.862,0,461.932V224.796
	c0-8.93,7.239-16.169,16.169-16.169h479.664c8.93,0,16.169,7.239,16.169,16.169v237.136H512z"/>
<path style="fill:#A5BC79;" d="M512,461.932c0,8.93-7.239,16.169-16.169,16.169H16.169C7.239,478.101,0,470.862,0,461.932V224.796
	c0-8.93,7.239-16.169,16.169-16.169h479.664c8.93,0,16.169,7.239,16.169,16.169v237.136H512z"/>
<g>
	<path style="fill:#6E8933;" d="M482.259,349.239h-25.771c-4.465,0-7.545-3.62-7.545-8.084c0-4.465,3.08-8.084,7.545-8.084h25.771
		c4.464,0,8.084,3.62,8.084,8.084C490.343,345.62,486.724,349.239,482.259,349.239z"/>
	<path style="fill:#6E8933;" d="M55.511,349.239h-25.77c-4.465,0-8.084-3.62-8.084-8.084c0-4.465,3.62-8.084,8.084-8.084h25.771
		c4.465,0,7.545,3.62,7.545,8.084C63.056,345.62,59.976,349.239,55.511,349.239z"/>
</g>
<g>
	<circle style="fill:#FFFFFF;" cx="38.266" cy="246.357" r="13.229"/>
	<circle style="fill:#FFFFFF;" cx="474.812" cy="246.357" r="13.228"/>
	<circle style="fill:#FFFFFF;" cx="38.266" cy="437.145" r="13.229"/>
	<circle style="fill:#FFFFFF;" cx="474.812" cy="437.145" r="13.228"/>
</g>
<circle style="fill:#FFCC60;" cx="256" cy="59.77" r="25.87"/>
<path style="opacity:0.1;enable-background:new    ;" d="M251.689,59.772c0-10.439,6.187-19.428,15.09-23.515
	c-3.282-1.507-6.931-2.353-10.779-2.353c-14.287,0-25.87,11.582-25.87,25.87c0,14.287,11.583,25.87,25.87,25.87
	c3.848,0,7.497-0.846,10.779-2.354C257.876,79.2,251.689,70.21,251.689,59.772z"/>
<path style="fill:#FFFFFF;" d="M91.483,429.596c-4.584,0-8.667-2.9-10.177-7.228c-4.112-11.785-13.63-21.2-25.46-25.184
	c-4.385-1.476-7.339-5.588-7.339-10.215V299.76c0-4.628,2.954-8.74,7.339-10.215c11.83-3.984,21.348-13.398,25.46-25.184
	c1.511-4.329,5.593-7.228,10.177-7.228h329.034c4.584,0,8.666,2.9,10.177,7.228c4.112,11.785,13.63,21.2,25.46,25.184
	c4.385,1.476,7.339,5.588,7.339,10.215v87.209c0,4.628-2.954,8.738-7.339,10.215c-11.83,3.984-21.348,13.398-25.46,25.184
	c-1.511,4.329-5.593,7.228-10.177,7.228L91.483,429.596L91.483,429.596z"/>
<path style="opacity:0.1;enable-background:new    ;" d="M114.181,422.368c-4.113-11.785-13.63-21.2-25.461-25.184
	c-4.385-1.476-7.339-5.588-7.339-10.215V299.76c0-4.628,2.954-8.74,7.339-10.215c11.83-3.984,21.348-13.398,25.461-25.184
	c1.511-4.329,5.593-7.228,10.177-7.228H91.483c-4.584,0-8.667,2.9-10.177,7.228c-4.112,11.785-13.63,21.2-25.46,25.184
	c-4.385,1.476-7.339,5.588-7.339,10.215v87.209c0,4.628,2.954,8.738,7.339,10.215c11.83,3.984,21.348,13.398,25.46,25.184
	c1.511,4.329,5.593,7.228,10.177,7.228h32.876C119.774,429.596,115.692,426.696,114.181,422.368z"/>
<g>
	<path style="fill:#6E8933;" d="M117.365,343.549v-0.185c0-18.448,14.553-33.557,34.576-33.557
		c20.023,0,34.392,14.924,34.392,33.372v0.185c0,18.447-14.553,33.557-34.577,33.557
		C131.733,376.921,117.365,361.996,117.365,343.549z M171.408,343.549v-0.185c0-11.124-8.159-20.394-19.652-20.394
		s-19.466,9.084-19.466,20.208v0.185c0,11.123,8.158,20.393,19.651,20.393C163.436,363.758,171.408,354.673,171.408,343.549z"/>
	<path style="fill:#6E8933;" d="M203.67,318.058c0-3.986,3.152-7.138,7.138-7.138h19.373c15.48,0,24.842,9.177,24.842,22.433v0.185
		c0,15.017-11.68,22.804-26.233,22.804h-10.845v12.885c0,3.986-3.151,7.138-7.138,7.138c-3.986,0-7.138-3.151-7.138-7.138V318.058z
		 M229.255,343.642c7.139,0,11.309-4.264,11.309-9.826v-0.185c0-6.396-4.449-9.825-11.587-9.825h-11.031v19.836H229.255z"/>
	<path style="fill:#6E8933;" d="M270.232,368.671v-50.613c0-3.986,3.152-7.138,7.138-7.138h35.966c3.522,0,6.396,2.875,6.396,6.396
		c0,3.523-2.873,6.304-6.396,6.304h-28.922v13.163h24.751c3.522,0,6.397,2.873,6.397,6.397c0,3.522-2.873,6.303-6.397,6.303h-24.751
		v13.625h29.385c3.522,0,6.397,2.873,6.397,6.397c0,3.522-2.875,6.303-6.397,6.303h-36.43
		C273.383,375.809,270.232,372.657,270.232,368.671z"/>
	<path style="fill:#6E8933;" d="M336.977,317.687c0-3.986,3.151-7.138,7.138-7.138h1.483c3.43,0,5.469,1.669,7.416,4.171
		l27.531,36.151v-33.464c0-3.892,3.151-7.044,7.045-7.044s7.045,3.151,7.045,7.044v51.633c0,3.986-3.151,7.139-7.138,7.139h-0.464
		c-3.43,0-5.469-1.669-7.416-4.172l-28.551-37.449v34.762c0,3.894-3.151,7.046-7.045,7.046c-3.892,0-7.045-3.151-7.045-7.046
		v-51.633H336.977z"/>
</g>
<g>
</g>
<g>
</g>
<g>
</g>
<g>
</g>
<g>
</g>
<g>
</g>
<g>
</g>
<g>
</g>
<g>
</g>
<g>
</g>
<g>
</g>
<g>
</g>
<g>
</g>
<g>
</g>
<g>
</g>
</svg>
