<?xml version="1.0" encoding="iso-8859-1"?>
<!-- Generator: Adobe Illustrator 19.0.0, SVG Export Plug-In . SVG Version: 6.00 Build 0)  -->
<svg version="1.1" id="Layer_1" xmlns="http://www.w3.org/2000/svg" xmlns:xlink="http://www.w3.org/1999/xlink" x="0px" y="0px"
	 viewBox="0 0 512 512" style="enable-background:new 0 0 512 512;" xml:space="preserve">
<circle style="fill:#EF645E;" cx="78.148" cy="277.984" r="28.025"/>
<path style="fill:#B0CE6F;" d="M29.288,330.075c-10.001-10.003-13.861-24.711-10.072-38.386c1.01-3.649,3.861-6.499,7.51-7.511
	c13.676-3.789,28.384,0.071,38.385,10.074c10.002,10.002,13.863,24.711,10.074,38.386c-1.01,3.649-3.861,6.499-7.51,7.51
	C54,343.936,39.29,340.077,29.288,330.075z"/>
<path style="fill:#95AD53;" d="M69.684,342.731c-2.069,0-4.138-0.789-5.717-2.368l-22.103-22.103c-3.158-3.157-3.158-8.276,0-11.432
	c3.157-3.158,8.276-3.158,11.432,0L75.4,328.931c3.158,3.157,3.158,8.276,0,11.432C73.822,341.942,71.753,342.731,69.684,342.731z"
	/>
<path style="fill:#B0CE6F;" d="M420.699,264.489c10.901-10.899,26.93-15.105,41.836-10.976c3.976,1.102,7.081,4.208,8.186,8.184
	c4.128,14.904-0.078,30.933-10.98,41.835c-10.901,10.901-26.93,15.109-41.836,10.979c-3.976-1.102-7.081-4.208-8.184-8.184
	C405.593,291.422,409.799,275.392,420.699,264.489z"/>
<path style="fill:#95AD53;" d="M415.716,317.326c-2.255,0-4.51-0.861-6.233-2.581c-3.44-3.441-3.44-9.02,0-12.46l24.09-24.089
	c3.443-3.441,9.021-3.441,12.462,0c3.44,3.44,3.44,9.02,0,12.459l-24.091,24.089C420.226,316.466,417.97,317.326,415.716,317.326z"
	/>
<path style="fill:#FFE7B0;" d="M443.281,314.455c0,19.837-16.081,35.917-35.917,35.917H104.635
	c-19.836,0-35.917-16.08-35.917-35.917l0,0c0-19.835,16.081-35.916,35.917-35.916h302.729
	C427.201,278.538,443.281,294.619,443.281,314.455L443.281,314.455z"/>
<path style="fill:#FFE060;" d="M320.778,128.274c0,5.669-4.593,10.262-10.261,10.262H201.483c-5.668,0-10.262-4.593-10.262-10.262
	v-14.109c0-5.668,4.594-10.262,10.262-10.262h109.034c5.668,0,10.261,4.593,10.261,10.262V128.274z"/>
<path style="opacity:0.1;enable-background:new    ;" d="M224.741,128.274v-14.109c0-5.668,4.594-10.262,10.262-10.262h-33.52
	c-5.668,0-10.262,4.593-10.262,10.262v14.109c0,5.669,4.594,10.262,10.262,10.262h33.52
	C229.335,138.536,224.741,133.943,224.741,128.274z"/>
<path style="fill:#EAC781;" d="M443.281,242.622c0,19.836-16.081,35.917-35.917,35.917H104.635
	c-19.836,0-35.917-16.081-35.917-35.917l0,0c0-19.836,16.081-35.917,35.917-35.917h302.729
	C427.201,206.704,443.281,222.785,443.281,242.622L443.281,242.622z"/>
<path style="opacity:0.1;enable-background:new    ;" d="M102.406,242.622c0-19.836,16.081-35.917,35.916-35.917h-33.688
	c-19.836,0-35.917,16.081-35.917,35.917s16.081,35.917,35.917,35.917h33.688C118.486,278.538,102.406,262.458,102.406,242.622z"/>
<g>
	<path style="fill:#C69C6D;" d="M332.53,242.413c0,4.465,3.618,8.084,8.083,8.084h101.79c0.567-2.536,0.878-5.168,0.878-7.875
		c0-2.856-0.344-5.63-0.975-8.293H340.614C336.149,234.328,332.53,237.948,332.53,242.413z"/>
	<path style="fill:#C69C6D;" d="M312.59,250.496h-37.727c-4.465,0-8.084-3.62-8.084-8.084s3.62-8.084,8.084-8.084h37.727
		c4.465,0,8.083,3.62,8.083,8.084C320.674,246.878,317.055,250.496,312.59,250.496z"/>
</g>
<path style="opacity:0.1;enable-background:new    ;" d="M102.406,314.455c0-19.835,16.081-35.916,35.916-35.916h-33.688
	c-19.836,0-35.917,16.081-35.917,35.916c0,19.837,16.081,35.917,35.917,35.917h33.688
	C118.486,350.373,102.406,334.293,102.406,314.455z"/>
<circle style="fill:#EF645E;" cx="460.8" cy="329.184" r="28.025"/>
<g>
	<path style="fill:#C69C6D;" d="M169.23,307.625H69.375c-0.426,2.212-0.657,4.493-0.657,6.83c0,3.231,0.434,6.36,1.233,9.338h99.278
		c4.465,0,8.084-3.62,8.084-8.084C177.314,311.244,173.694,307.625,169.23,307.625z"/>
	<path style="fill:#C69C6D;" d="M234.981,323.794h-37.726c-4.465,0-8.084-3.62-8.084-8.084c0-4.464,3.62-8.083,8.084-8.083h37.726
		c4.465,0,8.084,3.62,8.084,8.083C243.065,320.174,239.446,323.794,234.981,323.794z"/>
</g>
<circle style="fill:#A768AA;" cx="416.611" cy="327.565" r="28.025"/>
<path style="fill:#FFE7B0;" d="M443.281,170.788c0,19.836-16.081,35.916-35.917,35.916H104.635
	c-19.836,0-35.917-16.081-35.917-35.916l0,0c0-19.836,16.081-35.917,35.917-35.917h302.729
	C427.201,134.871,443.281,150.951,443.281,170.788L443.281,170.788z"/>
<path style="fill:#C69C6D;" d="M407.364,134.871H104.635c-18.093,0-33.055,13.381-35.546,30.785h43.243v76.325
	c0,8.147,6.605,14.752,14.752,14.752s14.752-6.604,14.752-14.752v-76.325h21.807v7.056c0,8.501,6.892,15.392,15.392,15.392
	c8.501,0,15.393-6.891,15.393-15.392v-7.056h160.344v14.11c0,8.501,6.893,15.392,15.392,15.392c8.501,0,15.393-6.892,15.393-15.392
	v-14.11h57.352C440.42,148.252,425.458,134.871,407.364,134.871z"/>
<circle style="fill:#A768AA;" cx="82.459" cy="329.184" r="28.025"/>
<path style="fill:#CCFFE8;" d="M42.351,359.352c9.857,28.37,36.798,48.744,68.525,48.744h290.247
	c31.727,0,58.669-20.374,68.525-48.744H42.351z"/>
<path style="opacity:0.1;enable-background:new    ;" d="M86.006,359.352H42.351c9.857,28.37,36.798,48.744,68.525,48.744h43.655
	C122.804,408.096,95.862,387.722,86.006,359.352z"/>
<path style="fill:#E5FFE8;" d="M512,356.715c0,9.448-7.659,17.107-17.108,17.107H17.107C7.659,373.822,0,366.163,0,356.715l0,0
	c0-9.449,7.659-17.108,17.107-17.108h477.785C504.341,339.608,512,347.267,512,356.715L512,356.715z"/>
<path style="opacity:0.1;enable-background:new    ;" d="M43.655,356.715c0-9.449,7.659-17.108,17.108-17.108H17.107
	C7.659,339.608,0,347.267,0,356.715c0,9.448,7.659,17.107,17.107,17.107h43.655C51.314,373.822,43.655,366.163,43.655,356.715z"/>
<g>
</g>
<g>
</g>
<g>
</g>
<g>
</g>
<g>
</g>
<g>
</g>
<g>
</g>
<g>
</g>
<g>
</g>
<g>
</g>
<g>
</g>
<g>
</g>
<g>
</g>
<g>
</g>
<g>
</g>
</svg>
