<?xml version="1.0" encoding="iso-8859-1"?>
<!-- Generator: Adobe Illustrator 19.0.0, SVG Export Plug-In . SVG Version: 6.00 Build 0)  -->
<svg version="1.1" id="Layer_1" xmlns="http://www.w3.org/2000/svg" xmlns:xlink="http://www.w3.org/1999/xlink" x="0px" y="0px"
	 viewBox="0 0 512.001 512.001" style="enable-background:new 0 0 512.001 512.001;" xml:space="preserve">
<path style="fill:#F7EEDF;" d="M384.902,359.837l-38.661-129.959H165.896l-38.795,129.949c-1.083,3.625-0.396,7.551,1.851,10.588
	c2.247,3.036,5.789,4.826,9.553,4.826h234.988c3.763,0,7.303-1.788,9.55-4.82C385.291,367.386,385.98,363.462,384.902,359.837z"/>
<ellipse style="fill:#C14616;" cx="414.365" cy="336.928" rx="25.004" ry="25.14"/>
<path style="fill:#78B591;" d="M253.305,164.235c-0.886,0.89-1.948,1.604-3.132,2.086c-16.909,6.884-29.155,8.4-41.713-4.229
	c-12.42-12.488-16.708-30.916-11.193-48.091c0.466-1.451,1.264-2.747,2.308-3.796c1.043-1.047,2.33-1.849,3.774-2.319
	c17.08-5.547,35.405-1.235,47.824,11.254c12.56,12.631,11.054,24.943,4.206,41.945C254.901,162.276,254.19,163.343,253.305,164.235z
	"/>
<path style="fill:#5D8C70;" d="M253.305,172.319c-2.076,0-4.152-0.794-5.732-2.383l-24.823-24.964
	c-3.148-3.165-3.135-8.284,0.031-11.432c3.167-3.147,8.285-3.133,11.432,0.032l24.823,24.964c3.148,3.165,3.135,8.284-0.031,11.432
	C257.428,171.535,255.367,172.319,253.305,172.319z"/>
<path style="fill:#C14616;" d="M263.561,195.645c-3.371,0-6.416-2.015-7.748-5.126c-2.994-6.988-4.576-14.894-4.576-22.868
	c0-26.664,17.409-48.353,38.808-48.353c21.397,0,38.806,21.69,38.806,48.353c0,7.974-1.582,15.879-4.576,22.868
	c-1.332,3.113-4.379,5.126-7.748,5.126H263.561z"/>
<ellipse style="fill:#7C5C9E;" cx="214.329" cy="178.876" rx="25.004" ry="25.151"/>
<g>
	<path style="fill:#912C0D;" d="M267.477,154.446h-1.191c-4.465,0-8.084-3.618-8.084-8.083c0-4.465,3.62-8.085,8.084-8.085h1.191
		c4.465,0,8.084,3.621,8.084,8.085C275.562,150.827,271.942,154.446,267.477,154.446z"/>
	<path style="fill:#912C0D;" d="M262.713,180.784h-1.191c-4.465,0-8.084-3.618-8.084-8.083c0-4.465,3.62-8.085,8.084-8.085h1.191
		c4.465,0,8.084,3.621,8.084,8.085C270.798,177.166,267.178,180.784,262.713,180.784z"/>
	<path style="fill:#912C0D;" d="M315.105,154.446h-1.191c-4.465,0-8.084-3.618-8.084-8.083c0-4.465,3.62-8.085,8.084-8.085h1.191
		c4.465,0,8.084,3.621,8.084,8.085C323.189,150.827,319.569,154.446,315.105,154.446z"/>
	<path style="fill:#912C0D;" d="M318.677,179.588h-1.191c-4.465,0-8.084-3.618-8.084-8.083s3.62-8.083,8.084-8.083h1.191
		c4.465,0,8.084,3.618,8.084,8.083S323.142,179.588,318.677,179.588z"/>
	<path style="fill:#912C0D;" d="M291.29,167.612h-1.19c-4.465,0-8.084-3.618-8.084-8.083s3.62-8.083,8.084-8.083h1.19
		c4.465,0,8.084,3.618,8.084,8.083S295.755,167.612,291.29,167.612z"/>
	<path style="fill:#912C0D;" d="M291.29,140.076h-1.19c-4.465,0-8.084-3.618-8.084-8.083c0-4.465,3.62-8.083,8.084-8.083h1.19
		c4.465,0,8.084,3.618,8.084,8.083C299.375,136.458,295.755,140.076,291.29,140.076z"/>
</g>
<ellipse style="fill:#644382;" cx="256" cy="178.876" rx="25.004" ry="25.151"/>
<ellipse style="fill:#C14616;" cx="96.444" cy="339.32" rx="25.004" ry="25.14"/>
<path style="fill:#EF645E;" d="M348.458,237.554l-10.993-36.959c-1.509-5.068-6.146-8.541-11.408-8.541H185.981
	c-5.258,0-9.892,3.467-11.403,8.531l-11.036,36.97h106.747v13.168c0,7.935,6.397,14.369,14.289,14.369
	c5.862,0,10.894-3.555,13.097-8.635v6.241c0,7.933,6.398,14.365,14.289,14.365c7.891,0,14.288-6.432,14.288-14.365v-25.143
	L348.458,237.554L348.458,237.554z"/>
<path style="opacity:0.1;enable-background:new    ;" d="M162.421,370.414c-2.247-3.036-2.933-6.963-1.851-10.588l47.541-159.242
	c1.511-5.064,6.146-8.531,11.404-8.531h-33.469c-5.258,0-9.892,3.467-11.404,8.531l-47.541,159.242
	c-1.083,3.625-0.396,7.551,1.851,10.588c2.247,3.036,5.789,4.826,9.553,4.826h33.469
	C168.21,375.241,164.668,373.451,162.421,370.414z"/>
<g>
	<ellipse style="fill:#644382;" cx="133.36" cy="333.333" rx="25.004" ry="25.14"/>
	<ellipse style="fill:#644382;" cx="381.022" cy="333.333" rx="25.004" ry="25.14"/>
</g>
<path style="fill:#C1D9E8;" d="M66.022,358.357c-0.306,2.047-0.467,4.145-0.467,6.278c0,23.12,18.637,41.86,41.628,41.86H404.82
	c22.991,0,41.628-18.739,41.628-41.86c0-2.133-0.161-4.231-0.467-6.278H66.022z"/>
<path style="opacity:0.1;enable-background:new    ;" d="M109.21,364.635c0-2.133,0.161-4.231,0.467-6.278H66.022
	c-0.306,2.047-0.467,4.145-0.467,6.278c0,23.12,18.637,41.86,41.628,41.86h43.655C127.845,406.494,109.21,387.756,109.21,364.635z"
	/>
<path style="fill:#CEE9FF;" d="M512,359.676c0,6.614-5.331,11.973-11.908,11.973H11.907C5.331,371.65,0,366.29,0,359.676v-7.182
	c0-6.616,5.331-11.976,11.907-11.976h488.187c6.577,0,11.908,5.359,11.908,11.976v7.182H512z"/>
<path style="opacity:0.1;enable-background:new    ;" d="M54.434,359.676v-7.182c0-6.616,5.331-11.976,11.907-11.976H11.907
	C5.331,340.519,0,345.878,0,352.494v7.182c0,6.614,5.331,11.973,11.907,11.973h54.434C59.765,371.65,54.434,366.29,54.434,359.676z"
	/>
<g>
	<path style="fill:#FFFFFF;" d="M317.419,197.486c-3.731,9.009-6.757,12.035-15.766,15.768c9.01,3.73,12.035,6.757,15.766,15.768
		c3.731-9.01,6.757-12.037,15.767-15.768C324.176,209.521,321.15,206.495,317.419,197.486z"/>
	<circle style="fill:#FFFFFF;" cx="305.8" cy="238.686" r="6.956"/>
</g>
<g>
</g>
<g>
</g>
<g>
</g>
<g>
</g>
<g>
</g>
<g>
</g>
<g>
</g>
<g>
</g>
<g>
</g>
<g>
</g>
<g>
</g>
<g>
</g>
<g>
</g>
<g>
</g>
<g>
</g>
</svg>
