<?xml version="1.0" encoding="iso-8859-1"?>
<!-- Generator: Adobe Illustrator 19.0.0, SVG Export Plug-In . SVG Version: 6.00 Build 0)  -->
<svg version="1.1" id="Layer_1" xmlns="http://www.w3.org/2000/svg" xmlns:xlink="http://www.w3.org/1999/xlink" x="0px" y="0px"
	 viewBox="0 0 512 512" style="enable-background:new 0 0 512 512;" xml:space="preserve">
<path style="fill:#B0CE6F;" d="M323.378,151.129c-12.239-9.407-28.583-11.642-42.649-5.836
	c-12.138,5.01-21.064,15.394-24.358,27.879c-3.622-12.278-12.792-22.446-25.051-27.327c-14.3-5.687-30.716-3.379-42.859,6.018
	c-3.242,2.51-4.897,6.496-4.363,10.505c1.991,15.021,12.107,27.887,26.398,33.579c14.297,5.686,30.717,3.381,42.859-6.024
	c1.379-1.066,2.451-2.412,3.21-3.902c0.78,1.454,1.853,2.763,3.208,3.804c12.243,9.41,28.589,11.644,42.652,5.835
	c14.07-5.807,23.837-18.825,25.505-33.967C328.376,157.646,326.648,153.639,323.378,151.129z"/>
<path style="fill:#7E8E51;" d="M295.573,168.596c-1.703-4.126-6.428-6.09-10.557-4.388l-28.976,11.964l-31.597-12.576
	c-4.147-1.646-8.849,0.373-10.501,4.522c-1.65,4.149,0.373,8.85,4.522,10.501l34.309,13.656c0.98,0.39,1.992,0.575,2.987,0.575
	c0.109,0,0.216-0.02,0.325-0.024c0.11,0.005,0.219,0.024,0.33,0.024c1.026,0,2.072-0.197,3.081-0.613l31.685-13.083
	C295.313,177.45,297.277,172.723,295.573,168.596z"/>
<path style="fill:#FFF5CA;" d="M406.097,257.32c1.407-3.701,2.183-7.713,2.183-11.907c0-18.532-15.035-33.554-33.582-33.554
	c-4.965,0-9.674,1.084-13.915,3.017c-0.368-18.213-15.248-32.866-33.565-32.866c-9.272,0-17.663,3.754-23.74,9.821
	c-6.077-6.068-14.471-9.821-23.741-9.821c-9.269,0-17.662,3.754-23.739,9.822c-6.076-6.069-14.471-9.822-23.741-9.822
	c-9.27,0-17.662,3.754-23.74,9.822c-6.076-6.069-14.47-9.822-23.739-9.822c-18.316,0-33.197,14.654-33.566,32.866
	c-4.241-1.933-8.949-3.017-13.913-3.017c-18.549,0-33.584,15.021-33.584,33.554c0,4.194,0.776,8.207,2.184,11.907
	c-14.856,3.464-25.925,16.769-25.925,32.668c0,18.532,15.036,33.554,33.585,33.554c9.27,0,17.663-3.752,23.74-9.82
	c6.075,6.069,14.47,9.82,23.739,9.82c9.27,0,17.663-3.752,23.741-9.82c6.077,6.069,14.47,9.82,23.739,9.82
	c9.271,0,17.663-3.752,23.741-9.82c6.076,6.069,14.469,9.82,23.74,9.82c9.269,0,17.663-3.752,23.74-9.819
	c6.077,6.068,14.471,9.819,23.74,9.819c9.269,0,17.663-3.752,23.74-9.82c6.077,6.069,14.472,9.82,23.741,9.82
	s17.663-3.752,23.739-9.82c6.077,6.069,14.47,9.82,23.741,9.82c18.547,0,33.584-15.021,33.584-33.554
	C432.022,274.087,420.953,260.784,406.097,257.32z"/>
<g style="opacity:0.1;">
	<path d="M102.986,320.941c-1.719,0-3.439-0.411-5.009-1.235c-11.103-5.828-18.001-17.217-18.001-29.72
		c0-15.676,10.66-29.108,25.924-32.668c-1.448-3.812-2.183-7.817-2.183-11.907c0-18.502,15.065-33.554,33.584-33.554
		c4.84,0,9.52,1.015,13.913,3.017c0.367-18.122,15.425-32.866,33.566-32.866c7.765,0,15.33,2.704,21.303,7.614
		c2.834,2.329,4.289,5.939,3.861,9.582c-0.425,3.641-2.676,6.818-5.972,8.429c-8.081,3.95-14.373,11.064-17.259,19.516
		c-1.504,4.404-5.637,7.294-10.194,7.295c-0.439,0-0.88-0.026-1.324-0.082c-1.364-0.167-2.762-0.253-4.156-0.253
		c-18.518,0-33.583,15.053-33.583,33.555c0,1.304,0.075,2.613,0.224,3.892c0.521,4.472-1.792,8.798-5.802,10.846
		c-10.634,5.431-17.578,16.258-18.128,28.251c-0.167,3.681-2.206,7.023-5.402,8.858C106.691,320.464,104.84,320.941,102.986,320.941
		z"/>
</g>
<path style="fill:#ACEBE9;" d="M255.999,505.94c-110.709,0-200.782-88.133-200.782-196.468c0-7.747,6.425-14.03,14.341-14.03
	h372.879c7.925,0,14.343,6.283,14.343,14.03C456.78,417.807,366.709,505.94,255.999,505.94z"/>
<path style="opacity:0.1;enable-background:new    ;" d="M100.196,309.472c0-7.747,6.424-14.03,14.341-14.03h-44.98
	c-7.916,0-14.341,6.283-14.341,14.03c0,108.336,90.073,196.468,200.782,196.468c7.603,0,15.104-0.43,22.489-1.239
	C178.326,493.726,100.196,410.367,100.196,309.472z"/>
<g>
	<path style="fill:#FFE060;" d="M180.5,112.525c-24.139,8.093-30.742,14.653-38.891,38.633c-8.146-23.979-14.75-30.54-38.891-38.633
		c24.141-8.094,30.745-14.654,38.891-38.635C149.758,97.871,156.362,104.431,180.5,112.525z"/>
	<path style="fill:#FFE060;" d="M281.388,31.507c-19.686,6.6-25.073,11.95-31.716,31.506c-6.646-19.556-12.033-24.906-31.719-31.506
		c19.687-6.6,25.073-11.949,31.719-31.507C256.314,19.557,261.702,24.907,281.388,31.507z"/>
	<path style="fill:#FFE060;" d="M398.251,113.251c-19.686,6.6-25.072,11.949-31.717,31.507
		c-6.643-19.557-12.03-24.907-31.717-31.507c19.687-6.6,25.072-11.95,31.717-31.507
		C373.179,101.301,378.565,106.651,398.251,113.251z"/>
</g>
<g>
	<path style="fill:#84C1BC;" d="M180.176,333.125h-123.5c0.673,5.461,1.565,10.854,2.689,16.169h120.81
		c4.465,0,8.084-3.62,8.084-8.084C188.26,336.743,184.641,333.125,180.176,333.125z"/>
	<path style="fill:#84C1BC;" d="M138.305,381.095H69.031c2.214,5.516,4.684,10.908,7.382,16.169h61.89
		c4.465,0,8.084-3.62,8.084-8.084C146.39,384.714,142.771,381.095,138.305,381.095z"/>
</g>
<path style="fill:#FFE060;" d="M469.601,497.787c0,7.849-6.44,14.213-14.383,14.213H56.782c-7.943,0-14.383-6.363-14.383-14.213
	v-5.684c0-7.849,6.44-14.213,14.383-14.213h398.436c7.943,0,14.383,6.363,14.383,14.213L469.601,497.787L469.601,497.787z"/>
<path style="opacity:0.1;enable-background:new    ;" d="M98.628,497.787v-5.684c0-7.849,6.44-14.213,14.383-14.213H56.782
	c-7.943,0-14.383,6.363-14.383,14.213v5.684c0,7.849,6.44,14.213,14.383,14.213h56.228C105.068,512,98.628,505.637,98.628,497.787z"
	/>
<g>
	<path style="fill:#EF645E;" d="M281.384,244.811h-8.822c-4.568,0-8.269-3.699-8.269-8.262c0-4.565,3.701-8.265,8.269-8.265h8.822
		c4.567,0,8.269,3.7,8.269,8.265C289.653,241.112,285.951,244.811,281.384,244.811z"/>
	<path style="fill:#EF645E;" d="M150.689,271.255h-8.822c-4.568,0-8.27-3.699-8.27-8.263c0-4.564,3.702-8.263,8.27-8.263h8.822
		c4.567,0,8.27,3.699,8.27,8.263C158.959,267.557,155.256,271.255,150.689,271.255z"/>
</g>
<g>
	<ellipse style="fill:#FFAB5F;" cx="185.428" cy="239.303" rx="9.924" ry="9.916"/>
	<ellipse style="fill:#FFAB5F;" cx="316.646" cy="263.544" rx="9.924" ry="9.916"/>
</g>
<g>
	<path style="fill:#78B591;" d="M240.866,257.212c1.83,1.83,1.831,4.794,0,6.624l-6.628,6.623c-1.831,1.83-4.798,1.829-6.629,0
		l-6.628-6.623c-1.829-1.829-1.831-4.794,0-6.624l6.628-6.62c1.831-1.83,4.798-1.829,6.629,0L240.866,257.212z"/>
	<path style="fill:#78B591;" d="M372.906,240.398c1.83,1.83,1.831,4.794,0,6.624l-6.628,6.622c-1.832,1.83-4.799,1.829-6.628,0
		l-6.629-6.622c-1.83-1.829-1.831-4.794,0-6.624l6.629-6.622c1.829-1.83,4.796-1.828,6.628,0L372.906,240.398z"/>
</g>
<g>
</g>
<g>
</g>
<g>
</g>
<g>
</g>
<g>
</g>
<g>
</g>
<g>
</g>
<g>
</g>
<g>
</g>
<g>
</g>
<g>
</g>
<g>
</g>
<g>
</g>
<g>
</g>
<g>
</g>
</svg>
