<?xml version="1.0" encoding="iso-8859-1"?>
<!-- Generator: Adobe Illustrator 19.0.0, SVG Export Plug-In . SVG Version: 6.00 Build 0)  -->
<svg version="1.1" id="Layer_1" xmlns="http://www.w3.org/2000/svg" xmlns:xlink="http://www.w3.org/1999/xlink" x="0px" y="0px"
	 viewBox="0 0 511.998 511.998" style="enable-background:new 0 0 511.998 511.998;" xml:space="preserve">
<path style="fill:#BCA668;" d="M301.144,424.292h-90.29l-27.185,66.22c-1.296,3.157-0.933,6.748,0.968,9.581
	c1.901,2.834,5.089,4.533,8.501,4.533H318.86c3.413,0,6.6-1.698,8.501-4.533c1.9-2.833,2.262-6.425,0.968-9.581L301.144,424.292z"/>
<path style="opacity:0.1;enable-background:new    ;" d="M206.064,500.093c-1.901-2.833-2.263-6.425-0.968-9.581l27.185-66.22
	h-21.428l-27.185,66.22c-1.296,3.157-0.933,6.748,0.968,9.581c1.901,2.834,5.089,4.533,8.501,4.533h21.428
	C211.153,504.626,207.965,502.927,206.064,500.093z"/>
<path style="fill:#F48911;" d="M183.24,334.333c-3.997,3.995-10.477,3.995-14.475,0l-47.951-47.925
	c-3.998-3.996-3.998-10.472,0-14.469l47.951-47.926c3.998-3.996,10.477-3.996,14.475,0l47.951,47.926
	c3.997,3.996,3.997,10.472,0,14.469L183.24,334.333z"/>
<path style="fill:#BCA668;" d="M323.049,321.163l-31.524-136.784c-1.557-6.757-7.576-11.545-14.514-11.545h-42.026
	c-6.939,0-12.956,4.787-14.515,11.545l-31.524,136.784H323.049z"/>
<path style="opacity:0.1;enable-background:new    ;" d="M256.651,172.833h-21.665c-6.939,0-12.956,4.787-14.515,11.545
	l-31.524,136.784h21.665l31.524-136.784C243.695,177.62,249.712,172.833,256.651,172.833z"/>
<path style="fill:#B0CE6F;" d="M353.409,362.526c-3.997,3.995-10.477,3.995-14.475,0L290.984,314.6
	c-3.999-3.995-3.999-10.472-0.002-14.468l47.951-47.927c3.998-3.994,10.477-3.994,14.475,0l47.951,47.927
	c3.997,3.996,3.997,10.472,0,14.468L353.409,362.526z"/>
<g>
	<path style="fill:#BCA668;" d="M97.984,327.797c0,11.653-9.451,21.101-21.111,21.101H26.974c-11.66,0-21.111-9.448-21.111-21.101
		l0,0c0-11.654,9.451-21.101,21.111-21.101h49.899C88.533,306.696,97.984,316.143,97.984,327.797L97.984,327.797z"/>
	<path style="fill:#BCA668;" d="M506.135,327.797c0,11.653-9.452,21.101-21.111,21.101h-49.9c-11.658,0-21.11-9.448-21.11-21.101
		l0,0c0-11.654,9.452-21.101,21.11-21.101h49.9C496.683,306.696,506.135,316.143,506.135,327.797L506.135,327.797z"/>
</g>
<path style="fill:#FFC38D;" d="M147.911,259.54c28.385,28.369,36.559,66.196,18.26,84.487c-18.301,18.29-56.148,10.121-84.531-18.25
	c-28.385-28.369-36.559-66.196-18.26-84.487C81.681,222.999,119.526,231.17,147.911,259.54z"/>
<g>
	<path style="fill:#E2A069;" d="M113.608,269.056l-43.384,43.362c3.028,4.177,6.457,8.254,10.26,12.167
		c0.239-0.19,44.376-44.271,44.376-44.271c3.109-3.108,3.111-8.147,0.003-11.256C121.755,265.948,116.715,265.948,113.608,269.056z"
		/>
	<path style="fill:#E2A069;" d="M100.385,252.971c3.631,3.629,3.629,9.511-0.001,13.14c-3.63,3.63-9.517,3.631-13.148,0.001
		s-3.631-9.513,0-13.142C90.867,249.342,96.754,249.341,100.385,252.971z"/>
</g>
<ellipse style="fill:#B0CE6F;" cx="191.382" cy="306.059" rx="35.185" ry="35.166"/>
<ellipse style="fill:#F48911;" cx="393.539" cy="311.168" rx="35.185" ry="35.167"/>
<path style="fill:#FFC38D;" d="M293.334,376.594c-3.997,3.995-10.478,3.995-14.476,0l-47.95-47.926
	c-3.999-3.996-3.999-10.472-0.001-14.469l47.95-47.925c3.998-3.996,10.477-3.996,14.476,0l47.951,47.925
	c3.997,3.997,3.997,10.472,0,14.469L293.334,376.594z"/>
<path style="fill:#D8C27C;" d="M47.691,306.696c8.643,84.056,79.703,149.621,166.085,149.621h84.446
	c86.382,0,157.441-65.565,166.085-149.621L47.691,306.696L47.691,306.696z"/>
<path style="opacity:0.1;enable-background:new    ;" d="M68.962,306.696H47.691c8.643,84.056,79.703,149.621,166.085,149.621
	h21.271C148.665,456.317,77.607,390.752,68.962,306.696z"/>
<g>
	<path style="fill:#FCE9C3;" d="M168.728,194.795h-60.623c-25.049,0-45.429-20.371-45.429-45.409
		c0-25.039,20.38-45.409,45.429-45.409h27.896c4.396,0,7.959,3.563,7.959,7.959c0,4.396-3.563,7.959-7.959,7.959h-27.896
		c-16.272,0-29.511,13.23-29.511,29.492s13.239,29.492,29.511,29.492h60.623c4.396,0,7.959,3.563,7.959,7.959
		C176.686,191.232,173.123,194.795,168.728,194.795z"/>
	<path style="fill:#FCE9C3;" d="M195.939,119.894h-32.727c-4.395,0-7.958-3.563-7.958-7.959s3.563-7.959,7.958-7.959h32.727
		c18.703,0,33.918-15.207,33.918-33.899c0-18.692-15.217-33.898-33.918-33.898h-36.952c-4.395,0-7.959-3.563-7.959-7.959
		c0-4.395,3.563-7.958,7.959-7.958h36.952c27.48,0,49.835,22.347,49.835,49.815C245.776,97.546,223.419,119.894,195.939,119.894z"/>
	<path style="fill:#FCE9C3;" d="M378.346,83.782h-52.903c-4.396,0-7.958-3.563-7.958-7.959c0-4.395,3.563-7.958,7.958-7.958h52.903
		c14.332,0,25.992-11.652,25.992-25.975c0-14.321-11.66-25.973-25.992-25.973h-23.423c-4.396,0-7.959-3.563-7.959-7.959
		c0-4.395,3.563-7.958,7.959-7.958h23.423c23.109,0,41.909,18.791,41.909,41.891C420.255,64.988,401.455,83.782,378.346,83.782z"/>
	<path style="fill:#FCE9C3;" d="M282.528,130.675c-4.396,0-7.959-3.563-7.959-7.959v-18.461c0-20.066,16.332-36.391,36.405-36.391
		h44.328c4.396,0,7.959,3.563,7.959,7.958c0,4.396-3.563,7.959-7.959,7.959h-44.328c-11.297,0-20.488,9.184-20.488,20.474v18.461
		C290.486,127.112,286.923,130.675,282.528,130.675z"/>
	<path style="fill:#FCE9C3;" d="M381.673,206.558h-52.948c-4.396,0-7.959-3.563-7.959-7.959c0-4.396,3.563-7.959,7.959-7.959h52.948
		c15.206,0,27.577-12.363,27.577-27.56c0-15.197-12.371-27.559-27.577-27.559h-19.009c-4.396,0-7.959-3.563-7.959-7.959
		c0-4.395,3.563-7.959,7.959-7.959h19.009c23.983,0,43.494,19.504,43.494,43.477S405.657,206.558,381.673,206.558z"/>
</g>
<path style="fill:#D8C27C;" d="M355.779,501.217c0,5.955-4.828,10.781-10.786,10.781H167.005c-5.958,0-10.786-4.827-10.786-10.781
	v-5.391c0-5.955,4.828-10.781,10.786-10.781h177.988c5.958,0,10.786,4.827,10.786,10.781L355.779,501.217L355.779,501.217z"/>
<path style="opacity:0.1;enable-background:new    ;" d="M189.125,501.217v-5.391c0-5.955,4.828-10.781,10.786-10.781h-32.907
	c-5.958,0-10.786,4.827-10.786,10.781v5.391c0,5.955,4.828,10.781,10.786,10.781h32.907
	C193.954,511.998,189.125,507.17,189.125,501.217z"/>
<g>
	<path style="fill:#FFFFFF;" d="M375.065,354.467c16.434,6.808,21.953,12.327,28.761,28.761
		c6.808-16.435,12.326-21.953,28.761-28.761c-16.435-6.808-21.953-12.326-28.761-28.761
		C397.018,342.14,391.499,347.659,375.065,354.467z"/>
	<circle style="fill:#FFFFFF;" cx="373.174" cy="391.688" r="12.689"/>
</g>
<g>
</g>
<g>
</g>
<g>
</g>
<g>
</g>
<g>
</g>
<g>
</g>
<g>
</g>
<g>
</g>
<g>
</g>
<g>
</g>
<g>
</g>
<g>
</g>
<g>
</g>
<g>
</g>
<g>
</g>
</svg>
