<?xml version="1.0" encoding="iso-8859-1"?>
<!-- Generator: Adobe Illustrator 19.0.0, SVG Export Plug-In . SVG Version: 6.00 Build 0)  -->
<svg version="1.1" id="Layer_1" xmlns="http://www.w3.org/2000/svg" xmlns:xlink="http://www.w3.org/1999/xlink" x="0px" y="0px"
	 viewBox="0 0 512.001 512.001" style="enable-background:new 0 0 512.001 512.001;" xml:space="preserve">
<path style="fill:#FFEA33;" d="M448.148,225.592c6.855,6.855,2.697,20.989,6.187,29.421c3.618,8.742,16.434,15.867,16.432,25.182
	c0.002,9.31-12.817,16.439-16.432,25.182c-3.489,8.431,0.669,22.565-6.186,29.419c-6.856,6.856-20.987,2.697-29.419,6.185
	c-8.742,3.616-15.871,16.433-25.184,16.43c-9.316,0.003-16.438-12.813-25.182-16.431c-8.429-3.49-22.565,0.669-29.418-6.186
	c-6.856-6.855-2.697-20.989-6.188-29.421c-3.616-8.742-16.433-15.865-16.43-25.181c-0.003-9.312,12.814-16.441,16.431-25.183
	c3.49-8.432-0.672-22.564,6.185-29.42c6.856-6.857,20.987-2.697,29.42-6.185c8.743-3.616,15.871-16.433,25.181-16.432
	c9.315-0.001,16.443,12.813,25.183,16.43C427.158,222.896,441.293,218.737,448.148,225.592z"/>
<path style="fill:#FFB792;" d="M448.148,225.592c6.855,6.855,2.697,20.989,6.187,29.421c3.618,8.742,16.434,15.867,16.432,25.182
	c0.002,9.31-12.817,16.439-16.432,25.182c-3.489,8.431,0.669,22.565-6.186,29.419c-6.856,6.856-20.987,2.697-29.419,6.185
	c-8.742,3.616-15.871,16.433-25.184,16.43c-9.316,0.003-16.438-12.813-25.182-16.431c-8.429-3.49-22.565,0.669-29.418-6.186
	c-6.856-6.855-2.697-20.989-6.188-29.421c-3.616-8.742-16.433-15.865-16.43-25.181c-0.003-9.312,12.814-16.441,16.431-25.183
	c3.49-8.432-0.672-22.564,6.185-29.42c6.856-6.857,20.987-2.697,29.42-6.185c8.743-3.616,15.871-16.433,25.181-16.432
	c9.315-0.001,16.443,12.813,25.183,16.43C427.158,222.896,441.293,218.737,448.148,225.592z"/>
<circle style="fill:#F9D9CA;" cx="393.541" cy="280.19" r="43.488"/>
<path style="fill:#FFB792;" d="M409.787,280.194c0,8.968-7.271,16.239-16.241,16.239c-8.965,0-16.237-7.27-16.237-16.239
	c0-8.967,7.271-16.238,16.237-16.238C402.516,263.956,409.787,271.226,409.787,280.194z"/>
<path style="fill:#FFF4BD;" d="M292.289,449.424c-33.998,0-61.558-27.561-61.558-61.559V261.054
	c0-33.999,27.56-61.558,61.558-61.558l0,0c34,0,61.561,27.56,61.561,61.558l-0.002,126.811
	C353.849,421.863,326.289,449.424,292.289,449.424L292.289,449.424z"/>
<path style="fill:#FFE783;" d="M255.355,261.054c0-20.367,16.569-36.936,36.935-36.936c20.368,0,36.936,16.568,36.936,36.936
	v126.811c0,20.366-16.568,36.936-36.936,36.936c-20.365,0-36.935-16.57-36.935-36.936L255.355,261.054L255.355,261.054z"/>
<path style="fill:#FFF4BD;" d="M279.979,261.054c0-6.789,5.521-12.312,12.31-12.312c6.789,0,12.313,5.523,12.313,12.312v126.811
	c0,6.788-5.524,12.312-12.313,12.312c-6.789,0-12.31-5.524-12.31-12.312V261.054z"/>
<path style="fill:#B0CE6F;" d="M183.512,225.328c0,14.266-11.566,25.832-25.834,25.832l0,0c-14.266,0-25.831-11.565-25.831-25.832
	l0,0c0-14.267,11.564-25.833,25.831-25.833l0,0C171.946,199.495,183.512,211.061,183.512,225.328L183.512,225.328z"/>
<path style="fill:#FFF4BD;" d="M163.602,313.258v-37.352c0-33.998-27.561-61.559-61.558-61.559c-34,0-61.56,27.561-61.56,61.559
	v37.352H163.602z"/>
<path style="fill:#FFE783;" d="M138.979,313.258v-37.352c0-20.366-16.57-36.936-36.935-36.936c-20.367,0-36.937,16.57-36.937,36.936
	v37.352H138.979z"/>
<g>
	<path style="fill:#FFF4BD;" d="M114.354,313.258v-37.352c0-6.789-5.522-12.312-12.31-12.312c-6.791,0-12.313,5.523-12.313,12.312
		v37.352H114.354z"/>
	<path style="fill:#FFF4BD;" d="M200.323,473.27c-33.999,0-61.56-27.56-61.56-61.559V284.899c0-33.998,27.561-61.558,61.56-61.558
		l0,0c33.998,0,61.557,27.561,61.557,61.558V411.71C261.88,445.71,234.32,473.27,200.323,473.27L200.323,473.27z"/>
</g>
<path style="fill:#FFE783;" d="M163.387,284.899c0-20.365,16.569-36.936,36.936-36.936c20.365,0,36.934,16.57,36.934,36.936V411.71
	c0,20.366-16.568,36.936-36.934,36.936s-36.936-16.569-36.936-36.936V284.899z"/>
<path style="fill:#FFF4BD;" d="M188.01,284.899c0-6.788,5.523-12.311,12.313-12.311c6.788,0,12.309,5.523,12.309,12.311V411.71
	c0,6.789-5.521,12.312-12.309,12.312c-6.79,0-12.313-5.522-12.313-12.312V284.899z"/>
<path style="fill:#FF8150;" d="M85.61,283.948c0,14.266-11.565,25.832-25.833,25.832l0,0c-14.265,0-25.833-11.566-25.833-25.832l0,0
	c0-14.266,11.567-25.832,25.833-25.832l0,0C74.044,258.116,85.61,269.682,85.61,283.948L85.61,283.948z"/>
<path style="fill:#759B84;" d="M361.197,490.962c0,11.619-9.421,21.039-21.04,21.039H171.845c-11.621,0-21.04-9.42-21.04-21.039
	v-19.637c0-11.619,9.419-21.039,21.04-21.039h168.312c11.619,0,21.04,9.42,21.04,21.039V490.962z"/>
<path style="opacity:0.1;enable-background:new    ;" d="M195.23,490.962v-19.637c0-11.619,9.42-21.039,21.04-21.039h-44.425
	c-11.621,0-21.04,9.42-21.04,21.039v19.637c0,11.619,9.419,21.039,21.04,21.039h44.425
	C204.65,512.001,195.23,502.581,195.23,490.962z"/>
<path style="fill:#78B591;" d="M198.404,481.143c-98.355,0-178.368-80.016-178.368-178.368c0-6.842,5.546-12.386,12.386-12.386
	h447.159c6.839,0,12.385,5.545,12.385,12.386c0,98.352-80.014,178.368-178.368,178.368L198.404,481.143L198.404,481.143z"/>
<path style="opacity:0.1;enable-background:new    ;" d="M67.118,302.776c0-6.842,5.546-12.386,12.386-12.386H32.421
	c-6.841,0-12.386,5.545-12.386,12.386c0,98.352,80.013,178.368,178.368,178.368h47.083
	C147.132,481.143,67.118,401.128,67.118,302.776z"/>
<g>
	<path style="fill:#609174;" d="M285.267,323.484H21.245c0.625,5.381,1.484,10.691,2.578,15.917h261.444
		c4.396,0,7.958-3.563,7.958-7.959C293.224,327.047,289.662,323.484,285.267,323.484z"/>
	<path style="fill:#609174;" d="M114.204,361.498H29.979c1.898,5.429,4.051,10.74,6.446,15.917h77.78
		c4.396,0,7.958-3.563,7.958-7.958C122.162,365.061,118.6,361.498,114.204,361.498z"/>
</g>
<g>
	<path style="fill:#F2D8A0;" d="M190.961,164.774h-56.862c-23.768,0-43.105-19.337-43.105-43.105s19.337-43.104,43.105-43.104
		h26.165c4.396,0,7.958,3.563,7.958,7.959c0,4.396-3.562,7.958-7.958,7.958h-26.165c-14.991,0-27.188,12.196-27.188,27.188
		s12.197,27.188,27.188,27.188h56.862c4.396,0,7.959,3.563,7.959,7.958C198.92,161.211,195.357,164.774,190.961,164.774z"/>
	<path style="fill:#F2D8A0;" d="M217.714,94.481h-30.697c-4.396,0-7.958-3.563-7.958-7.958c0-4.395,3.562-7.959,7.958-7.959h30.698
		c17.271,0,31.322-14.052,31.322-31.323s-14.05-31.324-31.322-31.324h-34.66c-4.396,0-7.959-3.563-7.959-7.959
		c0-4.395,3.563-7.958,7.959-7.958h34.66c26.047,0,47.239,21.192,47.239,47.24C264.953,73.29,243.761,94.481,217.714,94.481z"/>
</g>
<g>
	<path style="fill:#FCE9C3;" d="M349.339,120.766h-25.297c-21.947,0-39.804-17.856-39.804-39.804s17.857-39.803,39.804-39.803
		h21.971c4.396,0,7.959,3.563,7.959,7.958c0,4.396-3.563,7.959-7.959,7.959h-21.971c-13.17,0-23.886,10.715-23.886,23.886
		s10.716,23.887,23.886,23.887h25.297c4.396,0,7.958,3.563,7.958,7.959C357.297,117.203,353.734,120.766,349.339,120.766z"/>
	<path style="fill:#FCE9C3;" d="M413.92,164.774c-4.396,0-7.959-3.563-7.959-7.959V139.49c0-10.325-8.4-18.724-18.725-18.724
		h-41.578c-4.396,0-7.959-3.563-7.959-7.959c0-4.396,3.563-7.959,7.959-7.959h41.578c19.102,0,34.642,15.54,34.642,34.641v17.325
		C421.878,161.211,418.315,164.774,413.92,164.774z"/>
</g>
<g>
</g>
<g>
</g>
<g>
</g>
<g>
</g>
<g>
</g>
<g>
</g>
<g>
</g>
<g>
</g>
<g>
</g>
<g>
</g>
<g>
</g>
<g>
</g>
<g>
</g>
<g>
</g>
<g>
</g>
</svg>
