<?xml version="1.0" encoding="iso-8859-1"?>
<!-- Generator: Adobe Illustrator 19.0.0, SVG Export Plug-In . SVG Version: 6.00 Build 0)  -->
<svg version="1.1" id="Layer_1" xmlns="http://www.w3.org/2000/svg" xmlns:xlink="http://www.w3.org/1999/xlink" x="0px" y="0px"
	 viewBox="0 0 512 512" style="enable-background:new 0 0 512 512;" xml:space="preserve">
<path style="fill:#CCCCCC;" d="M455.446,470.401c0,9.758-7.879,17.664-17.598,17.664H74.152c-9.719,0-17.598-7.906-17.598-17.664
	V152.466c0-9.753,7.879-17.662,17.598-17.662H437.85c9.719,0,17.598,7.909,17.598,17.662v317.935H455.446z"/>
<path style="fill:#EF645E;" d="M304.102,271.396h-96.203c-6.478,0-11.732,5.273-11.732,11.776v204.892h119.667V283.172
	C315.833,276.669,310.581,271.396,304.102,271.396z"/>
<rect x="217.906" y="293.135" style="fill:#FFCC60;" width="76.199" height="173.195"/>
<path style="fill:#EF645E;" d="M95.627,456.183c-6.002,0-10.867-4.864-10.867-10.868V287.524c0-6,4.865-10.867,10.867-10.867h61.007
	c6.002,0,10.868,4.867,10.868,10.867v157.791c0,6.003-4.866,10.868-10.868,10.868L95.627,456.183L95.627,456.183z"/>
<rect x="106.498" y="298.392" style="fill:#FFCC60;" width="39.274" height="136.059"/>
<path style="fill:#EF645E;" d="M355.364,456.183c-6.001,0-10.867-4.864-10.867-10.868V287.524c0-6,4.866-10.867,10.867-10.867
	h61.008c6.002,0,10.867,4.867,10.867,10.867v157.791c0,6.003-4.865,10.868-10.867,10.868L355.364,456.183L355.364,456.183z"/>
<rect x="366.227" y="298.392" style="fill:#FFCC60;" width="39.274" height="136.059"/>
<path style="fill:#C14616;" d="M276.649,378.6c-3.001,0-5.433-2.433-5.433-5.434v-15.412c0-3.002,2.432-5.434,5.433-5.434
	c3.002,0,5.434,2.433,5.434,5.434v15.412C282.082,376.168,279.65,378.6,276.649,378.6z"/>
<path style="opacity:0.1;enable-background:new    ;" d="M455.446,245.605v-60.189h-30.998c-6.002,0-10.867,4.864-10.867,10.867
	c0-6.003-4.866-10.867-10.867-10.867h-41.298c-6.001,0-10.867,4.864-10.867,10.867c0-6.003-4.865-10.867-10.867-10.867h-41.297
	c-6.001,0-10.867,4.864-10.867,10.867c0-6.003-4.866-10.867-10.868-10.867h-41.299c-6.002,0-10.868,4.864-10.868,10.867
	c0-6.003-4.866-10.867-10.867-10.867H172.32c-6.002,0-10.868,4.864-10.868,10.867c0-6.003-4.866-10.867-10.868-10.867h-41.297
	c-6.001,0-10.867,4.864-10.867,10.867c0-6.003-4.866-10.867-10.867-10.867H56.554v60.189c3.244,1.131,6.724,1.754,10.349,1.754
	c17.377,0,31.516-14.137,31.516-31.516c0,17.38,14.139,31.516,31.516,31.516s31.516-14.137,31.516-31.516
	c0,17.38,14.138,31.516,31.515,31.516c17.379,0,31.516-14.137,31.516-31.516c0,17.38,14.139,31.516,31.516,31.516
	s31.516-14.137,31.516-31.516c0,17.38,14.138,31.516,31.516,31.516c17.376,0,31.515-14.137,31.515-31.516
	c0,17.38,14.139,31.516,31.516,31.516s31.516-14.137,31.516-31.516c0,17.38,14.139,31.516,31.515,31.516
	C448.722,247.359,452.202,246.736,455.446,245.605z"/>
<path style="fill:#EF645E;" d="M66.902,232.1c-17.377,0-31.515-14.137-31.515-31.516v-19.559c0-6.003,4.865-10.868,10.867-10.868
	h41.297c6.001,0,10.867,4.864,10.867,10.868v19.559C98.419,217.963,84.28,232.1,66.902,232.1z"/>
<path style="fill:#FFFFFF;" d="M129.935,232.1c-17.377,0-31.516-14.137-31.516-31.516v-19.559c0-6.003,4.866-10.868,10.867-10.868
	h41.297c6.002,0,10.868,4.864,10.868,10.868v19.559C161.452,217.963,147.313,232.1,129.935,232.1z"/>
<path style="fill:#EF645E;" d="M192.967,232.1c-17.377,0-31.515-14.137-31.515-31.516v-19.559c0-6.003,4.865-10.868,10.868-10.868
	h41.297c6.001,0,10.867,4.864,10.867,10.868v19.559C224.484,217.963,210.346,232.1,192.967,232.1z"/>
<path style="fill:#FFFFFF;" d="M256,232.1c-17.377,0-31.516-14.137-31.516-31.516v-19.559c0-6.003,4.866-10.868,10.868-10.868
	h41.297c6.002,0,10.868,4.864,10.868,10.868v19.559C287.516,217.963,273.377,232.1,256,232.1z"/>
<path style="fill:#EF645E;" d="M319.033,232.1c-17.378,0-31.516-14.137-31.516-31.516v-19.559c0-6.003,4.866-10.868,10.867-10.868
	h41.297c6.002,0,10.867,4.864,10.867,10.868v19.559C350.548,217.963,336.409,232.1,319.033,232.1z"/>
<path style="fill:#FFFFFF;" d="M382.065,232.1c-17.377,0-31.516-14.137-31.516-31.516v-19.559c0-6.003,4.866-10.868,10.867-10.868
	h41.298c6.001,0,10.867,4.864,10.867,10.868v19.559C413.581,217.963,399.442,232.1,382.065,232.1z"/>
<path style="fill:#EF645E;" d="M445.097,232.1c-17.376,0-31.515-14.137-31.515-31.516v-19.559c0-6.003,4.865-10.868,10.867-10.868
	h41.297c6.001,0,10.867,4.864,10.867,10.868v19.559C476.613,217.963,462.475,232.1,445.097,232.1z"/>
<path style="fill:#C14616;" d="M476.613,179.935v-48.776c0-8.63-7.038-15.624-15.72-15.624H51.107
	c-8.682,0-15.72,6.994-15.72,15.624v48.776H476.613z"/>
<path style="opacity:0.1;enable-background:new    ;" d="M460.893,115.534H51.107c-8.682,0-15.72,6.994-15.72,15.624v19.176
	c0-8.63,7.038-15.624,15.72-15.624h409.786c8.682,0,15.72,6.994,15.72,15.624v-19.176
	C476.613,122.529,469.575,115.534,460.893,115.534z"/>
<path style="fill:#EF645E;" d="M364.518,67.74h-41.173C311.884,41.938,286.051,23.935,256,23.935
	c-30.051,0-55.884,18.003-67.345,43.805h-41.173c-5.498,0-9.955,4.457-9.955,9.954v63.716c0,5.5,4.456,9.958,9.955,9.958h217.035
	c5.497,0,9.954-4.457,9.954-9.958V77.695C374.472,72.198,370.015,67.74,364.518,67.74z"/>
<path style="fill:#F7EEDF;" d="M164.696,124.2V94.91h23.959c10.739,0,20.471-6.326,24.83-16.141
	C220.95,61.962,237.638,51.104,256,51.104c18.361,0,35.05,10.859,42.514,27.666c4.36,9.814,14.091,16.141,24.83,16.141h23.959V124.2
	H164.696z"/>
<path style="fill:#A5D289;" d="M483.255,399.749c-3.945,0-7.612,1.192-10.672,3.227c-1.03-9.755-9.251-17.358-19.244-17.358
	c-9.992,0-18.214,7.603-19.245,17.358c-3.059-2.035-6.727-3.227-10.673-3.227c-10.69,0-19.358,8.699-19.358,19.428v17.665
	c0,10.73,8.668,19.428,19.358,19.428c9.993,0,49.842,0,59.833,0c10.692,0,19.358-8.699,19.358-19.428v-17.665
	C502.613,408.448,493.947,399.749,483.255,399.749z"/>
<path style="fill:#3585B7;" d="M512,476.289c0,6.503-5.253,11.776-11.732,11.776H406.41c-6.479,0-11.733-5.273-11.733-11.776
	v-35.327c0-6.504,5.253-11.775,11.733-11.775h93.858c6.478,0,11.732,5.271,11.732,11.775V476.289z"/>
<path style="fill:#A5D289;" d="M88.578,399.749c-3.946,0-7.614,1.192-10.673,3.227c-1.031-9.755-9.252-17.358-19.245-17.358
	c-9.992,0-18.214,7.603-19.244,17.358c-3.06-2.035-6.727-3.227-10.673-3.227c-10.692,0-19.358,8.699-19.358,19.428v17.665
	c0,10.73,8.667,19.428,19.358,19.428c9.992,0,49.841,0,59.834,0c10.69,0,19.358-8.699,19.358-19.428v-17.665
	C107.936,408.448,99.269,399.749,88.578,399.749z"/>
<path style="fill:#3585B7;" d="M117.322,476.289c0,6.503-5.254,11.776-11.733,11.776H11.732C5.253,488.064,0,482.791,0,476.289
	v-35.327c0-6.504,5.253-11.775,11.732-11.775h93.858c6.478,0,11.733,5.271,11.733,11.775v35.327H117.322z"/>
<rect x="196.172" y="412.707" style="fill:#EF645E;" width="119.667" height="75.357"/>
<rect x="219.633" y="436.253" style="fill:#C14616;" width="72.744" height="28.261"/>
<path style="opacity:0.1;enable-background:new    ;" d="M500.268,429.188H406.41c-6.479,0-11.733,5.271-11.733,11.775v21.828
	c0-6.504,5.253-11.775,11.733-11.775h93.858c6.478,0,11.732,5.271,11.732,11.775v-21.828
	C512,434.459,506.747,429.188,500.268,429.188z"/>
<path style="opacity:0.1;enable-background:new    ;" d="M105.59,429.188H11.732C5.253,429.188,0,434.459,0,440.962v21.828
	c0-6.504,5.253-11.775,11.732-11.775h93.858c6.478,0,11.733,5.271,11.733,11.775v-21.828
	C117.322,434.459,112.068,429.188,105.59,429.188z"/>
<g>
</g>
<g>
</g>
<g>
</g>
<g>
</g>
<g>
</g>
<g>
</g>
<g>
</g>
<g>
</g>
<g>
</g>
<g>
</g>
<g>
</g>
<g>
</g>
<g>
</g>
<g>
</g>
<g>
</g>
</svg>
