<?xml version="1.0" encoding="iso-8859-1"?>
<!-- Generator: Adobe Illustrator 19.0.0, SVG Export Plug-In . SVG Version: 6.00 Build 0)  -->
<svg version="1.1" id="Layer_1" xmlns="http://www.w3.org/2000/svg" xmlns:xlink="http://www.w3.org/1999/xlink" x="0px" y="0px"
	 viewBox="0 0 512 512" style="enable-background:new 0 0 512 512;" xml:space="preserve">
<g>
	<path style="fill:#BCD7DD;" d="M460.504,468.718c-4.465,0-8.083-3.62-8.083-8.051V307.233c0-4.499,3.618-8.119,8.083-8.119
		c4.465,0,8.084,3.62,8.084,8.119v153.434C468.589,465.099,464.969,468.718,460.504,468.718z"/>
	<path style="fill:#BCD7DD;" d="M51.496,468.718c-4.465,0-8.084-3.62-8.084-8.051V307.233c0-4.499,3.62-8.119,8.084-8.119
		s8.083,3.62,8.083,8.119v153.434C59.58,465.099,55.962,468.718,51.496,468.718z"/>
</g>
<path style="fill:#D6ECF2;" d="M6.091,475.125c-2.158,0-4.155-1.155-5.24-3.026c-1.088-1.874-1.102-4.186-0.04-6.072
	c5.357-9.505,25.725-15.893,50.685-15.893c24.961,0,45.328,6.387,50.684,15.893c1.064,1.886,1.05,4.198-0.039,6.072
	c-1.085,1.871-3.081,3.026-5.239,3.026H6.091z"/>
<path style="fill:#CEE9FF;" d="M186.119,451.334c-1.798,0-3.556-0.529-5.056-1.527c-38.592-25.604-61.63-68.526-61.63-114.814
	c0-29.396,9.62-58.564,27.09-82.133c4.147-5.592,10.765-8.929,17.701-8.929H348.37c6.936,0,13.552,3.336,17.698,8.927
	c17.472,23.573,27.093,52.741,27.093,82.135c0,46.288-23.04,89.21-61.63,114.814c-1.502,0.998-3.259,1.527-5.057,1.527
	L186.119,451.334L186.119,451.334z"/>
<path style="fill:#D6ECF2;" d="M460.504,332.384c-28.396,0-51.496-23.209-51.496-51.74V143.267c0-3.284,2.65-5.947,5.919-5.947
	h91.153c3.271,0,5.919,2.663,5.919,5.947v137.377C512,309.175,488.899,332.384,460.504,332.384z"/>
<path style="fill:#F2D06F;" d="M409.009,212.667v67.977c0,28.531,23.1,51.74,51.496,51.74c28.395,0,51.496-23.209,51.496-51.74
	v-67.977L409.009,212.667L409.009,212.667z"/>
<path style="fill:#D6ECF2;" d="M51.496,332.384C23.101,332.384,0,309.175,0,280.644V143.267c0-3.284,2.649-5.947,5.919-5.947h91.153
	c3.269,0,5.919,2.663,5.919,5.947v137.377C102.991,309.175,79.892,332.384,51.496,332.384z"/>
<path style="fill:#F2D06F;" d="M0,212.667v67.977c0,28.531,23.101,51.74,51.496,51.74c28.396,0,51.496-23.209,51.496-51.74v-67.977
	L0,212.667L0,212.667z"/>
<g>
	<path style="fill:#FFCC60;" d="M247.404,160.025c-23.596,7.917-30.05,14.337-38.014,37.795
		c-7.963-23.458-14.42-29.878-38.015-37.795c23.596-7.918,30.052-14.336,38.015-37.796
		C217.354,145.69,223.808,152.107,247.404,160.025z"/>
	<path style="fill:#FFCC60;" d="M328.277,69.345c-20.269,6.8-25.813,12.314-32.655,32.465
		c-6.842-20.151-12.386-25.666-32.656-32.465c20.27-6.802,25.814-12.315,32.656-32.469
		C302.463,57.029,308.007,62.542,328.277,69.345z"/>
	<path style="fill:#FFCC60;" d="M341.164,183.489c-14.906,5.003-18.985,9.057-24.015,23.877c-5.031-14.82-9.11-18.874-24.016-23.877
		c14.906-5.002,18.986-9.056,24.016-23.878C322.18,174.434,326.258,178.487,341.164,183.489z"/>
	<path style="fill:#FFCC60;" d="M284.881,348.093c0,15.86-12.797,28.721-28.584,28.721c-15.786,0-28.585-12.861-28.585-28.721
		c0-15.862,12.799-44.245,28.585-44.245C272.084,303.848,284.881,332.232,284.881,348.093z"/>
</g>
<circle style="fill:#FFFFFF;" cx="256" cy="349.236" r="13.473"/>
<path style="fill:#EF645E;" d="M286.68,381.16h-60.77c-4.794,0-8.681,3.905-8.681,8.722v61.454h78.132v-61.454
	C295.362,385.066,291.474,381.16,286.68,381.16z"/>
<g>
	<rect x="409.004" y="178.949" style="fill:#F7EEDF;" width="102.996" height="52.339"/>
	<rect y="178.949" style="fill:#F7EEDF;" width="102.996" height="52.339"/>
</g>
<g>
	<path style="fill:#FFFFFF;" d="M436.235,242.937c-4.465,0-8.084-3.618-8.084-8.083v-1.19c0-4.465,3.62-8.084,8.084-8.084
		c4.465,0,8.084,3.62,8.084,8.084v1.19C444.32,239.318,440.701,242.937,436.235,242.937z"/>
	<path style="fill:#FFFFFF;" d="M465.831,252.453c-4.465,0-8.084-3.62-8.084-8.084v-1.19c0-4.465,3.62-8.083,8.084-8.083
		c4.465,0,8.084,3.618,8.084,8.083v1.19C473.917,248.834,470.297,252.453,465.831,252.453z"/>
</g>
<g>
	<path style="fill:#CEAC59;" d="M440.97,272.671c-4.465,0-8.083-3.618-8.083-8.083v-1.19c0-4.465,3.618-8.084,8.083-8.084
		c4.465,0,8.084,3.62,8.084,8.084v1.19C449.055,269.053,445.436,272.671,440.97,272.671z"/>
	<path style="fill:#CEAC59;" d="M480.741,292.732c-3.349,0-6.064-2.715-6.064-6.064v-0.892c0-3.349,2.715-6.064,6.064-6.064
		c3.35,0,6.064,2.715,6.064,6.064v0.892C486.804,290.019,484.091,292.732,480.741,292.732z"/>
</g>
<path style="fill:#FFFFFF;" d="M452.81,301.216c-4.465,0-8.083-3.618-8.083-8.083v-1.19c0-4.465,3.618-8.083,8.083-8.083
	c4.465,0,8.084,3.618,8.084,8.083v1.19C460.894,297.597,457.275,301.216,452.81,301.216z"/>
<path style="opacity:0.1;enable-background:new    ;" d="M431.105,280.644V143.267c0-3.284,2.65-5.947,5.919-5.947h-22.096
	c-3.269,0-5.919,2.663-5.919,5.947v137.377c0,28.531,23.1,51.74,51.496,51.74c3.793,0,7.488-0.426,11.049-1.212
	C448.451,326.076,431.105,305.364,431.105,280.644z"/>
<g>
	<path style="fill:#FFFFFF;" d="M27.228,242.937c-4.465,0-8.084-3.618-8.084-8.083v-1.19c0-4.465,3.62-8.084,8.084-8.084
		c4.466,0,8.083,3.62,8.083,8.084v1.19C35.311,239.318,31.693,242.937,27.228,242.937z"/>
	<path style="fill:#FFFFFF;" d="M56.824,252.453c-4.465,0-8.084-3.62-8.084-8.084v-1.19c0-4.465,3.62-8.083,8.084-8.083
		s8.083,3.618,8.083,8.083v1.19C64.907,248.834,61.288,252.453,56.824,252.453z"/>
</g>
<g>
	<path style="fill:#CEAC59;" d="M31.963,272.671c-4.465,0-8.084-3.618-8.084-8.083v-1.19c0-4.465,3.62-8.084,8.084-8.084
		c4.466,0,8.083,3.62,8.083,8.084v1.19C40.047,269.053,36.428,272.671,31.963,272.671z"/>
	<path style="fill:#CEAC59;" d="M72.758,293.535c-3.535,0-6.4-2.865-6.4-6.4v-0.94c0-3.535,2.865-6.4,6.4-6.4
		c3.535,0,6.4,2.865,6.4,6.4v0.94C79.158,290.67,76.293,293.535,72.758,293.535z"/>
</g>
<g>
	<path style="fill:#FFFFFF;" d="M43.801,301.216c-4.465,0-8.084-3.618-8.084-8.083v-1.19c0-4.465,3.62-8.083,8.084-8.083
		c4.466,0,8.084,3.618,8.084,8.083v1.19C51.885,297.597,48.266,301.216,43.801,301.216z"/>
	<polygon style="fill:#FFFFFF;" points="248.255,381.16 217.229,412.186 217.229,427.427 263.497,381.16 	"/>
	<path style="fill:#FFFFFF;" d="M288.023,381.275l-70.06,70.06h15.242l62.124-62.124
		C295.021,385.159,291.961,381.889,288.023,381.275z"/>
	<polygon style="fill:#FFFFFF;" points="257.844,451.334 273.087,451.334 295.362,429.059 295.362,413.816 	"/>
</g>
<path style="opacity:0.1;enable-background:new    ;" d="M248.512,381.16H225.91c-4.794,0-8.681,3.905-8.681,8.722v61.454h22.602
	v-61.454C239.831,385.066,243.719,381.16,248.512,381.16z"/>
<path style="opacity:0.1;enable-background:new    ;" d="M153.6,334.994c0-29.396,9.62-58.564,27.09-82.133
	c4.147-5.592,10.765-8.929,17.701-8.929h-34.167c-6.937,0-13.554,3.336-17.701,8.929c-17.47,23.569-27.09,52.737-27.09,82.133
	c0,46.288,23.039,89.21,61.63,114.814c1.5,0.998,3.258,1.527,5.056,1.527h34.167c-1.798,0-3.556-0.529-5.056-1.527
	C176.639,424.205,153.6,381.281,153.6,334.994z"/>
<path style="fill:#D6ECF2;" d="M415.098,475.125c-2.157,0-4.155-1.155-5.239-3.026c-1.089-1.874-1.102-4.186-0.039-6.072
	c5.356-9.505,25.723-15.893,50.684-15.893c24.959,0,45.328,6.387,50.685,15.893c1.063,1.886,1.048,4.198-0.04,6.072
	c-1.086,1.871-3.081,3.026-5.24,3.026H415.098z"/>
<path style="fill:#ACEBE9;" d="M359.289,463.229c0,6.57-5.301,11.895-11.84,11.895H165.142c-6.538,0-11.838-5.325-11.838-11.895
	v-8.327c0-6.568,5.3-11.895,11.838-11.895h182.307c6.539,0,11.84,5.327,11.84,11.895L359.289,463.229L359.289,463.229z"/>
<path style="opacity:0.1;enable-background:new    ;" d="M22.583,280.644V143.267c0-3.284,2.649-5.947,5.918-5.947H5.919
	c-3.271,0-5.919,2.663-5.919,5.947v137.377c0,28.531,23.101,51.74,51.496,51.74c3.88,0,7.655-0.448,11.292-1.27
	C39.809,325.929,22.583,305.276,22.583,280.644z"/>
<path style="opacity:0.1;enable-background:new    ;" d="M198.766,463.229v-8.327c0-6.568,5.3-11.895,11.838-11.895h-45.461
	c-6.538,0-11.838,5.327-11.838,11.895v8.327c0,6.57,5.3,11.895,11.838,11.895h45.461C204.065,475.125,198.766,469.8,198.766,463.229
	z"/>
<g>
	<path style="fill:#FFFFFF;" d="M310.335,288.94c16.434,6.808,21.954,12.327,28.761,28.761
		c6.809-16.435,12.327-21.954,28.761-28.761c-16.435-6.809-21.953-12.327-28.761-28.761
		C332.289,276.614,326.769,282.133,310.335,288.94z"/>
	<circle style="fill:#FFFFFF;" cx="364.816" cy="328.244" r="12.689"/>
</g>
<g>
</g>
<g>
</g>
<g>
</g>
<g>
</g>
<g>
</g>
<g>
</g>
<g>
</g>
<g>
</g>
<g>
</g>
<g>
</g>
<g>
</g>
<g>
</g>
<g>
</g>
<g>
</g>
<g>
</g>
</svg>
