<?xml version="1.0" encoding="iso-8859-1"?>
<!-- Generator: Adobe Illustrator 19.0.0, SVG Export Plug-In . SVG Version: 6.00 Build 0)  -->
<svg version="1.1" id="Layer_1" xmlns="http://www.w3.org/2000/svg" xmlns:xlink="http://www.w3.org/1999/xlink" x="0px" y="0px"
	 viewBox="0 0 512 512" style="enable-background:new 0 0 512 512;" xml:space="preserve">
<path style="fill:#DDB690;" d="M68.611,475.44c-32.251,0-60.333-22.923-66.773-54.504c-0.682-3.341,0.176-6.811,2.331-9.451
	c2.157-2.639,5.386-4.171,8.796-4.171h486.069c3.411,0,6.639,1.532,8.796,4.171c2.158,2.64,3.013,6.11,2.332,9.45
	c-6.438,31.582-34.52,54.505-66.772,54.505H68.611z"/>
<path style="opacity:0.1;enable-background:new    ;" d="M47.101,420.936c-0.682-3.341,0.174-6.811,2.332-9.451
	c2.157-2.639,5.386-4.171,8.796-4.171H12.965c-3.41,0-6.638,1.532-8.796,4.171c-2.157,2.64-3.013,6.111-2.331,9.451
	c6.44,31.581,34.522,54.504,66.773,54.504h45.263C81.622,475.44,53.54,452.517,47.101,420.936z"/>
<path style="fill:#E8A364;" d="M211.548,353.565c0,12.42-10.071,22.488-22.493,22.488H30.529c-12.424,0-22.494-10.069-22.494-22.488
	l0,0c0-12.421,10.071-22.488,22.494-22.488h158.526C201.478,331.076,211.548,341.144,211.548,353.565L211.548,353.565z"/>
<path style="opacity:0.1;enable-background:new    ;" d="M52.486,353.565c0-12.421,10.071-22.488,22.494-22.488H30.529
	c-12.424,0-22.494,10.068-22.494,22.488c0,12.42,10.071,22.488,22.494,22.488h44.452C62.557,376.053,52.486,365.984,52.486,353.565z
	"/>
<path style="fill:#E8A364;" d="M503.965,353.565c0,12.42-10.071,22.488-22.492,22.488H322.944
	c-12.423,0-22.492-10.069-22.492-22.488l0,0c0-12.421,10.071-22.488,22.492-22.488h158.527
	C493.894,331.076,503.965,341.144,503.965,353.565L503.965,353.565z"/>
<path style="fill:#F2B079;" d="M357.757,353.565c0,12.42-10.072,22.488-22.494,22.488H176.737
	c-12.423,0-22.492-10.069-22.492-22.488l0,0c0-12.421,10.071-22.488,22.492-22.488h158.527
	C347.686,331.076,357.757,341.144,357.757,353.565L357.757,353.565z"/>
<path style="fill:#8C572C;" d="M487.009,270.671c0,8.638-7.004,15.64-15.644,15.64H40.635c-8.64,0-15.644-7.002-15.644-15.64
	v-32.324c0-8.638,7.004-15.64,15.644-15.64h430.731c8.64,0,15.644,7.003,15.644,15.64v32.324H487.009z"/>
<path style="opacity:0.1;enable-background:new    ;" d="M69.921,270.671v-32.324c0-8.638,7.005-15.64,15.644-15.64H40.635
	c-8.64,0-15.644,7.003-15.644,15.64v32.324c0,8.638,7.004,15.64,15.644,15.64h44.932C76.926,286.311,69.921,279.309,69.921,270.671z
	"/>
<path style="fill:#61D16B;" d="M492.051,305.875c2.775-3.638,4.443-8.167,4.443-13.096c0-11.947-9.687-21.633-21.637-21.633
	c-5.734,0-10.932,2.245-14.804,5.886c-3.874-3.64-9.072-5.886-14.806-5.886c-5.732,0-10.931,2.245-14.804,5.886
	c-3.872-3.64-9.071-5.886-14.805-5.886s-10.933,2.245-14.804,5.886c-3.872-3.64-9.072-5.886-14.805-5.886
	s-10.932,2.245-14.804,5.886c-3.873-3.64-9.072-5.886-14.804-5.886c-5.734,0-10.935,2.245-14.806,5.886
	c-3.872-3.64-9.071-5.886-14.804-5.886c-5.734,0-10.933,2.245-14.804,5.886c-3.872-3.64-9.072-5.886-14.806-5.886
	c-5.733,0-10.932,2.245-14.804,5.886c-3.871-3.64-9.071-5.886-14.805-5.886c-5.732,0-10.932,2.245-14.805,5.886
	c-3.871-3.64-9.07-5.886-14.804-5.886s-10.932,2.245-14.805,5.886c-3.871-3.64-9.071-5.886-14.804-5.886
	c-5.734,0-10.932,2.245-14.804,5.886c-3.871-3.64-9.071-5.886-14.805-5.886s-10.932,2.245-14.804,5.886
	c-3.872-3.64-9.072-5.886-14.805-5.886s-10.932,2.245-14.804,5.886c-3.871-3.64-9.07-5.886-14.804-5.886
	c-5.734,0-10.933,2.245-14.805,5.886c-3.871-3.64-9.071-5.886-14.805-5.886c-5.734,0-10.932,2.245-14.804,5.886
	c-3.871-3.64-9.071-5.886-14.805-5.886s-10.932,2.245-14.804,5.886c-3.871-3.64-9.071-5.886-14.805-5.886
	c-11.949,0-21.637,9.686-21.637,21.633c0,4.929,1.668,9.457,4.445,13.096H492.051z"/>
<path style="fill:#2E7C35;" d="M256,164.921c-4.465,0-8.084-3.62-8.084-8.084v-61.04c0-4.465,3.62-8.084,8.084-8.084
	c4.465,0,8.084,3.62,8.084,8.084v61.039C264.084,161.301,260.465,164.921,256,164.921z"/>
<ellipse style="fill:#FFEA92;" cx="256" cy="76.74" rx="40.188" ry="40.179"/>
<path style="opacity:0.1;enable-background:new    ;" d="M226.896,76.744c0-20.311,15.078-37.092,34.651-39.79
	c-1.813-0.252-3.663-0.389-5.548-0.389c-22.196,0-40.188,17.989-40.188,40.178c0,22.19,17.992,40.179,40.188,40.179
	c1.884,0,3.733-0.137,5.547-0.389C241.974,113.837,226.896,97.056,226.896,76.744z"/>
<path style="fill:#FFAB5F;" d="M256,98.15c-11.805,0-21.41-9.602-21.41-21.405c0-11.802,9.605-21.405,21.41-21.405
	s21.409,9.602,21.409,21.405c0,4.03-3.266,7.298-7.299,7.298c-4.031,0-7.298-3.266-7.298-7.298c0-3.755-3.056-6.811-6.812-6.811
	c-3.755,0-6.813,3.055-6.813,6.811c0,3.755,3.056,6.811,6.813,6.811c4.03,0,7.299,3.268,7.299,7.298
	C263.299,94.882,260.03,98.15,256,98.15z"/>
<path style="fill:#DDB690;" d="M475.879,169.677c-15.401-15.213-35.806-23.591-57.455-23.591h-37.52
	c-10.459,0-20.621,1.973-30.074,5.709c-9.454-3.737-19.615-5.709-30.073-5.709h-37.521c-10.459,0-20.62,1.973-30.074,5.709
	c-9.454-3.737-19.615-5.709-30.074-5.709h-37.52c-10.459,0-20.62,1.973-30.074,5.709c-9.453-3.737-19.615-5.709-30.074-5.709H87.897
	c-21.651,0-42.057,8.378-57.456,23.591c-15.383,15.197-24.01,35.466-24.294,57.076c-0.033,2.571,0.965,5.051,2.772,6.882
	c1.809,1.833,4.274,2.862,6.848,2.862h97.669h84.109h13.56h86.669h17.137h77.972h97.67c2.573,0,5.038-1.03,6.847-2.862
	c1.807-1.831,2.807-4.31,2.771-6.882C499.89,205.143,491.261,184.874,475.879,169.677z"/>
<path style="opacity:0.1;enable-background:new    ;" d="M39.811,226.754c0.283-21.611,8.911-41.88,24.293-57.076
	c15.399-15.213,35.804-23.591,57.456-23.591H87.897c-21.651,0-42.057,8.378-57.456,23.591
	c-15.383,15.197-24.01,35.466-24.294,57.076c-0.033,2.571,0.965,5.051,2.772,6.882c1.809,1.833,4.274,2.862,6.848,2.862h33.663
	c-2.575,0-5.04-1.03-6.848-2.862C40.776,231.805,39.777,229.325,39.811,226.754z"/>
<g>
	<path style="fill:#B28A6B;" d="M106.539,187.716H92.352c-4.437,0-8.033-3.595-8.033-8.032c0-4.436,3.597-8.031,8.033-8.031h14.187
		c4.438,0,8.033,3.595,8.033,8.031S110.975,187.716,106.539,187.716z"/>
	<path style="fill:#B28A6B;" d="M73.1,210.204H58.913c-4.437,0-8.033-3.595-8.033-8.032c0-4.436,3.597-8.032,8.033-8.032H73.1
		c4.437,0,8.033,3.595,8.033,8.032C81.133,206.607,77.537,210.204,73.1,210.204z"/>
	<path style="fill:#B28A6B;" d="M140.992,210.204h-14.188c-4.437,0-8.033-3.595-8.033-8.032c0-4.436,3.597-8.032,8.033-8.032h14.188
		c4.437,0,8.033,3.595,8.033,8.032C149.024,206.607,145.429,210.204,140.992,210.204z"/>
	<path style="fill:#B28A6B;" d="M222.054,187.716h-14.187c-4.437,0-8.033-3.595-8.033-8.032c0-4.436,3.597-8.031,8.033-8.031h14.187
		c4.438,0,8.033,3.595,8.033,8.031S226.492,187.716,222.054,187.716z"/>
	<path style="fill:#B28A6B;" d="M188.616,210.204h-14.187c-4.437,0-8.033-3.595-8.033-8.032c0-4.436,3.597-8.032,8.033-8.032h14.187
		c4.437,0,8.033,3.595,8.033,8.032C196.649,206.607,193.052,210.204,188.616,210.204z"/>
	<path style="fill:#B28A6B;" d="M256.507,210.204h-14.188c-4.437,0-8.033-3.595-8.033-8.032c0-4.436,3.597-8.032,8.033-8.032h14.188
		c4.437,0,8.033,3.595,8.033,8.032C264.541,206.607,260.943,210.204,256.507,210.204z"/>
	<path style="fill:#B28A6B;" d="M337.57,187.716h-14.187c-4.437,0-8.033-3.595-8.033-8.032c0-4.436,3.595-8.031,8.033-8.031h14.187
		c4.437,0,8.034,3.595,8.034,8.031S342.007,187.716,337.57,187.716z"/>
	<path style="fill:#B28A6B;" d="M304.132,210.204h-14.187c-4.437,0-8.033-3.595-8.033-8.032c0-4.436,3.597-8.032,8.033-8.032h14.187
		c4.437,0,8.034,3.595,8.034,8.032C312.165,206.607,308.569,210.204,304.132,210.204z"/>
	<path style="fill:#B28A6B;" d="M372.022,210.204h-14.187c-4.437,0-8.033-3.595-8.033-8.032c0-4.436,3.596-8.032,8.033-8.032h14.187
		c4.437,0,8.033,3.595,8.033,8.032C380.057,206.607,376.459,210.204,372.022,210.204z"/>
	<path style="fill:#B28A6B;" d="M453.086,187.716H438.9c-4.437,0-8.033-3.595-8.033-8.032c0-4.436,3.595-8.031,8.033-8.031h14.186
		c4.438,0,8.034,3.595,8.034,8.031C461.121,184.12,457.523,187.716,453.086,187.716z"/>
	<path style="fill:#B28A6B;" d="M419.647,210.204h-14.186c-4.437,0-8.034-3.595-8.034-8.032c0-4.436,3.596-8.032,8.034-8.032h14.186
		c4.437,0,8.033,3.595,8.033,8.032C427.68,206.607,424.083,210.204,419.647,210.204z"/>
</g>
<path style="fill:#C14616;" d="M512,316.418c0,8.908-7.224,16.13-16.133,16.13H16.134C7.223,332.548,0,325.326,0,316.418l0,0
	c0-8.909,7.223-16.131,16.134-16.131h479.732C504.776,300.287,512,307.509,512,316.418L512,316.418z"/>
<path style="opacity:0.1;enable-background:new    ;" d="M43.655,316.418c0-8.909,7.224-16.131,16.134-16.131H16.134
	C7.223,300.287,0,307.509,0,316.418c0,8.908,7.223,16.13,16.134,16.13h43.655C50.878,332.548,43.655,325.326,43.655,316.418z"/>
<path style="fill:#FFE060;" d="M418.317,445.865c-2.842,0-5.565-1.128-7.576-3.137l-35.399-35.392H25.174
	c-8.859,0-16.067-7.206-16.067-16.063c0-8.857,7.209-16.062,16.067-16.062h461.653c8.859,0,16.067,7.206,16.067,16.062
	c0,8.858-7.208,16.063-16.067,16.063H461.29l-35.4,35.392C423.88,444.736,421.157,445.865,418.317,445.865z"/>
<g style="opacity:0.1;">
	<path d="M42.578,391.273c0-8.857,7.208-16.062,16.067-16.062H25.174c-8.859,0-16.067,7.206-16.067,16.062
		c0,8.858,7.209,16.063,16.067,16.063h33.471C49.785,407.336,42.578,400.131,42.578,391.273z"/>
</g>
<g>
	<path style="fill:#B28A6B;" d="M370.236,146.795c-6.679,0.871-13.172,2.542-19.36,4.983c6.654,5.232,13.275,10.974,17.474,15.121
		c1.576,1.557,3.628,2.333,5.68,2.333c2.085,0,4.169-0.802,5.752-2.402c3.137-3.178,3.106-8.295-0.071-11.432
		C377.606,153.317,374.238,150.236,370.236,146.795z"/>
	<path style="fill:#B28A6B;" d="M167.86,162.588c1.576,1.557,3.628,2.333,5.681,2.333c2.086,0,4.17-0.802,5.752-2.402
		c3.138-3.176,3.106-8.295-0.071-11.432c-1.164-1.15-2.719-2.61-4.547-4.264c-6.554,0.875-12.926,2.521-19.007,4.91
		C160.404,155.654,164.785,159.549,167.86,162.588z"/>
	<path style="fill:#B28A6B;" d="M269.181,166.899c1.577,1.557,3.629,2.333,5.682,2.333c2.085,0,4.169-0.802,5.751-2.402
		c3.139-3.178,3.108-8.295-0.07-11.432c-1.978-1.955-5.068-4.792-8.752-7.981c-0.846,0.153-1.892,0.125-3.075-0.025
		c-5.343,0.958-10.551,2.426-15.556,4.405c-0.143-0.056-0.29-0.104-0.434-0.16C259.479,157.726,266.829,164.575,269.181,166.899z"/>
</g>
<g>
</g>
<g>
</g>
<g>
</g>
<g>
</g>
<g>
</g>
<g>
</g>
<g>
</g>
<g>
</g>
<g>
</g>
<g>
</g>
<g>
</g>
<g>
</g>
<g>
</g>
<g>
</g>
<g>
</g>
</svg>
