<?xml version="1.0" encoding="iso-8859-1"?>
<!-- Generator: Adobe Illustrator 19.0.0, SVG Export Plug-In . SVG Version: 6.00 Build 0)  -->
<svg version="1.1" id="Layer_1" xmlns="http://www.w3.org/2000/svg" xmlns:xlink="http://www.w3.org/1999/xlink" x="0px" y="0px"
	 viewBox="0 0 512 512" style="enable-background:new 0 0 512 512;" xml:space="preserve">
<g>
	<rect x="342.987" y="67.584" style="fill:#E0C924;" width="89.381" height="59.233"/>
	<path style="fill:#E0C924;" d="M377.199,71.44c-4.554,0-8.854-2.097-11.655-5.686c-2.801-3.589-3.793-8.269-2.687-12.687
		l10.481-41.871C374.985,4.615,380.897,0,387.681,0s12.698,4.615,14.345,11.194l10.477,41.871c1.106,4.419,0.113,9.098-2.689,12.687
		c-2.801,3.59-7.1,5.686-11.653,5.686h-20.963V71.44z"/>
</g>
<path style="fill:#FFEA33;" d="M446.972,76.941c0,6.163-4.997,11.162-11.164,11.162h-96.26c-6.163,0-11.162-4.998-11.162-11.162
	V64.388c0-6.166,4.998-11.163,11.162-11.163h96.26c6.166,0,11.164,4.997,11.164,11.163V76.941z"/>
<g>
	<rect x="407.698" y="53.225" style="fill:#E0C924;" width="16.169" height="34.878"/>
	<rect x="378.629" y="53.225" style="fill:#E0C924;" width="16.169" height="34.878"/>
	<rect x="349.56" y="53.225" style="fill:#E0C924;" width="16.169" height="34.878"/>
</g>
<path style="fill:#FFEA92;" d="M352.286,512c-43.204,0-78.503-33.807-80.358-76.962c-0.09-2.052,0.017-4.104,0.321-6.136
	l43.772-293.265c2.353-15.761,15.886-27.425,31.823-27.425h79.673c15.935,0,29.47,11.663,31.82,27.425l43.774,293.265
	c0.301,2.031,0.412,4.083,0.323,6.136C501.573,478.193,466.275,512,423.071,512H352.286z"/>
<polygon style="fill:#FFEA33;" points="280.111,376.229 495.25,376.229 465.616,177.698 309.744,177.698 "/>
<path style="opacity:0.1;enable-background:new    ;" d="M305.968,435.038c-0.09-2.052,0.017-4.104,0.321-6.136l43.773-293.265
	c2.352-15.761,15.885-27.425,31.822-27.425h-34.04c-15.938,0-29.47,11.663-31.823,27.425l-43.772,293.265
	c-0.304,2.031-0.411,4.083-0.321,6.136C273.783,478.192,309.082,512,352.286,512h34.041
	C343.122,512,307.823,478.193,305.968,435.038z"/>
<g>
	<path style="fill:#E0C924;" d="M358.727,409.061H275.21l-2.414,16.169h85.929c4.464,0,8.083-3.62,8.083-8.084
		C366.811,412.68,363.191,409.061,358.727,409.061z"/>
	<path style="fill:#E0C924;" d="M416.365,425.23h-27.56c-4.465,0-8.084-3.62-8.084-8.084c0-4.465,3.62-8.084,8.084-8.084h27.56
		c4.464,0,8.083,3.62,8.083,8.084C424.449,421.61,420.829,425.23,416.365,425.23z"/>
</g>
<circle style="fill:#FFFFFF;" cx="387.678" cy="278.883" r="61.481"/>
<g>
	<path style="fill:#78B591;" d="M406.893,273.52h-38.426c-4.465,0-8.084-3.62-8.084-8.084s3.62-8.084,8.084-8.084h38.426
		c4.464,0,8.083,3.62,8.083,8.084C414.978,269.9,411.358,273.52,406.893,273.52z"/>
	<path style="fill:#78B591;" d="M388.963,300.42h-20.496c-4.465,0-8.084-3.62-8.084-8.084c0-4.465,3.62-8.084,8.084-8.084h20.496
		c4.465,0,8.083,3.62,8.083,8.084C397.046,296.8,393.428,300.42,388.963,300.42z"/>
</g>
<g>
	<rect x="79.631" y="70.29" style="fill:#B52C2C;" width="89.381" height="53.823"/>
	<path style="fill:#B52C2C;" d="M113.838,71.44c-4.554,0-8.854-2.097-11.655-5.686c-2.801-3.589-3.792-8.269-2.686-12.687
		l10.48-41.871C111.625,4.615,117.536,0,124.319,0c6.783,0,12.698,4.615,14.345,11.194l10.477,41.871
		c1.105,4.419,0.113,9.098-2.689,12.687c-2.801,3.59-7.1,5.686-11.653,5.686h-20.963V71.44z"/>
</g>
<path style="fill:#E23B3B;" d="M183.611,76.941c0,6.163-4.997,11.162-11.164,11.162h-96.26c-6.162,0-11.161-4.998-11.161-11.162
	V64.388c0-6.166,4.998-11.163,11.161-11.163h96.26c6.166,0,11.164,4.997,11.164,11.163V76.941z"/>
<g>
	<rect x="115.262" y="53.225" style="fill:#B52C2C;" width="16.169" height="34.878"/>
	<rect x="86.204" y="53.225" style="fill:#B52C2C;" width="16.169" height="34.878"/>
	<rect x="144.331" y="53.225" style="fill:#B52C2C;" width="16.169" height="34.878"/>
</g>
<path style="fill:#EF645E;" d="M88.927,512c-43.205,0-78.504-33.807-80.359-76.962c-0.09-2.052,0.017-4.104,0.321-6.136
	l43.773-293.265c2.352-15.761,15.885-27.425,31.822-27.425h79.673c15.936,0,29.471,11.663,31.82,27.425l43.774,293.265
	c0.301,2.031,0.413,4.083,0.323,6.136C238.215,478.192,202.917,512,159.712,512H88.927z"/>
<polygon style="fill:#E23B3B;" points="16.749,376.229 231.888,376.229 202.255,177.698 46.383,177.698 "/>
<path style="opacity:0.1;enable-background:new    ;" d="M42.252,435.038c-0.089-2.052,0.018-4.104,0.322-6.136l43.772-293.265
	c2.353-15.761,15.886-27.425,31.823-27.425H84.483c-15.938,0-29.47,11.663-31.822,27.425L8.887,428.902
	c-0.304,2.031-0.411,4.083-0.321,6.136C10.422,478.193,45.721,512,88.927,512h33.684C79.407,512,44.108,478.193,42.252,435.038z"/>
<g>
	<path style="fill:#B52C2C;" d="M95.366,409.061H11.85L9.436,425.23h85.929c4.464,0,8.083-3.62,8.083-8.084
		C103.45,412.68,99.83,409.061,95.366,409.061z"/>
	<path style="fill:#B52C2C;" d="M153.004,425.23h-27.56c-4.465,0-8.083-3.62-8.083-8.084c0-4.465,3.62-8.084,8.083-8.084h27.56
		c4.464,0,8.083,3.62,8.083,8.084C161.087,421.61,157.468,425.23,153.004,425.23z"/>
</g>
<circle style="fill:#FFFFFF;" cx="124.321" cy="278.883" r="61.481"/>
<g>
	<path style="fill:#D8C27C;" d="M143.532,273.52h-38.426c-4.464,0-8.084-3.62-8.084-8.084s3.621-8.084,8.084-8.084h38.426
		c4.465,0,8.083,3.62,8.083,8.084C151.616,269.9,147.997,273.52,143.532,273.52z"/>
	<path style="fill:#D8C27C;" d="M125.601,300.42h-20.496c-4.464,0-8.084-3.62-8.084-8.084c0-4.465,3.621-8.084,8.084-8.084h20.496
		c4.464,0,8.083,3.62,8.083,8.084C133.685,296.8,130.066,300.42,125.601,300.42z"/>
</g>
<g>
</g>
<g>
</g>
<g>
</g>
<g>
</g>
<g>
</g>
<g>
</g>
<g>
</g>
<g>
</g>
<g>
</g>
<g>
</g>
<g>
</g>
<g>
</g>
<g>
</g>
<g>
</g>
<g>
</g>
</svg>
