<?xml version="1.0" encoding="iso-8859-1"?>
<!-- Generator: Adobe Illustrator 19.0.0, SVG Export Plug-In . SVG Version: 6.00 Build 0)  -->
<svg version="1.1" id="Layer_1" xmlns="http://www.w3.org/2000/svg" xmlns:xlink="http://www.w3.org/1999/xlink" x="0px" y="0px"
	 viewBox="0 0 512 512" style="enable-background:new 0 0 512 512;" xml:space="preserve">
<path style="fill:#C14616;" d="M191.361,512c-8.706,0-15.765-7.058-15.765-15.765V278.827c0-33.963,21.54-64.422,53.602-75.795
	V38.323c0-8.707,7.06-15.765,15.766-15.765h22.071c8.706,0,15.766,7.058,15.766,15.765v164.709
	c32.063,11.372,53.602,41.831,53.602,75.795v217.408c0,8.707-7.059,15.765-15.765,15.765H191.361z"/>
<g>
	<polygon style="fill:#FFFFFF;" points="255.999,461.077 175.596,358.4 255.999,256.277 336.403,358.4 	"/>
	<polygon style="fill:#FFFFFF;" points="203.004,358.436 255.999,291.126 308.995,358.436 255.999,426.111 	"/>
</g>
<circle style="fill:#2E7C35;" cx="255.999" cy="358.4" r="19.137"/>
<rect x="229.198" y="72.6" style="fill:#368939;" width="53.603" height="106.036"/>
<g>
	<polygon style="fill:#F7EEDF;" points="282.801,112.131 229.198,165.735 229.198,178.636 239.163,178.636 282.801,134.998 	"/>
	<polygon style="fill:#F7EEDF;" points="282.801,72.604 278.416,72.604 229.198,121.824 229.198,144.691 282.801,91.086 	"/>
</g>
<path style="opacity:0.1;enable-background:new    ;" d="M229.198,71.053v131.979c-32.062,11.372-53.602,41.831-53.602,75.795
	v217.408c0,8.694,7.073,15.765,15.765,15.765h7.308c5.953,0,10.779-4.825,10.779-10.779V301.002
	c0-31.472,18.555-60.223,47.273-73.243c3.854-1.747,6.329-5.587,6.329-9.818V71.053H229.198z"/>
<path style="fill:#E23B3B;" d="M255.999,439.224l-63.274-80.802l63.274-80.364l63.274,80.364L255.999,439.224z M213.283,358.449
	l42.716,54.55l42.716-54.55l-42.716-54.254L213.283,358.449z"/>
<g>
	<path style="fill:#9E300E;" d="M220.328,483.436c0-4.465-3.62-8.084-8.084-8.084h-36.648v16.169h36.648
		C216.709,491.52,220.328,487.9,220.328,483.436z"/>
	<path style="fill:#9E300E;" d="M250.61,491.52h-17.246c-4.465,0-8.084-3.62-8.084-8.084c0-4.465,3.62-8.084,8.084-8.084h17.246
		c4.465,0,8.084,3.62,8.084,8.084C258.694,487.9,255.075,491.52,250.61,491.52z"/>
</g>
<path style="fill:#CE4C2E;" d="M295.402,58.066c0,7.635-6.192,13.825-13.826,13.825h-51.151c-7.637,0-13.826-6.19-13.826-13.825
	V13.825C216.597,6.19,222.787,0,230.423,0h51.151c7.635,0,13.826,6.19,13.826,13.825v44.241H295.402z"/>
<path style="opacity:0.1;enable-background:new    ;" d="M250.493,58.066V13.825C250.493,6.19,256.681,0,264.318,0h-33.894
	c-7.637,0-13.826,6.19-13.826,13.825v44.241c0,7.635,6.19,13.825,13.826,13.825h33.894
	C256.681,71.891,250.493,65.701,250.493,58.066z"/>
<path style="fill:#316638;" d="M299.633,76.213c0,2.739-2.22,4.958-4.959,4.958h-77.349c-2.739,0-4.959-2.219-4.959-4.958V61.338
	c0-2.739,2.22-4.958,4.959-4.958h77.349c2.739,0,4.959,2.219,4.959,4.958V76.213z"/>
<g>
	<path style="fill:#FFFFFF;" d="M299.399,228.466c-4.107,9.917-7.438,13.247-17.355,17.356c9.917,4.107,13.248,7.438,17.355,17.355
		c4.108-9.917,7.438-13.247,17.355-17.355C306.837,241.713,303.507,238.383,299.399,228.466z"/>
	<circle style="fill:#FFFFFF;" cx="316.081" cy="273.241" r="8.179"/>
</g>
<g>
</g>
<g>
</g>
<g>
</g>
<g>
</g>
<g>
</g>
<g>
</g>
<g>
</g>
<g>
</g>
<g>
</g>
<g>
</g>
<g>
</g>
<g>
</g>
<g>
</g>
<g>
</g>
<g>
</g>
</svg>
