<?xml version="1.0" encoding="iso-8859-1"?>
<!-- Generator: Adobe Illustrator 19.0.0, SVG Export Plug-In . SVG Version: 6.00 Build 0)  -->
<svg version="1.1" id="Layer_1" xmlns="http://www.w3.org/2000/svg" xmlns:xlink="http://www.w3.org/1999/xlink" x="0px" y="0px"
	 viewBox="0 0 512 512" style="enable-background:new 0 0 512 512;" xml:space="preserve">
<path style="fill:#FFEA33;" d="M344.903,298.226c-5.908-5.908-5.91-15.489,0-21.4l51.715-51.716c5.912-5.909,15.491-5.909,21.401,0
	l0,0c5.911,5.909,5.911,15.492,0.001,21.4l-51.716,51.716C360.395,304.135,350.814,304.135,344.903,298.226L344.903,298.226z"/>
<circle style="fill:#F96300;" cx="418.043" cy="286.898" r="34.68"/>
<path style="fill:#7CB56B;" d="M483.533,297.859c1.995,1.997,3.231,4.754,3.231,7.801v71.712c0,4.463-2.686,8.487-6.81,10.193
	c-4.123,1.708-8.869,0.764-12.025-2.391l-71.711-71.713c-3.156-3.156-4.101-7.903-2.392-12.024
	c1.707-4.122,5.728-6.811,10.192-6.811h71.712C478.777,294.627,481.537,295.862,483.533,297.859z"/>
<path style="fill:#FFEA33;" d="M307.699,199.255c0,8.358-6.774,15.132-15.13,15.132h-73.139c-8.356,0-15.132-6.774-15.132-15.132
	l0,0c0-8.357,6.776-15.132,15.132-15.132h73.139C300.925,184.123,307.699,190.898,307.699,199.255L307.699,199.255z"/>
<path style="fill:#7CB56B;" d="M371.627,208.783c2.646,0.987,4.915,2.983,6.18,5.754l29.779,65.237
	c1.852,4.059,1.078,8.835-1.963,12.1c-3.041,3.266-7.751,4.377-11.932,2.818l-95.018-35.462c-4.179-1.56-7.009-5.485-7.166-9.945
	c-0.158-4.46,2.382-8.575,6.445-10.428l65.238-29.776C365.961,207.816,368.984,207.794,371.627,208.783z"/>
<path style="fill:#F96300;" d="M262.305,225.737c0,8.357-6.776,15.131-15.132,15.131h-73.138c-8.357,0-15.131-6.775-15.131-15.131
	l0,0c0-8.358,6.774-15.132,15.131-15.132h73.138C255.529,210.605,262.305,217.379,262.305,225.737L262.305,225.737z"/>
<path style="fill:#7CB56B;" d="M18.571,310.469c-1.995,1.997-3.232,4.754-3.232,7.8v71.713c0,4.462,2.687,8.486,6.81,10.192
	c4.122,1.708,8.869,0.763,12.025-2.391l71.711-71.713c3.156-3.155,4.101-7.902,2.392-12.024c-1.707-4.122-5.728-6.812-10.192-6.811
	H26.373C23.326,307.237,20.568,308.472,18.571,310.469z"/>
<path style="fill:#FFE060;" d="M155.733,310.851c-5.909,5.909-15.491,5.909-21.401,0l-51.717-51.716
	c-5.909-5.91-5.909-15.491,0-21.4l0,0c5.91-5.911,15.492-5.911,21.401-0.001l51.716,51.716
	C161.64,295.361,161.64,304.94,155.733,310.851L155.733,310.851z"/>
<g>
	<circle style="fill:#E23B3B;" cx="36.138" cy="394.084" r="20.176"/>
	<circle style="fill:#E23B3B;" cx="29.243" cy="453.977" r="18.913"/>
	<circle style="fill:#E23B3B;" cx="482.753" cy="453.977" r="18.913"/>
	<circle style="fill:#E23B3B;" cx="475.867" cy="394.084" r="20.176"/>
</g>
<path style="fill:#F96300;" d="M358.327,73.636c0.937-0.936,2.458-0.936,3.394,0c15.062,15.062,15.062,39.571,0,54.634
	c-15.061,15.062-39.571,15.062-54.632,0c-0.937-0.937-0.938-2.457,0-3.394L358.327,73.636z"/>
<circle style="fill:#61D16B;" cx="170.256" cy="129.902" r="20.176"/>
<circle style="fill:#FFEA33;" cx="417.155" cy="162.461" r="15.606"/>
<circle style="fill:#C14616;" cx="279.96" cy="46.674" r="20.177"/>
<path style="fill:#FFBE60;" d="M336.704,228.258c0,8.357-6.775,15.132-15.132,15.132h-73.138c-8.356,0-15.132-6.775-15.132-15.132
	l0,0c0-8.357,6.775-15.132,15.132-15.132h73.138C329.929,213.126,336.704,219.901,336.704,228.258L336.704,228.258z"/>
<circle style="fill:#F96300;" cx="84.062" cy="299.51" r="34.68"/>
<path style="fill:#7CB56B;" d="M130.476,221.391c-2.646,0.987-4.915,2.984-6.18,5.754l-29.779,65.239
	c-1.852,4.058-1.078,8.835,1.963,12.099c3.041,3.266,7.751,4.377,11.931,2.818l95.017-35.461c4.18-1.56,7.01-5.485,7.168-9.945
	c0.158-4.459-2.382-8.576-6.445-10.428l-65.238-29.776C136.143,220.426,133.12,220.404,130.476,221.391z"/>
<g>
	<circle style="fill:#F96300;" cx="489.932" cy="425.608" r="22.068"/>
	<circle style="fill:#F96300;" cx="22.068" cy="425.608" r="22.068"/>
</g>
<path style="fill:#FFE060;" d="M44.631,485.503c-10.888,0-19.746-8.859-19.746-19.745v-32.988
	c0-107.899,87.783-195.683,195.683-195.683h70.865c107.901,0,195.683,87.784,195.683,195.683v32.988
	c0,10.887-8.859,19.745-19.746,19.745L44.631,485.503L44.631,485.503z"/>
<path style="opacity:0.1;enable-background:new    ;" d="M72.121,465.757v-32.988c0-107.899,87.783-195.683,195.683-195.683h-47.237
	c-107.901,0-195.683,87.784-195.683,195.683v32.988c0,10.887,8.859,19.745,19.746,19.745h47.238
	C80.982,485.503,72.121,476.645,72.121,465.757z"/>
<g>
	<path style="fill:#E2C447;" d="M126.117,434.056c-4.669,0-8.452-3.785-8.452-8.452c0-2.639-2.149-4.788-4.789-4.788
		c-2.64,0-4.79,2.148-4.79,4.788c0,4.668-3.784,8.452-8.452,8.452c-4.669,0-8.452-3.785-8.452-8.452
		c0-11.961,9.732-21.692,21.694-21.692c11.961,0,21.693,9.731,21.693,21.692C134.569,430.273,130.786,434.056,126.117,434.056z"/>
	<path style="fill:#E2C447;" d="M226.997,434.056c-4.669,0-8.452-3.785-8.452-8.452c0-2.639-2.149-4.788-4.789-4.788
		c-2.639,0-4.789,2.148-4.789,4.788c0,4.668-3.783,8.452-8.451,8.452c-4.67,0-8.453-3.785-8.453-8.452
		c0-11.961,9.731-21.692,21.693-21.692s21.693,9.731,21.693,21.692C235.449,430.273,231.665,434.056,226.997,434.056z"/>
	<path style="fill:#E2C447;" d="M177.818,376.052c-4.669,0-8.452-3.785-8.452-8.452c0-2.64-2.148-4.789-4.788-4.789
		c-2.64,0-4.789,2.148-4.789,4.789c0,4.668-3.784,8.452-8.452,8.452s-8.452-3.785-8.452-8.452c0-11.961,9.731-21.693,21.693-21.693
		c11.961,0,21.692,9.731,21.692,21.693C186.27,372.267,182.486,376.052,177.818,376.052z"/>
	<path style="fill:#E2C447;" d="M336.704,333.808c-4.669,0-8.452-3.785-8.452-8.452c0-2.64-2.149-4.788-4.789-4.788
		s-4.789,2.148-4.789,4.788c0,4.668-3.783,8.452-8.452,8.452c-4.669,0-8.452-3.785-8.452-8.452c0-11.961,9.731-21.692,21.693-21.692
		c11.961,0,21.693,9.731,21.693,21.692C345.156,330.023,341.372,333.808,336.704,333.808z"/>
	<path style="fill:#E2C447;" d="M402.276,388.031c-4.669,0-8.452-3.784-8.452-8.452c0-2.64-2.148-4.789-4.789-4.789
		c-2.639,0-4.788,2.148-4.788,4.789c0,4.668-3.784,8.452-8.452,8.452c-4.67,0-8.452-3.784-8.452-8.452
		c0-11.961,9.731-21.692,21.692-21.692c11.962,0,21.693,9.731,21.693,21.692C410.728,384.246,406.945,388.031,402.276,388.031z"/>
</g>
<g>
</g>
<g>
</g>
<g>
</g>
<g>
</g>
<g>
</g>
<g>
</g>
<g>
</g>
<g>
</g>
<g>
</g>
<g>
</g>
<g>
</g>
<g>
</g>
<g>
</g>
<g>
</g>
<g>
</g>
</svg>
