<?xml version="1.0" encoding="iso-8859-1"?>
<!-- Generator: Adobe Illustrator 19.0.0, SVG Export Plug-In . SVG Version: 6.00 Build 0)  -->
<svg version="1.1" id="Layer_1" xmlns="http://www.w3.org/2000/svg" xmlns:xlink="http://www.w3.org/1999/xlink" x="0px" y="0px"
	 viewBox="0 0 512 512" style="enable-background:new 0 0 512 512;" xml:space="preserve">
<path style="fill:#578C6D;" d="M175.36,163.557c0,6.875-5.549,12.449-12.392,12.449H106.51c-6.844,0-12.391-5.573-12.391-12.449l0,0
	c0-6.878,5.548-12.451,12.391-12.451h56.458C169.812,151.106,175.36,156.679,175.36,163.557L175.36,163.557z"/>
<path style="fill:#78B591;" d="M165.876,173.32c47.22,0,85.636,39.063,85.636,87.08v87.08c0,8.743-6.973,15.832-15.57,15.832H33.537
	c-8.6,0-15.57-7.09-15.57-15.832V260.4c0-48.016,38.415-87.08,85.633-87.08L165.876,173.32L165.876,173.32z"/>
<path style="opacity:0.1;enable-background:new    ;" d="M51.003,347.48V260.4c0-48.016,38.415-87.08,85.633-87.08h-33.037
	c-47.218,0-85.633,39.063-85.633,87.08v87.08c0,8.743,6.971,15.832,15.57,15.832h33.037
	C57.973,363.312,51.003,356.222,51.003,347.48z"/>
<path style="fill:#578C6D;" d="M261.959,286.098c-4.153,0-7.517-3.366-7.517-7.516V171.855c0-67.19-53.699-121.851-119.704-121.851
	S15.035,104.666,15.035,171.855v106.727c0,4.151-3.367,7.516-7.518,7.516c-4.152,0-7.517-3.366-7.517-7.516V171.855
	C0,96.375,60.444,34.968,134.739,34.968c74.295,0,134.739,61.409,134.739,136.888v106.727
	C269.477,282.733,266.113,286.098,261.959,286.098z"/>
<path style="fill:#78B591;" d="M255.162,330.341c-3.031,0-5.962-1.154-8.191-3.249c-2.422-2.278-3.798-5.462-3.798-8.794v-36.747
	c0-5.668,3.932-10.567,9.443-11.77c20.89-4.557,39.492-15.614,53.793-31.972c2.276-2.6,5.555-4.096,9.006-4.096h20.799
	c3.579,0,6.969,1.608,9.246,4.379c2.276,2.771,3.205,6.422,2.526,9.951c-8.737,45.4-46.582,79.228-92.028,82.269
	C255.693,330.335,255.427,330.341,255.162,330.341z"/>
<path style="fill:#A5BC79;" d="M432.704,462.014c0,8.294-6.611,15.018-14.77,15.018h-47.26c-8.156,0-14.77-6.725-14.77-15.018
	v-21.026c0-8.294,6.613-15.02,14.77-15.02h47.26c8.159,0,14.77,6.727,14.77,15.02V462.014z"/>
<path style="opacity:0.1;enable-background:new    ;" d="M378.188,462.014v-21.026c0-8.294,6.614-15.02,14.771-15.02h-22.282
	c-8.156,0-14.77,6.727-14.77,15.02v21.026c0,8.294,6.613,15.018,14.77,15.018h22.282
	C384.802,477.032,378.188,470.309,378.188,462.014z"/>
<path style="fill:#78B591;" d="M375.104,463.233c-18.732,0-33.97-15.496-33.97-34.543v-70.492c0-5.865,4.755-10.62,10.619-10.62
	h85.101c5.864,0,10.619,4.755,10.619,10.62v70.492c0,19.046-15.239,34.543-33.971,34.543L375.104,463.233L375.104,463.233z"/>
<path style="opacity:0.1;enable-background:new    ;" d="M363.32,428.69v-70.492c0-5.865,4.755-10.62,10.62-10.62h-22.186
	c-5.864,0-10.619,4.755-10.619,10.62v70.492c0,19.046,15.238,34.543,33.97,34.543h22.186
	C378.558,463.233,363.32,447.737,363.32,428.69z"/>
<g>
	<path style="fill:#578C6D;" d="M373.945,363.451h-32.81v17.614h32.81c4.847,0,8.775-3.942,8.775-8.809
		C382.72,367.393,378.792,363.451,373.945,363.451z"/>
	<path style="fill:#578C6D;" d="M373.945,391.637h-32.81v17.614h32.81c4.847,0,8.775-3.942,8.775-8.809
		C382.72,395.577,378.792,391.637,373.945,391.637z"/>
	<path style="fill:#578C6D;" d="M373.945,419.82h-32.81v8.869c0,3.023,0.383,5.953,1.101,8.747h31.71
		c4.847,0,8.775-3.944,8.775-8.808C382.72,423.764,378.792,419.82,373.945,419.82z"/>
</g>
<path style="fill:#A5BC79;" d="M98.808,460.13C44.326,460.13,0,415.062,0,359.657V259.184c0-10.09,8.044-18.269,17.965-18.269
	h233.546c9.919,0,17.966,8.179,17.966,18.269v100.473c0,55.404-44.328,100.473-98.81,100.473H98.808z"/>
<path style="opacity:0.1;enable-background:new    ;" d="M43.93,359.657V259.184c0-10.09,8.044-18.269,17.964-18.269H17.965
	C8.044,240.915,0,249.094,0,259.184v100.473C0,415.061,44.326,460.13,98.808,460.13h43.929
	C88.254,460.13,43.93,415.062,43.93,359.657z"/>
<path style="fill:#FCE9C3;" d="M477.391,218.634h-18.385c-4.399,0-7.965,3.565-7.965,7.965s3.566,7.965,7.965,7.965h18.385
	c10.301,0,18.68,8.437,18.68,18.804c0,10.37-8.38,18.804-18.68,18.804h-52.873c-16.702,0-30.29,13.635-30.29,30.396v14.564
	c0,4.398,3.565,7.965,7.964,7.965c4.4,0,7.965-3.567,7.965-7.965v-14.564c0-7.976,6.442-14.466,14.36-14.466h52.873
	c19.085,0,34.609-15.582,34.609-34.734S496.476,218.634,477.391,218.634z"/>
<path style="fill:#F2D8A0;" d="M438.449,254.933h-41.553c-19.768,0-35.852-16.143-35.852-35.984s16.084-35.982,35.852-35.982h14.919
	c4.4,0,7.965,3.565,7.965,7.965c0,4.398-3.565,7.965-7.965,7.965h-14.919c-10.986,0-19.922,8.996-19.922,20.051
	c0,11.059,8.937,20.055,19.922,20.055h41.553c4.399,0,7.964,3.565,7.964,7.963C446.413,251.367,442.848,254.933,438.449,254.933z"/>
<g>
	<path style="fill:#7E8E51;" d="M73.209,276.8H0v17.616h73.209c4.847,0,8.775-3.942,8.775-8.809
		C81.985,280.743,78.056,276.8,73.209,276.8z"/>
	<path style="fill:#7E8E51;" d="M31.89,317.968H0v17.616h31.89c4.846,0,8.775-3.942,8.775-8.808
		C40.665,321.91,36.737,317.968,31.89,317.968z"/>
	<path style="fill:#7E8E51;" d="M4.549,389.815h260.377c1.596-5.145,2.79-10.468,3.555-15.928H0.995
		C1.761,379.347,2.954,384.67,4.549,389.815z"/>
</g>
<path style="fill:#78B591;" d="M268.349,464.988c0,6.651-5.37,12.045-11.989,12.045H16.61c-6.62,0-11.988-5.394-11.988-12.045
	v-6.023c0-6.649,5.368-12.042,11.988-12.042h239.75c6.619,0,11.989,5.394,11.989,12.042V464.988z"/>
<path style="opacity:0.1;enable-background:new    ;" d="M48.967,464.988v-6.023c0-6.649,5.368-12.042,11.988-12.042H16.61
	c-6.62,0-11.988,5.394-11.988,12.042v6.023c0,6.651,5.368,12.045,11.988,12.045h44.344
	C54.335,477.032,48.967,471.639,48.967,464.988z"/>
<g>
</g>
<g>
</g>
<g>
</g>
<g>
</g>
<g>
</g>
<g>
</g>
<g>
</g>
<g>
</g>
<g>
</g>
<g>
</g>
<g>
</g>
<g>
</g>
<g>
</g>
<g>
</g>
<g>
</g>
</svg>
