<?xml version="1.0" encoding="iso-8859-1"?>
<!-- Generator: Adobe Illustrator 19.0.0, SVG Export Plug-In . SVG Version: 6.00 Build 0)  -->
<svg version="1.1" id="Layer_1" xmlns="http://www.w3.org/2000/svg" xmlns:xlink="http://www.w3.org/1999/xlink" x="0px" y="0px"
	 viewBox="0 0 512 512" style="enable-background:new 0 0 512 512;" xml:space="preserve">
<path style="fill:#F77B3E;" d="M393.332,219.986c-8.419-8.42-31.624,1.137-51.829,21.341c-20.205,20.206-29.76,43.41-21.341,51.83
	c0.406,0.406,0.856,0.758,1.329,1.079c6.754,6.234,23.235,9.32,41.918,7.109c23.753-2.807,42.058-13.105,40.889-23.002
	c-0.837-7.079-11.42-12.036-26.07-13.252C394.065,246.702,400.828,227.482,393.332,219.986z"/>
<path style="fill:#F7573E;" d="M331.058,288.609c-3.179,0-6.193-1.886-7.478-5.008c-1.7-4.128,0.269-8.854,4.397-10.555
	l18.324-7.545c4.127-1.697,8.853,0.269,10.553,4.398c1.7,4.128-0.269,8.854-4.397,10.555l-18.324,7.545
	C333.127,288.412,332.083,288.609,331.058,288.609z"/>
<path style="fill:#F7C677;" d="M328.797,285.392c0-18.013-9.685-28.788-24.129-34.008c-3.209-5.319-9.027-8.887-15.691-8.887
	c-4.775,0-9.112,1.84-12.374,4.832l-1.998-0.118c-3.168-6.773-10.022-11.472-17.991-11.472c-6.824,0-12.841,3.44-16.418,8.68
	c-3.115-6.907-10.046-11.724-18.114-11.724c-6.824,0-12.841,3.442-16.42,8.68c-3.114-6.907-10.045-11.724-18.114-11.724
	c-6.711,0-12.634,3.334-16.232,8.43c-3.263-8.24-11.285-14.074-20.685-14.074c-9.559,0-17.686,6.035-20.84,14.497
	c-3.423-7.889-11.273-13.41-20.42-13.41c-8.237,0-15.41,4.484-19.26,11.132l-0.494-0.029c-27.168,0-49.194,22.025-49.194,49.194
	c0,26.538,21.019,48.157,47.317,49.145c4.031,5.703,10.662,9.438,18.177,9.438c8.398,0,15.704-4.654,19.495-11.519l1.684-0.101
	c3.577,7.508,11.212,12.707,20.082,12.707c9.4,0,17.422-5.836,20.685-14.074c3.599,5.094,9.521,8.43,16.234,8.43
	c7.991,0,14.863-4.727,18.019-11.529l0.23-0.016c3.593,5.135,9.541,8.501,16.285,8.501c7.59,0,14.181-4.258,17.529-10.512
	l1.428-0.087c3.64,4.595,9.258,7.555,15.576,7.555c7.164,0,13.424-3.804,16.92-9.489l5.329-0.316
	c2.9,1.919,6.373,3.046,10.113,3.046c5.04,0,9.602-2.035,12.916-5.327C316.26,317.015,328.797,305.889,328.797,285.392z"/>
<path style="opacity:0.1;enable-background:new    ;" d="M321.074,298.745c-3.313,3.29-7.876,5.327-12.916,5.327
	c-3.74,0-7.213-1.126-10.113-3.046l-5.329,0.316c-3.497,5.684-9.756,9.489-16.92,9.489c-6.318,0-11.936-2.958-15.576-7.554
	l-1.427,0.087c-3.348,6.252-9.94,10.512-17.529,10.512c-6.743,0-12.691-3.367-16.285-8.501l-0.23,0.016
	c-3.156,6.802-10.028,11.53-18.019,11.53c-6.712,0-12.635-3.337-16.234-8.431c-3.264,8.238-11.285,14.074-20.685,14.074
	c-8.869,0-16.505-5.2-20.082-12.707l-1.684,0.101c-3.791,6.864-11.097,11.519-19.495,11.519c-7.515,0-14.146-3.734-18.177-9.438
	c-26.297-0.986-47.317-22.606-47.317-49.145c0-7.815,1.831-15.199,5.073-21.761c-16.402,7.977-27.709,24.798-27.709,44.262
	c0,26.538,21.019,48.157,47.317,49.145c4.031,5.703,10.662,9.438,18.177,9.438c8.398,0,15.704-4.654,19.495-11.519l1.684-0.101
	c3.577,7.508,11.212,12.707,20.082,12.707c9.4,0,17.422-5.836,20.685-14.074c3.599,5.094,9.521,8.43,16.234,8.43
	c7.991,0,14.863-4.727,18.019-11.529l0.23-0.016c3.593,5.135,9.541,8.501,16.285,8.501c7.59,0,14.181-4.258,17.529-10.512
	l1.428-0.087c3.64,4.595,9.258,7.555,15.576,7.555c7.164,0,13.424-3.804,16.92-9.489l5.329-0.316
	c2.9,1.919,6.373,3.046,10.113,3.046c5.04,0,9.602-2.035,12.916-5.327c14.137-3.356,24.943-11.058,28.808-24.329
	C325.273,297.628,323.213,298.238,321.074,298.745z"/>
<g>
	<path style="fill:#E2AA59;" d="M115.477,264.354h-9.701c-4.465,0-8.084-3.62-8.084-8.084c0-4.465,3.62-8.083,8.084-8.083h9.701
		c4.464,0,8.084,3.618,8.084,8.083C123.56,260.735,119.941,264.354,115.477,264.354z"/>
	<path style="fill:#E2AA59;" d="M84.218,288.586h-8.622c-4.465,0-8.084-3.62-8.084-8.084c0-4.465,3.62-8.084,8.084-8.084h8.622
		c4.465,0,8.084,3.62,8.084,8.084C92.301,284.967,88.683,288.586,84.218,288.586z"/>
</g>
<path style="fill:#EF645E;" d="M256,310.014c-48.737,0-88.387-37.716-88.387-84.076c0-5.953,4.825-10.779,10.779-10.779h155.216
	c5.954,0,10.779,4.825,10.779,10.779C344.387,272.3,304.737,310.014,256,310.014z"/>
<g>
	<path style="fill:#C14616;" d="M217.197,229.712h-49.483c0.259,5.547,1.092,10.949,2.433,16.169h47.051
		c4.465,0,8.084-3.618,8.084-8.083C225.281,233.331,221.661,229.712,217.197,229.712z"/>
	<path style="fill:#C14616;" d="M207.496,253.426h-35.007c2.075,5.686,4.754,11.107,8,16.169h27.007c4.465,0,8.084-3.62,8.084-8.084
		C215.579,257.044,211.96,253.426,207.496,253.426z"/>
</g>
<path style="opacity:0.1;enable-background:new    ;" d="M199.95,225.939c0-5.953,4.826-10.779,10.779-10.779h-32.336
	c-5.954,0-10.779,4.825-10.779,10.779c0,46.36,39.651,84.076,88.387,84.076c5.523,0,10.922-0.508,16.169-1.435
	C231.13,301.331,199.95,267.044,199.95,225.939z"/>
<path style="fill:#8CC63F;" d="M380.397,323.988c-8.419-8.42-31.624,1.137-51.829,21.341c-20.205,20.206-29.76,43.41-21.341,51.83
	c0.406,0.406,0.856,0.759,1.329,1.079c6.755,6.234,23.236,9.321,41.919,7.109c23.753-2.807,42.058-13.105,40.889-23.002
	c-0.837-7.079-11.42-12.035-26.07-13.252C381.131,350.704,387.894,331.484,380.397,323.988z"/>
<path style="fill:#F7C677;" d="M315.862,389.394c0-18.013-9.686-28.788-24.129-34.008c-3.21-5.319-9.027-8.887-15.692-8.887
	c-4.775,0-9.11,1.84-12.373,4.832l-1.998-0.118c-3.168-6.773-10.022-11.471-17.991-11.471c-6.824,0-12.841,3.44-16.418,8.681
	c-3.114-6.908-10.046-11.725-18.114-11.725c-6.824,0-12.841,3.442-16.42,8.68c-3.113-6.907-10.045-11.724-18.114-11.724
	c-6.711,0-12.634,3.334-16.232,8.43c-3.264-8.24-11.285-14.074-20.685-14.074c-9.559,0-17.686,6.035-20.84,14.497
	c-3.423-7.889-11.273-13.41-20.421-13.41c-8.237,0-15.41,4.484-19.261,11.132l-0.494-0.029c-27.168,0-49.194,22.025-49.194,49.194
	c0,26.538,21.019,48.157,47.317,49.145c4.031,5.703,10.662,9.438,18.177,9.438c8.398,0,15.704-4.654,19.495-11.519l1.685-0.101
	c3.577,7.508,11.212,12.707,20.082,12.707c9.4,0,17.422-5.836,20.685-14.074c3.599,5.094,9.521,8.431,16.234,8.431
	c7.991,0,14.863-4.728,18.019-11.53l0.23-0.016c3.593,5.135,9.541,8.501,16.285,8.501c7.59,0,14.181-4.258,17.529-10.512
	l1.428-0.087c3.639,4.595,9.257,7.554,15.576,7.554c7.164,0,13.424-3.804,16.92-9.489l5.329-0.316
	c2.899,1.919,6.373,3.046,10.113,3.046c5.04,0,9.602-2.035,12.916-5.327C303.326,421.017,315.862,409.891,315.862,389.394z"/>
<path style="opacity:0.1;enable-background:new    ;" d="M308.139,391.773c-3.313,3.29-7.876,5.327-12.916,5.327
	c-3.74,0-7.213-1.126-10.113-3.046l-5.329,0.316c-3.497,5.684-9.756,9.489-16.92,9.489c-6.318,0-11.936-2.958-15.576-7.554
	l-1.428,0.087c-3.348,6.252-9.939,10.512-17.529,10.512c-6.743,0-12.691-3.367-16.285-8.501l-0.23,0.015
	c-3.157,6.802-10.028,11.53-18.019,11.53c-6.712,0-12.635-3.336-16.234-8.431c-3.264,8.238-11.285,14.075-20.685,14.075
	c-8.87,0-16.505-5.2-20.082-12.708l-1.684,0.101c-3.791,6.865-11.097,11.52-19.495,11.52c-7.515,0-14.146-3.734-18.177-9.438
	c-26.297-0.987-47.317-22.606-47.317-49.145c0-2.862,0.258-5.661,0.727-8.389c-14.019,8.668-23.363,24.173-23.363,41.865
	c0,26.538,21.019,48.157,47.317,49.145c4.031,5.703,10.662,9.438,18.177,9.438c8.398,0,15.704-4.654,19.495-11.519l1.685-0.101
	c3.577,7.508,11.212,12.707,20.082,12.707c9.4,0,17.422-5.836,20.685-14.074c3.599,5.094,9.521,8.431,16.234,8.431
	c7.991,0,14.863-4.728,18.019-11.53l0.23-0.016c3.593,5.135,9.541,8.501,16.285,8.501c7.59,0,14.181-4.258,17.529-10.512
	l1.428-0.087c3.639,4.595,9.257,7.554,15.576,7.554c7.164,0,13.424-3.804,16.92-9.489l5.329-0.316
	c2.899,1.919,6.373,3.046,10.113,3.046c5.04,0,9.602-2.035,12.916-5.327c17.822-4.232,30.359-15.357,30.359-35.854
	c0-0.014-0.001-0.024-0.001-0.036C313.426,390.327,310.845,391.131,308.139,391.773z"/>
<path style="fill:#F7573E;" d="M318.123,392.61c-3.179,0-6.193-1.886-7.478-5.008c-1.7-4.128,0.269-8.854,4.397-10.555l18.324-7.545
	c4.129-1.696,8.853,0.27,10.553,4.398c1.7,4.128-0.269,8.854-4.397,10.553l-18.324,7.545
	C320.192,392.414,319.148,392.61,318.123,392.61z"/>
<g>
	<path style="fill:#E2AA59;" d="M105.775,401.211h-6.467c-4.465,0-8.084,3.62-8.084,8.084c0,4.465,3.62,8.083,8.084,8.083h6.467
		c4.464,0,8.084-3.618,8.084-8.083C113.859,404.831,110.24,401.211,105.775,401.211z"/>
	<path style="fill:#E2AA59;" d="M71.283,376.419H62.66c-4.465,0-8.084,3.62-8.084,8.084c0,4.465,3.62,8.084,8.084,8.084h8.622
		c4.465,0,8.084-3.62,8.084-8.084C79.366,380.038,75.748,376.419,71.283,376.419z"/>
</g>
<path style="fill:#A5DBD8;" d="M29.932,442.596c6.853,36.964,39.243,64.967,78.194,64.967h295.747
	c38.952,0,71.341-28.002,78.194-64.967H29.932z"/>
<path style="opacity:0.1;enable-background:new    ;" d="M86.273,442.596H29.932c6.853,36.964,39.243,64.967,78.194,64.967h56.341
	C125.516,507.563,93.127,479.561,86.273,442.596z"/>
<path style="fill:#E5713E;" d="M449.918,265.708c-8.658-8.658-32.519,1.169-53.298,21.947
	c-20.778,20.78-30.604,44.642-21.946,53.299c0.418,0.417,0.88,0.78,1.368,1.111c6.946,6.41,23.895,9.586,43.107,7.311
	c24.424-2.886,43.25-13.476,42.049-23.654c-0.861-7.281-11.744-12.378-26.81-13.629
	C450.673,293.181,457.628,273.417,449.918,265.708z"/>
<path style="fill:#F77B3E;" d="M385.879,336.277c-3.268,0-6.369-1.939-7.69-5.15c-1.747-4.245,0.277-9.105,4.522-10.853l18.845-7.76
	c4.245-1.743,9.104,0.279,10.852,4.523c1.748,4.245-0.277,9.104-4.522,10.853l-18.844,7.759
	C388.005,336.075,386.934,336.277,385.879,336.277z"/>
<path style="fill:#F2B549;" d="M383.554,332.969c0-18.524-9.96-29.603-24.813-34.973c-3.3-5.468-9.283-9.138-16.136-9.138
	c-4.91,0-9.37,1.891-12.724,4.968l-2.054-0.121c-3.258-6.965-10.306-11.797-18.502-11.797c-7.016,0-13.204,3.537-16.884,8.926
	c-3.203-7.103-10.33-12.056-18.627-12.056c-7.018,0-13.205,3.539-16.886,8.926c-3.202-7.103-10.33-12.056-18.628-12.056
	c-6.902,0-12.993,3.428-16.693,8.672c-3.356-8.474-11.605-14.474-21.271-14.474c-9.83,0-18.188,6.207-21.431,14.909
	c-3.52-8.113-11.593-13.791-21-13.791c-8.471,0-15.848,4.611-19.806,11.448l-0.509-0.03c-27.94,0-50.589,22.65-50.589,50.589
	c0,27.292,21.616,49.524,48.659,50.539c4.145,5.865,10.964,9.705,18.691,9.705c8.636,0,16.15-4.786,20.047-11.846l1.732-0.104
	c3.678,7.722,11.53,13.069,20.651,13.069c9.666,0,17.916-6.002,21.271-14.473c3.701,5.239,9.792,8.671,16.694,8.671
	c8.218,0,15.285-4.863,18.53-11.859l0.236-0.015c3.696,5.28,9.813,8.742,16.746,8.742c7.805,0,14.585-4.379,18.027-10.809
	l1.468-0.09c3.743,4.726,9.52,7.769,16.017,7.769c7.368,0,13.804-3.912,17.401-9.758l5.479-0.324
	c2.981,1.974,6.554,3.133,10.4,3.133c5.183,0,9.873-2.094,13.282-5.478C370.661,365.489,383.554,354.046,383.554,332.969z"/>
<path style="opacity:0.1;enable-background:new    ;" d="M373.182,341.801c-3.846,0-7.418-1.159-10.4-3.133l-5.479,0.325
	c-3.597,5.845-10.033,9.758-17.401,9.758c-6.497,0-12.274-3.043-16.017-7.769l-1.468,0.09c-3.443,6.429-10.221,10.809-18.027,10.809
	c-6.934,0-13.05-3.462-16.746-8.742l-0.236,0.016c-3.246,6.995-10.313,11.858-18.53,11.858c-6.903,0-12.993-3.431-16.694-8.671
	c-3.356,8.47-11.605,14.473-21.271,14.473c-9.122,0-16.973-5.347-20.651-13.069l-1.732,0.104
	c-3.899,7.06-11.411,11.847-20.047,11.847c-7.728,0-14.546-3.84-18.692-9.705c-27.043-1.016-48.659-23.248-48.659-50.54
	c0-5.238,0.796-10.289,2.274-15.041C102.372,290.547,87,309.959,87,332.972c0,27.292,21.616,49.524,48.659,50.539
	c4.145,5.865,10.964,9.705,18.691,9.705c8.636,0,16.15-4.786,20.047-11.846l1.732-0.104c3.678,7.722,11.53,13.069,20.651,13.069
	c9.666,0,17.916-6.002,21.271-14.473c3.701,5.239,9.792,8.671,16.694,8.671c8.218,0,15.285-4.863,18.53-11.859l0.236-0.015
	c3.696,5.28,9.813,8.742,16.746,8.742c7.805,0,14.585-4.379,18.027-10.809l1.468-0.09c3.743,4.726,9.52,7.769,16.017,7.769
	c7.368,0,13.804-3.912,17.401-9.758l5.479-0.324c2.981,1.974,6.554,3.133,10.4,3.133c5.183,0,9.873-2.094,13.282-5.478
	c16.524-3.924,28.626-13.614,30.848-30.933C380.281,340.731,376.861,341.801,373.182,341.801z"/>
<path style="fill:#F7C677;" d="M164.184,317.41h-9.977c-4.591,0-8.313-3.721-8.313-8.313c0-4.593,3.722-8.314,8.313-8.314h9.977
	c4.591,0,8.313,3.722,8.313,8.314C172.497,313.688,168.774,317.41,164.184,317.41z"/>
<g>
	<path style="fill:#CE953A;" d="M211.335,332.257h-8.91c-4.591,0-8.313-3.723-8.313-8.314c0-4.592,3.722-8.313,8.313-8.313h8.91
		c4.592,0,8.313,3.721,8.313,8.313C219.649,328.535,215.927,332.257,211.335,332.257z"/>
	<path style="fill:#CE953A;" d="M167.509,361.747h-6.652c-4.591,0-8.313-3.72-8.313-8.313c0-4.592,3.722-8.312,8.313-8.312h6.652
		c4.591,0,8.313,3.721,8.313,8.312C175.822,358.027,172.1,361.747,167.509,361.747z"/>
</g>
<path style="fill:#F7C677;" d="M270.596,317.41h-9.977c-4.591,0-8.313-3.721-8.313-8.313c0-4.593,3.723-8.314,8.313-8.314h9.977
	c4.591,0,8.314,3.722,8.314,8.314C278.909,313.688,275.187,317.41,270.596,317.41z"/>
<path style="fill:#CE953A;" d="M132.037,336.254h-8.867c-4.591,0-8.313-3.721-8.313-8.314c0-4.592,3.723-8.312,8.313-8.312h8.867
	c4.591,0,8.313,3.72,8.313,8.312C140.352,332.532,136.63,336.254,132.037,336.254z"/>
<path style="fill:#F78D3E;" d="M488.807,321.958c-8.796-8.796-33.038,1.187-54.146,22.296
	c-21.109,21.109-31.091,45.351-22.295,54.147c0.424,0.424,0.894,0.79,1.389,1.127c7.057,6.512,24.275,9.736,43.794,7.427
	c24.813-2.934,43.938-13.693,42.716-24.033c-0.875-7.397-11.931-12.571-27.235-13.846
	C489.573,349.868,496.639,329.789,488.807,321.958z"/>
<path style="fill:#F7573E;" d="M423.749,393.648c-3.321,0-6.47-1.971-7.813-5.232c-1.776-4.313,0.281-9.25,4.594-11.026
	l19.144-7.883c4.313-1.771,9.248,0.281,11.025,4.593c1.776,4.314-0.281,9.252-4.594,11.027l-19.144,7.882
	C425.909,393.443,424.82,393.648,423.749,393.648z"/>
<path id="SVGCleanerId_0" style="fill:#F7C677;" d="M421.387,390.288c0-18.82-10.119-30.073-25.208-35.528
	c-3.353-5.558-9.43-9.287-16.393-9.287c-4.988,0-9.518,1.926-12.926,5.048l-2.088-0.122c-3.309-7.074-10.471-11.986-18.796-11.986
	c-7.129,0-13.414,3.595-17.154,9.072c-3.253-7.216-10.494-12.251-18.924-12.251c-7.129,0-13.414,3.596-17.154,9.071
	c-3.253-7.219-10.494-12.25-18.924-12.25c-7.011,0-13.199,3.485-16.958,8.809c-3.411-8.606-11.791-14.703-21.611-14.703
	c-9.986,0-18.477,6.305-21.773,15.145c-3.576-8.242-11.778-14.01-21.334-14.01c-8.606,0-16.099,4.683-20.122,11.633l-0.516-0.032
	c-28.385,0-51.393,23.01-51.393,51.394c0,27.726,21.96,50.313,49.433,51.345c4.212,5.958,11.139,9.858,18.989,9.858
	c8.773,0,16.406-4.86,20.366-12.035l1.761-0.103c3.738,7.841,11.714,13.272,20.98,13.272c9.82,0,18.201-6.094,21.61-14.702
	c3.76,5.324,9.947,8.808,16.96,8.808c8.349,0,15.527-4.938,18.825-12.046l0.24-0.015c3.754,5.365,9.968,8.88,17.012,8.88
	c7.93,0,14.816-4.447,18.313-10.982l1.492-0.089c3.803,4.802,9.672,7.89,16.272,7.89c7.485,0,14.024-3.972,17.677-9.91l5.567-0.331
	c3.03,2.007,6.658,3.182,10.564,3.182c5.265,0,10.032-2.124,13.494-5.562C408.289,423.326,421.387,411.7,421.387,390.288z"/>
<g>
	<path id="SVGCleanerId_0_1_" style="fill:#F7C677;" d="M421.387,390.288c0-18.82-10.119-30.073-25.208-35.528
		c-3.353-5.558-9.43-9.287-16.393-9.287c-4.988,0-9.518,1.926-12.926,5.048l-2.088-0.122c-3.309-7.074-10.471-11.986-18.796-11.986
		c-7.129,0-13.414,3.595-17.154,9.072c-3.253-7.216-10.494-12.251-18.924-12.251c-7.129,0-13.414,3.596-17.154,9.071
		c-3.253-7.219-10.494-12.25-18.924-12.25c-7.011,0-13.199,3.485-16.958,8.809c-3.411-8.606-11.791-14.703-21.611-14.703
		c-9.986,0-18.477,6.305-21.773,15.145c-3.576-8.242-11.778-14.01-21.334-14.01c-8.606,0-16.099,4.683-20.122,11.633l-0.516-0.032
		c-28.385,0-51.393,23.01-51.393,51.394c0,27.726,21.96,50.313,49.433,51.345c4.212,5.958,11.139,9.858,18.989,9.858
		c8.773,0,16.406-4.86,20.366-12.035l1.761-0.103c3.738,7.841,11.714,13.272,20.98,13.272c9.82,0,18.201-6.094,21.61-14.702
		c3.76,5.324,9.947,8.808,16.96,8.808c8.349,0,15.527-4.938,18.825-12.046l0.24-0.015c3.754,5.365,9.968,8.88,17.012,8.88
		c7.93,0,14.816-4.447,18.313-10.982l1.492-0.089c3.803,4.802,9.672,7.89,16.272,7.89c7.485,0,14.024-3.972,17.677-9.91l5.567-0.331
		c3.03,2.007,6.658,3.182,10.564,3.182c5.265,0,10.032-2.124,13.494-5.562C408.289,423.326,421.387,411.7,421.387,390.288z"/>
</g>
<path style="opacity:0.1;enable-background:new    ;" d="M409.663,399.53c-3.907,0-7.536-1.174-10.565-3.183l-5.567,0.331
	c-3.653,5.94-10.192,9.911-17.678,9.911c-6.601,0-12.47-3.088-16.272-7.89l-1.492,0.089c-3.497,6.535-10.384,10.982-18.313,10.982
	c-7.045,0-13.259-3.515-17.013-8.88l-0.239,0.014c-3.298,7.108-10.476,12.047-18.825,12.047c-7.012,0-13.2-3.485-16.96-8.81
	c-3.41,8.609-11.79,14.702-21.61,14.702c-9.266,0-17.243-5.431-20.981-13.272l-1.761,0.103c-3.96,7.174-11.593,12.035-20.366,12.035
	c-7.851,0-14.778-3.898-18.989-9.857c-27.474-1.03-49.433-23.617-49.433-51.344c0-5.287,0.8-10.387,2.283-15.189
	c-20.742,6.614-35.769,26.033-35.769,48.968c0,27.726,21.96,50.313,49.433,51.345c4.212,5.958,11.139,9.858,18.989,9.858
	c8.773,0,16.406-4.86,20.366-12.035l1.761-0.103c3.738,7.841,11.714,13.272,20.98,13.272c9.82,0,18.201-6.094,21.61-14.702
	c3.76,5.324,9.947,8.808,16.96,8.808c8.349,0,15.527-4.938,18.825-12.046l0.24-0.015c3.754,5.365,9.968,8.88,17.012,8.88
	c7.93,0,14.816-4.447,18.313-10.982l1.492-0.089c3.803,4.802,9.672,7.89,16.272,7.89c7.485,0,14.024-3.972,17.677-9.91l5.567-0.331
	c3.03,2.007,6.658,3.182,10.564,3.182c5.265,0,10.032-2.124,13.494-5.562c16.975-4.029,29.356-14.054,31.411-32.02
	C417.891,398.105,413.949,399.53,409.663,399.53z"/>
<path style="fill:#F9E3C2;" d="M198.526,370.419h-10.134c-4.664,0-8.446-3.78-8.446-8.446s3.781-8.445,8.446-8.445h10.134
	c4.663,0,8.445,3.779,8.445,8.445C206.972,366.638,203.19,370.419,198.526,370.419z"/>
<g>
	<path style="fill:#E2AA59;" d="M237.961,394.067h-9.052c-4.664,0-8.446-3.779-8.446-8.445s3.781-8.447,8.446-8.447h9.052
		c4.664,0,8.446,3.781,8.446,8.447S242.625,394.067,237.961,394.067z"/>
	<path style="fill:#E2AA59;" d="M295.977,373.414h-9.052c-4.664,0-8.446-3.779-8.446-8.445s3.781-8.446,8.446-8.446h9.052
		c4.663,0,8.446,3.78,8.446,8.446S300.641,373.414,295.977,373.414z"/>
	<path style="fill:#E2AA59;" d="M201.905,415.462h-6.756c-4.664,0-8.446-3.78-8.446-8.446s3.781-8.446,8.446-8.446h6.756
		c4.664,0,8.446,3.78,8.446,8.446C210.35,411.682,206.569,415.462,201.905,415.462z"/>
</g>
<g>
	<path style="fill:#F9E3C2;" d="M279.605,405.328h-7.883c-4.664,0-8.445-3.78-8.445-8.446s3.781-8.446,8.445-8.446h7.883
		c4.664,0,8.446,3.78,8.446,8.446S284.27,405.328,279.605,405.328z"/>
	<path style="fill:#F9E3C2;" d="M341.541,397.445h-9.008c-4.664,0-8.446-3.78-8.446-8.446c0-4.664,3.781-8.445,8.446-8.445h9.008
		c4.664,0,8.446,3.78,8.446,8.445C349.986,393.665,346.205,397.445,341.541,397.445z"/>
</g>
<path style="fill:#E2AA59;" d="M163.66,394.067h-9.052c-4.663,0-8.446-3.779-8.446-8.445s3.781-8.447,8.446-8.447h9.052
	c4.664,0,8.446,3.781,8.446,8.447C172.105,390.288,168.325,394.067,163.66,394.067z"/>
<path style="fill:#F2D8A0;" d="M308.037,60.698h-23.406c-4.465,0-8.084,3.62-8.084,8.083c0,4.465,3.62,8.084,8.084,8.084h23.406
	c14.248,0,25.84,11.592,25.84,25.839c0,14.249-11.592,25.839-25.84,25.839h-67.32c-20.132,0-36.51,16.379-36.51,36.51v18.456
	c0,4.465,3.62,8.084,8.084,8.084s8.084-3.62,8.084-8.084v-18.456c0-11.216,9.124-20.342,20.341-20.342h67.32
	c23.163,0,42.009-18.845,42.009-42.008S331.201,60.698,308.037,60.698z"/>
<path style="fill:#FCE9C3;" d="M258.454,91.626h-52.907c-24.037,0-43.593-19.556-43.593-43.594S181.51,4.437,205.547,4.437h18.995
	c4.464,0,8.083,3.62,8.083,8.084s-3.62,8.083-8.083,8.083h-18.995c-15.122,0-27.424,12.303-27.424,27.425
	s12.303,27.425,27.424,27.425h52.907c4.465,0,8.084,3.618,8.084,8.083C266.538,88.007,262.919,91.626,258.454,91.626z"/>
<path style="fill:#ACEBE9;" d="M512,443.592c0,5.65-4.678,10.234-10.449,10.234H10.449C4.678,453.826,0,449.242,0,443.592v-3.07
	c0-5.653,4.678-10.234,10.449-10.234h491.102c5.771,0,10.449,4.581,10.449,10.234V443.592z"/>
<path style="opacity:0.1;enable-background:new    ;" d="M54.434,443.592v-3.07c0-5.653,4.678-10.234,10.449-10.234H10.449
	C4.678,430.288,0,434.869,0,440.522v3.07c0,5.65,4.678,10.234,10.449,10.234h54.434C59.112,453.826,54.434,449.243,54.434,443.592z"
	/>
<g>
</g>
<g>
</g>
<g>
</g>
<g>
</g>
<g>
</g>
<g>
</g>
<g>
</g>
<g>
</g>
<g>
</g>
<g>
</g>
<g>
</g>
<g>
</g>
<g>
</g>
<g>
</g>
<g>
</g>
</svg>
