<?xml version="1.0" encoding="iso-8859-1"?>
<!-- Generator: Adobe Illustrator 19.0.0, SVG Export Plug-In . SVG Version: 6.00 Build 0)  -->
<svg version="1.1" id="Layer_1" xmlns="http://www.w3.org/2000/svg" xmlns:xlink="http://www.w3.org/1999/xlink" x="0px" y="0px"
	 viewBox="0 0 512 512" style="enable-background:new 0 0 512 512;" xml:space="preserve">
<path style="fill:#E6E6E6;" d="M144.505,512h222.99V320.303c-13.073-8.335-28.829-13.103-46.822-13.103H191.326
	c-17.993,0-33.749,4.769-46.822,13.103V512H144.505z"/>
<path style="fill:#294D73;" d="M357.684,314.855l-87.683,151.874c-2.889,5.002-8.225,8.084-14.002,8.084
	c-5.776,0-11.114-3.082-14.002-8.084l-87.666-151.813c-36.867,14.823-52.472,50.423-52.472,92.529v93.776
	c0,5.953,4.826,10.779,10.778,10.779h286.72c5.952,0,10.778-4.826,10.778-10.779v-93.776
	C410.139,365.338,394.55,329.678,357.684,314.855z"/>
<g style="opacity:0.1;">
	<path d="M134.198,501.221v-93.776c0-31.565,8.609-59.765,28.452-78.152l-8.316-14.377c-36.867,14.823-52.472,50.423-52.472,92.529
		v93.776c0,5.953,4.826,10.779,10.778,10.779h32.336C139.025,512,134.198,507.174,134.198,501.221z"/>
</g>
<path style="fill:#C1C1C1;" d="M323.843,303.835c0-11.257-9.121-20.381-20.373-20.381h-47.796l-12.931,12.934
	c-3.275,3.277-3.275,8.588,0,11.863l47.445,47.455c3.275,3.276,8.585,3.276,11.86,0l21.93-21.936L323.843,303.835z"/>
<path style="fill:#CCCCCC;" d="M209.819,355.706c3.274,3.276,8.584,3.276,11.86,0l47.443-47.455c3.277-3.276,3.277-8.587,0-11.863
	l-12.93-12.934h-47.797c-11.251,0-20.372,9.124-20.372,20.381v30.069L209.819,355.706z"/>
<path style="fill:#E6E6E6;" d="M377.802,452.716h-62.518c-4.465,0-8.083-3.62-8.083-8.084c0-4.465,3.618-8.084,8.083-8.084h62.518
	c4.465,0,8.084,3.62,8.084,8.084C385.887,449.096,382.268,452.716,377.802,452.716z"/>
<path style="fill:#FFAB5F;" d="M97.549,272.169c-5.952,0-10.778-4.826-10.778-10.779V135.815C86.77,60.927,147.697,0,222.585,0
	h66.829C364.303,0,425.23,60.927,425.23,135.815V261.39c0,5.953-4.826,10.779-10.778,10.779H97.549z"/>
<path style="opacity:0.1;enable-background:new    ;" d="M119.107,261.39V135.815C119.107,60.927,180.034,0,254.923,0h-32.336
	C147.697,0,86.77,60.927,86.77,135.815V261.39c0,5.953,4.826,10.779,10.778,10.779h32.338
	C123.933,272.169,119.107,267.342,119.107,261.39z"/>
<g>
	<ellipse style="fill:#F4DBC3;" cx="154.603" cy="214.497" rx="35.138" ry="35.024"/>
	<ellipse style="fill:#F4DBC3;" cx="357.397" cy="214.497" rx="35.138" ry="35.024"/>
</g>
<path style="fill:#FFE7CC;" d="M369.487,213.735c0,54.465-56.517,98.616-111.159,98.616h-4.657
	c-54.642,0-111.16-44.151-111.16-98.616v-67.292c0-54.465,44.297-98.619,98.94-98.619h29.098c54.643,0,98.939,44.153,98.939,98.619
	v67.292H369.487z"/>
<path style="opacity:0.1;enable-background:new    ;" d="M164.454,213.735v-67.292c0-54.465,44.297-98.619,98.939-98.619h-21.942
	c-54.643,0-98.94,44.153-98.94,98.619v67.292c0,54.465,56.519,98.616,111.16,98.616h4.657c2.857,0,5.718-0.137,8.575-0.375
	C215.131,307.627,164.454,265.308,164.454,213.735z"/>
<g>
	<path style="fill:#534741;" d="M208.276,226.668c-4.465,0-8.083-3.62-8.083-8.084v-10.632c0-4.465,3.618-8.084,8.083-8.084
		c4.465,0,8.084,3.62,8.084,8.084v10.632C216.361,223.048,212.742,226.668,208.276,226.668z"/>
	<path style="fill:#534741;" d="M303.724,226.668c-4.465,0-8.084-3.62-8.084-8.084v-10.632c0-4.465,3.62-8.084,8.084-8.084
		c4.465,0,8.083,3.62,8.083,8.084v10.632C311.807,223.048,308.189,226.668,303.724,226.668z"/>
</g>
<path style="fill:#C4A486;" d="M256.001,275.941c-0.001,0-0.001,0-0.001,0c-9.142-0.001-17.736-3.56-24.2-10.025
	c-3.157-3.157-3.157-8.277,0.001-11.433c3.157-3.156,8.276-3.156,11.432,0.001c3.41,3.411,7.944,5.289,12.767,5.289
	c4.823,0,9.357-1.878,12.767-5.288c3.157-3.158,8.273-3.159,11.432-0.001c3.158,3.157,3.158,8.276,0.001,11.432
	C273.737,272.381,265.142,275.941,256.001,275.941z"/>
<path style="fill:#FFAB5F;" d="M326.512,176.463c-4.17,0-7.869-2.678-9.172-6.64l-12.2-37.114l-12.2,37.114
	c-1.302,3.962-5.002,6.64-9.172,6.64H139.409c-5.333,0-9.654-4.324-9.654-9.656v-31.321c0-62.226,50.759-101.533,113.154-101.533
	h26.181c62.394,0,113.155,39.307,113.155,101.533v31.321c0,5.333-4.323,9.656-9.655,9.656H326.512z"/>
<g style="opacity:0.1;">
	<path d="M271.177,126.114c-4.241-1.393-8.81,0.914-10.204,5.156l-15.308,45.195h17.472l13.197-40.145
		C277.728,132.077,275.421,127.508,271.177,126.114z"/>
	<path d="M223.549,176.463l13.197-40.145c1.394-4.241-0.913-8.811-5.156-10.204c-4.24-1.393-8.811,0.914-10.204,5.156L205.9,176.464
		h17.648V176.463z"/>
</g>
<path style="fill:#EF645E;" d="M310.181,306.176c-3.528-2.039-7.877-2.039-11.406,0L256,330.877l-42.774-24.701
	c-3.529-2.039-7.879-2.039-11.406,0c-3.529,2.039-5.703,5.804-5.703,9.882v50.335c0,4.075,2.174,7.843,5.703,9.882
	c3.528,2.038,7.877,2.038,11.406,0L256,351.572l42.774,24.703c3.529,2.038,7.879,2.038,11.406,0
	c3.529-2.039,5.703-5.807,5.703-9.882v-50.335C315.883,311.98,313.709,308.215,310.181,306.176z"/>
<path style="fill:#D84E4E;" d="M285.836,349.309h-59.671c-4.465,0-8.084-3.62-8.084-8.084c0-4.465,3.62-8.084,8.084-8.084h59.671
	c4.465,0,8.084,3.62,8.084,8.084C293.92,345.69,290.301,349.309,285.836,349.309z"/>
<g>
	<path style="fill:#BDD1CE;" d="M256,389.819c-4.606,0-8.338-3.733-8.338-8.339v-1.844c0-4.606,3.732-8.339,8.338-8.339
		c4.606,0,8.338,3.733,8.338,8.339v1.844C264.338,386.086,260.606,389.819,256,389.819z"/>
	<path style="fill:#BDD1CE;" d="M256,429.739c-4.606,0-8.338-3.733-8.338-8.339v-1.844c0-4.606,3.732-8.339,8.338-8.339
		c4.606,0,8.338,3.733,8.338,8.339v1.844C264.338,426.006,260.606,429.739,256,429.739z"/>
</g>
<g>
</g>
<g>
</g>
<g>
</g>
<g>
</g>
<g>
</g>
<g>
</g>
<g>
</g>
<g>
</g>
<g>
</g>
<g>
</g>
<g>
</g>
<g>
</g>
<g>
</g>
<g>
</g>
<g>
</g>
</svg>
