<?xml version="1.0" encoding="iso-8859-1"?>
<!-- Generator: Adobe Illustrator 19.0.0, SVG Export Plug-In . SVG Version: 6.00 Build 0)  -->
<svg version="1.1" id="Layer_1" xmlns="http://www.w3.org/2000/svg" xmlns:xlink="http://www.w3.org/1999/xlink" x="0px" y="0px"
	 viewBox="0 0 512 512" style="enable-background:new 0 0 512 512;" xml:space="preserve">
<path style="fill:#E6E6E6;" d="M377.548,335.988h-46.426v-18.269c0-12.449-10.09-22.541-22.536-22.541H203.413
	c-12.448,0-22.537,10.092-22.537,22.541v18.269h-46.425c-38.112,0-69.116,30.905-69.116,68.893v95.311
	c0,6.56,5.335,11.807,11.917,11.807h357.495c6.581,0,11.917-5.247,11.917-11.807V404.88
	C446.664,366.893,415.658,335.988,377.548,335.988z"/>
<g style="opacity:0.1;">
	<path d="M110.483,500.193V404.88c0-37.987,31.004-68.893,69.116-68.893h-45.148c-38.112,0-69.116,30.905-69.116,68.893v95.313
		c0,6.56,5.335,11.807,11.917,11.807H122.4C115.819,512,110.483,506.753,110.483,500.193z"/>
</g>
<g>
	<polygon style="fill:#294D73;" points="334.035,335.988 267.149,512 363.676,512 363.676,335.988 	"/>
	<polygon style="fill:#294D73;" points="177.963,335.988 148.322,335.988 148.322,512 244.849,512 	"/>
</g>
<path style="fill:#B3B3B3;" d="M264.083,512V357.322c0-4.465-3.62-8.084-8.084-8.084s-8.084,3.62-8.084,8.084V512H264.083z"/>
<path style="fill:#EF645E;" d="M310.18,320.321c-3.528-2.039-7.878-2.039-11.406,0l-42.775,24.699l-42.775-24.7
	c-3.529-2.039-7.879-2.039-11.406,0c-3.53,2.039-5.703,5.803-5.703,9.882v50.335c0,4.076,2.174,7.843,5.703,9.883
	c3.528,2.037,7.877,2.037,11.406,0l42.775-24.702l42.774,24.702c3.529,2.037,7.879,2.037,11.406,0
	c3.53-2.039,5.703-5.805,5.703-9.883v-50.335C315.883,326.124,313.709,322.359,310.18,320.321z"/>
<path style="fill:#D84E4E;" d="M285.835,363.453h-59.672c-4.465,0-8.084-3.62-8.084-8.084c0-4.465,3.62-8.084,8.084-8.084h59.672
	c4.465,0,8.084,3.62,8.084,8.084C293.919,359.835,290.3,363.453,285.835,363.453z"/>
<path style="fill:#E6E6E6;" d="M340.781,477.15h-32.195c-4.465,0-8.084-3.62-8.084-8.084c0-4.465,3.62-8.084,8.084-8.084h32.195
	c4.465,0,8.084,3.62,8.084,8.084C348.864,473.53,345.246,477.15,340.781,477.15z"/>
<g>
	<ellipse style="fill:#F4DBC3;" cx="154.602" cy="203.013" rx="35.138" ry="35.025"/>
	<ellipse style="fill:#F4DBC3;" cx="357.396" cy="203.013" rx="35.138" ry="35.025"/>
</g>
<path style="fill:#FFE7CC;" d="M369.486,213.734c0,54.465-56.517,98.617-111.158,98.617h-4.657
	c-54.641,0-111.159-44.152-111.159-98.617v-67.292c0-54.464,44.295-98.617,98.937-98.617h29.1c54.642,0,98.937,44.153,98.937,98.617
	V213.734z"/>
<path style="opacity:0.1;enable-background:new    ;" d="M164.453,213.734v-67.292c0-54.464,44.296-98.617,98.938-98.617H241.45
	c-54.642,0-98.937,44.153-98.937,98.617v67.292c0,54.465,56.517,98.617,111.159,98.617h4.657c2.857,0,5.718-0.137,8.575-0.375
	C215.13,307.628,164.453,265.308,164.453,213.734z"/>
<g>
	<path style="fill:#534741;" d="M208.276,226.668c-4.465,0-8.084-3.62-8.084-8.084v-10.632c0-4.465,3.62-8.084,8.084-8.084
		s8.084,3.62,8.084,8.084v10.632C216.36,223.048,212.741,226.668,208.276,226.668z"/>
	<path style="fill:#534741;" d="M303.722,226.668c-4.465,0-8.084-3.62-8.084-8.084v-10.632c0-4.465,3.62-8.084,8.084-8.084
		c4.465,0,8.084,3.62,8.084,8.084v10.632C311.806,223.048,308.186,226.668,303.722,226.668z"/>
</g>
<path style="fill:#C4A486;" d="M256,275.941L256,275.941c-9.142-0.001-17.736-3.56-24.2-10.025c-3.157-3.157-3.157-8.276,0-11.432
	s8.277-3.157,11.432,0c3.411,3.411,7.944,5.289,12.767,5.289c4.822,0,9.356-1.878,12.767-5.288
	c3.157-3.158,8.276-3.158,11.432-0.001c3.157,3.157,3.158,8.276,0.001,11.432C273.735,272.381,265.141,275.941,256,275.941z"/>
<g>
	<path style="fill:#C69C6D;" d="M162.453,172.817h5.463c48.387,0,98.022-29.524,119.441-71.485
		c21.757,21.503,51.598,36.205,82.13,39.821V98.617C369.487,44.153,325.192,0,270.55,0h-29.1c-54.642,0-98.937,44.152-98.937,98.617
		v67.292c0,1.771,0.064,3.53,0.181,5.278C149.252,172.247,155.863,172.817,162.453,172.817z"/>
	<path style="fill:#C69C6D;" d="M167.915,172.817c48.387,0,98.022-29.524,119.441-71.485"/>
</g>
<path style="opacity:0.1;enable-background:new    ;" d="M164.453,165.91V98.617C164.453,44.152,208.749,0,263.391,0h-21.942
	c-54.642,0-98.937,44.152-98.937,98.617v67.292c0,1.771,0.064,3.53,0.181,5.278c6.561,1.06,13.171,1.628,19.761,1.628h2.034
	C164.465,169.604,164.453,166.678,164.453,165.91z"/>
<g>
	<path style="fill:#997755;" d="M267.137,81.929c-3.976-2.028-8.845-0.452-10.875,3.524c-15.227,29.831-51.8,51.875-86.981,52.433
		h-26.768v16.169h26.83c0.042,0,0.083-0.001,0.123-0.001c19.852-0.302,40.868-6.552,59.176-17.598
		c18.395-11.099,33.32-26.602,42.023-43.651C272.692,88.829,271.113,83.96,267.137,81.929z"/>
	<path style="fill:#997755;" d="M169.264,127.219c14.341-0.258,29.801-4.724,43.529-12.577c3.874-2.217,5.22-7.157,3.003-11.032
		c-2.217-3.877-7.157-5.222-11.032-3.003c-11.386,6.513-24.07,10.221-35.722,10.445h-26.533v16.169h26.607
		C169.167,127.22,169.216,127.22,169.264,127.219z"/>
</g>
<g>
</g>
<g>
</g>
<g>
</g>
<g>
</g>
<g>
</g>
<g>
</g>
<g>
</g>
<g>
</g>
<g>
</g>
<g>
</g>
<g>
</g>
<g>
</g>
<g>
</g>
<g>
</g>
<g>
</g>
</svg>
