<?xml version="1.0" encoding="iso-8859-1"?>
<!-- Generator: Adobe Illustrator 19.0.0, SVG Export Plug-In . SVG Version: 6.00 Build 0)  -->
<svg version="1.1" id="Layer_1" xmlns="http://www.w3.org/2000/svg" xmlns:xlink="http://www.w3.org/1999/xlink" x="0px" y="0px"
	 viewBox="0 0 512 512" style="enable-background:new 0 0 512 512;" xml:space="preserve">
<g>
	<path style="fill:#D4F4F1;" d="M246.086,383.518V264.979c14.718-18.279,23.508-41.38,23.508-66.499
		c0-48.109-32.231-88.819-76.629-102.418V37.37c0-6.082-4.935-11.013-11.023-11.013h-42.985c-6.084,0-11.022,4.931-11.022,11.013
		v58.692C83.54,109.66,51.308,150.37,51.308,198.479c0,25.12,8.792,48.22,23.509,66.5v118.538
		c-12.32,1.613-21.83,11.976-21.83,24.526v79.205c0,13.669,11.278,24.75,25.188,24.75h164.553c13.911,0,25.186-11.081,25.186-24.752
		v-79.205C267.914,395.494,258.408,385.132,246.086,383.518z"/>
	<path style="fill:#D4F4F1;" d="M449.671,494.382c0,6.08-4.934,11.011-11.022,11.011H330.637c-6.088,0-11.023-4.931-11.023-11.011
		v-17.62c0-6.081,4.935-11.012,11.023-11.012h108.012c6.088,0,11.022,4.931,11.022,11.012V494.382z"/>
</g>
<path style="fill:#FFAB5F;" d="M86.052,489.977c-6.088,0-11.022-4.932-11.022-11.013v-64.376c0-4.635,2.904-8.773,7.263-10.353
	c8.713-3.156,14.567-11.481,14.567-20.715V264.98c0-5.004-1.729-9.906-4.867-13.805c-3.171-3.938-5.989-8.14-8.377-12.489
	c-1.875-3.412-1.807-7.557,0.177-10.907c1.985-3.349,5.591-5.403,9.486-5.403h134.343c3.896,0,7.502,2.054,9.485,5.403
	c1.985,3.349,2.052,7.495,0.179,10.907c-2.39,4.35-5.207,8.554-8.376,12.488c-3.139,3.899-4.867,8.802-4.867,13.805v118.539
	c0,9.233,5.854,17.559,14.565,20.715c4.359,1.58,7.264,5.718,7.264,10.352v64.377c0,6.081-4.937,11.013-11.023,11.013H86.052
	V489.977z"/>
<rect x="127.937" y="84.835" style="fill:#A9D3CE;" width="65.024" height="10.78"/>
<path style="opacity:0.1;enable-background:new    ;" d="M78.175,512c-13.889,0-25.188-11.103-25.188-24.752v-79.205
	c0-12.352,9.385-22.896,21.832-24.526l-0.001-118.538c-15.38-19.102-23.509-42.098-23.509-66.5c0-23.333,7.492-45.516,21.666-64.152
	c13.704-18.018,33.224-31.608,54.963-38.266V37.369c0-6.072,4.943-11.013,11.022-11.013h29.709c1.758,0,3.404,0.856,4.413,2.294
	c1.01,1.438,1.254,3.278,0.657,4.929c-0.437,1.208-0.658,2.483-0.658,3.791V92.15c0,2.299-1.458,4.344-3.629,5.095
	c-20.238,6.997-38.468,20.168-51.335,37.082c-14.173,18.637-21.665,40.818-21.665,64.152c0,23.76,7.736,46.259,22.372,65.064
	c0.738,0.947,1.138,2.112,1.138,3.311v112.309c0,2.392-1.575,4.496-3.868,5.17c-10.576,3.116-17.962,12.866-17.962,23.71v79.205
	c0,5.788,2.086,11.423,5.872,15.866c1.364,1.599,1.673,3.847,0.791,5.755c-0.881,1.909-2.792,3.131-4.894,3.131H78.175V512z"/>
<path style="fill:#D4F4F1;" d="M325.125,486.672c-9.118,0-16.532-7.409-16.532-16.519v-196.02c0-6.08,4.936-11.011,11.022-11.011
	h130.056c6.088,0,11.022,4.931,11.022,11.011v196.02c0,9.109-7.416,16.519-16.531,16.519L325.125,486.672L325.125,486.672z"/>
<path style="fill:#FFAB5F;" d="M308.593,341.311v128.843c0,9.109,7.416,16.519,16.532,16.519H444.16
	c9.117,0,16.531-7.409,16.531-16.519V341.311H308.593z"/>
<g>
	<path style="fill:#FFFFFF;" d="M369.882,380.257c2.617,2.614,2.582,6.89-0.08,9.548l-13.006,12.996
		c-2.662,2.659-6.941,2.694-9.557,0.079l-12.795-12.782c-2.615-2.614-2.582-6.89,0.079-9.55l13.008-12.997
		c2.66-2.658,6.94-2.691,9.557-0.077L369.882,380.257z"/>
	<path style="fill:#FFFFFF;" d="M429.735,404.483c2.619,2.614,2.582,6.891-0.078,9.549L416.65,427.03
		c-2.662,2.659-6.941,2.694-9.557,0.078L394.3,414.327c-2.616-2.614-2.583-6.89,0.078-9.55l13.008-12.996
		c2.659-2.657,6.94-2.692,9.557-0.078L429.735,404.483z"/>
</g>
<path style="opacity:0.1;enable-background:new    ;" d="M342.149,470.153v-196.02c0-6.08,4.936-11.011,11.022-11.011h-33.556
	c-6.085,0-11.022,4.931-11.022,11.011v196.02c0,9.109,7.416,16.519,16.532,16.519h33.556
	C349.565,486.672,342.149,479.262,342.149,470.153z"/>
<path style="fill:#FFFFFF;" d="M367.008,438.218c2.945,0,5.331,2.426,5.331,5.419v14.624c0,2.993-2.387,5.419-5.331,5.419H352.61
	c-2.943,0.001-5.333-2.425-5.333-5.419v-14.625c0-2.989,2.389-5.416,5.333-5.416L367.008,438.218z"/>
<rect x="74.815" y="279.615" style="fill:#7C3673;" width="171.269" height="92.954"/>
<rect x="74.815" y="279.615" style="opacity:0.1;enable-background:new    ;" width="44.411" height="92.954"/>
<g>
	<path style="fill:#FFE060;" d="M194.512,316.359h-68.125c-4.465,0-8.084-3.62-8.084-8.085c0-4.465,3.62-8.084,8.084-8.084h68.125
		c4.466,0,8.085,3.62,8.085,8.084C202.598,312.739,198.979,316.359,194.512,316.359z"/>
	<path style="fill:#FFE060;" d="M179.547,351.667h-38.193c-4.465,0-8.084-3.62-8.084-8.085c0-4.465,3.62-8.084,8.084-8.084h38.193
		c4.466,0,8.085,3.62,8.085,8.084C187.632,348.047,184.013,351.667,179.547,351.667z"/>
</g>
<path style="fill:#7C3673;" d="M208.307,52.804c0,9.114-7.518,16.501-16.79,16.501h-62.129c-9.272,0-16.79-7.387-16.79-16.501
	V16.502c0-9.114,7.518-16.502,16.79-16.502h62.129c9.272,0,16.79,7.388,16.79,16.502V52.804z"/>
<g>
	<rect x="179.304" style="fill:#60265C;" width="10.78" height="69.308"/>
	<rect x="155.063" style="fill:#60265C;" width="10.78" height="69.308"/>
	<rect x="130.811" style="fill:#60265C;" width="10.78" height="69.308"/>
</g>
<g>
	<path style="fill:#FFFFFF;" d="M393.734,304.161c12.594,5.216,16.823,9.445,22.039,22.039c5.216-12.594,9.445-16.823,22.039-22.039
		c-12.594-5.216-16.823-9.445-22.039-22.039C410.557,294.717,406.328,298.945,393.734,304.161z"/>
	<circle style="fill:#FFFFFF;" cx="440.017" cy="334.482" r="11.376"/>
	<path style="fill:#FFFFFF;" d="M239.335,151.014c-16.435,6.808-21.954,12.327-28.761,28.761
		c-6.809-16.435-12.327-21.954-28.761-28.761c16.435-6.809,21.953-12.327,28.761-28.761
		C217.381,138.688,222.9,144.206,239.335,151.014z"/>
	<circle style="fill:#FFFFFF;" cx="241.225" cy="188.228" r="12.689"/>
</g>
<g>
</g>
<g>
</g>
<g>
</g>
<g>
</g>
<g>
</g>
<g>
</g>
<g>
</g>
<g>
</g>
<g>
</g>
<g>
</g>
<g>
</g>
<g>
</g>
<g>
</g>
<g>
</g>
<g>
</g>
</svg>
