<?xml version="1.0" encoding="iso-8859-1"?>
<!-- Generator: Adobe Illustrator 19.0.0, SVG Export Plug-In . SVG Version: 6.00 Build 0)  -->
<svg version="1.1" id="Layer_1" xmlns="http://www.w3.org/2000/svg" xmlns:xlink="http://www.w3.org/1999/xlink" x="0px" y="0px"
	 viewBox="0 0 512 512" style="enable-background:new 0 0 512 512;" xml:space="preserve">
<path style="fill:#6C384A;" d="M177.381,175.345V85.682H115.71v89.664c-33.195,12.197-56.88,43.475-56.88,80.06v238.001
	c0,10.269,8.537,18.594,19.069,18.594h137.294c10.532,0,19.068-8.325,19.068-18.594v-238
	C234.262,218.821,210.578,187.542,177.381,175.345z"/>
<path style="fill:#91C6C4;" d="M359.701,502.964c-4.465,0-8.084-3.62-8.084-8.084v-83.953c0-4.465,3.62-8.084,8.084-8.084
	c4.465,0,8.084,3.62,8.084,8.084v83.953C367.785,499.344,364.166,502.964,359.701,502.964z"/>
<path style="opacity:0.1;enable-background:new    ;" d="M115.711,91.082v84.264c-34.022,12.501-56.88,44.675-56.88,80.06v238.001
	C58.831,503.66,67.386,512,77.9,512h3.747c5.953,0,10.779-4.826,10.779-10.778V277.62c0-32.986,19.857-63.395,50.589-77.469
	c3.833-1.755,6.29-5.585,6.29-9.8V91.082H115.711z"/>
<rect x="58.829" y="280.712" style="fill:#EFDFBB;" width="175.428" height="124.897"/>
<path style="fill:#ACEBE9;" d="M359.701,414.58c-51.54,0-93.47-41.931-93.47-93.47c0-19.979,6.57-39.807,18.501-55.826
	c1.783-2.392,4.588-3.802,7.57-3.802H427.1c2.982,0,5.788,1.411,7.57,3.802c11.931,16.018,18.501,35.846,18.501,55.826
	C453.171,372.649,411.241,414.58,359.701,414.58z"/>
<path style="fill:#6C384A;" d="M359.701,392.488c-31.873,0-60.124-21.401-68.702-52.044c-0.455-1.623-0.123-3.367,0.897-4.709
	c1.019-1.343,2.608-2.133,4.293-2.133h127.023c1.686,0,3.275,0.79,4.293,2.133c1.019,1.343,1.35,3.087,0.895,4.709
	C419.825,371.087,391.574,392.488,359.701,392.488z"/>
<path style="opacity:0.1;enable-background:new    ;" d="M299.73,321.109c0-19.98,6.57-39.807,18.501-55.826
	c1.783-2.392,4.588-3.802,7.57-3.802h-33.499c-2.982,0-5.789,1.411-7.57,3.802c-11.931,16.018-18.501,35.846-18.501,55.826
	c0,51.54,41.931,93.47,93.47,93.47c5.717,0,11.314-0.517,16.75-1.506C332.875,405.158,299.73,366.933,299.73,321.109z"/>
<g>
	<path style="fill:#542B3B;" d="M182.705,328.758h-70.672c-4.465,0-8.084-3.62-8.084-8.084c0-4.465,3.62-8.083,8.084-8.083h70.672
		c4.465,0,8.084,3.618,8.084,8.083C190.788,325.139,187.169,328.758,182.705,328.758z"/>
	<path style="fill:#542B3B;" d="M169.546,363.251H125.19c-4.465,0-8.084-3.62-8.084-8.084c0-4.465,3.62-8.084,8.084-8.084h44.356
		c4.465,0,8.084,3.62,8.084,8.084C177.631,359.632,174.011,363.251,169.546,363.251z"/>
</g>
<path style="fill:#3F202D;" d="M58.831,479.769h81.046c4.464,0,8.084-3.618,8.084-8.083c0-4.465-3.62-8.084-8.084-8.084H58.831
	V479.769z"/>
<path style="fill:#FFE060;" d="M115.711,94.442V10.493C115.711,4.699,120.823,0,127.132,0h38.829c6.306,0,11.42,4.699,11.42,10.493
	v83.949H115.711z"/>
<path style="fill:#3F202D;" d="M181.038,479.769h-19.37c-4.465,0-8.084-3.618-8.084-8.083c0-4.465,3.62-8.084,8.084-8.084h19.37
	c4.465,0,8.084,3.62,8.084,8.084C189.122,476.151,185.503,479.769,181.038,479.769z"/>
<path style="fill:#EACA44;" d="M165.961,0h-38.829c-6.309,0-11.421,4.699-11.421,10.493v19.045h61.671V10.493
	C177.381,4.699,172.267,0,165.961,0z"/>
<path style="fill:#ACEBE9;" d="M318.357,512c-1.963,0-3.783-1.044-4.77-2.741c-0.991-1.698-1.003-3.794-0.036-5.503
	c4.878-8.613,23.423-14.401,46.15-14.401s41.271,5.788,46.149,14.401c0.968,1.709,0.955,3.806-0.036,5.503
	c-0.988,1.697-2.807,2.741-4.771,2.741H318.357z"/>
<g>
	<path style="fill:#FFFFFF;" d="M430.17,289.923c-11.573-4.795-15.46-8.681-20.254-20.255c-4.794,11.574-8.681,15.46-20.255,20.255
		c11.574,4.793,15.46,8.68,20.255,20.254C414.711,298.603,418.597,294.716,430.17,289.923z"/>
	<circle style="fill:#FFFFFF;" cx="425.003" cy="317.074" r="8.936"/>
	<path style="fill:#FFFFFF;" d="M187.814,194.625c-5.129,12.386-9.289,16.544-21.674,21.675
		c12.385,5.129,16.545,9.289,21.674,21.674c5.13-12.386,9.29-16.545,21.675-21.674C197.104,211.169,192.945,207.01,187.814,194.625z
		"/>
	<circle style="fill:#FFFFFF;" cx="210.914" cy="244.349" r="9.563"/>
</g>
<g>
</g>
<g>
</g>
<g>
</g>
<g>
</g>
<g>
</g>
<g>
</g>
<g>
</g>
<g>
</g>
<g>
</g>
<g>
</g>
<g>
</g>
<g>
</g>
<g>
</g>
<g>
</g>
<g>
</g>
</svg>
